<svg width="56" height="57" viewBox="0 0 56 57" fill="none" xmlns="http://www.w3.org/2000/svg">
<path opacity="0.25" d="M28 51.8334C40.8866 51.8334 51.3333 41.3867 51.3333 28.5001C51.3333 15.6134 40.8866 5.16675 28 5.16675C15.1133 5.16675 4.66663 15.6134 4.66663 28.5001C4.66663 41.3867 15.1133 51.8334 28 51.8334Z" fill="white"/>
<path d="M37.4034 27.2634L30.4034 20.2634C29.7267 19.5867 28.6067 19.5867 27.93 20.2634C27.2534 20.94 27.2534 22.06 27.93 22.7367L31.9434 26.75H19.8334C18.8767 26.75 18.0834 27.5434 18.0834 28.5C18.0834 29.4567 18.8767 30.25 19.8334 30.25H31.9434L27.93 34.2634C27.2534 34.94 27.2534 36.06 27.93 36.7367C28.28 37.0867 28.7234 37.25 29.1667 37.25C29.61 37.25 30.0534 37.0867 30.4034 36.7367L37.4034 29.7367C38.08 29.06 38.08 27.94 37.4034 27.2634Z" fill="white"/>
</svg>
