<svg width="746" height="489" viewBox="0 0 746 489" fill="none" xmlns="http://www.w3.org/2000/svg">
<path d="M246.982 127.501H253.828L254.838 122.677H245.892L246.982 127.501Z" fill="#41C0E0"/>
<path d="M241.393 112.145L246.711 121.743L247.075 121.541L241.755 111.939L241.393 112.145Z" fill="#A9A9A9"/>
<path d="M246.44 111.493L248.674 121.623L249.083 121.531L246.849 111.404L246.44 111.493Z" fill="#A9A9A9"/>
<path d="M250.85 121.697L251.266 121.714L251.721 110.735L251.305 110.72L250.85 121.697Z" fill="#A9A9A9"/>
<path d="M252.587 121.71L252.989 121.831L256.399 110.605L255.997 110.484L252.587 121.71Z" fill="#A9A9A9"/>
<path d="M254.006 121.557L254.39 121.726L259.002 111.227L258.621 111.061L254.006 121.557Z" fill="#A9A9A9"/>
<path d="M234.284 103.493L245.131 121.934L245.495 121.722L234.646 103.284L234.284 103.493Z" fill="#A9A9A9"/>
<path d="M255.366 121.738L255.652 122.126L265.142 102.4L264.459 102.893L255.366 121.738Z" fill="#A9A9A9"/>
<path d="M255.658 121.429H244.842V122.741H255.658V121.429Z" fill="#FFC600"/>
<path d="M249.17 54.5022C234.246 54.5022 220.485 63.9067 222.146 78.339C223.867 93.2998 241.437 112.183 241.437 112.183L258.209 112.14C258.209 112.14 274.57 91.4649 276.194 78.339C277.812 65.2522 264.094 54.5022 249.17 54.5022Z" fill="#FFC600"/>
<path d="M222.213 78.2314C223.939 93.1926 241.504 112.078 241.504 112.078L242.69 112.063C242.124 111.453 230.115 92.9471 228.423 78.2318C226.881 64.8414 239.798 54.3672 251.834 54.7169C250.842 54.6195 250.244 54.3938 249.237 54.3938C234.312 54.3946 220.552 63.8019 222.213 78.2314Z" fill="#41C0E0"/>
<path d="M249.321 54.4866C248.39 54.4841 250.01 54.4153 249.321 54.4866V54.4866Z" fill="#FCFFFF"/>
<path d="M249.359 54.4866H249.321C249.278 54.4918 249.229 54.495 249.17 54.5023C262.875 55.8147 271.59 65.835 270.079 78.0403C268.455 91.1678 257.102 111.838 257.102 111.838H258.304C258.304 111.838 274.662 91.1683 276.285 78.0403C277.906 64.9535 264.283 54.4866 249.359 54.4866Z" fill="#41C0E0"/>
<path d="M250.926 54.6196L248.365 54.6531C243.38 57.8432 239.755 65.8578 240.361 77.3254C241.17 92.6698 248.546 112.043 248.546 112.043C248.546 112.043 251.594 112.007 251.589 111.997C251.589 111.997 257.855 90.7925 258.623 77.3254C259.224 66.7054 255.844 57.8573 250.926 54.6196Z" fill="#41C0E0"/>
<path d="M235.657 105.25C238.919 109.483 241.478 112.235 241.478 112.235L258.255 112.19C258.255 112.19 260.536 109.307 263.48 105.002C257.935 107.033 243.689 107.485 235.657 105.25Z" fill="#FFC600"/>
<path d="M229.988 53.5842C228.516 53.5817 227.073 53.9929 225.824 54.771C225.125 52.8684 223.791 51.2649 222.046 50.2312C220.3 49.1975 218.252 48.7969 216.245 49.0971C214.239 49.3973 212.397 50.3798 211.032 51.8788C209.667 53.3777 208.861 55.3014 208.751 57.325C207.86 56.6898 206.794 56.3469 205.7 56.3438C202.553 56.3438 200 59.1683 200 62.6523C200 66.1363 202.552 68.9613 205.7 68.9613C206.694 68.9594 207.666 68.6757 208.505 68.1432C210.806 69.4156 214.034 70.2075 217.609 70.2075C220.95 70.2075 223.987 69.5166 226.248 68.388C227.304 68.9571 228.476 69.2779 229.675 69.3261C230.874 69.3743 232.068 69.1484 233.166 68.6658C234.264 68.1833 235.238 67.4567 236.012 66.5414C236.787 65.6261 237.342 64.5463 237.635 63.3843C237.929 62.2222 237.953 61.0087 237.706 59.8359C237.458 58.6632 236.946 57.5623 236.209 56.6172C235.471 55.672 234.527 54.9075 233.449 54.3819C232.371 53.8563 231.187 53.5835 229.987 53.5842H229.988Z" fill="white"/>
<path d="M162.2 240.777C161.918 240.777 161.645 240.674 161.434 240.487C161.222 240.3 161.086 240.043 161.05 239.763C159.612 228.335 158.628 216.71 158.126 205.211C158.119 205.059 158.143 204.906 158.195 204.763C158.247 204.62 158.327 204.488 158.43 204.376C158.533 204.264 158.657 204.173 158.795 204.108C158.933 204.044 159.083 204.007 159.235 204.001C159.542 203.991 159.84 204.101 160.066 204.308C160.292 204.515 160.428 204.803 160.445 205.109C160.945 216.545 161.927 228.107 163.354 239.472C163.392 239.778 163.308 240.086 163.119 240.329C162.93 240.572 162.653 240.731 162.347 240.769C162.298 240.774 162.249 240.777 162.2 240.777Z" fill="white"/>
<path d="M144.062 225.531C143.756 225.535 143.461 225.419 143.24 225.207C143.02 224.995 142.892 224.705 142.884 224.399C142.877 224.093 142.991 223.797 143.201 223.574C143.411 223.352 143.7 223.221 144.006 223.211L177.828 221.546C178.133 221.536 178.429 221.646 178.653 221.852C178.878 222.059 179.012 222.345 179.027 222.649C179.042 222.954 178.937 223.252 178.734 223.479C178.531 223.707 178.247 223.845 177.943 223.865L144.12 225.53L144.062 225.531Z" fill="white"/>
<path d="M168.751 231.442C168.492 231.442 168.241 231.355 168.037 231.196L150.263 217.331C150.143 217.238 150.043 217.121 149.968 216.988C149.893 216.856 149.844 216.71 149.826 216.558C149.807 216.407 149.819 216.254 149.859 216.107C149.9 215.96 149.969 215.822 150.063 215.702C150.157 215.582 150.273 215.482 150.406 215.407C150.539 215.332 150.685 215.283 150.836 215.265C150.987 215.246 151.141 215.258 151.288 215.298C151.435 215.339 151.572 215.408 151.692 215.502L169.466 229.367C169.657 229.515 169.797 229.72 169.866 229.952C169.935 230.183 169.93 230.431 169.851 230.66C169.772 230.888 169.624 231.087 169.427 231.227C169.23 231.367 168.994 231.442 168.752 231.442H168.751Z" fill="white"/>
<path d="M154.223 232.514C154.002 232.514 153.785 232.451 153.599 232.332C153.413 232.213 153.264 232.044 153.171 231.843C153.078 231.643 153.044 231.42 153.073 231.201C153.102 230.982 153.193 230.776 153.335 230.607C158.105 224.926 162.542 218.973 166.621 212.778C166.791 212.521 167.055 212.342 167.356 212.279C167.658 212.217 167.972 212.277 168.229 212.446C168.486 212.616 168.666 212.88 168.728 213.181C168.79 213.483 168.73 213.797 168.561 214.054C164.432 220.325 159.942 226.35 155.114 232.1C155.005 232.23 154.868 232.335 154.714 232.406C154.56 232.478 154.392 232.515 154.223 232.514Z" fill="white"/>
<path d="M166.134 271.733C165.921 271.733 165.713 271.674 165.531 271.564C165.349 271.453 165.202 271.294 165.104 271.105C165.006 270.917 164.962 270.704 164.977 270.492C164.992 270.28 165.064 270.076 165.187 269.902C169.271 264.125 173.644 258.444 178.186 253.02C178.384 252.784 178.667 252.637 178.973 252.61C179.279 252.582 179.584 252.678 179.82 252.875C180.056 253.073 180.204 253.356 180.231 253.662C180.258 253.969 180.162 254.273 179.965 254.509C175.465 259.886 171.131 265.515 167.082 271.242C166.975 271.394 166.833 271.518 166.668 271.603C166.503 271.689 166.32 271.733 166.134 271.733Z" fill="white"/>
<path d="M180.236 270.568C179.965 270.568 179.704 270.474 179.496 270.302L163.493 257.056C163.256 256.86 163.107 256.577 163.078 256.27C163.049 255.964 163.143 255.658 163.34 255.421C163.536 255.184 163.819 255.034 164.125 255.006C164.432 254.977 164.738 255.071 164.975 255.267L180.977 268.513C181.161 268.666 181.293 268.871 181.356 269.101C181.419 269.332 181.409 269.576 181.328 269.801C181.247 270.025 181.099 270.219 180.903 270.357C180.708 270.494 180.475 270.568 180.236 270.568H180.236Z" fill="white"/>
<path d="M172.962 270.218C172.688 270.218 172.423 270.121 172.214 269.944C172.005 269.767 171.865 269.522 171.819 269.252L169.51 255.617C169.485 255.466 169.489 255.313 169.523 255.164C169.557 255.015 169.619 254.875 169.707 254.751C169.796 254.626 169.907 254.521 170.036 254.439C170.165 254.358 170.309 254.303 170.459 254.278C170.609 254.252 170.763 254.256 170.912 254.29C171.06 254.324 171.201 254.387 171.325 254.475C171.45 254.563 171.555 254.675 171.636 254.804C171.718 254.933 171.773 255.077 171.798 255.227L174.107 268.862C174.133 269.012 174.128 269.166 174.094 269.314C174.06 269.463 173.997 269.603 173.909 269.728C173.821 269.852 173.709 269.958 173.58 270.039C173.451 270.12 173.307 270.174 173.157 270.2C173.092 270.211 173.027 270.217 172.962 270.218Z" fill="white"/>
<path d="M165.941 264.689C165.647 264.689 165.364 264.576 165.15 264.375C164.935 264.173 164.805 263.898 164.786 263.604C164.767 263.311 164.861 263.021 165.047 262.793C165.234 262.566 165.5 262.418 165.791 262.379C170.285 261.784 174.741 260.929 179.135 259.817C179.434 259.741 179.75 259.787 180.015 259.945C180.279 260.102 180.47 260.359 180.546 260.657C180.622 260.956 180.575 261.272 180.418 261.537C180.26 261.801 180.004 261.992 179.705 262.068C175.223 263.201 170.678 264.074 166.095 264.68C166.044 264.687 165.992 264.69 165.941 264.689Z" fill="white"/>
<path d="M118.774 284.765C118.678 284.764 118.582 284.752 118.489 284.729C118.341 284.692 118.202 284.626 118.08 284.535C117.957 284.444 117.854 284.33 117.776 284.199C117.698 284.068 117.646 283.923 117.624 283.773C117.602 283.622 117.61 283.468 117.647 283.32C121.751 267.009 126.58 250.664 132 234.739C132.102 234.452 132.314 234.216 132.588 234.084C132.863 233.951 133.179 233.932 133.467 234.03C133.756 234.128 133.994 234.336 134.131 234.609C134.268 234.881 134.292 235.196 134.198 235.487C128.797 251.352 123.987 267.637 119.898 283.888C119.835 284.138 119.69 284.36 119.486 284.519C119.283 284.678 119.032 284.764 118.774 284.765Z" fill="white"/>
<path d="M149.123 270.055C148.998 270.056 148.874 270.035 148.755 269.995L101.793 254.3C101.648 254.252 101.514 254.176 101.399 254.076C101.284 253.976 101.19 253.854 101.122 253.718C101.054 253.582 101.013 253.433 101.003 253.281C100.992 253.129 101.011 252.976 101.06 252.832C101.108 252.687 101.184 252.554 101.284 252.439C101.384 252.324 101.506 252.229 101.642 252.161C101.778 252.093 101.927 252.053 102.079 252.042C102.231 252.031 102.383 252.051 102.528 252.099L149.491 267.794C149.753 267.881 149.975 268.058 150.117 268.294C150.26 268.53 150.314 268.809 150.27 269.081C150.226 269.354 150.086 269.601 149.876 269.78C149.665 269.958 149.399 270.056 149.123 270.055Z" fill="white"/>
<path d="M132.656 275.526C132.454 275.527 132.256 275.474 132.081 275.375C131.906 275.276 131.76 275.132 131.657 274.959L114.805 246.631C114.722 246.5 114.665 246.353 114.64 246.2C114.614 246.047 114.619 245.89 114.655 245.739C114.691 245.588 114.757 245.445 114.849 245.32C114.941 245.195 115.057 245.089 115.19 245.01C115.324 244.93 115.472 244.878 115.626 244.857C115.779 244.836 115.936 244.846 116.086 244.886C116.236 244.926 116.376 244.996 116.499 245.092C116.621 245.188 116.723 245.307 116.799 245.442L133.651 273.771C133.809 274.036 133.855 274.352 133.779 274.65C133.703 274.949 133.512 275.205 133.247 275.363C133.069 275.47 132.864 275.527 132.656 275.526Z" fill="white"/>
<path d="M112.3 269.272C112.042 269.272 111.792 269.187 111.588 269.029C111.384 268.871 111.239 268.65 111.175 268.4C111.111 268.15 111.132 267.887 111.235 267.65C111.337 267.414 111.515 267.218 111.742 267.094C121.277 261.879 130.501 256.114 139.368 249.829C139.492 249.739 139.633 249.675 139.782 249.64C139.931 249.604 140.086 249.599 140.237 249.624C140.389 249.649 140.534 249.703 140.664 249.785C140.794 249.866 140.906 249.972 140.995 250.097C141.084 250.222 141.147 250.364 141.181 250.514C141.215 250.663 141.218 250.818 141.192 250.969C141.165 251.12 141.109 251.265 141.026 251.394C140.944 251.523 140.836 251.635 140.71 251.722C131.77 258.06 122.468 263.874 112.853 269.132C112.683 269.225 112.493 269.273 112.3 269.272Z" fill="white"/>
<path fill-rule="evenodd" clip-rule="evenodd" d="M128.542 424.049C110.912 424.535 98.4207 425.695 81.0443 428.459C66.7517 430.733 57.2794 432.581 41.1062 436.249C31.5959 438.407 27.8711 439.404 20.306 441.819C14.3478 443.722 10.6244 444.836 7.09811 445.772C1.84991 447.165 0 447.811 0 448.251C0 448.445 0.174847 448.493 0.325165 448.339C0.455537 448.206 1.16939 448.005 5.55369 446.868C9.22404 445.917 11.9339 445.151 17.3859 443.526C29.617 439.88 30.7497 439.604 49.717 435.639C76.6099 430.016 98.4492 427.031 119.41 426.113C139.315 425.242 155.705 425.598 159.91 426.994C160.605 427.225 160.608 427.205 159.816 427.578C157.975 428.446 153.847 429.447 145.691 431.005C136.377 432.784 131.323 433.61 116.176 435.828C104.641 437.518 104.364 437.564 89.1308 440.32C73.1744 443.208 66.1477 444.595 56.6052 446.738C53.2354 447.495 52.9518 447.552 48.8042 448.3C40.5513 449.789 33.4643 451.408 26.5056 453.396C24.2401 454.043 23.8314 454.334 24.4237 454.881C24.9005 455.321 28.8581 454.565 38.6802 452.157C50.8026 449.185 52.5093 448.823 59.4804 447.751C69.4745 446.214 77.8052 445.218 84.773 444.726C91.7546 444.234 103.429 443.606 109.751 443.384C113.282 443.26 126.958 443.162 127.64 443.256L128.17 443.329L127.676 443.451C126.816 443.663 111.562 446.683 104.854 447.968C102.754 448.371 99.7218 448.931 98.1157 449.214C92.88 450.135 81.6474 452.293 79.6667 452.758C78.4296 453.049 77.9959 453.64 78.5813 454.237C78.9802 454.644 81.6564 454.679 87.4685 454.354C88.8522 454.276 91.3995 454.149 93.1291 454.071C94.8587 453.992 97.4437 453.826 98.8737 453.701C100.304 453.577 102.447 453.43 103.636 453.376C104.825 453.322 106.323 453.246 106.966 453.206L108.134 453.135L107.101 453.12C105.748 453.102 102.565 452.954 99.8678 452.785C96.7043 452.587 89.7756 452.632 86.5704 452.871C86.2081 452.898 86.0807 452.883 86.1814 452.826C86.3778 452.714 94.5425 451.155 98.3853 450.496C109.998 448.505 129.851 444.546 130.846 444.023C131.729 443.559 131.662 442.747 130.708 442.34C128.999 441.611 113.23 441.747 99.104 442.612C97.8933 442.686 95.0631 442.851 92.8146 442.979C84.3586 443.46 76.0484 444.153 72.9129 444.64C72.7152 444.67 72.5767 444.67 72.6051 444.64C72.7193 444.517 94.5999 440.559 103.088 439.126C105.007 438.802 110.566 437.957 115.442 437.248C132.388 434.786 136.301 434.15 146.545 432.196C159.194 429.783 162.63 428.576 161.909 426.8C161.309 425.32 157.868 424.646 148.297 424.134C146.007 424.011 132.076 423.951 128.542 424.049Z" fill="white"/>
<g clip-path="url(#clip0_2616_927)">
<path d="M551.508 358.521L576.05 391.987C581.027 398.852 588.75 403.486 597.159 404.516C597.331 404.516 597.503 404.516 597.674 404.516C608.658 405.889 617.926 402.971 624.619 394.047L665.465 338.784C665.465 338.784 653.623 324.196 637.319 322.137L607.628 359.551L581.542 326.942L551.508 358.521Z" fill="#FECFA8"/>
<path d="M633.715 330.374C633.715 330.374 631.312 317.502 641.266 310.123L699.103 309.093C704.767 308.921 708.886 314.928 706.312 320.077C706.312 320.248 706.14 320.248 706.14 320.42C705.453 321.793 704.252 322.823 702.879 323.509C697.559 326.255 680.225 335.008 662.719 340.843L633.715 330.374Z" fill="#F0BCA3"/>
<path d="M699.275 309.265C704.939 309.265 708.886 315.272 706.312 320.249C706.312 320.42 706.14 320.42 706.14 320.592C705.454 321.965 704.252 322.995 702.879 323.681C697.559 326.427 681.083 334.665 664.264 340.5L624.619 394.047C618.956 401.598 611.404 404.687 602.651 404.687C601.107 404.687 599.39 404.516 597.846 404.344C597.674 404.344 597.503 404.344 597.331 404.344C588.921 403.314 581.198 398.68 576.221 391.815L551.679 358.349L581.713 326.942L607.8 359.55L633.887 326.77C633.715 322.48 635.26 314.928 641.61 310.123L699.275 309.265C699.104 309.265 699.104 309.265 699.275 309.265ZM699.275 306.519H699.104L641.267 307.549H640.408L639.722 308.063C633.2 312.869 630.969 320.249 630.798 326.084L607.457 355.26L583.601 325.397L581.713 322.995L579.482 325.226L549.448 356.633L547.904 358.349L549.277 360.237L573.819 393.703C579.311 401.255 587.72 406.232 596.816 407.433H597.331C599.047 407.605 600.935 407.776 602.48 407.776C612.605 407.776 620.843 403.829 626.679 395.934L665.809 342.903C682.799 336.896 699.275 328.658 704.081 326.255C705.968 325.226 707.513 323.853 708.371 321.965C708.371 321.793 708.543 321.622 708.543 321.45C710.087 318.361 709.916 314.585 708.028 311.496C706.312 308.407 702.879 306.519 699.275 306.519Z" fill="#3B1010"/>
<path d="M607.457 359.722L614.15 367.96C614.665 368.475 615.523 368.646 616.038 368.131C616.724 367.616 616.724 366.758 616.21 366.072L609.001 357.491L607.457 359.722Z" fill="#3B1010"/>
<path d="M687.948 316.816C687.09 318.704 685.374 320.077 683.314 320.592L666.495 325.397C666.323 325.397 666.152 325.397 665.98 325.397C665.294 325.397 664.607 324.883 664.436 324.196C664.264 323.338 664.607 322.48 665.465 322.308L682.284 317.503C683.486 317.16 684.344 316.301 684.859 315.272C685.374 314.242 685.374 313.041 685.03 312.011C684.516 310.638 683.486 309.608 683.314 309.265H687.261C687.605 309.78 687.776 310.295 688.12 310.81C688.978 312.869 688.806 314.928 687.948 316.816Z" fill="#D1826B"/>
<path d="M664.092 340.5C664.092 340.5 657.227 342.388 647.788 341.187C646.93 341.015 646.244 341.702 646.244 342.56C646.244 343.246 646.758 343.933 647.445 343.933C649.848 344.104 655.683 344.448 661.861 343.418L664.092 340.5Z" fill="#D1826B"/>
<path d="M602.308 353.2C596.988 360.752 586.519 373.109 569.356 382.891L551.508 358.521L581.542 327.114L602.308 353.2Z" fill="#E29781"/>
<path d="M672.159 320.249C711.589 320.249 743.554 313.871 743.554 306.004C743.554 298.137 711.589 291.76 672.159 291.76C632.728 291.76 600.764 298.137 600.764 306.004C600.764 313.871 632.728 320.249 672.159 320.249Z" fill="white"/>
<path d="M672.159 315.615C707.324 315.615 735.831 309.622 735.831 302.228C735.831 294.835 707.324 288.842 672.159 288.842C636.994 288.842 608.487 294.835 608.487 302.228C608.487 309.622 636.994 315.615 672.159 315.615Z" fill="#D6C8C8"/>
<path d="M672.159 291.76C711.632 291.76 743.554 298.11 743.554 306.004C743.554 313.899 711.632 320.249 672.159 320.249C632.685 320.249 600.764 313.899 600.764 306.004C600.592 298.11 632.685 291.76 672.159 291.76ZM672.159 289.014C652.937 289.014 634.745 290.558 621.187 293.304C605.569 296.393 598.018 300.512 598.018 306.004C598.018 311.496 605.569 315.615 621.187 318.704C634.917 321.45 652.937 322.995 672.159 322.995C691.381 322.995 709.573 321.45 723.131 318.704C738.749 315.615 746.3 311.496 746.3 306.004C746.3 300.512 738.749 296.393 723.131 293.304C709.401 290.558 691.381 289.014 672.159 289.014Z" fill="#3B1010"/>
<path d="M722.959 255.719H621.187L615.695 298.453C615.695 304.459 640.923 309.265 672.159 309.265C703.394 309.265 728.623 304.459 728.623 298.453L722.959 255.719Z" fill="#D0A8A1"/>
<path d="M726.907 286.439C723.817 286.782 720.385 286.096 717.811 284.38C716.781 283.693 715.751 282.835 714.893 281.805C713.52 280.089 712.662 278.201 711.461 276.485C710.259 274.769 708.371 273.396 706.312 273.224C703.223 273.224 700.992 275.97 699.962 278.888C698.932 281.805 698.589 284.894 697.044 287.469C695.328 290.386 691.896 292.103 688.463 292.103C685.031 291.931 681.77 290.043 680.225 286.954C678.681 284.208 678.337 280.604 675.763 278.888C673.532 277.515 670.614 278.373 668.726 280.089C666.839 281.805 665.637 284.208 664.608 286.439C663.578 288.842 662.548 291.244 660.66 292.961C656.713 296.565 649.676 295.707 646.759 291.244C644.699 288.155 644.699 284.036 643.669 280.432C642.64 276.828 639.379 273.052 635.775 274.082C631.999 274.94 630.969 279.746 628.223 282.32C625.992 284.551 622.217 285.238 619.299 283.865C618.784 283.693 618.269 283.35 617.926 283.007L621.53 255.547H723.303L725.705 274.769L726.907 286.439Z" fill="#F7E7E7"/>
<path d="M728.451 298.453C728.451 304.459 703.223 309.265 671.987 309.265C640.752 309.265 615.523 304.459 615.523 298.453L616.725 288.67C628.395 296.565 645.386 301.542 664.436 301.542C692.925 301.542 716.952 290.386 725.362 274.94L728.451 298.453Z" fill="#C06456"/>
<path d="M722.959 255.718L725.362 274.94L726.907 286.439C726.392 286.439 725.705 286.611 725.19 286.611C722.616 286.611 720.042 285.924 717.811 284.379C716.781 283.693 715.751 282.835 714.893 281.805C713.52 280.089 712.662 278.201 711.461 276.485C710.259 274.769 708.371 273.396 706.312 273.224C706.312 273.224 706.312 273.224 706.14 273.224C703.223 273.224 700.82 276.142 699.962 278.888C698.932 281.805 698.589 284.894 697.044 287.469C695.328 290.215 692.067 292.102 688.806 292.102C688.635 292.102 688.635 292.102 688.463 292.102C685.031 291.931 681.77 290.043 680.225 286.954C678.681 284.208 678.337 280.604 675.763 278.888C675.077 278.373 674.218 278.201 673.36 278.201C671.644 278.201 670.099 278.888 668.726 280.089C666.839 281.805 665.637 284.208 664.607 286.439C663.578 288.842 662.548 291.244 660.66 292.961C658.944 294.505 656.884 295.192 654.653 295.192C651.564 295.192 648.475 293.819 646.759 291.244C644.699 288.155 644.699 284.036 643.669 280.432C642.811 277.171 640.065 273.91 636.805 273.91C636.461 273.91 636.118 273.91 635.603 274.082C631.827 274.94 630.798 279.746 628.052 282.32C626.507 283.865 624.448 284.551 622.388 284.551C621.358 284.551 620.157 284.379 619.127 283.865C618.613 283.693 618.098 283.35 617.754 283.006L621.358 255.547H722.959M725.362 252.972H722.959H621.187H618.784L618.441 255.375L614.837 282.835L614.665 284.379L615.867 285.409C616.553 285.924 617.239 286.267 617.926 286.611C619.299 287.125 620.672 287.469 622.217 287.469C625.134 287.469 627.88 286.439 629.94 284.379C631.141 283.178 632.171 281.633 632.857 280.432C634.059 278.373 634.917 277.171 636.118 276.828C636.29 276.828 636.461 276.828 636.633 276.828C638.178 276.828 640.065 278.888 640.752 281.462C641.095 282.492 641.267 283.693 641.61 284.894C642.125 287.64 642.64 290.386 644.356 292.961C646.415 296.05 650.363 298.109 654.482 298.109C657.571 298.109 660.317 297.08 662.376 295.192C664.779 292.961 665.98 290.215 667.01 287.812C667.868 285.752 668.898 283.693 670.443 282.32C671.301 281.633 672.331 281.119 673.189 281.119C673.532 281.119 674.047 281.29 674.218 281.462C675.248 281.977 675.763 283.521 676.278 285.238C676.621 286.267 677.136 287.297 677.651 288.498C679.71 292.274 683.829 294.848 688.291 295.02C688.463 295.02 688.463 295.02 688.635 295.02C692.925 295.02 697.044 292.789 699.275 289.185C700.477 287.125 700.992 285.066 701.678 283.006C702.021 281.977 702.193 280.947 702.536 280.089C703.223 278.201 704.767 276.313 706.14 276.313C707.17 276.313 708.371 277.171 709.229 278.373C709.744 279.059 710.259 279.917 710.774 280.775C711.289 281.805 711.975 282.835 712.834 283.865C713.863 285.066 715.065 286.267 716.438 287.125C719.012 288.842 722.101 289.7 725.362 289.7C726.049 289.7 726.735 289.7 727.422 289.528L730.167 289.185L729.824 286.439L728.28 274.94L725.877 255.718L725.362 252.972Z" fill="#3B1010"/>
<path d="M672.159 268.418C699.457 268.418 721.586 263.501 721.586 257.435C721.586 251.368 699.457 246.451 672.159 246.451C644.861 246.451 622.731 251.368 622.731 257.435C622.731 263.501 644.861 268.418 672.159 268.418Z" fill="#3B1010"/>
<path d="M672.159 265.501C700.31 265.501 723.131 261.121 723.131 255.719C723.131 250.316 700.31 245.936 672.159 245.936C644.008 245.936 621.187 250.316 621.187 255.719C621.187 261.121 644.008 265.501 672.159 265.501Z" fill="#F7E7E7"/>
<path d="M672.159 245.936C700.305 245.936 723.131 250.398 723.131 255.718L728.623 298.453C728.623 304.459 703.394 309.265 672.159 309.265C640.923 309.265 615.695 304.459 615.695 298.453L621.187 255.718C621.187 250.226 644.013 245.936 672.159 245.936ZM672.159 243.19C666.667 243.19 619.127 243.533 618.441 255.547L612.949 298.109V298.281V298.453C612.949 303.086 618.956 306.347 631.656 308.922C642.468 310.981 656.884 312.182 672.159 312.182C687.433 312.182 701.678 310.981 712.662 308.922C725.534 306.519 731.369 303.086 731.369 298.453V298.281V298.109L725.877 255.547C725.19 243.533 677.479 243.19 672.159 243.19Z" fill="#3B1010"/>
<path d="M662.891 263.785C685.924 263.785 704.596 260.174 704.596 255.719C704.596 251.264 685.924 247.652 662.891 247.652C639.858 247.652 621.187 251.264 621.187 255.719C621.187 260.174 639.858 263.785 662.891 263.785Z" fill="white"/>
<path d="M726.907 286.439C723.817 286.782 720.385 286.096 717.811 284.379C721.071 281.462 723.646 278.373 725.362 274.94L726.907 286.439Z" fill="#E3C5C5"/>
<path d="M319.988 339.813L342.642 406.232C345.045 413.783 351.052 419.79 358.603 422.021C358.775 422.021 358.947 422.021 358.947 422.193C369.416 425.11 380.399 420.133 385.72 410.694L423.477 348.395C423.477 348.395 414.724 331.747 385.548 322.823L365.983 365.042L353.283 324.711C353.626 324.539 338.523 326.255 319.988 339.813Z" fill="#FECFA8"/>
<path d="M423.82 348.223L400.651 386.495C384.518 378.6 377.31 371.221 369.072 359.035L385.891 322.651C414.896 331.576 423.82 348.223 423.82 348.223Z" fill="#E29781"/>
<path d="M307.288 332.605L321.704 344.962L346.075 337.411C346.075 337.411 350.194 336.038 354.313 331.576C360.32 325.054 362.036 315.615 359.633 307.034C358.775 304.288 357.574 301.37 355.686 298.452C355.514 297.938 351.567 291.073 339.21 279.231L338.867 278.887V279.059V302.571V309.093C338.695 309.265 314.84 314.07 307.288 332.605Z" fill="#F0BCA3"/>
<path d="M338.867 279.059L339.21 279.402C351.567 291.244 355.343 298.109 355.686 298.624C357.574 301.37 358.775 304.459 359.633 307.205C361.864 315.272 360.491 323.853 355.514 330.374L366.498 365.042L385.72 322.651C414.896 331.576 423.649 348.223 423.649 348.223L385.891 410.522C381.601 418.245 373.535 422.879 365.125 422.879C363.066 422.879 361.178 422.536 359.118 422.021C358.947 422.021 358.775 422.021 358.775 421.849C351.224 419.618 345.217 413.612 342.814 406.06L321.704 344.962L307.288 332.605C314.839 314.242 338.867 309.436 338.867 309.436V302.915V279.402C338.867 279.231 338.867 279.059 338.867 279.059ZM336.464 273.224L336.121 278.887C336.121 279.059 336.121 279.231 336.121 279.402V302.743V307.205C329.771 308.921 311.579 315.272 304.714 331.576L304.027 333.464L305.572 334.837L319.473 346.679L340.411 407.262C343.157 415.843 349.851 422.364 358.26 424.767L358.775 424.939C361.006 425.454 363.237 425.797 365.468 425.797C375.079 425.797 383.832 420.477 388.637 412.067L426.395 349.768L427.253 348.395L426.566 347.022C426.223 346.335 416.955 329.345 386.921 320.077L384.69 319.391L383.66 321.622L367.185 357.491L358.775 330.889C363.58 324.024 364.953 315.1 362.551 306.519C361.521 303.086 360.148 299.997 358.26 297.251C357.574 296.05 353.455 289.013 341.441 277.514L341.098 277.171L336.464 273.224Z" fill="#3B1010"/>
<path d="M355.343 330.203C355.343 330.203 351.224 335.18 346.59 337.926C345.903 338.441 345.56 339.299 346.075 340.157C346.59 340.843 347.448 341.015 348.134 340.5C350.194 339.299 353.626 336.896 356.372 333.292L355.343 330.203Z" fill="#E29781"/>
<path d="M366.326 365.042L371.303 381.175C371.475 381.861 372.333 382.376 373.191 382.033C373.878 381.689 374.221 381.003 374.049 380.316L367.528 360.237L366.326 365.042Z" fill="#3B1010"/>
<path d="M564.894 24.5418C550.478 13.9012 532.801 19.908 532.801 19.908C530.398 13.2147 526.108 9.09572 521.817 6.52137C515.124 2.74566 507.229 1.88755 499.849 3.7754C486.291 7.20786 483.717 17.5052 483.717 17.5052C483.717 17.5052 480.971 7.20786 467.584 3.7754C460.204 1.88755 452.138 2.74566 445.616 6.52137C441.326 9.09572 436.864 13.2147 434.632 19.908C434.632 19.908 417.127 13.9012 402.539 24.5418C393.786 31.0635 390.354 42.5622 394.988 52.3447C397.733 58.3515 403.569 64.0151 415.754 65.2165H483.717H551.679C563.693 64.0151 569.7 58.3515 572.617 52.3447C577.08 42.5622 573.647 30.8919 564.894 24.5418Z" fill="white"/>
<path d="M550.478 56.1206H416.784V101.257H550.478V56.1206Z" fill="white"/>
<path d="M434.289 19.9081C434.289 19.9081 443.385 21.796 447.161 29.0042C447.504 29.519 448.019 29.6907 448.534 29.519H448.706C449.22 29.3474 449.392 28.6609 449.22 28.146C448.191 25.9149 444.587 20.0798 435.319 17.8487C435.147 17.677 434.461 19.05 434.289 19.9081Z" fill="#EDDFD1"/>
<path d="M532.972 19.9081C532.972 19.9081 523.876 21.796 520.101 29.0042C519.758 29.519 519.243 29.6907 518.728 29.519H518.556C518.041 29.3474 517.87 28.6609 518.041 28.146C519.071 25.9149 522.675 20.0798 531.943 17.8487C532.114 17.677 532.801 19.05 532.972 19.9081Z" fill="#EDDFD1"/>
<path d="M507.572 2.74597C512.549 2.74597 517.526 3.94733 521.817 6.52168C526.108 9.09602 530.57 13.215 532.801 19.9083C532.801 19.9083 537.778 18.192 544.471 18.192C550.478 18.192 558.029 19.565 564.723 24.5421C573.476 31.0638 576.908 42.5625 572.274 52.345C569.357 58.3519 563.521 64.0154 551.336 65.2168H550.306V101.258H416.784V65.2168H415.754C403.74 64.0154 397.733 58.3519 394.816 52.345C390.182 42.5625 393.615 30.8922 402.367 24.5421C409.232 19.565 416.612 18.192 422.619 18.192C429.484 18.192 434.289 19.9083 434.289 19.9083C436.692 13.215 440.983 9.09602 445.273 6.52168C449.564 3.94733 454.541 2.74597 459.518 2.74597C462.092 2.74597 464.666 3.08922 467.241 3.77571C480.799 7.20817 483.373 17.5056 483.373 17.5056C483.373 17.5056 486.119 7.20817 499.506 3.77571C502.424 3.08922 504.998 2.74597 507.572 2.74597ZM507.572 0C504.826 0 501.909 0.343246 499.163 1.02974C490.753 3.08922 486.119 7.72304 483.545 11.3271C480.971 7.72304 476.337 3.08922 467.927 1.02974C465.353 0.343246 462.435 0 459.689 0C454.026 0 448.706 1.37298 444.072 4.11895C438.923 7.20817 435.147 11.3271 432.745 16.4758C430.514 15.9609 426.909 15.4461 422.619 15.4461C414.209 15.4461 406.83 17.8488 400.651 22.311C390.697 29.6908 387.093 42.9058 392.242 53.5464C394.816 59.0383 400.823 66.0749 413.866 67.7911V101.258V104.004H416.612H550.306H553.052V101.258V67.7911C566.267 66.0749 572.103 59.0383 574.677 53.5464C579.826 42.7342 576.222 29.6908 566.267 22.311C560.089 17.6772 552.709 15.4461 544.3 15.4461C540.009 15.4461 536.405 16.1326 534.174 16.6474C531.771 11.3271 527.995 7.20817 522.847 4.29058C518.556 1.37298 513.236 0 507.572 0Z" fill="#3B1010"/>
<path d="M510.833 49.2556C510.49 49.2556 510.147 49.084 509.975 48.9123C503.968 43.4204 494.186 40.1596 483.717 40.1596C473.248 40.1596 463.465 43.4204 457.458 48.9123C456.943 49.4272 456.085 49.4272 455.57 48.9123C455.056 48.3975 455.056 47.5393 455.57 47.0245C462.092 41.0177 472.561 37.5852 483.545 37.5852C494.529 37.5852 504.998 41.1893 511.52 47.0245C512.034 47.5393 512.034 48.3975 511.52 48.9123C511.52 49.084 511.176 49.2556 510.833 49.2556Z" fill="#EDDFD1"/>
<path d="M483.717 71.3953C476.852 71.3953 470.158 69.8507 463.98 66.7615C461.234 65.3885 459.518 64.1872 458.488 63.3291C448.362 68.1345 437.55 67.7913 437.035 67.7913C436.349 67.7913 435.662 67.1048 435.662 66.4183C435.662 65.7318 436.349 65.0453 437.035 65.0453C437.207 65.0453 448.362 65.2169 457.973 60.4115C458.488 60.0682 459.175 60.2398 459.518 60.5831C459.518 60.5831 461.234 62.1277 465.01 64.1872C476.68 70.0224 490.41 70.0224 502.08 64.1872C505.856 62.2993 507.572 60.7547 507.572 60.5831C507.916 60.2398 508.602 60.0682 509.117 60.4115C518.728 65.2169 530.055 65.0453 530.055 65.0453C530.741 65.0453 531.428 65.5602 531.428 66.4183C531.428 67.1048 530.913 67.7913 530.055 67.7913C529.54 67.7913 518.728 67.9629 508.602 63.3291C507.744 64.0156 505.856 65.2169 503.11 66.7615C497.275 69.8507 490.41 71.3953 483.717 71.3953Z" fill="#EDDFD1"/>
<path d="M615.008 230.49C612.949 227.229 611.233 223.625 609.688 220.193C605.912 211.44 603.338 202.001 601.793 192.561C596.301 157.035 590.123 138.672 590.123 138.672C602.48 121.166 585.146 102.459 570.386 90.6172C557.343 80.3198 541.554 73.9697 524.906 73.4549C495.215 72.5967 483.373 90.1023 483.373 90.1023C483.373 90.1023 471.531 72.5967 441.841 73.4549C425.193 73.9697 409.404 80.3198 396.36 90.6172C381.601 102.288 364.267 121.166 376.624 138.672C376.624 138.672 370.445 157.035 364.953 192.561C363.58 202.001 361.006 211.44 357.059 220.193C355.514 223.625 353.798 227.229 351.738 230.49C346.761 238.556 348.649 249.369 356.029 255.375C362.551 260.696 371.99 265.501 385.377 266.702C386.063 271.165 388.809 275.112 392.928 277C402.196 281.634 420.903 287.812 448.705 282.492C448.705 282.492 456.257 290.901 483.202 293.304C510.147 290.901 517.698 282.492 517.698 282.492C545.501 287.984 564.208 281.634 573.475 277C577.594 274.94 580.34 271.165 581.027 266.702C594.413 265.501 604.024 260.696 610.374 255.375C618.269 249.369 619.985 238.728 615.008 230.49Z" fill="#732204"/>
<path d="M522.847 73.2833C523.533 73.2833 524.391 73.2833 525.078 73.2833C541.725 73.7982 557.515 80.1483 570.558 90.4456C585.318 102.116 602.651 120.995 590.295 138.5C590.295 138.5 596.473 156.864 601.965 192.39C603.338 201.829 605.912 211.268 609.86 220.021C611.404 223.454 613.12 227.058 615.18 230.318C620.157 238.385 618.269 249.197 610.889 255.204C604.368 260.524 594.928 265.33 581.542 266.531C580.855 270.993 578.109 274.94 573.99 276.828C567.297 280.089 555.627 284.38 539.151 284.38C532.801 284.38 525.936 283.693 518.213 282.32C518.213 282.32 510.661 290.73 483.717 293.133C456.772 290.73 449.22 282.32 449.22 282.32C441.497 283.865 434.632 284.38 428.282 284.38C411.807 284.38 400.136 280.089 393.443 276.828C389.324 274.769 386.578 270.993 385.891 266.531C372.505 265.33 362.894 260.524 356.544 255.204C349.164 249.197 347.276 238.556 352.253 230.318C354.313 227.058 356.029 223.454 357.574 220.021C361.349 211.268 363.924 201.829 365.468 192.39C370.96 156.864 377.139 138.5 377.139 138.5C364.782 120.995 382.116 102.288 396.875 90.4456C409.919 80.1483 425.708 73.7982 442.355 73.2833C443.214 73.2833 443.9 73.2833 444.587 73.2833C472.733 73.2833 483.888 89.9308 483.888 89.9308C483.888 89.9308 494.872 73.2833 522.847 73.2833ZM522.847 70.5374C500.536 70.5374 488.179 80.6631 483.545 85.6402C478.911 80.6631 466.726 70.5374 444.243 70.5374C443.385 70.5374 442.699 70.5374 441.841 70.5374C425.193 71.0522 408.889 77.2307 394.987 88.3862C371.99 106.578 364.61 124.427 373.878 139.015C372.333 143.82 367.185 161.669 362.551 192.218C361.006 201.829 358.432 210.925 354.828 219.163C353.283 222.939 351.567 226.2 349.679 229.117C344.015 238.385 346.075 250.57 354.484 257.607C362.379 264.128 372.162 268.076 383.317 269.449C384.518 273.911 387.608 277.686 391.898 279.746C399.106 283.35 411.12 287.641 427.939 287.641C434.461 287.641 441.154 286.954 448.019 285.753C451.108 288.327 460.891 294.506 483.202 296.393H483.373H483.545C505.856 294.506 515.467 288.327 518.728 285.753C525.593 286.954 532.286 287.641 538.808 287.641C555.627 287.641 567.64 283.35 574.849 279.746C578.967 277.686 582.057 273.911 583.43 269.449C594.585 268.076 604.368 264.128 612.262 257.607C620.672 250.742 622.731 238.556 617.068 229.117C615.352 226.2 613.635 222.939 611.919 219.163C608.315 210.753 605.741 201.829 604.196 192.218C599.562 161.669 594.414 143.82 592.869 139.015C602.137 124.427 594.757 106.578 571.931 88.3862C558.029 77.2307 541.725 71.0522 524.906 70.5374C524.563 70.5374 523.705 70.5374 522.847 70.5374Z" fill="#3B1010"/>
<path d="M616.896 526.54L549.62 391.129H483.717H417.642L350.365 526.54C350.365 526.54 368.901 549.022 414.896 558.461L413.523 563.61C413.523 563.61 440.639 585.235 483.545 576.31C526.451 585.235 553.567 563.61 553.567 563.61L552.194 558.461C598.361 549.022 616.896 526.54 616.896 526.54Z" fill="white"/>
<path d="M505.856 276.141L558.544 292.789L560.604 293.304C565.409 294.505 569.528 297.594 572.274 301.713L599.562 342.731C599.562 342.731 588.578 364.699 560.947 378.429L551.851 367.102L549.62 391.129L616.896 526.54C616.896 526.54 598.361 549.022 552.366 558.461L553.739 563.61C553.739 563.61 535.032 578.541 504.14 578.541C497.79 578.541 490.925 577.855 483.717 576.482C476.337 578.026 469.644 578.541 463.293 578.541C432.401 578.541 413.694 563.61 413.694 563.61L415.067 558.461C368.901 549.022 350.365 526.54 350.365 526.54L417.642 391.129L415.925 372.422L409.404 382.548C380.228 371.392 367.528 342.56 367.528 342.56L393.614 303.258C397.047 297.938 402.367 294.162 408.546 292.617L461.234 275.97H483.373H505.856M506.199 273.396H505.856H483.717H461.577H461.234L460.891 273.567L408.374 290.215H408.202C401.509 291.931 395.502 296.221 391.727 301.885L365.64 341.187L364.782 342.388L365.468 343.761C365.983 344.962 378.855 373.795 408.889 385.122L410.948 385.98L412.15 384.092L414.381 380.66L415.239 390.614L348.306 525.338L347.448 526.883L348.649 528.256C349.336 529.114 367.528 550.738 411.978 560.521L411.292 562.752L410.777 564.468L412.15 565.67C413.008 566.356 431.886 581.116 463.465 581.116C470.158 581.116 477.023 580.429 483.888 579.056C490.753 580.429 497.618 581.116 504.311 581.116C535.89 581.116 554.769 566.185 555.627 565.67L557 564.468L556.485 562.752L555.798 560.521C600.249 550.738 618.269 529.114 619.127 528.256L620.329 526.883L619.471 525.338L552.537 390.614L554.082 374.138L558.888 380.145L560.261 381.861L562.32 380.832C590.466 366.758 601.793 344.791 602.308 343.933L602.995 342.56L602.137 341.187L574.848 300.169C571.759 295.535 566.954 292.102 561.462 290.729L559.574 290.215L506.886 273.567L506.199 273.396Z" fill="#3B1010"/>
<path d="M599.391 491.185C590.981 505.945 560.947 546.276 483.717 546.276C406.486 546.276 376.452 505.945 368.043 491.185L417.813 391.129H549.791L599.391 491.185Z" fill="#F7E7E7"/>
<path d="M505.856 276.142H483.717H461.577L408.717 292.961L417.642 391.301C417.642 391.301 441.497 404.001 483.545 404.001C525.764 404.001 549.448 391.301 549.448 391.301L558.373 292.961L505.856 276.142Z" fill="white"/>
<path d="M595.443 483.291L549.62 391.129L538.808 367.445L543.956 321.45C520.101 313.384 483.717 313.041 483.717 313.041C483.717 313.041 447.161 313.384 423.477 321.45L428.626 367.445L417.813 391.129L371.99 483.291C371.99 483.291 394.987 539.24 483.717 539.24C572.446 539.24 595.443 483.291 595.443 483.291Z" fill="#4F5D69"/>
<path d="M543.098 321.278L540.867 346.335C540.009 346.678 539.151 347.022 538.121 347.022C537.778 347.022 537.435 347.022 537.091 347.022L522.332 344.79C518.728 344.276 516.325 340.843 516.84 337.411L519.757 316.129C527.652 316.988 535.89 318.875 543.098 321.278Z" fill="#2C395E"/>
<path d="M445.101 344.619L430.342 346.85C429.999 346.85 429.655 346.85 429.312 346.85C428.282 346.85 427.424 346.678 426.566 346.163L424.163 321.278C431.372 318.875 439.61 317.159 447.676 315.786L450.593 337.067C451.108 340.671 448.534 344.104 445.101 344.619Z" fill="#2C395E"/>
<path d="M548.075 289.528L541.382 340.672C541.21 342.56 539.323 343.933 537.435 343.589L522.675 341.358C520.787 341.015 519.414 339.299 519.757 337.411L527.481 282.835L548.075 289.528Z" fill="#394550"/>
<path d="M419.186 289.528L425.88 340.672C426.051 342.56 427.939 343.933 429.827 343.589L444.587 341.358C446.474 341.015 447.847 339.299 447.504 337.411L439.781 282.835L419.186 289.528Z" fill="#394550"/>
<path d="M527.923 282.604L548.689 289.126L541.653 343.702L539.593 366.871L550.406 390.555L596.229 482.717C596.229 482.717 573.231 538.666 484.502 538.666C395.602 538.666 372.776 482.717 372.776 482.717L418.599 390.555L429.411 366.871L427.352 343.702L420.315 289.126L441.082 282.604L445.716 315.899C465.452 312.638 484.846 312.467 484.846 312.467C484.846 312.467 504.239 312.638 523.976 315.899L527.923 282.604ZM525.52 279L525.005 282.261L520.715 312.81C502.008 309.892 484.159 309.721 483.987 309.721C483.816 309.721 465.967 309.892 447.26 312.81L442.97 282.261L442.455 279L439.365 280.03L418.599 286.551L416.368 287.238L416.711 289.469L423.748 344.045L425.807 366.528L415.338 389.525L369.515 481.687L369 482.717L369.515 483.918C369.686 484.433 375.693 498.678 392.856 512.922C408.645 525.966 437.134 541.583 483.816 541.583C530.497 541.583 558.987 525.966 574.776 512.922C591.938 498.678 597.945 484.433 598.117 483.918L598.632 482.717L598.117 481.687L552.293 389.525L541.824 366.528L543.884 344.045L550.921 289.469L551.264 287.238L549.033 286.551L528.266 280.03L525.52 279Z" fill="#3B1010"/>
<path opacity="0.15" d="M516.668 321.107C516.668 321.107 504.311 318.017 483.717 318.017C463.122 318.017 450.765 321.107 450.765 321.107" stroke="white" stroke-width="1.2965" stroke-miterlimit="10" stroke-linecap="round" stroke-linejoin="round" stroke-dasharray="0.86 0.86"/>
<path opacity="0.15" d="M588.75 483.119C588.75 483.119 566.954 533.061 483.545 533.061C400.308 533.061 378.34 483.119 378.34 483.119" stroke="white" stroke-width="1.2965" stroke-miterlimit="10" stroke-linecap="round" stroke-linejoin="round" stroke-dasharray="0.86 0.86"/>
<path d="M505.341 332.606C507.229 332.606 508.774 334.15 508.774 336.038V358.349C508.774 360.237 507.229 361.782 505.341 361.782H461.92C460.033 361.782 458.488 360.237 458.488 358.349V336.038C458.488 334.15 460.033 332.606 461.92 332.606H505.341ZM505.341 330.203H461.92C458.66 330.203 456.085 332.777 456.085 336.038V358.349C456.085 361.61 458.66 364.184 461.92 364.184H505.341C508.602 364.184 511.176 361.61 511.176 358.349V336.038C511.176 332.777 508.602 330.203 505.341 330.203Z" fill="#2C395E"/>
<path d="M442.699 336.381L437.893 332.949L441.326 328.143C441.669 327.628 441.669 326.77 440.982 326.255C440.468 325.912 439.609 325.912 439.095 326.599L435.662 331.404L430.857 327.972C430.342 327.628 429.484 327.628 428.969 328.315C428.626 328.83 428.626 329.688 429.312 330.203L434.118 333.635L430.685 338.441C430.342 338.956 430.342 339.814 431.028 340.329C431.543 340.672 432.401 340.672 432.916 339.985L436.349 335.18L441.154 338.612C441.669 338.956 442.527 338.956 443.042 338.269C443.385 337.583 443.214 336.896 442.699 336.381Z" fill="white"/>
<path d="M524.563 336.381L529.368 332.949L525.936 328.143C525.593 327.628 525.593 326.77 526.279 326.255C526.794 325.912 527.652 325.912 528.167 326.599L531.599 331.404L536.405 327.972C536.92 327.628 537.778 327.628 538.293 328.315C538.636 328.83 538.636 329.688 537.949 330.203L533.144 333.635L536.576 338.441C536.92 338.956 536.92 339.814 536.233 340.329C535.718 340.672 534.86 340.672 534.345 339.985L530.913 335.18L526.107 338.612C525.593 338.956 524.734 338.956 524.22 338.269C523.876 337.583 524.048 336.896 524.563 336.381Z" fill="white"/>
<path d="M558.544 292.96L560.604 293.475C565.409 294.676 569.528 297.766 572.274 301.885L599.562 342.903C599.562 342.903 588.578 364.87 560.947 378.6L551.851 367.273L558.544 292.96Z" fill="white"/>
<path d="M408.717 292.96C402.539 294.505 397.219 298.281 393.786 303.601L367.699 342.903C367.699 342.903 380.228 371.735 409.575 382.891L416.097 372.765L408.717 292.96Z" fill="white"/>
<path d="M551.851 367.101L556.142 318.532C556.142 317.674 556.828 317.159 557.686 317.159C558.544 317.159 559.231 317.846 559.231 318.875L554.597 370.534L551.851 367.101Z" fill="#D6C8C8"/>
<path d="M415.925 372.422L411.12 318.532C411.12 317.674 410.433 317.159 409.575 317.159C408.717 317.159 408.031 317.846 408.031 318.875L413.523 376.026L415.925 372.422Z" fill="#D6C8C8"/>
<path d="M483.545 254.86H461.406V276.142C461.406 276.142 470.673 280.775 483.545 280.775C496.417 280.604 505.684 276.142 505.684 276.142V254.86H483.545Z" fill="#F0BCA3"/>
<path d="M505.856 254.86V276.141C505.856 276.141 496.588 280.775 483.717 280.775C470.845 280.604 461.577 276.141 461.577 276.141V254.86H483.717H505.856ZM508.602 252.114H505.856H483.717H461.577H458.831V254.86V276.141V277.858L460.376 278.544C460.719 278.716 470.33 283.35 483.717 283.521C497.103 283.35 506.714 278.716 507.057 278.544L508.602 277.858V276.141V254.86V252.114Z" fill="#3B1010"/>
<path d="M505.856 259.494V270.135C493.156 272.709 483.717 272.538 483.717 272.538C483.717 272.538 474.106 272.709 461.577 270.135V259.494H505.856Z" fill="#F8975D"/>
<path d="M405.971 191.531C405.971 191.531 393.271 168.362 373.706 170.25C358.947 171.795 349.164 187.069 354.656 200.799C358.775 211.268 371.475 221.394 405.971 219.849V191.531Z" fill="#F0BCA3"/>
<path d="M398.592 195.993C398.592 195.993 389.667 183.637 378.683 181.405C366.841 179.003 358.947 193.419 367.185 202.687C371.818 207.664 380.914 211.783 398.592 211.096V195.993Z" fill="#3B1010"/>
<path d="M400.48 197.195C400.48 197.195 391.898 185.868 381.086 183.808C369.759 181.577 361.864 194.964 369.931 203.373C374.393 208.007 383.146 211.783 400.308 211.096V197.195H400.48Z" fill="#E29781"/>
<path d="M400.479 197.195V210.925C389.839 211.44 382.459 210.067 377.139 208.007C376.452 207.492 375.937 206.978 375.594 206.463C367.528 198.053 375.251 184.838 386.75 186.898C389.496 187.413 392.07 188.786 394.129 190.673C398.077 194.106 400.479 197.195 400.479 197.195Z" fill="#F2AF82"/>
<path d="M561.29 191.531C561.29 191.531 573.99 168.362 593.555 170.25C608.315 171.795 618.098 187.069 612.606 200.799C608.487 211.268 595.787 221.394 561.29 219.849V191.531Z" fill="#F0BCA3"/>
<path d="M568.67 195.993C568.67 195.993 577.594 183.637 588.578 181.405C600.42 179.003 608.315 193.419 600.077 202.687C595.443 207.664 586.347 211.783 568.67 211.096V195.993Z" fill="#3B1010"/>
<path d="M566.782 197.195C566.782 197.195 575.363 185.868 586.176 183.808C597.503 181.577 605.397 194.964 597.331 203.373C592.869 208.007 584.116 211.783 566.954 211.096V197.195H566.782Z" fill="#E29781"/>
<path d="M566.782 197.195V210.925C577.423 211.44 584.803 210.067 590.123 208.007C590.809 207.492 591.324 206.978 591.668 206.463C599.734 198.053 592.011 184.838 580.512 186.898C577.766 187.413 575.192 188.786 573.132 190.673C569.185 194.106 566.782 197.195 566.782 197.195Z" fill="#F2AF82"/>
<path d="M483.717 110.868C427.596 110.868 405.628 146.566 397.047 170.936C390.525 189.815 392.413 210.924 403.225 227.229C428.111 264.471 483.545 263.441 483.545 263.441C483.545 263.441 537.263 264.471 562.663 229.116C574.505 212.641 576.908 190.501 570.215 170.936C561.805 146.566 539.666 110.868 483.717 110.868Z" fill="#FECFA8"/>
<path d="M474.621 130.262C475.136 145.021 484.403 153.946 484.403 153.946C457.63 154.46 447.676 136.097 444.243 124.77C443.557 122.71 443.214 120.651 442.87 118.763C452.138 114.644 463.122 111.898 475.994 111.04C476.165 111.04 476.508 111.04 476.68 111.04C479.083 110.868 481.314 110.868 483.717 110.868C483.717 113.271 483.888 115.674 484.232 117.733C489.037 147.767 525.078 153.774 525.078 153.774C479.769 159.952 474.964 132.664 474.621 130.262Z" fill="#E29781"/>
<path d="M483.717 110.869C539.837 110.869 561.805 146.566 570.386 170.765C571.244 173.168 571.931 175.57 572.446 177.973C577.423 173.683 583.773 170.078 591.324 170.078C592.011 170.078 592.869 170.078 593.727 170.25C608.487 171.795 618.269 187.069 612.777 200.799C609.001 210.582 597.674 219.849 568.327 219.849C566.782 222.938 565.066 226.028 563.007 228.774C538.979 262.24 489.723 263.098 484.232 263.098C483.888 263.098 483.717 263.098 483.717 263.098C483.717 263.098 483.545 263.098 483.202 263.098C477.71 263.098 426.738 262.068 403.225 226.886C401.681 224.655 400.308 222.08 399.106 219.678C369.759 219.678 358.432 210.238 354.484 200.627C348.993 186.726 358.775 171.451 373.535 170.078C374.393 170.078 375.079 169.907 375.937 169.907C383.489 169.907 389.839 173.511 394.816 177.802C395.331 175.399 396.017 172.996 396.875 170.593C402.882 153.259 415.754 130.434 442.699 118.592C442.87 118.42 443.214 118.42 443.385 118.248C443.9 118.077 444.243 117.905 444.758 117.733C445.445 117.39 446.131 117.219 446.989 116.875C447.504 116.704 448.019 116.532 448.534 116.36C449.22 116.189 449.907 115.846 450.765 115.674C451.28 115.502 451.966 115.331 452.481 115.159C453.168 114.987 454.026 114.644 454.712 114.473C455.227 114.301 455.914 114.129 456.429 113.958C457.287 113.786 457.973 113.614 458.831 113.443C459.346 113.271 460.033 113.1 460.548 113.1C461.406 112.928 462.264 112.756 463.122 112.585C463.637 112.413 464.323 112.413 465.01 112.242C465.868 112.07 466.898 111.898 467.756 111.898C468.442 111.898 468.957 111.727 469.644 111.727C470.502 111.555 471.531 111.555 472.39 111.383C473.076 111.383 473.763 111.212 474.449 111.212C474.964 111.212 475.307 111.04 475.822 111.04C475.994 111.04 476.337 111.04 476.508 111.04C476.852 111.04 477.023 111.04 477.367 111.04C479.598 111.04 481.486 110.869 483.717 110.869ZM483.717 108.123C481.829 108.123 479.769 108.123 477.367 108.294C477.367 108.294 477.195 108.294 477.023 108.294C476.852 108.294 476.68 108.294 476.508 108.294H476.165H475.822C475.479 108.294 475.135 108.294 474.964 108.294C474.792 108.294 474.621 108.294 474.449 108.294C473.763 108.294 473.076 108.466 472.39 108.466C471.36 108.637 470.502 108.637 469.472 108.809C468.785 108.809 468.271 108.981 467.584 108.981C466.554 109.152 465.696 109.324 464.838 109.324C464.152 109.496 463.637 109.496 462.95 109.667C462.092 109.839 461.234 110.01 460.376 110.182C459.689 110.354 459.175 110.354 458.488 110.525C457.63 110.697 456.772 110.869 456.085 111.04C455.399 111.212 454.884 111.383 454.197 111.555C453.339 111.727 452.653 112.07 451.795 112.242C451.108 112.413 450.593 112.585 450.079 112.756C449.392 112.928 448.534 113.271 447.847 113.443H447.676C447.161 113.614 446.646 113.786 446.131 113.958C445.445 114.301 444.587 114.473 443.9 114.816L443.557 114.987C443.214 115.159 442.87 115.331 442.355 115.502L442.012 115.674C441.841 115.674 441.669 115.846 441.497 115.846L439.61 116.704C413.18 129.747 400.479 152.745 394.473 170.078C394.129 171.108 393.786 172.31 393.443 173.511C387.951 169.564 382.116 167.676 376.281 167.676C375.422 167.676 374.564 167.676 373.706 167.847C365.64 168.706 358.603 173.168 354.313 180.033C350.194 186.726 349.507 194.792 352.253 202.172C357.574 215.73 372.848 222.767 397.562 223.11C398.592 225.17 399.793 227.229 400.994 229.117C425.193 265.501 477.367 266.531 483.202 266.531C483.373 266.531 483.545 266.531 483.717 266.531C483.717 266.531 483.888 266.531 484.232 266.531C489.895 266.531 540.352 265.501 565.238 231.005C566.954 228.602 568.498 225.856 570.043 223.11C594.757 222.767 610.031 215.73 615.352 202.172C618.269 194.964 617.411 186.898 613.292 180.033C609.001 172.996 601.965 168.534 593.899 167.847C593.041 167.847 592.182 167.676 591.324 167.676C585.489 167.676 579.654 169.564 574.162 173.511C573.819 172.31 573.476 171.28 573.132 170.078C564.894 146.909 542.412 108.123 483.717 108.123Z" fill="#3B1010"/>
<path d="M431.543 211.955C431.543 218.819 426.051 224.311 419.186 224.311C412.321 224.311 406.829 218.819 406.829 211.955C406.829 205.09 412.321 199.598 419.186 199.598C425.88 199.598 431.543 205.09 431.543 211.955Z" fill="#F2AF82"/>
<path d="M535.718 211.955C535.718 218.819 541.21 224.311 548.075 224.311C554.94 224.311 560.432 218.819 560.432 211.955C560.432 205.09 554.94 199.598 548.075 199.598C541.382 199.598 535.718 205.09 535.718 211.955Z" fill="#F2AF82"/>
<path d="M439.266 209.552C448.555 209.552 456.085 200.792 456.085 189.987C456.085 179.181 448.555 170.422 439.266 170.422C429.977 170.422 422.447 179.181 422.447 189.987C422.447 200.792 429.977 209.552 439.266 209.552Z" fill="white"/>
<path d="M527.995 209.552C537.284 209.552 544.814 200.792 544.814 189.987C544.814 179.181 537.284 170.422 527.995 170.422C518.706 170.422 511.176 179.181 511.176 189.987C511.176 200.792 518.706 209.552 527.995 209.552Z" fill="white"/>
<path d="M424.678 180.204C424.678 180.204 420.559 185.524 414.381 183.98C414.381 183.98 418.157 189.643 425.536 187.241L424.678 180.204Z" fill="#76182C"/>
<path d="M542.583 180.204C542.583 180.204 546.702 185.524 552.881 183.98C552.881 183.98 549.105 189.643 541.725 187.241L542.583 180.204Z" fill="#76182C"/>
<path d="M492.641 105.376C492.641 105.376 500.707 146.394 556.142 140.044V110.868L492.641 105.376Z" fill="#76182C"/>
<path d="M451.28 109.839C451.28 109.839 452.481 145.021 484.403 150.342C484.403 150.342 474.621 138.5 477.195 119.106C477.195 119.106 484.06 152.058 524.906 150.342C524.906 150.342 492.469 147.939 494.7 107.608L473.248 100.743L451.28 109.839Z" fill="#76182C"/>
<path d="M556.313 140.044C520.787 143.648 504.826 128.031 498.305 117.905C495.387 113.271 494.357 109.839 494.357 109.839C494.186 113.443 494.357 116.704 494.872 119.621C498.819 147.939 524.906 150.342 524.906 150.342C523.876 150.342 522.847 150.342 521.817 150.342C483.717 150.342 477.367 119.106 477.367 119.106C474.621 138.5 484.575 150.342 484.575 150.342C452.31 145.021 451.28 109.839 451.28 109.839C451.28 109.839 448.534 120.479 453.683 131.806C455.742 135.925 458.488 139.873 462.264 143.477C465.01 146.051 468.099 148.282 471.875 149.998C475.307 151.715 479.254 152.916 483.888 153.774C484.06 153.774 484.231 153.774 484.575 153.774C485.776 153.774 487.149 153.088 487.664 151.886C488.35 150.513 488.35 148.969 487.321 147.767C487.149 147.424 483.717 143.134 481.829 135.754C488.694 144.678 500.879 153.774 521.989 153.774C523.018 153.774 524.22 153.774 525.249 153.774C527.137 153.603 528.682 152.058 528.682 150.17C528.682 148.282 527.309 146.566 525.421 146.394C524.563 146.223 506.542 144.335 500.364 125.971C523.19 151.028 556.313 140.044 556.313 140.044Z" fill="#521302"/>
<path d="M325.995 294.505C328.913 296.737 332.86 300.169 336.464 304.288C337.837 305.833 339.038 307.377 340.24 309.093L352.597 300.341C352.425 299.997 348.649 293.132 336.807 281.805L336.636 281.462C333.375 278.716 328.569 278.716 325.308 281.805C325.137 281.977 325.137 281.977 324.965 282.149C321.533 285.753 322.219 291.588 325.995 294.505Z" fill="#F0BCA3"/>
<path d="M316.041 336.038L318.958 337.068L317.414 371.392C317.414 371.392 310.721 374.482 302.997 371.392L316.041 336.038Z" fill="#F0DDD3"/>
<path d="M316.041 336.038L318.958 337.068L317.414 371.392C317.414 371.392 314.496 372.765 310.034 372.765C307.975 372.765 305.4 372.422 302.826 371.392L316.041 336.038ZM314.496 332.434L313.638 335.008L300.595 370.534L299.737 373.109L302.311 374.138C304.885 375.168 307.631 375.683 310.549 375.683C315.354 375.683 318.787 374.138 318.958 373.967L320.503 373.28V371.564L322.048 337.239L322.219 335.18L320.331 334.493L317.414 333.464L314.496 332.434Z" fill="#3B1010"/>
<path d="M307.116 332.777L304.199 331.748L283.261 358.864C283.261 358.864 286.35 365.557 294.245 368.132L307.116 332.777Z" fill="#F0DDD3"/>
<path d="M304.199 331.576L307.116 332.606L294.073 368.131C286.178 365.386 283.089 358.864 283.089 358.864L304.199 331.576ZM303.169 328.315L301.968 329.86L281.03 357.148L280 358.521L280.686 360.065C280.858 360.408 284.462 367.788 293.387 370.877L295.961 371.736L296.819 369.161L309.862 333.635L310.721 331.061L308.146 330.031L305.229 329.001L303.169 328.315Z" fill="#3B1010"/>
<path d="M311.579 334.322L297.162 373.795C297.162 373.795 303.512 378.429 309.691 376.026L316.041 335.866L311.579 334.322Z" fill="white"/>
<path d="M311.579 334.322L297.162 373.795C297.162 373.795 289.268 373.28 286.007 367.445L307.116 332.777L311.579 334.322Z" fill="white"/>
<path d="M307.116 332.777L311.579 334.322L316.041 335.867L309.691 376.026C308.489 376.541 307.116 376.713 305.915 376.713C301.11 376.713 296.991 373.795 296.991 373.795C296.991 373.795 289.096 373.281 285.835 367.445L307.116 332.777ZM306.087 329.345L304.885 331.233L283.776 366.072L282.918 367.445L283.776 368.818C287.037 374.653 294.073 376.198 296.304 376.541C297.849 377.399 301.625 379.631 306.087 379.631C307.803 379.631 309.348 379.287 310.721 378.772L312.265 378.258L312.437 376.713L318.787 336.553L319.13 334.322L317.071 333.464L312.608 331.919L308.146 330.375L306.087 329.345Z" fill="#3B1010"/>
<path d="M345.388 258.807L340.068 256.919L334.748 255.031L294.588 303.944C288.238 311.839 286.522 322.651 291.155 331.747C291.499 332.262 291.67 332.948 292.014 333.463C299.05 345.477 313.981 350.969 327.196 346.335C327.711 346.163 328.398 345.82 328.913 345.648C338.18 341.701 344.015 332.262 344.187 322.136L345.388 258.807Z" fill="white"/>
<path d="M334.576 254.86L339.896 256.748L345.217 258.636L344.015 321.965C343.844 332.09 338.009 341.53 328.741 345.477C328.226 345.649 327.54 345.992 327.025 346.163C323.935 347.193 320.675 347.88 317.414 347.88C307.116 347.88 297.162 342.559 291.842 333.463C291.499 332.949 291.155 332.434 290.984 331.747C286.35 322.651 288.066 311.839 294.416 303.944L334.576 254.86ZM334.576 252.114C333.718 252.114 333.031 252.457 332.517 253.144L292.528 302.228C285.149 311.152 283.776 323.166 288.753 332.949C289.096 333.635 289.439 334.15 289.782 334.836C295.446 344.619 306.258 350.626 317.757 350.626C321.361 350.626 324.965 349.939 328.226 348.909C328.913 348.738 329.599 348.395 330.114 348.223C340.24 343.932 346.933 333.807 347.105 322.308L348.306 258.979C348.306 257.778 347.619 256.748 346.418 256.405L341.098 254.517L335.777 252.629C335.263 252.114 334.919 252.114 334.576 252.114Z" fill="#3B1010"/>
<path d="M345.388 258.808C344.873 260.181 342.128 260.352 339.038 259.322C336.121 258.293 334.061 256.233 334.576 254.86C335.091 253.487 337.837 253.316 340.926 254.345C343.844 255.375 345.903 257.435 345.388 258.808Z" fill="#76182C"/>
<path d="M337.322 253.659C338.352 253.659 339.553 253.83 340.755 254.345C343.672 255.375 345.732 257.435 345.217 258.808C344.873 259.666 343.844 260.009 342.471 260.009C341.441 260.009 340.24 259.837 339.038 259.322C336.121 258.293 334.061 256.233 334.576 254.86C334.919 254.002 335.949 253.659 337.322 253.659ZM337.322 250.913C333.546 250.913 332.345 252.972 332.002 254.002C331.315 255.718 332.002 257.606 333.546 259.151C334.748 260.352 336.292 261.21 338.009 261.897C339.553 262.412 341.098 262.755 342.471 262.755C346.246 262.755 347.448 260.695 347.791 259.666C348.821 256.748 346.418 253.316 341.613 251.599C340.411 251.084 338.867 250.913 337.322 250.913Z" fill="#D0A7A1"/>
<path d="M337.15 339.985C334.919 342.388 332.173 344.276 329.084 345.649C328.569 345.821 327.883 346.164 327.368 346.335C314.153 350.969 299.222 345.477 292.185 333.464C291.842 332.949 291.499 332.434 291.327 331.747C286.693 322.651 288.41 311.839 294.76 303.945L304.37 292.274C292.7 310.466 305.229 343.075 337.15 339.985Z" fill="#F7E7E7"/>
<path d="M298.02 374.31C297.506 373.966 297.334 373.795 297.334 373.795C297.334 373.795 296.991 373.795 296.476 373.623L302.826 356.118C302.998 355.603 303.512 355.431 304.027 355.603H304.199C304.542 355.774 304.714 356.289 304.542 356.632L298.02 374.31Z" fill="#F7E7E7"/>
<mask id="mask0_2616_927" style="mask-type:luminance" maskUnits="userSpaceOnUse" x="320" y="273" width="37" height="35">
<path d="M356.716 294.334L338.695 307.205L324.279 293.647C318.958 288.155 319.645 279.059 326.167 274.94C326.338 274.94 326.338 274.768 326.51 274.768C331.487 271.851 337.837 273.052 341.613 277.343L356.716 294.334Z" fill="white"/>
</mask>
<g mask="url(#mask0_2616_927)">
<path d="M327.883 292.446C330.972 294.848 334.919 298.281 338.867 302.572C340.24 304.116 341.613 305.832 342.814 307.549L355.686 298.453C355.514 297.938 351.567 291.073 339.21 279.231L338.867 278.888C335.434 275.97 330.457 276.142 327.196 279.231C327.025 279.402 327.025 279.402 326.853 279.574C323.249 283.35 323.764 289.357 327.883 292.446Z" fill="#F0BCA3"/>
</g>
<mask id="mask1_2616_927" style="mask-type:luminance" maskUnits="userSpaceOnUse" x="320" y="273" width="37" height="35">
<path d="M356.716 294.334L338.695 307.205L324.279 293.647C318.958 288.155 319.645 279.059 326.167 274.94C326.338 274.94 326.338 274.768 326.51 274.768C331.487 271.851 337.837 273.052 341.613 277.343L356.716 294.334Z" fill="white"/>
</mask>
<g mask="url(#mask1_2616_927)">
<path d="M333.203 276.828C335.263 276.828 337.151 277.514 338.867 278.887L339.21 279.23C351.567 291.072 355.343 297.937 355.686 298.452L342.814 307.548C341.613 305.832 340.24 304.116 338.867 302.571C335.091 298.109 330.972 294.677 327.883 292.445C323.764 289.356 323.249 283.349 326.853 279.745C327.025 279.574 327.025 279.574 327.196 279.402C328.913 277.686 330.972 276.828 333.203 276.828ZM333.203 274.082C330.286 274.082 327.368 275.283 325.309 277.343C325.137 277.514 324.965 277.686 324.794 277.857C322.563 280.089 321.533 283.178 321.704 286.439C321.876 289.699 323.592 292.789 326.167 294.677C328.741 296.736 332.86 300.168 336.807 304.459C338.18 306.004 339.382 307.548 340.583 309.265L342.128 311.496L344.359 309.951L357.23 300.855L359.29 299.31L357.917 297.079C357.23 295.878 353.111 288.841 341.098 277.343L340.755 276.999C338.523 275.112 335.949 274.082 333.203 274.082Z" fill="#3B1010"/>
</g>
<path d="M354.141 296.221L347.105 324.882C347.105 324.882 339.038 319.734 341.098 305.66L354.141 296.221Z" fill="#F0BCA3"/>
<path d="M341.098 305.489C341.098 305.489 338.867 318.361 347.105 324.711C347.619 325.226 347.791 325.912 347.448 326.599C346.933 327.285 346.075 327.457 345.388 326.942C342.642 324.882 336.979 318.532 338.695 305.489H341.098Z" fill="#3B1010"/>
<path d="M309.862 293.132L320.503 297.251C321.704 297.766 322.906 298.453 324.107 299.311C324.107 299.311 324.107 299.311 324.279 299.482C328.913 303.258 327.54 310.981 321.876 312.869C320.846 313.212 319.817 313.384 318.444 313.212C318.444 313.212 318.615 313.384 318.958 313.556C325.652 318.361 321.018 329.002 312.78 327.457C312.265 327.457 311.922 327.285 311.407 327.114C311.407 327.114 311.407 327.457 311.407 327.972C311.579 332.434 308.146 336.038 303.856 336.725C302.139 337.068 300.595 336.21 299.05 335.352L293.73 332.777C287.208 329.516 284.634 321.45 288.41 315.272C289.439 313.556 290.812 311.668 292.872 309.608C292.872 309.608 292.528 305.661 294.073 300.684C296.133 294.162 303.341 290.73 309.862 293.132Z" fill="#F0BCA3"/>
<path d="M305.4 292.446C306.773 292.446 308.318 292.618 309.691 293.304L320.331 297.423C321.533 297.938 322.734 298.624 323.936 299.482C323.936 299.482 323.936 299.482 324.107 299.654C328.741 303.43 327.368 311.153 321.704 313.041C321.018 313.212 320.331 313.384 319.473 313.384C319.13 313.384 318.787 313.384 318.272 313.384C318.272 313.384 318.444 313.556 318.787 313.727C325.137 318.189 321.361 327.8 314.153 327.8C313.638 327.8 313.123 327.8 312.608 327.629C312.094 327.629 311.75 327.457 311.235 327.285C311.235 327.285 311.235 327.629 311.235 328.144C311.407 332.606 307.975 336.21 303.684 336.896C303.512 336.896 303.169 336.896 302.997 336.896C301.453 336.896 300.252 336.21 298.879 335.523L293.558 332.949C287.037 329.688 284.462 321.622 288.238 315.443C289.268 313.727 290.641 311.839 292.7 309.78C292.7 309.78 292.357 305.833 293.901 300.855C295.618 295.535 300.423 292.446 305.4 292.446ZM305.4 289.7C299.05 289.7 293.215 293.819 291.155 299.826C289.954 303.601 289.611 306.862 289.783 308.578C288.066 310.295 286.693 312.183 285.835 313.899C283.776 317.503 283.261 321.793 284.462 325.912C285.664 330.031 288.581 333.464 292.357 335.18L297.677 337.754L298.02 337.926C299.393 338.613 301.11 339.471 303.169 339.471C303.512 339.471 303.856 339.471 304.37 339.471C309.348 338.784 313.295 335.008 314.153 330.203C314.325 330.203 314.325 330.203 314.496 330.203C319.13 330.203 323.077 327.285 324.45 322.823C325.308 320.077 325.137 317.331 323.936 315.1C326.853 313.727 329.084 310.981 329.771 307.72C330.457 303.945 329.084 299.997 326.167 297.595L325.995 297.423C324.794 296.393 323.421 295.535 321.704 295.02L311.235 290.901C309.004 290.043 307.288 289.7 305.4 289.7Z" fill="#3B1010"/>
<path d="M321.361 316.645L304.885 309.094C304.37 308.922 304.027 308.236 304.37 307.721L304.542 307.549C304.885 307.206 305.4 307.034 305.743 307.206L318.272 313.041C318.272 313.041 318.444 313.213 318.787 313.384C319.988 314.242 320.846 315.444 321.361 316.645Z" fill="#E29781"/>
<path d="M311.235 329.002L299.393 323.51C298.879 323.338 298.535 322.652 298.879 322.137C298.879 322.137 298.879 321.965 299.05 321.965C299.393 321.622 299.908 321.45 300.252 321.622L312.437 327.286C312.094 327.286 311.75 327.114 311.235 326.942C311.235 326.942 311.235 327.286 311.235 327.8C311.235 328.315 311.235 328.659 311.235 329.002Z" fill="#E29781"/>
<path d="M505.551 229.078C503.862 228.35 501.881 229.696 500.286 230.609C495.752 233.416 489.918 235.061 484.241 235.135C478.564 235.208 472.977 233.96 468.049 231.276C466.429 230.298 464.558 229.252 462.712 230.096C461.185 230.758 460.709 232.513 460.87 233.903C461.383 242.925 472.677 248.953 483.393 249.171C483.644 249.239 483.962 249.057 484.464 249.193C484.715 249.261 485.034 249.078 485.536 249.215C496.205 248.613 507.437 241.972 507.493 232.835C507.651 231.263 507.056 229.486 505.551 229.078Z" fill="#91342A"/>
<path d="M501.038 230.814C500.651 231.247 499.83 231.293 499.443 231.726C498.805 232.092 498.486 232.274 497.848 232.639C496.641 233.119 495.616 233.917 494.408 234.397C492.243 235.424 489.896 236.132 487.868 236.658C483.309 237.574 478.725 236.598 474.209 235.372C472.955 235.031 471.518 234.372 470.399 233.53C469.213 232.939 467.912 231.778 466.726 231.186C466.224 231.05 465.952 232.053 466.317 232.691C467.299 234.034 468.418 234.876 469.536 235.718C470.654 236.56 471.772 237.402 472.959 237.993C475.263 239.427 477.704 240.359 480.281 240.789C485.116 241.833 490.108 241.304 494.573 238.748C495.849 238.018 497.125 237.288 498.469 236.307C499.175 235.691 499.63 235.007 500.336 234.391C500.655 234.209 500.723 233.958 501.042 233.776C501.429 233.342 501.565 232.841 501.952 232.408C501.837 231.838 501.676 230.448 501.038 230.814Z" fill="white"/>
<path d="M533.772 192.489C530.578 197.764 524.235 199.232 519.621 195.757C515.022 192.3 513.872 185.199 517.079 179.919C520.286 174.639 526.603 173.182 531.215 176.648C535.827 180.113 536.968 187.205 533.772 192.489Z" fill="#9F693D"/>
<path opacity="0.6" d="M531.582 191.346C529.13 195.383 524.308 196.497 520.784 193.853C517.26 191.21 516.387 185.788 518.831 181.762C521.276 177.735 526.094 176.615 529.615 179.257C533.143 181.922 534.028 187.343 531.582 191.346Z" fill="#FF9C05"/>
<g style="mix-blend-mode:multiply">
<path d="M530.732 190.169C528.795 193.345 524.984 194.237 522.225 192.149C519.434 190.056 518.735 185.765 520.668 182.583C522.598 179.407 526.425 178.519 529.184 180.606C531.974 182.705 532.663 186.989 530.732 190.169Z" fill="#5E4627"/>
</g>
<g style="mix-blend-mode:multiply">
<path d="M518.121 178.484C517.734 178.929 517.386 179.408 517.077 179.918C513.871 185.198 515.021 192.299 519.62 195.756C524.234 199.234 530.576 197.763 533.77 192.488C534.061 192.002 534.308 191.479 534.53 190.976C527.772 190.066 520.043 185.208 518.121 178.484Z" fill="#9F693D"/>
</g>
<path d="M525.587 182.969C524.41 184.469 522.354 184.713 520.991 183.534C519.63 182.327 519.484 180.139 520.664 178.653C521.842 177.145 523.918 176.909 525.268 178.106C526.626 179.291 526.777 181.47 525.587 182.969Z" fill="white"/>
<path d="M520.934 186.893C520.37 187.596 519.394 187.716 518.728 187.154C518.088 186.572 518.027 185.542 518.568 184.822C519.146 184.12 520.126 184.004 520.777 184.566C521.411 185.131 521.473 186.165 520.934 186.893Z" fill="white"/>
<path d="M448.772 192.489C445.578 197.764 439.235 199.232 434.621 195.757C430.022 192.3 428.872 185.199 432.079 179.919C435.286 174.639 441.603 173.182 446.215 176.648C450.827 180.113 451.968 187.205 448.772 192.489Z" fill="#9F693D"/>
<path opacity="0.6" d="M446.582 191.346C444.13 195.383 439.308 196.497 435.784 193.853C432.26 191.21 431.387 185.788 433.831 181.762C436.276 177.735 441.094 176.615 444.615 179.257C448.143 181.922 449.028 187.343 446.582 191.346Z" fill="#FF9C05"/>
<g style="mix-blend-mode:multiply">
<path d="M445.732 190.169C443.795 193.345 439.984 194.237 437.225 192.149C434.434 190.056 433.735 185.765 435.668 182.583C437.598 179.407 441.425 178.519 444.184 180.606C446.974 182.705 447.663 186.989 445.732 190.169Z" fill="#5E4627"/>
</g>
<g style="mix-blend-mode:multiply">
<path d="M433.121 178.484C432.734 178.929 432.386 179.408 432.077 179.918C428.871 185.198 430.021 192.299 434.62 195.756C439.234 199.234 445.576 197.763 448.77 192.488C449.061 192.002 449.308 191.479 449.53 190.976C442.772 190.066 435.043 185.208 433.121 178.484Z" fill="#9F693D"/>
</g>
<path d="M440.587 182.969C439.41 184.469 437.354 184.713 435.991 183.534C434.63 182.327 434.484 180.139 435.664 178.653C436.842 177.145 438.918 176.909 440.268 178.106C441.626 179.291 441.777 181.47 440.587 182.969Z" fill="white"/>
<path d="M435.934 186.893C435.37 187.596 434.394 187.716 433.728 187.154C433.088 186.572 433.027 185.542 433.568 184.822C434.146 184.12 435.126 184.004 435.777 184.566C436.411 185.131 436.473 186.165 435.934 186.893Z" fill="white"/>
<path d="M484.245 194.265C484.461 195.36 484.571 196.474 484.572 197.59C484.555 198.721 484.407 199.845 484.131 200.941C483.988 201.491 483.795 202.027 483.556 202.543C483.311 203.07 483.02 203.575 482.686 204.051L482.097 204.709C481.903 204.924 481.685 205.115 481.448 205.279C480.989 205.65 480.491 205.97 479.963 206.232L480.019 206.203C479.748 206.503 479.322 206.667 479.177 207.024C479.065 207.184 478.97 207.356 478.894 207.536L478.739 208.093C478.7 208.488 478.72 208.886 478.798 209.275C478.877 209.682 479.012 210.076 479.2 210.446C479.367 210.841 479.587 211.212 479.856 211.547C480.112 211.891 480.393 212.218 480.694 212.524C481.013 212.816 481.351 213.086 481.706 213.332C482.068 213.577 482.443 213.801 482.831 214.002C483.217 214.204 483.615 214.38 484.024 214.53C484.436 214.688 484.861 214.809 485.294 214.891C485.715 215.009 486.149 215.077 486.586 215.092C487.039 215.151 487.497 215.165 487.953 215.134L489.281 215.011L490.605 214.74C491.486 214.502 492.353 214.214 493.201 213.877C492.396 214.335 491.556 214.728 490.689 215.051L489.375 215.487L487.978 215.685C487.511 215.738 487.041 215.756 486.571 215.736C486.103 215.749 485.636 215.707 485.178 215.611C484.704 215.563 484.237 215.461 483.786 215.308C483.329 215.176 482.884 215.006 482.455 214.799C482.02 214.586 481.602 214.341 481.204 214.066C480.394 213.54 479.683 212.876 479.102 212.103C478.787 211.736 478.526 211.326 478.326 210.885C478.1 210.442 477.932 209.971 477.829 209.484C477.733 208.973 477.724 208.449 477.801 207.935L478.026 207.18C478.129 206.938 478.262 206.71 478.422 206.502C478.665 206.015 479.175 205.789 479.544 205.445L479.58 205.418C480.06 205.204 480.512 204.933 480.927 204.61C481.135 204.461 481.329 204.294 481.507 204.111L482.044 203.531C482.709 202.708 483.214 201.767 483.533 200.758C484.165 198.655 484.407 196.455 484.245 194.265Z" fill="#B75239"/>
<g style="mix-blend-mode:multiply" opacity="0.7">
<path d="M483.902 191.352C483.902 191.352 486.098 202.108 481.346 204.572C476.595 207.046 484.407 215.883 496.512 211.283C500.313 209.559 494.152 219.723 486.666 219.227C479.14 218.737 478.09 214.952 475.504 210.685C472.9 206.439 485.124 202.872 483.902 191.352Z" fill="#EEC6AC"/>
</g>
<g style="mix-blend-mode:multiply" opacity="0.7">
<path d="M478.584 209.731C478.584 209.731 483.674 218.722 494.739 212.963C490.22 219.315 479.278 219.277 478.584 209.731Z" fill="#EEC6AC"/>
</g>
<g style="mix-blend-mode:screen" opacity="0.4">
<path d="M486.317 195.39C486.317 195.39 485.114 204.265 482.833 205.635C480.542 207.017 481.204 211.794 487.055 208.773C492.922 205.797 488.018 191.882 486.317 195.39Z" fill="#FFD3D1"/>
</g>
</g>
<defs>
<clipPath id="clip0_2616_927">
<rect width="466" height="489" fill="white" transform="translate(280)"/>
</clipPath>
</defs>
</svg>
