<svg width="335" height="310" viewBox="0 0 335 310" fill="none" xmlns="http://www.w3.org/2000/svg">
<g clip-path="url(#clip0_342_10345)">
<path d="M11.272 190.595C10.8196 183.057 10.3772 175.684 9.82474 168.671C12.1689 172.831 17.3046 176.131 24.4476 178.785C33.7575 182.244 46.6924 184.686 62.0005 186.462C92.2309 189.967 131.857 190.882 171.431 191.795L172.973 191.831C213.075 192.757 252.996 193.717 282.981 197.395C297.978 199.235 310.45 201.751 319.206 205.264C328.003 208.794 332.832 213.237 333.003 218.816L333.003 218.817C333.136 222.985 333.385 227.448 333.642 232.06C334.249 242.951 334.903 254.675 334.187 265.325C333.678 272.896 332.477 279.875 330.094 285.58C327.713 291.278 324.165 295.679 318.964 298.153C308.485 303.127 297.145 305.018 285.67 305.845C279.933 306.259 274.171 306.407 268.469 306.545L267.879 306.559C262.381 306.692 256.941 306.823 251.655 307.183C226.579 308.808 201.504 309.621 176.35 309.485L176.348 309.485C172.35 309.473 168.338 309.474 164.314 309.476C126.041 309.493 86.788 309.51 49.455 296.911L49.4514 296.91C48.963 296.749 48.4744 296.591 47.986 296.432C43.9168 295.11 39.8639 293.794 36.1281 291.441C31.9665 288.819 28.1892 284.902 25.3152 278.219L25.3149 278.218C18.725 262.972 15.5515 243.616 13.6357 223.528C12.6782 213.488 12.0357 203.277 11.4355 193.317C11.3807 192.407 11.3263 191.5 11.272 190.595Z" fill="#D9D9D9" stroke="#31A1D5"/>
</g>
<path d="M152.823 249.884H160.275C160.995 249.884 161.706 249.974 162.408 250.154C163.11 250.316 163.731 250.595 164.271 250.991C164.829 251.369 165.279 251.864 165.621 252.476C165.963 253.088 166.134 253.826 166.134 254.69C166.134 255.77 165.828 256.661 165.216 257.363C164.604 258.065 163.803 258.569 162.813 258.875V258.929C163.407 259.001 163.956 259.172 164.46 259.442C164.982 259.694 165.423 260.027 165.783 260.441C166.143 260.837 166.422 261.305 166.62 261.845C166.836 262.367 166.944 262.934 166.944 263.546C166.944 264.59 166.737 265.463 166.323 266.165C165.909 266.849 165.36 267.407 164.676 267.839C164.01 268.253 163.236 268.55 162.354 268.73C161.49 268.91 160.608 269 159.708 269H152.823V249.884ZM156.225 257.66H159.33C160.464 257.66 161.31 257.444 161.868 257.012C162.444 256.562 162.732 255.977 162.732 255.257C162.732 254.429 162.435 253.817 161.841 253.421C161.265 253.007 160.329 252.8 159.033 252.8H156.225V257.66ZM156.225 266.084H159.357C159.789 266.084 160.248 266.057 160.734 266.003C161.238 265.949 161.697 265.823 162.111 265.625C162.525 265.427 162.867 265.148 163.137 264.788C163.407 264.41 163.542 263.906 163.542 263.276C163.542 262.268 163.209 261.566 162.543 261.17C161.895 260.774 160.878 260.576 159.492 260.576H156.225V266.084ZM178.134 267.218H178.053C177.585 267.956 176.991 268.496 176.271 268.838C175.551 269.162 174.759 269.324 173.895 269.324C173.301 269.324 172.716 269.243 172.14 269.081C171.582 268.919 171.078 268.676 170.628 268.352C170.196 268.028 169.845 267.623 169.575 267.137C169.305 266.651 169.17 266.084 169.17 265.436C169.17 264.734 169.296 264.14 169.548 263.654C169.8 263.15 170.133 262.736 170.547 262.412C170.979 262.07 171.474 261.8 172.032 261.602C172.59 261.404 173.166 261.26 173.76 261.17C174.372 261.062 174.984 260.999 175.596 260.981C176.208 260.945 176.784 260.927 177.324 260.927H178.134V260.576C178.134 259.766 177.855 259.163 177.297 258.767C176.739 258.353 176.028 258.146 175.164 258.146C174.48 258.146 173.841 258.272 173.247 258.524C172.653 258.758 172.14 259.082 171.708 259.496L170.007 257.795C170.727 257.057 171.564 256.526 172.518 256.202C173.49 255.878 174.489 255.716 175.515 255.716C176.433 255.716 177.207 255.824 177.837 256.04C178.467 256.238 178.989 256.499 179.403 256.823C179.817 257.147 180.132 257.525 180.348 257.957C180.582 258.371 180.744 258.794 180.834 259.226C180.942 259.658 181.005 260.081 181.023 260.495C181.041 260.891 181.05 261.242 181.05 261.548V269H178.134V267.218ZM177.945 263.195H177.27C176.82 263.195 176.316 263.213 175.758 263.249C175.2 263.285 174.669 263.375 174.165 263.519C173.679 263.645 173.265 263.843 172.923 264.113C172.581 264.365 172.41 264.725 172.41 265.193C172.41 265.499 172.473 265.76 172.599 265.976C172.743 266.174 172.923 266.345 173.139 266.489C173.355 266.633 173.598 266.741 173.868 266.813C174.138 266.867 174.408 266.894 174.678 266.894C175.794 266.894 176.613 266.633 177.135 266.111C177.675 265.571 177.945 264.842 177.945 263.924V263.195ZM184.536 248.588H187.776V261.413L192.771 256.04H196.929L191.367 261.926L197.28 269H192.987L187.83 262.385H187.776V269H184.536V248.588ZM201.63 263.654C201.738 264.626 202.116 265.382 202.764 265.922C203.412 266.462 204.195 266.732 205.113 266.732C205.923 266.732 206.598 266.57 207.138 266.246C207.696 265.904 208.182 265.481 208.596 264.977L210.918 266.732C210.162 267.668 209.316 268.334 208.38 268.73C207.444 269.126 206.463 269.324 205.437 269.324C204.465 269.324 203.547 269.162 202.683 268.838C201.819 268.514 201.072 268.055 200.442 267.461C199.812 266.867 199.308 266.156 198.93 265.328C198.57 264.482 198.39 263.546 198.39 262.52C198.39 261.494 198.57 260.567 198.93 259.739C199.308 258.893 199.812 258.173 200.442 257.579C201.072 256.985 201.819 256.526 202.683 256.202C203.547 255.878 204.465 255.716 205.437 255.716C206.337 255.716 207.156 255.878 207.894 256.202C208.65 256.508 209.289 256.958 209.811 257.552C210.351 258.146 210.765 258.884 211.053 259.766C211.359 260.63 211.512 261.629 211.512 262.763V263.654H201.63ZM208.272 261.224C208.254 260.27 207.957 259.523 207.381 258.983C206.805 258.425 206.004 258.146 204.978 258.146C204.006 258.146 203.232 258.425 202.656 258.983C202.098 259.541 201.756 260.288 201.63 261.224H208.272Z" fill="#31A1D5"/>
<g clip-path="url(#clip1_342_10345)">
<path d="M143.199 261.858C143.174 261.903 143.131 261.946 143.129 261.99C143.092 263.126 142.556 264.044 141.865 264.899C140.836 266.168 139.633 267.285 138.29 268.216C137.904 268.451 137.504 268.663 137.092 268.851C136.983 268.894 136.879 268.952 136.784 269.022C136.379 269.406 135.893 269.694 135.362 269.865C135.27 269.886 135.187 269.934 135.124 270.003C135.06 270.072 135.019 270.159 135.006 270.252C134.927 270.625 134.847 270.998 134.753 271.368C134.696 271.621 134.617 271.869 134.517 272.109C134.434 272.312 134.299 272.49 134.125 272.624C133.951 272.758 133.745 272.843 133.528 272.872C132.877 272.956 132.227 273.057 131.561 272.947C131.067 272.867 130.559 272.874 130.059 272.817C129.527 272.756 128.996 272.679 128.468 272.59C127.888 272.49 127.302 272.4 126.734 272.247C125.172 271.838 123.62 271.392 122.191 270.61C122.085 270.551 121.977 270.493 121.874 270.439C121.207 270.019 121.12 269.778 121.214 269.015C121.332 268.033 121.569 267.068 121.921 266.143C121.974 265.983 121.979 265.811 121.936 265.647C121.488 263.864 121.121 262.069 121.065 260.223C121.048 259.709 121.017 259.182 120.998 258.662C120.966 257.148 121.237 255.643 121.794 254.235C122.718 251.774 123.916 249.476 125.719 247.53C126.311 246.894 126.983 246.337 127.718 245.874C129.078 245.025 130.6 244.469 132.186 244.24C133.093 244.098 134.007 243.911 134.924 244.048C135.797 244.178 136.663 244.368 137.52 244.575C138.044 244.724 138.503 245.044 138.824 245.484C140.08 247.038 140.506 248.793 140.133 250.754C139.883 252.072 139.449 253.321 139.007 254.593C138.659 255.609 138.363 256.642 138.119 257.688C138.052 258.098 138.072 258.517 138.177 258.919C138.271 259.379 138.423 259.432 138.892 259.336C139.278 259.239 139.669 259.161 140.063 259.103C140.529 259.052 140.998 259.043 141.466 259.076C142.322 259.15 142.921 259.731 143.097 260.587C143.125 260.7 143.16 260.812 143.201 260.921L143.199 261.858ZM121.915 259.446C121.869 261.018 122.044 262.48 122.239 263.943C122.372 264.944 122.725 265.825 123.452 266.51C124.39 267.394 125.552 267.916 126.755 268.334C127.378 268.547 128.013 268.725 128.656 268.866C129.652 269.09 130.651 269.35 131.662 269.456C133.872 269.687 135.863 268.999 137.6 267.678C138.986 266.6 140.228 265.349 141.295 263.955C141.821 263.257 142.146 262.428 142.234 261.559C142.304 261.145 142.247 260.719 142.072 260.337C142.022 260.208 141.938 260.095 141.83 260.008C141.722 259.922 141.593 259.866 141.456 259.846C140.752 259.737 140.034 259.759 139.339 259.911C139.085 259.968 138.825 259.99 138.566 259.976C138.329 259.974 138.099 259.902 137.904 259.769C137.709 259.635 137.559 259.446 137.472 259.227C137.258 258.713 137.056 258.172 137.181 257.613C137.402 256.615 137.647 255.623 137.937 254.644C138.244 253.617 138.66 252.616 138.945 251.583C139.149 250.866 139.27 250.128 139.306 249.384C139.336 248.722 139.232 248.062 139 247.442C138.769 246.822 138.416 246.254 137.961 245.773C137.784 245.583 137.562 245.441 137.315 245.359C136.479 245.068 135.607 244.892 134.724 244.835C133.51 244.804 132.298 244.957 131.13 245.29C129.198 245.779 127.462 246.848 126.157 248.355C124.977 249.705 124.104 251.23 123.348 252.84C122.353 254.969 121.712 257.165 121.915 259.446ZM122.446 266.569C122.317 267.273 122.196 267.901 122.093 268.531C122.056 268.751 122.076 268.982 122.042 269.203C122.014 269.341 122.037 269.484 122.107 269.606C122.177 269.728 122.289 269.82 122.422 269.865C123.033 270.154 123.639 270.456 124.265 270.709C125.848 271.351 127.516 271.662 129.19 271.968C130.069 272.129 130.978 272.139 131.876 272.196C132.308 272.222 132.744 272.184 133.177 272.181C133.336 272.189 133.492 272.141 133.618 272.043C133.744 271.946 133.83 271.806 133.861 271.65C133.985 271.188 134.068 270.714 134.181 270.196C134.01 270.211 133.89 270.213 133.776 270.231C132.87 270.4 131.941 270.395 131.038 270.214C129.719 269.932 128.394 269.677 127.102 269.283C125.353 268.756 123.772 268.002 122.446 266.569Z" fill="#31A1D5"/>
<path d="M130.839 260.039C131.216 260.192 131.642 260.151 132.06 260.508C130.947 260.496 129.968 260.337 128.872 260.281C129.44 260.01 129.955 260.118 130.381 260.046C130.667 258.941 130.94 257.87 131.236 256.737C130.627 256.586 129.967 256.627 129.245 256.634C128.902 257.728 128.552 258.809 128.18 259.976C128.086 259.838 127.98 259.752 127.98 259.668C127.967 259.341 127.992 259.013 128.055 258.691C128.226 258.02 128.444 257.363 128.661 256.638C127.96 256.6 127.256 256.628 126.56 256.721C126.354 257.421 126.154 258.111 125.952 258.801L125.848 258.783C125.791 258.109 125.971 257.45 126.075 256.762L125.317 256.675V256.562C125.471 256.508 125.629 256.469 125.79 256.444C125.916 256.447 126.039 256.404 126.135 256.322C126.232 256.241 126.294 256.126 126.312 256.001C126.426 255.566 126.596 255.145 126.739 254.718C126.777 254.608 126.801 254.492 126.842 254.343H125.377L125.358 254.24C125.681 254.147 126.01 254.08 126.342 254.038C126.9 254.009 127.189 253.751 127.369 253.225C127.617 252.526 127.961 251.856 128.293 251.114L125.533 251.388L125.5 251.273C125.623 251.216 125.751 251.171 125.882 251.138C126.599 251.014 127.316 250.886 128.038 250.795C128.191 250.786 128.338 250.736 128.465 250.651C128.592 250.566 128.694 250.45 128.762 250.313C129.265 249.457 129.811 248.638 130.352 247.809C130.47 247.643 130.621 247.504 130.795 247.399C130.742 247.83 130.43 248.117 130.244 248.47C130.057 248.822 129.838 249.154 129.64 249.497C129.441 249.839 129.229 250.217 129 250.619C129.412 250.73 129.785 250.657 130.155 250.657C130.525 250.657 130.884 250.657 131.271 250.657L131.959 249.772L132.051 249.817L131.728 250.7L133.971 251.105C134.365 250.617 134.601 249.984 135.2 249.622L134.401 251.218L135.586 251.644C135.586 251.672 135.574 251.701 135.569 251.728C135.369 251.699 135.169 251.672 134.969 251.639L134.253 251.518L133.037 253.93C133.853 254.197 134.679 254.334 135.465 254.87L132.888 254.339C132.552 255.002 132.257 255.685 132.005 256.384C132.655 256.607 133.299 256.762 133.802 257.25C133.488 257.165 133.177 257.079 132.86 256.999C132.544 256.918 132.219 256.87 131.866 256.802C131.377 257.858 131.137 258.953 130.839 260.039ZM131.057 251.028C130.355 251.028 129.732 251.038 129.109 251.028C129.007 251.016 128.903 251.04 128.816 251.097C128.73 251.154 128.666 251.239 128.635 251.338C128.331 252.036 128.013 252.729 127.705 253.426C127.654 253.564 127.612 253.705 127.578 253.848L129.818 253.717L131.057 251.028ZM131.546 251.078C131.149 251.974 130.73 252.798 130.454 253.71L132.525 253.848C132.948 253.039 133.353 252.26 133.79 251.427L131.546 251.078ZM126.671 256.275L128.896 256.119C129.145 255.477 129.387 254.853 129.657 254.16L127.352 254.273C127.135 254.925 126.916 255.556 126.671 256.275ZM131.476 256.294C131.758 255.609 132.027 254.971 132.315 254.281L130.309 254.153C129.953 254.788 129.594 255.772 129.582 256.129L131.476 256.294Z" fill="#31A1D5"/>
<path d="M134.184 267.659C135.308 267.03 136.482 266.462 137.548 265.748C138.614 265.034 139.541 264.174 140.549 263.352C140.255 264.767 136.097 267.557 134.184 267.659Z" fill="#31A1D5"/>
<path d="M130.166 261.794C131.002 261.677 132.474 261.912 132.859 262.204C132.161 262.416 130.67 262.209 130.166 261.794Z" fill="#31A1D5"/>
<path d="M124.316 263.682C124.35 263.718 124.417 263.76 124.414 263.792C124.357 264.213 124.296 264.634 124.219 265.05C124.202 265.086 124.177 265.118 124.145 265.142C124.113 265.166 124.075 265.182 124.036 265.188C123.996 265.18 123.959 265.162 123.928 265.138C123.896 265.113 123.87 265.081 123.853 265.045C123.709 264.716 123.984 263.92 124.316 263.682Z" fill="#31A1D5"/>
<path d="M124.65 265.936C124.332 265.539 124.448 265.12 124.909 264.909C125.046 265.312 124.883 265.618 124.65 265.936Z" fill="#31A1D5"/>
<path d="M132.748 263.914C132.255 264.128 131.906 263.965 131.536 263.742C131.926 263.565 132.147 263.595 132.748 263.914Z" fill="#31A1D5"/>
<path d="M125.521 266.667C125.179 266.58 125.146 266.386 125.204 266.171C125.219 266.135 125.243 266.104 125.272 266.079C125.302 266.055 125.338 266.038 125.375 266.03C125.439 266.03 125.547 266.119 125.547 266.174C125.551 266.339 125.543 266.504 125.521 266.667Z" fill="#31A1D5"/>
</g>
<path d="M333.58 132.386C333.005 125.021 332.182 117.655 331.36 110.392C328.071 83.078 328.728 47.171 315.16 23.8467C309.239 13.6168 299.536 11.7754 290.325 9.52482C248.304 -1.01201 203.898 0.113298 161.219 0.0109985C135.644 -0.0913008 110.152 0.522476 84.6597 1.75007C62.4567 2.87536 37.54 1.03399 16.0771 8.60413C-5.63255 16.2766 0.617198 47.7847 1.52177 68.8584C3.00197 104.765 4.89332 140.672 7.11363 176.58C8.01819 191.208 12.0476 221.08 28.0831 221.182C67.144 221.489 107.109 225.274 145.924 222.921C174.459 221.182 202.994 219.136 231.611 219.034C247.564 218.931 327.084 237.55 331.771 209.52C335.8 184.15 335.636 158.063 333.58 132.386Z" fill="#31A1D5"/>
<path d="M131.736 167.547C131.736 167.547 129.011 172.245 129.669 178.424C121.613 169.233 120.813 151.438 125.869 113.133L218.403 120.523C217.158 165.596 220.965 182.563 202.147 189.065C201.979 188.092 202.413 182.858 201.832 181.791C201.192 184.656 199.475 188.651 198.853 189.489C186.475 190.54 151.273 189.359 141.229 185.72C137.739 184.455 134.771 182.937 132.3 180.946C132.444 174.604 131.736 167.547 131.736 167.547Z" fill="#AD5C49"/>
<path d="M151.141 186.35C145.384 191.073 142.11 195.066 123.87 199.279C119.04 200.394 129.239 208.165 129.173 208.114C141.544 209.293 156.941 198.25 162.716 192.904C158.732 190.883 154.75 188.897 151.141 186.35Z" fill="#FBD3C7"/>
<path d="M155.103 181.375C153.394 183.13 154.56 198.116 152.746 199.642C147.962 201.999 140.229 195.254 138.019 193.161C141.554 188.45 150.39 180.791 155.103 181.375Z" fill="#E23768"/>
<path d="M234.617 169.824C235.724 172.227 236.945 175.691 238.309 177.977C221.982 185.154 206.325 191.99 188.477 194.545C188.469 189.565 188.037 184.79 187.789 179.825C203.984 179.17 219.026 174.345 234.617 169.824Z" fill="#FFD5C7"/>
<path d="M203.506 176.506C199.968 177.126 190.531 178.627 184.393 178.835C185.878 180.793 189.413 193.687 191.029 195.429C193.629 195.541 195.478 197.407 198.84 196.968C198.51 191.477 209.799 187.729 203.506 176.506Z" fill="#E23768"/>
<path d="M148.858 221.838C158.438 229.073 194.152 223.352 197.731 220.992C197.731 220.992 193.642 187.944 190.343 178.649C181.012 179.203 164.53 179.023 154.517 181.379C151.096 189.722 151.19 211.517 148.858 221.838Z" fill="#E23768"/>
<path d="M156.282 224.033C165.175 226.468 187.11 224.604 190.363 223.258C190.363 223.258 188.575 204.963 187.732 197.956C179.448 198.207 165.356 198.434 157.61 198.85C157.227 204.625 156.866 217.91 156.282 224.033Z" fill="white"/>
<path d="M163.702 219.067C167.215 222.745 179.108 222.303 182.879 218.857C182.879 218.857 182.655 211.695 181.85 207.649C177.045 207.794 168.436 207.967 163.944 208.208C163.479 211.906 163.822 216.642 163.702 219.067Z" fill="white"/>
<path opacity="0.32" d="M178.132 222.204C172.824 223.26 166.115 222.651 163.364 219.776L163.014 219.41L163.039 218.905C163.08 218.074 163.062 216.962 163.044 215.718C163.016 213.363 162.973 210.435 163.288 207.954L183.521 207.311C184.336 211.405 184.562 218.415 184.572 218.712L184.588 219.253L184.186 219.618C182.876 220.817 180.664 221.698 178.132 222.204ZM165.411 218.463C168.652 221.091 178.48 220.944 182.193 218.211C182.127 216.609 181.903 212.012 181.385 208.746C181.385 208.746 168.718 209.082 165.528 209.229C165.345 211.334 165.378 213.716 165.403 215.685C165.419 216.728 165.429 217.678 165.411 218.463Z" fill="#84C0D3"/>
<path d="M163.61 218.801C167.097 222.504 178.993 222.146 182.79 218.725C182.79 218.725 182.617 211.561 181.84 207.51C177.035 207.622 168.423 207.734 163.928 207.942C163.438 211.637 163.745 216.379 163.61 218.801Z" fill="white"/>
<path d="M162.321 183.094C162.26 181.982 162.677 180.923 163.388 179.958C169.214 179.907 176.04 179.62 181.975 179.071C182.722 179.925 183.205 180.89 183.263 181.951C183.464 185.621 178.938 188.854 173.155 189.169C167.37 189.484 162.522 186.764 162.321 183.094Z" fill="#FFD5C7"/>
<path d="M179.266 171.173L179.855 181.951C179.982 184.27 176.911 186.322 173 186.535C169.087 186.748 165.813 185.042 165.686 182.723L165.097 171.945L179.266 171.173Z" fill="#FFD5C7"/>
<g opacity="0.45">
<path opacity="0.32" d="M195.28 158.518C195.28 158.518 190.615 180.836 170.369 181.479C150.083 182.121 143.299 163.973 143.299 163.973L195.28 158.518Z" fill="#3A0808"/>
</g>
<path d="M226.276 153.202C223.269 161.713 214.34 166.454 208.049 165.06C201.761 163.666 201.149 156.418 202.988 148.128C204.827 139.839 211.419 134.229 217.705 135.644C226.294 137.581 229.103 145.205 226.276 153.202Z" fill="#FAC7B3"/>
<path d="M218.462 154.434C217.654 158.071 214.403 160.44 211.198 159.729C207.993 159.018 206.045 155.496 206.853 151.861C207.661 148.227 210.911 145.858 214.116 146.566C217.321 147.275 219.267 150.8 218.462 154.434Z" fill="#E4A68D"/>
<path d="M118.297 144.58C119.914 153.459 127.978 159.559 134.408 159.18C140.841 158.8 142.593 151.744 142.095 143.267C141.595 134.79 135.975 128.205 129.547 128.606C120.758 129.155 116.775 136.235 118.297 144.58Z" fill="#FAC7B3"/>
<path d="M126.283 147.072C126.502 150.79 129.336 153.644 132.615 153.451C135.893 153.258 138.372 150.089 138.154 146.371C137.935 142.653 135.101 139.798 131.822 139.991C128.544 140.187 126.065 143.356 126.283 147.072Z" fill="#E4A68D"/>
<path d="M129.697 116.86C127.516 144.187 145.463 157.989 171.972 160.105C198.48 162.223 218.904 151.483 221.085 124.157C223.267 96.8304 204.334 88.9322 177.825 86.8167C151.317 84.7012 131.881 89.5341 129.697 116.86Z" fill="#AD5C49"/>
<path d="M132.056 126.61C129.499 158.632 145.646 174.419 169.866 176.354C194.086 178.289 213.001 165.301 215.559 133.279C218.116 101.257 200.42 98.9947 176.197 97.0595C151.98 95.1243 134.614 94.5859 132.056 126.61Z" fill="#FBD3C7"/>
<path d="M140.074 154.93C139.728 159.242 142.946 163.016 147.256 163.359C151.565 163.702 155.342 160.486 155.685 156.177C156.03 151.864 152.812 148.091 148.503 147.748C144.193 147.402 140.419 150.62 140.074 154.93Z" fill="#FFC0C0"/>
<path d="M186.236 159.036C185.891 163.348 189.109 167.122 193.421 167.465C197.731 167.808 201.507 164.593 201.85 160.283C202.193 155.971 198.978 152.197 194.668 151.851C190.353 151.509 186.579 154.724 186.236 159.036Z" fill="#FFC0C0"/>
<path d="M163.266 134.562C165.843 139.113 165.064 143.816 162.321 145.393C158.189 147.771 148.909 147.755 145.816 143.542C142.819 139.461 145.036 132.68 150.725 130.171C155.703 127.972 160.769 130.158 163.266 134.562Z" fill="#F9FEFF"/>
<path d="M146.212 131.89C151.022 125.589 160.99 128.718 163.351 134.714C160.776 130.166 155.435 128.39 150.834 130.42C147.989 131.677 145.828 134.161 145.051 137.068C144.434 139.384 144.744 142.069 145.988 143.765C144.485 142.6 142.674 136.525 146.212 131.89Z" fill="#602220"/>
<path d="M161.93 137.335C162.88 140.416 161.153 143.684 158.072 144.634C154.992 145.584 151.723 143.857 150.773 140.776C149.824 137.696 151.551 134.427 154.631 133.477C157.712 132.525 160.978 134.252 161.93 137.335Z" fill="#461D14"/>
<path d="M161.498 136.782C161.762 137.638 161.282 138.544 160.429 138.806C159.573 139.07 158.666 138.59 158.405 137.737C158.14 136.881 158.62 135.974 159.474 135.713C160.33 135.449 161.236 135.926 161.498 136.782Z" fill="#FEFFFE"/>
<path d="M184.146 136.228C180.878 140.311 180.903 145.081 183.361 147.072C187.064 150.074 196.23 151.532 199.953 147.864C203.559 144.311 202.447 137.264 197.23 133.884C192.661 130.925 187.31 132.276 184.146 136.228Z" fill="#F9FEFF"/>
<path d="M201.408 136.299C197.66 129.315 187.321 130.821 184.037 136.367C187.303 132.286 192.855 131.38 197.078 134.115C199.689 135.809 201.428 138.605 201.733 141.597C201.977 143.981 201.243 146.584 199.745 148.06C201.413 147.146 204.166 141.434 201.408 136.299Z" fill="#602220"/>
<path d="M195.841 140.042C196.791 143.123 195.064 146.391 191.983 147.341C188.903 148.291 185.634 146.564 184.685 143.484C183.735 140.403 185.462 137.134 188.542 136.185C191.623 135.235 194.891 136.962 195.841 140.042Z" fill="#461D14"/>
<path d="M195.41 139.489C195.674 140.345 195.194 141.251 194.341 141.513C193.485 141.777 192.578 141.297 192.317 140.444C192.053 139.588 192.533 138.681 193.386 138.42C194.242 138.155 195.148 138.635 195.41 139.489Z" fill="#FEFFFE"/>
<path d="M169.287 149.431C169.485 149.446 169.668 149.319 169.719 149.121C170.069 147.714 171.27 146.881 172.779 147.001C174.298 147.123 175.377 148.154 175.466 149.571C175.481 149.797 175.677 149.969 175.903 149.957C176.131 149.942 176.301 149.746 176.289 149.52C176.174 147.707 174.76 146.333 172.848 146.18C170.945 146.028 169.368 147.13 168.921 148.921C168.865 149.142 169 149.365 169.221 149.421L169.287 149.431Z" fill="#C68C75"/>
<path d="M207.499 99.9976C207.029 100.858 205.64 115.616 204.911 121.968C204.388 126.526 211.931 145.733 232.148 133.371C205.752 131.722 233.809 107.19 207.499 99.9976Z" fill="#AD5C49"/>
<path d="M135.373 96.526C129.295 90.8829 131.228 83.8406 136.526 77.9436C141.676 99.0757 188.524 76.7297 206.388 93.6156C205.837 93.6435 210.741 99.416 206.982 103.015C203.731 110.435 189.484 121.214 164.545 122.661C168.967 120.561 173.246 116.85 176.977 113.877C175.514 114.346 174.013 114.793 172.471 115.207C158.844 118.864 141.727 115.812 134.565 113.856C130.867 126.112 131.774 141.988 132.706 146.76C119.911 125.729 126.253 98.0726 135.373 96.526Z" fill="#AD5C49"/>
<path d="M147.147 117.727C147.423 117.75 147.708 117.674 147.947 117.493C150.974 115.19 156.396 114.923 160.576 116.866C161.158 117.135 161.851 116.886 162.128 116.3C162.399 115.715 162.148 115.022 161.561 114.748C156.581 112.422 150.258 112.797 146.532 115.634C146.019 116.025 145.917 116.754 146.311 117.267C146.522 117.547 146.829 117.702 147.147 117.727Z" fill="#843E30"/>
<path d="M202.731 122.166C203.049 122.191 203.379 122.087 203.628 121.848C204.095 121.404 204.113 120.665 203.668 120.2C200.438 116.807 194.251 115.441 188.971 116.942C188.352 117.12 187.991 117.765 188.169 118.382C188.349 119.004 188.999 119.36 189.611 119.187C194.041 117.927 199.356 119.057 201.982 121.81C202.185 122.024 202.457 122.143 202.731 122.166Z" fill="#843E30"/>
<path d="M171.878 159.666C171.372 161.791 169.79 161.989 168.05 161.576C166.311 161.162 165.074 160.293 165.579 158.167C166.085 156.042 167.903 154.655 169.643 155.069C171.382 155.483 172.383 157.54 171.878 159.666Z" fill="#EF7D70"/>
<path d="M172.578 162.825C172.54 162.822 172.499 162.82 172.461 162.815C168.444 162.541 165.069 161.139 163.436 159.061C163.217 158.779 163.263 158.376 163.542 158.155C163.819 157.931 164.223 157.982 164.449 158.261C165.841 160.029 168.944 161.281 172.548 161.527C172.586 161.532 172.621 161.535 172.654 161.537C176.243 161.763 179.471 160.933 181.093 159.363C181.355 159.12 181.761 159.127 182.005 159.381C182.252 159.635 182.244 160.044 181.987 160.293C180.085 162.132 176.573 163.076 172.578 162.825Z" fill="#934341"/>
<path d="M212.288 47.1713C215.028 40.0832 210.898 29.4245 200.235 26.0493C186.404 21.671 169.157 27.3547 169.823 40.9416C166.844 36.256 152.922 33.498 147.695 38.6102C138.949 47.1611 144.696 59.8846 151.337 59.2192C149.653 66.4266 147.131 84.8033 146.758 88.9352C161.716 86.4134 197.075 88.2546 214.588 101.072C215.774 95.5865 220.287 76.128 220.353 76.1229C227.853 75.4372 235.693 71.45 233.534 60.1081C230.451 43.913 214.444 45.6704 212.288 47.1713Z" fill="white"/>
<path d="M214.441 100.973C196.913 88.1429 161.48 86.7512 147.187 89.0241C147.005 89.0546 146.118 89.4457 146.136 89.2654C146.492 85.2808 148.884 67.6228 150.598 59.8287C147.959 59.7068 144.762 57.6294 143.274 54.4524C141.346 50.3179 141.712 43.6362 147.284 38.1887C149.674 35.8497 153.968 34.8542 159.055 35.4383C163.304 35.931 167.134 37.4395 169.234 39.3645C169.457 35.1462 171.428 31.5019 174.991 28.7566C181.213 23.9592 191.425 22.6412 200.41 25.4881C205.632 27.1414 209.748 30.6384 212.003 35.3342C213.72 38.9125 214.154 42.7778 213.243 46.1402C215.62 45.4621 220.09 45.2767 224.277 46.9834C227.919 48.469 232.579 51.9331 234.113 60.0014C234.982 64.5702 234.337 68.3313 232.188 71.1783C229.923 74.1852 225.854 76.1178 220.816 76.6689C220.14 79.366 216.245 96.2062 215.163 101.199C215.117 101.395 214.571 101.067 214.441 100.973ZM147.383 88.6203C162.1 86.5074 196.471 87.7543 214.2 100.077C214.921 96.8182 216.29 90.8425 217.316 86.4109C219.818 75.582 219.772 75.5921 220.285 75.5388C225.209 75.0842 229.12 73.2887 231.243 70.4672C233.181 67.8971 233.755 64.4483 232.953 60.2173C231.802 54.1578 228.732 50.0715 223.83 48.0729C218.985 46.097 213.705 46.897 212.623 47.6538C212.407 47.8036 212.125 47.796 211.922 47.6335C211.719 47.4735 211.645 47.1992 211.737 46.9605C213.007 43.6819 212.709 39.5245 210.939 35.8421C208.829 31.4435 204.964 28.1648 200.055 26.6131C191.42 23.883 181.64 25.1173 175.71 29.6911C172.02 32.533 170.189 36.4135 170.41 40.9137C170.422 41.1803 170.257 41.4241 170.001 41.5054C169.757 41.5791 169.467 41.4851 169.323 41.2616C167.933 39.0699 163.652 37.1576 158.918 36.6116C154.25 36.0732 150.21 36.9722 148.107 39.0344C142.974 44.0476 142.723 50.4042 144.485 54.1908C145.905 57.2307 148.871 58.8764 151.279 58.6351C151.467 58.6173 151.655 58.6884 151.779 58.8332C151.903 58.9754 151.954 59.171 151.909 59.3564C150.326 66.1346 147.934 83.437 147.383 88.6203Z" fill="#92C9D6"/>
<path opacity="0.26" d="M214.586 101.075C215.254 98.723 220.056 77.8778 220.513 75.5185C215.411 76.608 210.893 74.1471 209.136 72.0824C190.274 78.1978 178.805 72.5497 172.09 66.9651C176.25 76.0798 195.168 79.9679 207.498 77.9515C204.531 81.9818 202.241 88.948 203.366 95.1472C208.29 96.7598 213.75 100.475 214.586 101.075Z" fill="#84C0D3"/>
<path d="M161.1 200.061L157.564 200.173C157.516 198.631 156.427 181.08 156.429 179.32H159.967C159.962 180.968 160.297 186.383 160.594 191.157C160.833 194.941 161.054 198.502 161.1 200.061Z" fill="white"/>
<path d="M187.903 198.933L184.368 199.045C184.299 196.836 184.525 190.807 184.726 185.491C184.85 182.065 184.967 179.041 184.964 177.85H188.505C188.502 179.061 188.385 182.139 188.258 185.623C188.07 190.621 187.834 196.846 187.903 198.933Z" fill="white"/>
<path d="M112.923 203.182C123.843 209.323 132.707 208.114 132.707 208.114C140.193 206.324 140.498 195.929 135.109 196.821C130.619 198.118 121.916 197.651 115.336 196.506C114.195 196.31 111.902 202.608 112.923 203.182Z" fill="#FBD3C7"/>
<path d="M96.4585 190.972C96.4433 191.447 96.3239 192.419 99.4248 193.796C99.9378 194.022 96.875 193.219 97.1823 193.834C98.0356 195.543 99.9429 197.829 103.455 200.099C110.406 204.589 117.156 203.827 118.622 201.816C119.653 200.401 116.595 187.365 110.162 185.263C109.515 185.052 111.6 190.002 110.828 190.162C109.774 190.38 108.387 188.795 106.051 188.12C100.867 186.624 97.0451 186.281 97.6928 188.059C97.9162 188.671 105.901 192.663 105.837 192.988C105.774 193.318 96.4687 190.616 96.4585 190.972Z" fill="#FBD3C7"/>
<path d="M139.774 189.903C139.774 193.781 120.125 196.922 95.8871 196.922C71.649 196.922 52 193.778 52 189.903C52 186.025 71.649 182.883 95.8871 182.883C120.125 182.883 139.774 186.025 139.774 189.903Z" fill="#3A9BA0"/>
<path d="M95.889 195.644C120.127 195.644 139.776 192.502 139.776 188.625C139.776 184.748 120.127 181.605 95.889 181.605C71.6509 181.605 52.002 184.748 52.002 188.625C52.002 192.502 71.6509 195.644 95.889 195.644Z" fill="#A3E5E1"/>
<path d="M95.8895 193.476C78.3128 193.476 59.6289 191.551 59.6289 187.988C59.6289 184.422 78.3128 182.5 95.8895 182.5C113.466 182.5 132.15 184.425 132.15 187.988C132.15 191.553 113.464 193.476 95.8895 193.476ZM95.8895 183.267C72.9974 183.267 60.3375 186.058 60.3375 187.988C60.3375 189.918 72.9974 192.709 95.8895 192.709C118.782 192.709 131.442 189.918 131.442 187.988C131.442 186.058 118.779 183.267 95.8895 183.267Z" fill="white"/>
<path opacity="0.19" d="M97.5859 187.363C97.5859 188.712 92.7149 189.806 86.7087 189.806C80.7025 189.806 75.8315 188.712 75.8315 187.363C75.8315 186.015 80.7025 184.92 86.7087 184.92C92.7174 184.923 97.5859 186.015 97.5859 187.363Z" fill="#020202"/>
<path d="M70.7192 173.865L76.8727 187.911C76.8727 187.911 78.5844 188.567 83.1684 187.861C88.3518 187.063 89.7511 185.928 89.7511 185.928L91.4628 170.673L70.7192 173.865Z" fill="#F45B83"/>
<path opacity="0.28" d="M85.7969 187.353L84.8471 171.688L83.4731 171.899L84.9512 187.543C85.2636 187.482 85.5201 187.416 85.7969 187.353Z" fill="white"/>
<path opacity="0.28" d="M87.6095 186.868L87.7695 171.236L86.3804 171.45L86.7435 187.116C87.0559 187.033 87.3581 186.949 87.6095 186.868Z" fill="white"/>
<path opacity="0.28" d="M89.1747 186.258L90.2337 170.86L89.0553 171.041L88.4204 186.588C88.7429 186.461 88.9791 186.355 89.1747 186.258Z" fill="white"/>
<path opacity="0.28" d="M81.9951 188.011L78.7113 172.633L77.3374 172.844L81.124 188.097C81.4008 188.074 81.6878 188.046 81.9951 188.011Z" fill="white"/>
<path opacity="0.28" d="M78.3658 188.153L73.1266 173.494L71.9482 173.677L77.5379 188.061C77.7563 188.094 78.023 188.127 78.3658 188.153Z" fill="white"/>
<path opacity="0.28" d="M83.0055 187.874C83.0639 187.866 83.1096 187.868 83.1705 187.858C83.4575 187.815 83.6937 187.767 83.9578 187.719L81.8601 172.146L80.3262 172.382L83.0055 187.874Z" fill="white"/>
<path opacity="0.28" d="M80.1415 188.168L75.8013 173.082L74.4121 173.296L79.2323 188.185C79.5066 188.185 79.8139 188.18 80.1415 188.168Z" fill="white"/>
<path d="M92.0069 168.219C92.5504 171.757 87.9461 175.399 81.7215 176.359C75.4969 177.316 70.0088 175.229 69.4653 171.691C68.9193 168.156 73.5262 164.512 79.7508 163.554C85.9754 162.594 91.4635 164.684 92.0069 168.219Z" fill="#C64B42"/>
<path d="M88.0137 164.557C88.514 167.353 85.4233 170.248 81.1085 171.02C76.7937 171.792 72.8903 170.154 72.39 167.355C71.8897 164.559 74.9804 161.664 79.2952 160.892C83.6075 160.118 87.5109 161.758 88.0137 164.557Z" fill="#E67168"/>
<path d="M85.607 161.241C87.0774 163.242 83.9969 166.18 80.7157 166.98C77.4371 167.78 74.3108 166.505 73.7343 164.133C73.1553 161.764 76.3298 156.796 82.5747 156.134C79.4764 161.645 84.3042 159.466 85.607 161.241Z" fill="#F99191"/>
<path d="M70.0611 160.108C74.4571 160.796 73.0527 167.463 73.0527 167.463C73.0527 167.463 67.2421 168.989 65.6421 166.127C63.9406 163.084 68.3976 163.404 68.3976 163.404C68.3976 163.404 67.7602 159.747 70.0611 160.108Z" fill="#FBBA38"/>
<path d="M74.6831 173.588C74.7365 173.941 74.4952 174.269 74.1448 174.324C73.7917 174.378 73.4641 174.136 73.4083 173.786C73.3549 173.433 73.5962 173.105 73.9492 173.049C74.2997 172.996 74.6298 173.237 74.6831 173.588Z" fill="#D6F4FC"/>
<path d="M79.6056 172.496C79.659 172.849 79.4177 173.177 79.0647 173.233C78.7117 173.286 78.3841 173.045 78.3282 172.694C78.2749 172.341 78.5161 172.014 78.8666 171.958C79.2221 171.902 79.5523 172.143 79.6056 172.496Z" fill="#D6F4FC"/>
<path d="M84.5376 173.032C84.591 173.385 84.3497 173.712 83.9992 173.768C83.6462 173.822 83.3186 173.58 83.2628 173.23C83.2094 172.877 83.4507 172.549 83.8012 172.493C84.1542 172.438 84.4818 172.681 84.5376 173.032Z" fill="#D6F4FC"/>
<path d="M88.3975 168.453C88.4508 168.806 88.2096 169.134 87.8591 169.189C87.5061 169.243 87.1759 169.001 87.1226 168.651C87.0693 168.298 87.3105 167.97 87.6635 167.915C88.014 167.859 88.3442 168.1 88.3975 168.453Z" fill="#D6F4FC"/>
<path d="M86.3833 165.012C86.4367 165.365 86.1954 165.692 85.8449 165.748C85.4919 165.802 85.1618 165.56 85.1085 165.21C85.0551 164.857 85.2964 164.529 85.6494 164.473C85.9999 164.418 86.33 164.659 86.3833 165.012Z" fill="#D6F4FC"/>
<path d="M76.4717 164.323C76.5251 164.676 76.2838 165.004 75.9333 165.06C75.5803 165.113 75.2502 164.872 75.1968 164.521C75.1435 164.168 75.3848 163.841 75.7378 163.785C76.0857 163.729 76.4158 163.97 76.4717 164.323Z" fill="#D6F4FC"/>
<path d="M80.9439 164.13C80.9972 164.483 80.756 164.814 80.4055 164.867C80.0525 164.92 79.7249 164.679 79.669 164.326C79.6157 163.973 79.8569 163.645 80.21 163.59C80.5579 163.536 80.888 163.777 80.9439 164.13Z" fill="#D6F4FC"/>
<path d="M80.3336 160.171C80.387 160.524 80.1457 160.852 79.7927 160.908C79.4397 160.961 79.1121 160.72 79.0562 160.37C79.0029 160.017 79.2441 159.689 79.5946 159.633C79.9502 159.577 80.2778 159.818 80.3336 160.171Z" fill="#D6F4FC"/>
<path d="M75.042 168.895C75.0954 169.248 74.8541 169.575 74.5036 169.631C74.1506 169.685 73.823 169.443 73.7672 169.093C73.7138 168.74 73.9551 168.412 74.3055 168.356C74.6585 168.301 74.9862 168.542 75.042 168.895Z" fill="#D6F4FC"/>
<path d="M70.354 170.761C70.4074 171.114 70.1661 171.442 69.8157 171.498C69.4626 171.551 69.135 171.31 69.0792 170.959C69.0258 170.606 69.2671 170.279 69.6176 170.223C69.9706 170.167 70.2982 170.411 70.354 170.761Z" fill="#D6F4FC"/>
<path d="M83.6714 167.406C83.7248 167.759 83.4835 168.087 83.133 168.143C82.78 168.196 82.4524 167.955 82.3965 167.605C82.3432 167.252 82.5845 166.924 82.9375 166.868C83.2879 166.812 83.6156 167.053 83.6714 167.406Z" fill="#D6F4FC"/>
<path opacity="0.19" d="M121.515 188.577C121.515 189.926 116.644 191.02 110.637 191.02C104.629 191.02 99.7603 189.926 99.7603 188.577C99.7603 187.229 104.629 186.134 110.637 186.134C116.644 186.134 121.515 187.226 121.515 188.577Z" fill="#020202"/>
<path d="M97.1797 171.818L99.9453 188.379C99.9453 188.379 101.586 189.535 106.642 190.015C112.359 190.558 114.149 189.73 114.149 189.73L120.057 173.995L97.1797 171.818Z" fill="#E83F3F"/>
<path opacity="0.28" d="M109.563 190.18L112.755 173.297L111.242 173.152L108.616 190.154C108.964 190.172 109.253 190.175 109.563 190.18Z" fill="white"/>
<path opacity="0.28" d="M111.62 190.152L115.98 173.604L114.449 173.459L110.634 190.185C110.987 190.18 111.33 190.172 111.62 190.152Z" fill="white"/>
<path opacity="0.28" d="M113.446 189.923L118.7 173.863L117.4 173.738L112.557 190.071C112.933 190.025 113.21 189.974 113.446 189.923Z" fill="white"/>
<path opacity="0.28" d="M105.352 189.86L105.992 172.656L104.442 172.512V189.72C104.74 189.768 105.019 189.814 105.352 189.86Z" fill="white"/>
<path opacity="0.28" d="M101.464 189.034L99.8364 172.07L98.5361 171.945L100.611 188.712C100.832 188.811 101.106 188.917 101.464 189.034Z" fill="white"/>
<path opacity="0.28" d="M106.462 189.984C106.525 189.992 106.576 190.007 106.64 190.012C106.957 190.042 107.219 190.053 107.513 190.075L109.464 172.984L107.77 172.824L106.462 189.984Z" fill="white"/>
<path opacity="0.28" d="M103.343 189.527L102.782 172.349L101.25 172.204L102.373 189.301C102.665 189.377 102.99 189.453 103.343 189.527Z" fill="white"/>
<path d="M121.288 171.536C120.917 175.437 115.054 178.068 108.189 177.416C101.324 176.763 96.0598 173.073 96.4306 169.175C96.8013 165.276 102.665 162.643 109.53 163.295C116.394 163.948 121.659 167.636 121.288 171.536Z" fill="#F2A35C"/>
<path d="M119.224 167.9C119 171.102 114.51 173.395 109.2 173.022C103.89 172.649 99.7653 169.751 99.9913 166.549C100.217 163.346 104.705 161.053 110.015 161.426C115.325 161.799 119.447 164.697 119.224 167.9Z" fill="#FCC281"/>
<path d="M105.728 161.67C105.954 163.389 104.746 164.966 103.026 165.192C101.307 165.418 99.7298 164.21 99.5037 162.49C99.2777 160.771 100.487 159.194 102.206 158.968C103.925 158.739 105.502 159.951 105.728 161.67Z" fill="#EA3636"/>
<path d="M117.408 163.402C118.413 166.069 114.421 168.499 110.787 168.469C107.155 168.438 104.23 166.12 104.253 163.29C104.275 160.461 108.227 154.95 116.024 155.349C111.336 160.667 116.516 161.035 117.408 163.402Z" fill="#FFD6A9"/>
<path d="M100.791 159.971C99.9933 158.417 97.6314 154.27 93.7864 152.647C93.1769 152.322 93.7738 151.667 94.4569 152.03C98.9977 154.447 101.08 159.567 101.273 159.778L100.791 159.971Z" fill="#9CC699"/>
<path d="M109.842 164.807C110.068 166.526 108.859 168.103 107.14 168.329C105.421 168.555 103.844 167.346 103.618 165.627C103.391 163.908 104.6 162.331 106.32 162.105C108.039 161.879 109.616 163.088 109.842 164.807Z" fill="#EA3636"/>
<path d="M106.675 162.744C106.622 161 106.274 156.238 103.5 153.119C103.092 152.563 103.912 152.228 104.372 152.85C107.432 156.985 107.112 162.503 107.196 162.777L106.675 162.744Z" fill="#9CC699"/>
<path d="M256.462 167.511C255.39 166.591 253.321 170.561 247.302 171.16C255.223 168.13 256.909 160.413 255.223 160.082C254.217 159.887 249.653 166.891 245.938 168.13C252.127 163.798 252.589 154.737 250.89 154.513C249.384 154.315 247.901 161.713 243.462 165.654C245.318 161.322 244.153 158.234 242.868 157.258C241.108 155.923 236.402 157.025 234.268 158.452C234.228 158.66 234.281 158.917 234.416 159.176C232.806 160.123 231.076 163.031 230.467 164.557C229.41 167.198 230.192 170.256 231.231 172.844C231.269 172.834 231.297 172.821 231.335 172.811C232.041 174.413 235.226 178.286 236.036 178.652C237.656 179.386 255.845 176.176 256.462 167.511ZM234.67 162.858C235.391 161.505 235.127 160.245 234.786 159.59C235.335 160.156 236.32 160.603 237.946 160.319C240.506 159.869 242.042 164.113 235.998 168.029C235.764 168.148 235.518 168.285 235.294 168.397C232.138 165.451 234.225 163.691 234.67 162.858Z" fill="#FFD5C7"/>
<path d="M251.938 134.61C252.068 134.166 251.811 133.699 251.367 133.567C250.925 133.447 250.453 133.691 250.323 134.138L248.187 141.429C248.058 141.874 248.312 142.351 248.759 142.473C248.797 142.483 248.832 142.491 248.868 142.496C249.279 142.559 249.683 142.31 249.802 141.899L251.938 134.61ZM240.386 133.782C240.213 133.346 239.72 133.137 239.296 133.31C238.864 133.483 238.651 133.97 238.824 134.402L241.62 141.467C241.734 141.754 241.991 141.945 242.275 141.988C242.42 142.011 242.57 141.998 242.712 141.94C243.144 141.767 243.357 141.279 243.187 140.845L240.386 133.782ZM261.203 142.056C261.05 141.617 260.568 141.391 260.131 141.541L252.964 144.063C252.527 144.218 252.296 144.698 252.451 145.137C252.558 145.439 252.819 145.642 253.117 145.688C253.249 145.708 253.388 145.698 253.525 145.653L260.692 143.133C261.127 142.976 261.358 142.496 261.203 142.056Z" fill="#919191"/>
<defs>
<clipPath id="clip0_342_10345">
<rect width="329.668" height="108" fill="white" transform="translate(5.33154 202)"/>
</clipPath>
<clipPath id="clip1_342_10345">
<rect width="22.1979" height="29.0001" fill="white" transform="translate(121 244)"/>
</clipPath>
</defs>
</svg>
