<svg width="335" height="310" viewBox="0 0 335 310" fill="none" xmlns="http://www.w3.org/2000/svg">
<g clip-path="url(#clip0_342_10264)">
<path d="M13.2518 219.995C12.9404 214.509 12.601 208.532 12.0627 201.766C14.4019 205.728 19.5295 208.526 26.6319 210.459C35.8842 212.978 48.7337 214.101 63.9356 214.309C93.9812 214.72 133.37 211.555 172.698 208.394L174.138 208.279C213.961 205.079 253.603 201.929 283.38 202.53C298.273 202.83 310.654 204.069 319.344 206.689C328.073 209.321 332.833 213.264 333.003 218.816L333.003 218.817C333.136 222.985 333.385 227.448 333.642 232.06C334.249 242.951 334.903 254.675 334.187 265.325C333.678 272.896 332.477 279.875 330.094 285.58C327.713 291.278 324.165 295.679 318.964 298.153C308.485 303.127 297.145 305.018 285.67 305.845C279.933 306.259 274.171 306.407 268.469 306.545L267.879 306.559C262.381 306.692 256.941 306.823 251.655 307.183C226.579 308.808 201.504 309.621 176.35 309.485L176.348 309.485C172.35 309.473 168.338 309.474 164.314 309.476C126.041 309.493 86.788 309.51 49.455 296.911L49.4514 296.91C48.963 296.749 48.4744 296.591 47.986 296.432C43.9168 295.11 39.8639 293.794 36.1281 291.441C31.9665 288.819 28.1892 284.902 25.3152 278.219L25.3149 278.218C15.2331 254.893 14.4488 241.079 13.2518 219.995Z" fill="#D9D9D9" stroke="#F4B43F"/>
<g clip-path="url(#clip1_342_10264)">
<path d="M137.521 261.803C136.285 259.09 132.827 257.541 129.815 259.481C129.494 259.687 129.17 259.889 128.835 260.101C128.813 260.056 128.797 260.008 128.787 259.959C128.772 259.713 128.762 259.466 128.752 259.22C128.695 257.706 128.576 256.201 128.034 254.76C127.945 254.526 127.825 254.33 127.534 254.43C127.243 254.53 127.257 254.746 127.347 254.985C127.726 255.991 127.89 257.037 127.965 258.1C128.01 258.788 128.033 259.471 128.095 260.155C128.153 260.795 128.612 261.02 129.194 260.714C129.359 260.628 129.512 260.522 129.672 260.425C130.025 260.211 130.372 259.975 130.743 259.789C133.666 258.32 136.99 260.526 137.168 263.446C137.262 265.007 136.568 266.26 135.462 267.312C133.58 269.103 131.22 270.12 128.849 271.125C128.408 270.572 127.768 270.422 127.056 270.179C127.44 269.858 127.762 269.593 128.082 269.319C128.727 268.767 129.373 268.218 130.006 267.656C130.194 267.49 130.227 267.272 130.006 267.098C129.803 266.936 129.632 267.034 129.456 267.189C128.846 267.728 128.237 268.271 127.598 268.777C127.125 269.15 126.627 269.486 126.39 270.06L123.477 269.663C123.522 269.007 123.748 268.408 124.041 267.832C124.394 267.131 124.814 266.456 125.126 265.737C125.391 265.121 125.567 264.463 125.754 263.817C125.824 263.578 125.709 263.377 125.438 263.346C125.184 263.317 125.069 263.478 125.039 263.716C124.942 264.506 124.627 265.224 124.244 265.919C123.6 267.099 122.855 268.241 122.744 269.584L118.652 269.731C118.631 269.504 118.631 269.266 118.588 269.037C118.422 268.163 118.245 267.291 118.068 266.419C118.025 266.201 117.892 266.063 117.653 266.099C117.415 266.134 117.32 266.305 117.359 266.523C117.455 267.06 117.573 267.594 117.671 268.132C117.776 268.706 117.869 269.283 117.968 269.868C117.299 269.997 116.718 270.114 116.133 270.217C116.094 270.22 116.054 270.215 116.016 270.202C115.979 270.19 115.944 270.17 115.914 270.144C115.208 269.526 114.679 268.778 114.227 267.974C114.084 267.716 113.962 267.45 113.785 267.223C113.733 267.169 113.668 267.127 113.596 267.102C113.524 267.077 113.447 267.068 113.371 267.077C113.271 267.099 113.174 267.28 113.138 267.406C113.115 267.492 113.196 267.605 113.246 267.698C113.762 268.684 114.336 269.633 115.145 270.395L113.482 271.151C112.175 269.818 110.781 268.443 109.457 267.011C108.806 266.292 108.328 265.44 108.059 264.517C107.319 262.098 108.923 259.667 111.785 259.981C112.627 260.073 113.406 260.374 114.168 260.716C114.424 260.838 114.69 260.94 114.963 261.019C115.076 261.048 115.276 261 115.337 260.917C115.408 260.821 115.4 260.643 115.372 260.509C115.328 260.292 115.223 260.086 115.173 259.869C114.731 257.955 115.103 256.137 115.907 254.387C117.353 251.238 120.418 250.017 123.607 251.303C124.622 251.707 125.523 252.341 126.236 253.153C126.479 253.429 126.702 253.497 126.873 253.325C127.116 253.082 126.961 252.878 126.779 252.685C126.771 252.677 126.764 252.669 126.757 252.661C125.823 251.603 124.598 250.827 123.226 250.425C120.954 249.752 118.826 250.013 117.061 251.639C114.98 253.557 114.22 256.018 114.28 258.75C114.29 259.175 114.383 259.597 114.441 260.053C114.109 259.924 113.808 259.8 113.503 259.688C112.363 259.273 111.202 259.086 110.006 259.43C108.353 259.908 107.34 261.334 107.08 262.963C106.76 264.977 107.335 266.719 108.859 268.144C109.081 268.352 109.286 268.578 109.508 268.787C110.261 269.497 111.013 270.207 111.774 270.908C112.24 271.338 112.337 271.854 112.316 272.456C112.265 273.462 112.274 274.469 112.343 275.474C112.46 276.87 113.219 277.868 114.65 278.204C115.783 278.476 116.936 278.663 118.098 278.763C119.855 278.907 121.622 278.967 123.385 279.001C125.019 279.032 126.651 278.931 128.255 278.591C129.245 278.381 129.534 278.062 129.612 277.092C129.738 275.616 129.715 274.131 129.545 272.659C129.515 272.407 129.604 272.315 129.832 272.218C130.847 271.777 131.883 271.369 132.849 270.842C134.809 269.766 136.408 268.313 137.393 266.303C138.122 264.82 138.232 263.354 137.521 261.803ZM126.597 277.541C123.027 277.878 119.429 277.813 115.874 277.349C115.395 277.289 114.927 277.157 114.454 277.054C114.351 277.031 114.252 276.986 114.101 276.932C116.086 276.078 126.221 276.301 128.069 277.286C127.575 277.374 127.09 277.496 126.597 277.544V277.541ZM128.274 276.337C128.274 276.389 128.267 276.441 128.261 276.509C125.92 275.847 123.52 275.751 121.119 275.698C118.719 275.646 116.312 275.667 113.862 276.21C113.862 274.862 113.851 273.544 113.869 272.231C113.874 271.843 114.178 271.605 114.514 271.483C115.159 271.238 115.819 271.033 116.491 270.87C119.422 270.209 122.459 270.132 125.422 270.644C126.018 270.745 126.612 270.857 127.204 270.981C127.394 271.034 127.58 271.1 127.761 271.179C128.15 271.32 128.302 271.581 128.29 271.995C128.271 273.442 128.279 274.891 128.274 276.338V276.337Z" fill="#F4B43F"/>
<path d="M129.683 253.608C130.255 253.707 130.731 253.78 131.203 253.875C131.411 253.918 131.544 254.089 131.459 254.281C131.406 254.404 131.209 254.561 131.091 254.55C130.602 254.5 130.116 254.414 129.64 254.292C129.531 254.263 129.403 254.034 129.416 253.908C129.429 253.782 129.611 253.681 129.683 253.608Z" fill="#F4B43F"/>
<path d="M129.13 252.796C128.985 252.664 128.831 252.589 128.808 252.485C128.78 252.367 128.825 252.162 128.916 252.101C129.276 251.858 129.653 251.642 130.046 251.454C130.144 251.408 130.357 251.471 130.442 251.555C130.528 251.639 130.539 251.878 130.484 251.918C130.057 252.219 129.606 252.493 129.13 252.796Z" fill="#F4B43F"/>
<path d="M127.81 251.273C127.973 250.859 128.103 250.475 128.285 250.114C128.327 250.028 128.561 249.979 128.679 250.011C128.777 250.038 128.921 250.231 128.898 250.31C128.782 250.707 128.634 251.095 128.457 251.47C128.424 251.542 128.198 251.585 128.088 251.556C127.979 251.527 127.905 251.374 127.81 251.273Z" fill="#F4B43F"/>
</g>
<path d="M156.233 254.398C158.96 254.398 161.12 255.37 162.929 257.422L160.283 259.366C159.176 258.178 157.934 257.476 156.26 257.476C152.345 257.476 149.699 260.5 149.699 264.307C149.699 268.249 152.237 271.408 156.26 271.408C158.069 271.408 159.473 270.463 160.553 269.086L163.361 271.084C161.714 273.406 159.041 274.486 156.233 274.486C150.347 274.486 146.135 270.463 146.135 264.523C146.135 258.583 150.131 254.398 156.233 254.398ZM171.746 260.716C175.715 260.716 178.793 263.47 178.793 267.52C178.793 271.57 175.715 274.324 171.746 274.324C167.777 274.324 164.699 271.57 164.699 267.52C164.699 263.497 167.804 260.716 171.746 260.716ZM167.939 267.52C167.939 269.761 169.559 271.408 171.746 271.408C174.014 271.408 175.553 269.68 175.553 267.52C175.553 265.279 173.933 263.632 171.719 263.632C169.559 263.632 167.939 265.306 167.939 267.52ZM188.226 260.716C192.195 260.716 195.273 263.47 195.273 267.52C195.273 271.57 192.195 274.324 188.226 274.324C184.257 274.324 181.179 271.57 181.179 267.52C181.179 263.497 184.284 260.716 188.226 260.716ZM184.419 267.52C184.419 269.761 186.039 271.408 188.226 271.408C190.494 271.408 192.033 269.68 192.033 267.52C192.033 265.279 190.413 263.632 188.199 263.632C186.039 263.632 184.419 265.306 184.419 267.52ZM198.306 274V253.588H201.546V266.413L206.541 261.04H210.699L205.137 266.926L211.05 274H206.757L201.6 267.385H201.546V274H198.306Z" fill="#F4B43F"/>
</g>
<path d="M333.58 132.386C333.005 125.021 332.182 117.655 331.36 110.392C328.071 83.078 328.728 47.171 315.16 23.8467C309.239 13.6168 299.536 11.7754 290.325 9.52482C248.304 -1.01201 203.898 0.113298 161.219 0.0109985C135.644 -0.0913008 110.152 0.522476 84.6597 1.75007C62.4567 2.87536 37.54 1.03399 16.0771 8.60413C-5.63255 16.2766 0.617198 47.7847 1.52177 68.8584C3.00197 104.765 4.89332 140.672 7.11363 176.58C8.01819 191.208 12.0476 221.08 28.0831 221.182C67.144 221.489 107.109 225.274 145.924 222.921C174.459 221.182 202.994 219.136 231.611 219.034C247.564 218.931 327.084 237.55 331.771 209.52C335.8 184.15 335.636 158.063 333.58 132.386Z" fill="#F4B43F"/>
<path d="M118.826 169.667C118.826 169.667 116.618 174.47 117.819 180.399C109.169 172.233 106.761 155.058 108.143 117.471L198.498 116.138C201.43 159.934 206.676 176.028 189.037 184.055C188.784 183.126 188.725 178.015 188.065 177.034C187.707 179.87 186.411 183.897 185.885 184.767C173.986 186.923 139.763 189.007 129.693 186.404C126.195 185.499 123.179 184.3 120.601 182.596C120.161 176.443 118.826 169.667 118.826 169.667Z" fill="#AD5C49"/>
<path d="M137.001 184.446C131.397 189.044 121.374 195.116 122.509 202.548C123.241 207.339 129.014 205.163 132.974 207.945C137.375 201.544 142.648 196.033 148.27 190.829C144.393 188.861 140.514 186.928 137.001 184.446Z" fill="#FAC7B3"/>
<path d="M140.861 179.605C139.197 181.313 140.332 195.902 138.566 197.388C133.909 199.682 126.381 193.116 124.23 191.081C127.671 186.49 136.272 179.037 140.861 179.605Z" fill="#E23768"/>
<path d="M185.588 220.899C183.393 222.412 180.661 212.903 179.853 212.298C183.294 206.562 183.039 203.808 171.034 190.426C172.676 186.174 173.573 183.249 176.871 179.115C192.402 191.086 201.072 205.415 185.588 220.899Z" fill="#FBD3C7"/>
<path d="M191.897 189.358C187.514 196.624 178.688 200.889 176.414 199.68C176.414 199.68 163.667 189.499 175.961 177.919C178.95 179.197 191.897 189.358 191.897 189.358Z" fill="#E23768"/>
<path d="M134.779 218.995C144.105 226.038 178.871 220.468 182.355 218.172C182.355 218.172 178.374 186 175.163 176.952C166.08 177.491 150.035 177.318 140.287 179.61C136.96 187.729 137.051 208.948 134.779 218.995Z" fill="#E23768"/>
<path d="M142.008 221.129C150.666 223.5 172.018 221.685 175.185 220.375C175.185 220.375 173.447 202.565 172.624 195.744C164.557 195.989 150.841 196.209 143.301 196.614C142.925 202.236 142.576 215.171 142.008 221.129Z" fill="white"/>
<path d="M149.232 216.298C152.651 219.878 164.228 219.448 167.902 216.093C167.902 216.093 167.684 209.119 166.901 205.183C162.223 205.324 153.84 205.492 149.469 205.727C149.014 209.324 149.345 213.935 149.232 216.298Z" fill="white"/>
<path opacity="0.32" d="M163.276 219.351C158.109 220.38 151.578 219.786 148.903 216.988L148.562 216.632L148.586 216.14C148.626 215.331 148.608 214.249 148.591 213.037C148.564 210.745 148.522 207.895 148.829 205.48L168.525 204.854C169.318 208.839 169.538 215.663 169.551 215.952L169.566 216.479L169.175 216.834C167.897 217.999 165.741 218.859 163.276 219.351ZM150.895 215.707C154.05 218.266 163.617 218.123 167.232 215.462C167.167 213.902 166.95 209.428 166.446 206.248C166.446 206.248 154.114 206.575 151.009 206.718C150.831 208.768 150.863 211.087 150.888 213.003C150.903 214.019 150.913 214.946 150.895 215.707Z" fill="#84C0D3"/>
<path d="M149.143 216.038C152.537 219.643 164.117 219.294 167.813 215.964C167.813 215.964 167.645 208.99 166.888 205.047C162.211 205.156 153.827 205.264 149.452 205.467C148.974 209.064 149.274 213.677 149.143 216.038Z" fill="white"/>
<path d="M147.887 181.276C147.827 180.193 148.233 179.162 148.925 178.223C154.596 178.173 161.242 177.894 167.019 177.36C167.746 178.191 168.216 179.13 168.273 180.164C168.468 183.736 164.062 186.883 158.433 187.19C152.801 187.496 148.079 184.848 147.887 181.276Z" fill="#FFD5C7"/>
<path d="M164.381 169.674L164.952 180.166C165.076 182.423 162.087 184.421 158.28 184.629C154.47 184.836 151.284 183.175 151.16 180.918L150.589 170.426L164.381 169.674Z" fill="#FFD5C7"/>
<g opacity="0.45">
<path opacity="0.32" d="M179.969 157.353C179.969 157.353 175.427 179.078 155.719 179.704C135.97 180.329 129.367 162.663 129.367 162.663L179.969 157.353Z" fill="#3A0808"/>
</g>
<path d="M209.129 147.088C206.995 155.612 198.777 161.027 192.552 160.253C186.33 159.477 185.071 152.512 186.093 144.31C187.114 136.107 192.988 130.065 199.21 130.861C207.712 131.948 211.134 139.078 209.129 147.088Z" fill="#FAC7B3"/>
<path d="M201.67 148.999C201.22 152.596 198.288 155.192 195.116 154.796C191.944 154.401 189.734 151.165 190.182 147.57C190.629 143.973 193.564 141.379 196.735 141.773C199.907 142.166 202.117 145.402 201.67 148.999Z" fill="#E4A68D"/>
<path d="M103.693 148.643C106.076 157.101 114.45 162.27 120.648 161.313C126.846 160.354 127.899 153.355 126.635 145.187C125.372 137.019 119.323 131.152 113.127 132.131C104.662 133.469 101.451 140.695 103.693 148.643Z" fill="#FAC7B3"/>
<path d="M111.661 150.327C112.215 153.909 115.224 156.416 118.383 155.929C121.54 155.439 123.654 152.141 123.1 148.559C122.546 144.977 119.538 142.47 116.378 142.957C113.221 143.444 111.11 146.744 111.661 150.327Z" fill="#E4A68D"/>
<path d="M112.198 120.734C112.591 147.417 131.251 159.145 157.135 158.764C183.019 158.384 201.826 146.102 201.432 119.419C201.039 92.7363 181.964 86.8202 156.08 87.201C130.195 87.5842 111.805 94.0515 112.198 120.734Z" fill="#AD5C49"/>
<path d="M115.379 129.965C115.842 161.234 132.937 175.051 156.589 174.703C180.241 174.354 197.378 160.033 196.916 128.764C196.453 97.4952 179.096 96.9266 155.444 97.2752C131.795 97.6213 114.917 98.6967 115.379 129.965Z" fill="#FBD3C7"/>
<path d="M125.748 156.675C125.81 160.885 129.274 164.248 133.484 164.186C137.692 164.124 141.056 160.66 140.995 156.45C140.933 152.24 137.469 148.878 133.259 148.94C129.049 149.001 125.687 152.465 125.748 156.675Z" fill="#FFC0C0"/>
<path d="M170.861 156.416C170.923 160.626 174.387 163.988 178.597 163.926C182.804 163.865 186.169 160.401 186.107 156.191C186.046 151.981 182.582 148.618 178.372 148.68C174.162 148.742 170.799 152.208 170.861 156.416Z" fill="#FFC0C0"/>
<path d="M146.354 134.806C149.271 138.979 148.945 143.61 146.433 145.39C142.646 148.072 133.652 148.91 130.267 145.11C126.989 141.432 128.515 134.658 133.795 131.701C138.418 129.115 143.531 130.769 146.354 134.806Z" fill="#F9FEFF"/>
<path d="M129.583 133.785C133.667 127.238 143.612 129.355 146.453 134.949C143.538 130.779 138.201 129.548 133.926 131.936C131.283 133.414 129.417 136.022 128.932 138.91C128.547 141.211 129.093 143.785 130.455 145.313C128.893 144.322 126.579 138.598 129.583 133.785Z" fill="#602220"/>
<path d="M145.313 137.617C146.517 140.517 145.142 143.842 142.245 145.046C139.345 146.25 136.02 144.875 134.818 141.978C133.614 139.078 134.989 135.753 137.886 134.549C140.784 133.343 144.109 134.717 145.313 137.617Z" fill="#461D14"/>
<path d="M144.846 137.12C145.179 137.923 144.799 138.848 143.993 139.182C143.189 139.516 142.267 139.135 141.933 138.329C141.6 137.525 141.98 136.603 142.784 136.267C143.59 135.933 144.512 136.316 144.846 137.12Z" fill="#FEFFFE"/>
<path d="M166.745 134.507C163.951 138.764 164.413 143.385 166.98 145.088C170.844 147.659 179.86 148.23 183.131 144.334C186.3 140.559 184.574 133.835 179.207 131.034C174.507 128.584 169.447 130.386 166.745 134.507Z" fill="#F9FEFF"/>
<path d="M183.479 132.989C179.205 126.564 169.326 128.974 166.651 134.65C169.44 130.395 174.74 129.006 179.084 131.271C181.769 132.672 183.712 135.221 184.28 138.094C184.735 140.383 184.263 142.972 182.948 144.539C184.478 143.501 186.621 137.713 183.479 132.989Z" fill="#602220"/>
<path d="M178.426 137.127C179.63 140.027 178.255 143.352 175.355 144.556C172.458 145.76 169.13 144.386 167.929 141.486C166.725 138.588 168.099 135.261 170.997 134.059C173.897 132.855 177.222 134.23 178.426 137.127Z" fill="#461D14"/>
<path d="M177.959 136.631C178.292 137.434 177.912 138.359 177.108 138.692C176.305 139.026 175.382 138.645 175.046 137.842C174.712 137.038 175.093 136.114 175.897 135.78C176.703 135.446 177.625 135.827 177.959 136.631Z" fill="#FEFFFE"/>
<path d="M153.553 148.665C153.746 148.663 153.914 148.522 153.944 148.324C154.154 146.927 155.242 146.01 156.715 145.988C158.196 145.966 159.338 146.868 159.553 148.233C159.588 148.45 159.796 148.601 160.013 148.566C160.233 148.532 160.382 148.327 160.347 148.107C160.07 146.359 158.572 145.16 156.705 145.187C154.849 145.214 153.42 146.425 153.15 148.203C153.118 148.423 153.269 148.626 153.487 148.66L153.553 148.665Z" fill="#C68C75"/>
<path d="M186.048 97.2505C185.67 98.1281 185.679 112.556 185.556 118.779C185.469 123.246 194.542 141.167 213 127.33C187.267 128.156 212.206 101.804 186.048 97.2505Z" fill="#AD5C49"/>
<path d="M115.83 100.504C109.424 95.5941 110.648 88.5902 115.241 82.3899C122.174 102.395 165.524 76.4417 184.384 91.1663C183.853 91.2429 189.136 96.3876 185.823 100.22C183.354 107.708 170.535 119.463 146.5 123.154C150.592 120.712 154.399 116.724 157.741 113.5C156.367 114.089 154.955 114.662 153.499 115.204C140.626 120 123.758 118.61 116.638 117.374C114.181 129.592 116.515 144.893 117.859 149.434C103.528 130.225 107.135 102.843 115.83 100.504Z" fill="#AD5C49"/>
<path d="M129.189 119.97C129.459 119.966 129.728 119.867 129.941 119.669C132.663 117.16 137.894 116.401 142.124 117.904C142.712 118.111 143.362 117.805 143.575 117.214C143.785 116.623 143.476 115.975 142.885 115.763C137.844 113.965 131.753 114.91 128.403 118C127.941 118.425 127.911 119.142 128.339 119.605C128.566 119.854 128.878 119.975 129.189 119.97Z" fill="#843E30"/>
<path d="M183.464 119.169C183.776 119.164 184.082 119.033 184.305 118.779C184.718 118.306 184.666 117.587 184.194 117.176C180.75 114.185 174.629 113.429 169.65 115.367C169.064 115.597 168.774 116.254 169.002 116.838C169.232 117.424 169.897 117.71 170.473 117.486C174.648 115.859 179.904 116.467 182.703 118.892C182.923 119.083 183.195 119.174 183.464 119.169Z" fill="#843E30"/>
<path d="M144.206 156.134C145.148 160.436 149.835 164.327 155.966 164.26C162.095 164.196 167.457 160.122 167.813 155.882C168.34 149.615 162.008 154.381 155.877 154.154C149.751 153.926 142.784 149.64 144.206 156.134Z" fill="#660E04"/>
<path d="M155.269 160.092C158.581 160.057 161.462 160.893 163.145 162.309C161.197 163.508 158.717 164.334 155.966 164.361C152.868 164.394 150.304 163.464 148.252 162.033C149.961 160.841 152.327 160.122 155.269 160.092Z" fill="#EF7D70"/>
<path d="M147.885 152.537C149.855 152.087 152.817 153.446 155.87 153.56C159.314 153.689 162.209 152.215 164.35 152.752C163.487 154.537 160.187 155.894 156.221 155.936C151.971 155.983 148.453 154.499 147.885 152.537Z" fill="white"/>
<path d="M185.84 45.6133C187.845 38.4933 182.864 28.5426 172.218 26.2509C158.413 23.2793 142.22 30.3671 144.112 43.4748C140.794 39.2078 127.048 37.8134 122.452 43.2474C114.761 52.3353 121.498 64.1401 127.874 62.8842C126.905 70.024 126.146 88.0638 126.163 92.1034C140.43 88.2863 174.866 86.8252 193.012 97.6387C193.657 92.2122 196.246 72.9412 196.308 72.9313C203.512 71.579 210.743 66.9931 207.611 56.1994C203.143 40.79 187.793 43.9594 185.84 45.6133Z" fill="white"/>
<path d="M192.866 97.557C174.7 86.7336 140.235 88.6372 126.591 92.1502C126.418 92.1947 125.592 92.6571 125.595 92.4791C125.575 88.5828 126.272 71.2526 127.219 63.5417C124.65 63.6653 121.362 61.9471 119.629 59.0027C117.382 55.1732 117.122 48.6639 122.022 42.8739C124.124 40.3894 128.193 39.0272 133.179 39.1285C137.34 39.215 141.194 40.3251 143.402 42.0012C143.232 37.8924 144.806 34.1791 148.008 31.1927C153.598 25.9738 163.373 23.7562 172.342 25.692C177.553 26.8144 181.865 29.8255 184.481 34.1692C186.473 37.4795 187.249 41.1854 186.673 44.5278C188.916 43.6502 193.23 43.0618 197.445 44.3325C201.109 45.4376 205.944 48.3672 208.172 56.0459C209.435 60.3946 209.153 64.098 207.331 67.0547C205.413 70.1747 201.645 72.4244 196.814 73.4207C196.409 76.0957 194.179 92.7732 193.588 97.7127C193.561 97.9031 193.002 97.6361 192.866 97.557ZM126.744 91.7423C140.814 88.3455 174.238 86.3974 192.55 96.7115C192.95 93.4877 193.727 87.5717 194.317 83.1835C195.746 72.459 195.704 72.4714 196.196 72.3725C200.926 71.48 204.552 69.3811 206.35 66.4515C207.994 63.7815 208.231 60.3872 207.067 56.3624C205.396 50.5972 202.046 46.9185 197.111 45.4302C192.233 43.9592 187.19 45.2201 186.211 46.0532C186.016 46.2188 185.741 46.2362 185.529 46.0977C185.319 45.9617 185.22 45.7021 185.286 45.4599C186.216 42.1669 185.546 38.1643 183.494 34.7576C181.044 30.6883 176.997 27.8651 172.097 26.8119C163.477 24.9602 154.114 27.0542 148.787 32.0308C145.471 35.1235 144.052 39.0519 144.68 43.3931C144.717 43.6502 144.579 43.9024 144.337 44.0037C144.107 44.0977 143.817 44.0334 143.657 43.8282C142.109 41.8307 137.785 40.3696 133.145 40.2756C128.571 40.1817 124.737 41.4227 122.888 43.6156C118.373 48.9457 118.712 55.1312 120.769 58.6368C122.423 61.4527 125.451 62.7753 127.763 62.3204C127.943 62.2858 128.131 62.3377 128.265 62.4663C128.398 62.5924 128.465 62.7778 128.438 62.9607C127.533 69.6802 126.801 86.6669 126.744 91.7423Z" fill="#92C9D6"/>
<path opacity="0.26" d="M193.017 97.6413C193.447 95.3001 196.189 74.6571 196.416 72.3282C191.571 73.8536 186.968 71.8807 185.076 70.0414C167.358 77.7004 155.724 73.2776 148.705 68.4814C153.573 76.9315 172.265 78.9637 184.028 75.8783C181.524 80.0564 179.944 87.0182 181.603 92.9218C186.518 94.0368 192.149 97.1394 193.017 97.6413Z" fill="#84C0D3"/>
<path d="M146.697 197.796L143.256 197.904C143.209 196.404 142.148 179.318 142.151 177.605H145.597C145.592 179.209 145.919 184.48 146.208 189.128C146.435 192.809 146.65 196.278 146.697 197.796Z" fill="white"/>
<path d="M172.789 196.696L169.348 196.804C169.281 194.654 169.501 188.785 169.697 183.61C169.818 180.275 169.932 177.331 169.929 176.171H173.373C173.37 177.351 173.257 180.347 173.133 183.739C172.953 188.607 172.723 194.666 172.789 196.696Z" fill="white"/>
<path d="M174.351 208.866C177.879 219.697 174.974 230.355 156.359 236.417C136.277 242.956 129.12 235.574 125.592 224.743C122.064 213.91 134.608 211.932 148.072 207.546C161.538 203.163 170.824 198.036 174.351 208.866Z" fill="#3A9BA0"/>
<path d="M175.585 204.678C177.514 210.604 167.113 219.304 152.349 224.11C137.587 228.916 124.057 228.011 122.126 222.085C120.198 216.162 130.601 207.46 145.363 202.654C160.124 197.848 173.657 198.752 175.585 204.678Z" fill="#46C6CC"/>
<path d="M173.123 204.11C174.658 208.827 164.937 216.221 151.409 220.627C137.881 225.032 125.668 224.78 124.133 220.063C122.598 215.346 132.319 207.952 145.847 203.549C159.375 199.141 171.587 199.393 173.123 204.11Z" fill="#BDEFEE"/>
<path d="M148.628 212.085C139.765 214.97 133.048 219.806 132.69 223.742C137.696 223.944 144.374 222.916 151.41 220.624C158.322 218.372 164.238 215.341 168.169 212.285C165.632 209.245 157.565 209.175 148.628 212.085Z" fill="#BA706E"/>
<path d="M146.554 221.002C144.089 221.806 141.691 222.325 139.802 222.469C137.694 222.629 136.492 222.305 136.233 221.507C135.995 220.777 136.631 219.902 138.124 218.904C138.297 218.787 138.529 218.834 138.643 219.007C138.759 219.18 138.712 219.413 138.539 219.527C137.135 220.466 136.875 221.069 136.942 221.277C137.019 221.514 137.696 221.878 139.743 221.722C141.573 221.583 143.909 221.074 146.319 220.29C146.517 220.226 146.727 220.332 146.791 220.53C146.858 220.728 146.749 220.938 146.554 221.002Z" fill="#E2B8B7"/>
<path d="M155.708 217.23C155.558 217.279 155.387 217.228 155.288 217.094C155.167 216.926 155.204 216.691 155.372 216.57C156.433 215.804 156.724 215.267 156.65 215.042C156.574 214.81 156.005 214.545 154.648 214.56C154.44 214.562 154.272 214.397 154.27 214.189C154.267 213.982 154.435 213.813 154.64 213.811C156.225 213.794 157.142 214.13 157.362 214.81C157.58 215.48 157.058 216.276 155.812 217.178C155.78 217.2 155.745 217.22 155.708 217.23Z" fill="#E2B8B7"/>
<path d="M160.04 215.764C159.889 215.814 159.716 215.762 159.62 215.626C159.498 215.458 159.538 215.223 159.706 215.104C161.209 214.031 161.612 213.242 161.489 212.864C161.348 212.432 160.403 212.009 158.176 212.12C157.968 212.13 157.793 211.972 157.783 211.764C157.773 211.559 157.929 211.381 158.139 211.371C160.49 211.255 161.894 211.69 162.201 212.632C162.482 213.5 161.79 214.538 160.141 215.715C160.109 215.737 160.077 215.752 160.04 215.764Z" fill="#E2B8B7"/>
<path d="M139.422 207.051C139.795 206.957 142.376 203.692 139.36 201.509C135.402 198.646 133.981 198.532 129.966 199.679C129.57 199.793 130.072 201.711 130.453 202.166C130.833 202.621 137.041 207.857 136.604 207.012C136.171 206.179 135.672 203.981 137.39 203.897C139.439 203.798 138.46 207.294 139.422 207.051Z" fill="#FFD5C7"/>
<path opacity="0.19" d="M138.28 204.624C137.921 205.393 136.72 205.588 135.595 205.064C134.473 204.54 133.852 203.492 134.21 202.723C134.569 201.954 135.77 201.759 136.895 202.283C138.018 202.809 138.638 203.858 138.28 204.624Z" fill="#592219"/>
<path d="M148.826 209.247C146.619 206.167 143.064 204.809 140.258 205.746C138.567 203.066 125.12 181.64 124.552 180.755C123.434 179.014 122.697 177.862 121.296 177.889C120.131 177.912 119.496 179.076 119.877 180.49C119.973 180.849 120.126 181.187 120.319 181.494C120.396 181.617 120.48 181.734 120.569 181.845C121.367 183.022 135.555 205.67 137.229 208.32C135.973 210.681 136.29 214.036 138.275 216.805C139.138 218.009 140.206 218.943 141.355 219.588L150.099 217.245C151.076 214.926 150.68 211.833 148.826 209.247Z" fill="#3DBFBF"/>
<path d="M134.351 202.382C135.276 203.875 137.961 205.215 140.982 204.362C141.728 204.152 141.432 206.206 139.533 207.46C137.417 208.857 132.257 210.577 130.537 210.004C129.491 209.655 126.522 207.71 123.656 204.842C122.428 199.929 127.926 198.716 130.005 199.761C131.526 200.525 133.743 201.398 134.351 202.382Z" fill="#FFD5C7"/>
<path d="M176.987 227.205C187.66 221.302 190.903 213.255 190.903 213.255C193.249 206.137 185.086 200.656 183.066 205.578C181.845 209.959 177.004 216.931 172.69 221.796C171.946 222.637 175.991 227.757 176.987 227.205Z" fill="#FBD3C7"/>
<path d="M158.453 234.597C158.838 234.852 159.585 235.448 162.309 233.586C162.759 233.279 160.529 235.403 161.192 235.465C163.046 235.633 165.914 235.223 169.59 233.475C176.866 230.014 179.689 224.033 178.772 221.793C178.127 220.216 165.768 216.08 160.735 220.332C160.228 220.76 165.395 221.566 165.133 222.288C164.774 223.274 162.752 223.611 160.999 225.2C157.11 228.728 154.87 231.719 156.675 232.09C157.298 232.219 164.688 227.648 164.925 227.865C165.16 228.08 158.163 234.404 158.453 234.597Z" fill="#FBD3C7"/>
<defs>
<clipPath id="clip0_342_10264">
<rect width="329.668" height="108" fill="white" transform="translate(5.33154 202)"/>
</clipPath>
<clipPath id="clip1_342_10264">
<rect width="31" height="29" fill="white" transform="translate(107 250)"/>
</clipPath>
</defs>
</svg>
