<svg width="335" height="310" viewBox="0 0 335 310" fill="none" xmlns="http://www.w3.org/2000/svg">
<g clip-path="url(#clip0_342_10466)">
<path d="M11.272 190.595C10.8196 183.057 10.3772 175.684 9.82474 168.671C12.1689 172.831 17.3046 176.131 24.4476 178.785C33.7575 182.244 46.6924 184.686 62.0005 186.462C92.2309 189.967 131.857 190.882 171.431 191.795L172.973 191.831C213.075 192.757 252.996 193.717 282.981 197.395C297.978 199.235 310.45 201.751 319.206 205.264C328.003 208.794 332.832 213.237 333.003 218.816L333.003 218.817C333.136 222.985 333.385 227.448 333.642 232.06C334.249 242.951 334.903 254.675 334.187 265.325C333.678 272.896 332.477 279.875 330.094 285.58C327.713 291.278 324.165 295.679 318.964 298.153C308.485 303.127 297.145 305.018 285.67 305.845C279.933 306.259 274.171 306.407 268.469 306.545L267.879 306.559C262.381 306.692 256.941 306.823 251.655 307.183C226.579 308.808 201.504 309.621 176.35 309.485L176.348 309.485C172.35 309.473 168.338 309.474 164.314 309.476C126.041 309.493 86.788 309.51 49.455 296.911L49.4514 296.91C48.963 296.749 48.4744 296.591 47.986 296.432C43.9168 295.11 39.8639 293.794 36.1281 291.441C31.9665 288.819 28.1892 284.902 25.3152 278.219L25.3149 278.218C18.725 262.972 15.5515 243.616 13.6357 223.528C12.6782 213.488 12.0357 203.277 11.4355 193.317C11.3807 192.407 11.3263 191.5 11.272 190.595Z" fill="#D9D9D9" stroke="#CC017A"/>
<g clip-path="url(#clip1_342_10466)">
<path d="M138.296 262.512C138.911 260.136 138.386 257.86 136.599 255.116C135.229 252.953 133.29 251.21 130.995 250.078C128.687 248.957 126.2 248.25 123.648 247.989L123.388 247.962C122.735 247.92 122.09 247.809 121.461 247.63C121.163 247.54 120.852 247.497 120.541 247.5C120.28 247.498 120.019 247.524 119.764 247.576C118.864 247.758 117.983 248.022 117.132 248.367C114.721 249.31 112.74 250.953 110.958 252.588C110.138 253.339 109.427 254.202 108.847 255.152C108.236 256.215 107.718 257.328 107.298 258.479C107.068 259.031 106.905 259.609 106.813 260.199C106.718 261.01 106.676 261.826 106.687 262.642C106.686 263.195 106.728 263.748 106.813 264.295C107.045 265.533 107.501 266.719 108.16 267.793C108.816 269.111 109.699 270.302 110.769 271.313C111.107 271.599 111.466 271.858 111.842 272.09C112.107 272.265 112.386 272.44 112.646 272.638C115.143 274.533 118.196 275.467 121.65 276.415C121.871 276.479 122.102 276.507 122.332 276.5C123.044 276.47 123.752 276.387 124.452 276.253C124.968 276.168 125.503 276.082 126.046 276.019C126.899 275.951 127.742 275.791 128.561 275.543C130.006 275.025 131.383 274.333 132.661 273.482C133.263 273.07 133.828 272.605 134.349 272.095C134.6 271.866 134.847 271.646 135.108 271.412C135.787 270.836 136.335 270.121 136.716 269.315C136.828 269.077 136.94 268.844 137.057 268.606C137.91 266.932 138.335 265.073 138.296 263.194C138.296 263.132 138.296 263.069 138.296 263.006C138.266 262.843 138.266 262.675 138.296 262.512ZM127.829 249.857C130.653 250.284 133.41 252.399 134.565 254.168L134.699 254.366L134.511 254.523C134.461 254.564 134.412 254.613 134.358 254.662C134.222 254.808 134.06 254.928 133.882 255.017L133.361 255.255C132.568 255.669 131.715 255.959 130.833 256.113L130.658 256.14L130.563 255.987C130.519 255.911 130.465 255.834 130.415 255.758C130.292 255.581 130.182 255.395 130.087 255.201C129.971 254.95 129.858 254.694 129.746 254.438C129.265 253.222 128.628 252.073 127.851 251.021C127.748 250.875 127.675 250.71 127.636 250.536C127.609 250.446 127.573 250.338 127.528 250.217L127.371 249.768L127.829 249.857ZM130.469 264.56V264.744L130.299 264.807C128.951 265.332 126.585 265.669 124.218 265.669C123.121 265.692 122.025 265.585 120.954 265.35L120.797 265.309L120.756 265.152C120.392 263.661 120.698 260.213 121.412 257.77L121.466 257.581H121.663H121.96H122.445C122.528 257.577 122.612 257.577 122.696 257.581C123.415 257.622 124.268 257.662 125.121 257.662C126.046 257.668 126.971 257.605 127.887 257.473C128.171 257.435 128.458 257.419 128.745 257.424H129.643L129.715 257.59L129.818 257.806C129.905 257.952 129.965 258.114 129.993 258.282C130.293 260.355 130.448 262.447 130.456 264.542L130.469 264.56ZM123.733 249.822C123.822 249.652 123.93 249.494 124.057 249.35L124.173 249.202L124.241 249.112H124.349C124.497 249.086 124.647 249.073 124.798 249.072C125.043 249.059 125.288 249.11 125.509 249.218C125.729 249.327 125.919 249.49 126.059 249.691L126.338 250.082C126.743 250.621 127.121 251.18 127.469 251.757C128.331 253.141 128.999 254.637 129.454 256.203L129.535 256.49L129.239 256.539C127.839 256.783 126.421 256.906 125 256.908C124.012 256.907 123.026 256.848 122.045 256.733L121.838 256.706L121.811 256.499C121.811 256.423 121.784 256.351 121.766 256.283C121.719 256.117 121.706 255.943 121.731 255.772C122.136 253.711 122.806 251.711 123.724 249.822H123.733ZM123.432 249.031L123.635 249.161L123.432 249.566C123.361 249.709 123.284 249.857 123.203 250.015C122.241 251.652 121.519 253.418 121.057 255.26L121.026 255.399C120.994 255.565 120.95 255.728 120.895 255.888C120.841 256.064 120.732 256.218 120.584 256.328C120.436 256.438 120.258 256.498 120.074 256.499C119.99 256.499 119.907 256.486 119.827 256.463C119.238 256.297 118.65 256.122 118.008 255.924L116.876 255.583L116.993 255.309C117.069 255.129 117.128 254.968 117.182 254.824C117.268 254.562 117.384 254.31 117.527 254.074C118.637 252.351 119.915 250.743 121.344 249.274C121.489 249.106 121.666 248.969 121.864 248.87C122.062 248.772 122.278 248.713 122.498 248.699C122.833 248.715 123.155 248.831 123.423 249.031H123.432ZM120.334 258.583C119.945 260.555 119.736 262.558 119.71 264.569C119.701 264.692 119.658 264.81 119.584 264.91C119.538 264.979 119.498 265.051 119.463 265.125L119.369 265.3L119.171 265.265C117.493 264.95 115.872 264.381 114.366 263.576L114.209 263.495V263.32C114.402 260.936 115.296 258.758 116.167 256.647L116.27 256.391L116.418 256.364C116.513 256.35 116.609 256.343 116.706 256.342C117.07 256.358 117.427 256.442 117.761 256.589C117.943 256.662 118.131 256.721 118.322 256.764C118.708 256.84 119.095 256.93 119.494 257.029L120.235 257.2V257.397C120.235 257.527 120.262 257.653 120.28 257.774C120.343 258.039 120.361 258.312 120.334 258.583ZM112.588 252.556C112.655 252.475 112.714 252.399 112.767 252.327C112.878 252.171 113.006 252.028 113.149 251.901C113.356 251.735 113.571 251.582 113.782 251.429C113.993 251.276 114.281 251.074 114.51 250.881C115.607 249.967 116.867 249.269 118.223 248.825C118.682 248.671 119.164 248.6 119.647 248.614C119.979 248.614 120.325 248.636 120.689 248.659L121.677 248.717L120.329 250.113C119.674 250.796 119.063 251.429 118.461 252.067C118.102 252.47 117.779 252.904 117.496 253.365C117.121 253.984 116.668 254.553 116.149 255.058L115.996 255.201L112.377 252.799L112.588 252.556ZM113.248 271.596C112.269 271.376 111.388 270.843 110.738 270.078C110.361 269.635 110.019 269.164 109.714 268.668C108.417 266.671 107.717 264.345 107.698 261.964C107.702 261.735 107.734 261.508 107.792 261.286C107.828 261.165 107.874 261.048 107.931 260.936L108.016 260.765L108.133 260.496L108.389 260.635C108.805 260.891 109.174 261.216 109.48 261.596C109.775 261.979 110.151 262.294 110.581 262.516C111.21 262.816 111.803 263.185 112.35 263.617C112.597 263.801 112.853 263.985 113.113 264.164L113.239 264.25L113.198 265.089C113.086 267.218 112.978 269.23 113.58 271.259L113.724 271.731L113.248 271.596ZM113.378 263.001L113.14 262.947C111.097 262.498 109.902 261.088 108.65 259.602L108.299 259.193L108.335 259.054C108.95 256.837 110.165 254.832 111.847 253.261L112.013 253.109L115.843 256.01C115.843 256.01 115.516 256.908 115.394 257.222C115.107 257.99 114.815 258.753 114.546 259.521C114.276 260.289 114.047 260.994 113.8 261.766C113.67 262.09 113.374 263.001 113.374 263.001H113.378ZM114.303 271.188C114.272 271.066 114.236 270.95 114.195 270.833C114.096 270.541 114.025 270.24 113.984 269.935C113.802 268.304 113.77 266.659 113.89 265.022V264.811L114.097 264.775C114.164 264.775 114.227 264.748 114.29 264.735C114.405 264.698 114.524 264.677 114.644 264.672C114.707 264.672 114.769 264.681 114.829 264.699C115.951 265.062 117.074 265.444 118.228 265.835L119.485 266.284V266.468C119.485 266.773 119.517 267.083 119.53 267.393C119.562 268.089 119.598 268.803 119.66 269.508C119.7 269.839 119.76 270.168 119.84 270.492C120.038 271.158 120.093 271.859 120.002 272.548L119.97 272.737L119.777 272.764L119.517 272.818C119.338 272.865 119.154 272.892 118.969 272.898C118.917 272.903 118.864 272.903 118.812 272.898C117.729 272.755 116.665 272.571 115.578 272.378C115.27 272.332 114.983 272.193 114.754 271.981C114.526 271.769 114.367 271.492 114.299 271.188H114.303ZM120.536 275.058C120.437 275.065 120.338 275.065 120.24 275.058C119.767 275.063 119.305 274.919 118.919 274.645C118.693 274.511 118.446 274.417 118.188 274.367C117.604 274.277 117.075 273.969 116.71 273.505L116.369 273.033L116.948 273.078L117.846 273.136C118.479 273.181 119.077 273.217 119.642 273.285C120.5 273.379 120.567 273.621 120.756 274.731L120.805 275.009L120.536 275.058ZM127.6 274.524L127.42 274.569C125.683 275.003 123.903 275.244 122.112 275.287H121.937L121.219 273.833L121.371 273.698C121.402 273.67 121.431 273.64 121.457 273.608C121.534 273.508 121.646 273.441 121.771 273.419C123.32 273.289 124.874 273.168 126.477 273.042L127.752 272.943L127.6 274.524ZM128.089 272.207C126.363 272.675 124.584 272.921 122.795 272.939C122.296 272.939 121.798 272.916 121.308 272.872H121.111L121.066 272.674C120.666 270.774 120.464 268.837 120.464 266.895V266.697L120.648 266.639C121.017 266.521 121.402 266.464 121.789 266.473C122.099 266.473 122.404 266.499 122.687 266.526C122.97 266.553 123.248 266.576 123.522 266.576H123.814C124.263 266.54 124.712 266.522 125.161 266.504C125.736 266.504 126.333 266.464 126.908 266.401C127.604 266.324 128.3 266.194 128.974 266.068L129.84 265.911L129.98 265.884L130.078 265.992C130.211 266.128 130.307 266.295 130.359 266.478C130.411 266.66 130.416 266.853 130.375 267.038C130.375 267.083 130.375 267.128 130.375 267.173C130.212 268.542 129.828 269.875 129.239 271.12C129.15 271.382 128.998 271.618 128.797 271.807C128.596 271.996 128.351 272.134 128.085 272.207H128.089ZM132.687 271.601C131.914 272.518 130.92 273.224 129.8 273.653L129.49 273.783L129.432 273.451C129.378 273.123 129.225 272.261 130.078 271.938C130.528 271.762 130.999 271.614 131.542 271.444L132.4 271.17L133.298 270.873L132.687 271.601ZM137.178 263.679C136.96 265.621 136.367 267.501 135.431 269.216C135.137 269.729 134.653 270.105 134.084 270.263C133.361 270.487 132.634 270.712 131.839 270.923L130.325 271.372L130.451 270.923C130.532 270.626 130.617 270.343 130.694 270.074C130.864 269.49 131.021 268.947 131.143 268.399C131.264 267.851 131.313 267.2 131.376 266.603C131.403 266.338 131.43 266.073 131.462 265.812V265.66L132.162 265.341C133.77 264.618 135.305 263.931 136.653 262.624L137.061 262.238L137.106 262.799C137.106 262.97 137.138 263.105 137.151 263.217C137.175 263.37 137.18 263.525 137.165 263.679H137.178ZM137.178 261.398V261.475L137.129 261.537C135.813 263.127 134.165 264.03 131.785 264.461L131.493 264.515L131.471 264.218C131.439 263.859 131.412 263.5 131.385 263.145C131.322 262.35 131.259 261.528 131.174 260.729C131.089 259.93 130.977 259.166 130.869 258.403C130.819 258.062 130.703 257.204 130.703 257.204L135.103 254.86L135.243 255.026C136.01 255.883 136.581 256.897 136.914 257.998C137.248 259.099 137.337 260.26 137.174 261.398H137.178Z" fill="#252525"/>
<path d="M138.296 262.512C138.911 260.136 138.386 257.86 136.599 255.116C135.229 252.953 133.29 251.21 130.995 250.078C128.687 248.957 126.2 248.25 123.648 247.989L123.388 247.962C122.735 247.92 122.09 247.809 121.461 247.63C121.163 247.54 120.852 247.497 120.541 247.5C120.28 247.498 120.019 247.524 119.764 247.576C118.864 247.758 117.983 248.022 117.132 248.367C114.721 249.31 112.74 250.953 110.958 252.588C110.138 253.339 109.427 254.202 108.847 255.152C108.236 256.215 107.718 257.328 107.298 258.479C107.068 259.031 106.905 259.609 106.813 260.199C106.718 261.01 106.676 261.826 106.687 262.642C106.686 263.195 106.728 263.748 106.813 264.295C107.045 265.533 107.501 266.719 108.16 267.793C108.816 269.111 109.699 270.302 110.769 271.313C111.107 271.599 111.466 271.858 111.842 272.09C112.107 272.265 112.386 272.44 112.646 272.638C115.143 274.533 118.196 275.467 121.65 276.415C121.871 276.479 122.102 276.507 122.332 276.5C123.044 276.47 123.752 276.387 124.452 276.253C124.968 276.168 125.503 276.082 126.046 276.019C126.899 275.951 127.742 275.791 128.561 275.543C130.006 275.025 131.383 274.333 132.661 273.482C133.263 273.07 133.828 272.605 134.349 272.095C134.6 271.866 134.847 271.646 135.108 271.412C135.787 270.836 136.335 270.121 136.716 269.315C136.828 269.077 136.94 268.844 137.057 268.606C137.91 266.932 138.335 265.073 138.296 263.194C138.296 263.132 138.296 263.069 138.296 263.006C138.266 262.843 138.266 262.675 138.296 262.512ZM127.829 249.857C130.653 250.284 133.41 252.399 134.565 254.168L134.699 254.366L134.511 254.523C134.461 254.564 134.412 254.613 134.358 254.662C134.222 254.808 134.06 254.928 133.882 255.017L133.361 255.255C132.568 255.669 131.715 255.959 130.833 256.113L130.658 256.14L130.563 255.987C130.519 255.911 130.465 255.834 130.415 255.758C130.292 255.581 130.182 255.395 130.087 255.201C129.971 254.95 129.858 254.694 129.746 254.438C129.265 253.222 128.628 252.073 127.851 251.021C127.748 250.875 127.675 250.71 127.636 250.536C127.609 250.446 127.573 250.338 127.528 250.217L127.371 249.768L127.829 249.857ZM130.469 264.56V264.744L130.299 264.807C128.951 265.332 126.585 265.669 124.218 265.669C123.121 265.692 122.025 265.585 120.954 265.35L120.797 265.309L120.756 265.152C120.392 263.661 120.698 260.213 121.412 257.77L121.466 257.581H121.663H121.96H122.445C122.528 257.577 122.612 257.577 122.696 257.581C123.415 257.622 124.268 257.662 125.121 257.662C126.046 257.668 126.971 257.605 127.887 257.473C128.171 257.435 128.458 257.419 128.745 257.424H129.643L129.715 257.59L129.818 257.806C129.905 257.952 129.965 258.114 129.993 258.282C130.293 260.355 130.448 262.447 130.456 264.542L130.469 264.56ZM123.733 249.822C123.822 249.652 123.93 249.494 124.057 249.35L124.173 249.202L124.241 249.112H124.349C124.497 249.086 124.647 249.073 124.798 249.072C125.043 249.059 125.288 249.11 125.509 249.218C125.729 249.327 125.919 249.49 126.059 249.691L126.338 250.082C126.743 250.621 127.121 251.18 127.469 251.757C128.331 253.141 128.999 254.637 129.454 256.203L129.535 256.49L129.239 256.539C127.839 256.783 126.421 256.906 125 256.908C124.012 256.907 123.026 256.848 122.045 256.733L121.838 256.706L121.811 256.499C121.811 256.423 121.784 256.351 121.766 256.283C121.719 256.117 121.706 255.943 121.731 255.772C122.136 253.711 122.806 251.711 123.724 249.822H123.733ZM123.432 249.031L123.635 249.161L123.432 249.566C123.361 249.709 123.284 249.857 123.203 250.015C122.241 251.652 121.519 253.418 121.057 255.26L121.026 255.399C120.994 255.565 120.95 255.728 120.895 255.888C120.841 256.064 120.732 256.218 120.584 256.328C120.436 256.438 120.258 256.498 120.074 256.499C119.99 256.499 119.907 256.486 119.827 256.463C119.238 256.297 118.65 256.122 118.008 255.924L116.876 255.583L116.993 255.309C117.069 255.129 117.128 254.968 117.182 254.824C117.268 254.562 117.384 254.31 117.527 254.074C118.637 252.351 119.915 250.743 121.344 249.274C121.489 249.106 121.666 248.969 121.864 248.87C122.062 248.772 122.278 248.713 122.498 248.699C122.833 248.715 123.155 248.831 123.423 249.031H123.432ZM120.334 258.583C119.945 260.555 119.736 262.558 119.71 264.569C119.701 264.692 119.658 264.81 119.584 264.91C119.538 264.979 119.498 265.051 119.463 265.125L119.369 265.3L119.171 265.265C117.493 264.95 115.872 264.381 114.366 263.576L114.209 263.495V263.32C114.402 260.936 115.296 258.758 116.167 256.647L116.27 256.391L116.418 256.364C116.513 256.35 116.609 256.343 116.706 256.342C117.07 256.358 117.427 256.442 117.761 256.589C117.943 256.662 118.131 256.721 118.322 256.764C118.708 256.84 119.095 256.93 119.494 257.029L120.235 257.2V257.397C120.235 257.527 120.262 257.653 120.28 257.774C120.343 258.039 120.361 258.312 120.334 258.583ZM112.588 252.556C112.655 252.475 112.714 252.399 112.767 252.327C112.878 252.171 113.006 252.028 113.149 251.901C113.356 251.735 113.571 251.582 113.782 251.429C113.993 251.276 114.281 251.074 114.51 250.881C115.607 249.967 116.867 249.269 118.223 248.825C118.682 248.671 119.164 248.6 119.647 248.614C119.979 248.614 120.325 248.636 120.689 248.659L121.677 248.717L120.329 250.113C119.674 250.796 119.063 251.429 118.461 252.067C118.102 252.47 117.779 252.904 117.496 253.365C117.121 253.984 116.668 254.553 116.149 255.058L115.996 255.201L112.377 252.799L112.588 252.556ZM113.248 271.596C112.269 271.376 111.388 270.843 110.738 270.078C110.361 269.635 110.019 269.164 109.714 268.668C108.417 266.671 107.717 264.345 107.698 261.964C107.702 261.735 107.734 261.508 107.792 261.286C107.828 261.165 107.874 261.048 107.931 260.936L108.016 260.765L108.133 260.496L108.389 260.635C108.805 260.891 109.174 261.216 109.48 261.596C109.775 261.979 110.151 262.294 110.581 262.516C111.21 262.816 111.803 263.185 112.35 263.617C112.597 263.801 112.853 263.985 113.113 264.164L113.239 264.25L113.198 265.089C113.086 267.218 112.978 269.23 113.58 271.259L113.724 271.731L113.248 271.596ZM113.378 263.001L113.14 262.947C111.097 262.498 109.902 261.088 108.65 259.602L108.299 259.193L108.335 259.054C108.95 256.837 110.165 254.832 111.847 253.261L112.013 253.109L115.843 256.01C115.843 256.01 115.516 256.908 115.394 257.222C115.107 257.99 114.815 258.753 114.546 259.521C114.276 260.289 114.047 260.994 113.8 261.766C113.67 262.09 113.374 263.001 113.374 263.001H113.378ZM114.303 271.188C114.272 271.066 114.236 270.95 114.195 270.833C114.096 270.541 114.025 270.24 113.984 269.935C113.802 268.304 113.77 266.659 113.89 265.022V264.811L114.097 264.775C114.164 264.775 114.227 264.748 114.29 264.735C114.405 264.698 114.524 264.677 114.644 264.672C114.707 264.672 114.769 264.681 114.829 264.699C115.951 265.062 117.074 265.444 118.228 265.835L119.485 266.284V266.468C119.485 266.773 119.517 267.083 119.53 267.393C119.562 268.089 119.598 268.803 119.66 269.508C119.7 269.839 119.76 270.168 119.84 270.492C120.038 271.158 120.093 271.859 120.002 272.548L119.97 272.737L119.777 272.764L119.517 272.818C119.338 272.865 119.154 272.892 118.969 272.898C118.917 272.903 118.864 272.903 118.812 272.898C117.729 272.755 116.665 272.571 115.578 272.378C115.27 272.332 114.983 272.193 114.754 271.981C114.526 271.769 114.367 271.492 114.299 271.188H114.303ZM120.536 275.058C120.437 275.065 120.338 275.065 120.24 275.058C119.767 275.063 119.305 274.919 118.919 274.645C118.693 274.511 118.446 274.417 118.188 274.367C117.604 274.277 117.075 273.969 116.71 273.505L116.369 273.033L116.948 273.078L117.846 273.136C118.479 273.181 119.077 273.217 119.642 273.285C120.5 273.379 120.567 273.621 120.756 274.731L120.805 275.009L120.536 275.058ZM127.6 274.524L127.42 274.569C125.683 275.003 123.903 275.244 122.112 275.287H121.937L121.219 273.833L121.371 273.698C121.402 273.67 121.431 273.64 121.457 273.608C121.534 273.508 121.646 273.441 121.771 273.419C123.32 273.289 124.874 273.168 126.477 273.042L127.752 272.943L127.6 274.524ZM128.089 272.207C126.363 272.675 124.584 272.921 122.795 272.939C122.296 272.939 121.798 272.916 121.308 272.872H121.111L121.066 272.674C120.666 270.774 120.464 268.837 120.464 266.895V266.697L120.648 266.639C121.017 266.521 121.402 266.464 121.789 266.473C122.099 266.473 122.404 266.499 122.687 266.526C122.97 266.553 123.248 266.576 123.522 266.576H123.814C124.263 266.54 124.712 266.522 125.161 266.504C125.736 266.504 126.333 266.464 126.908 266.401C127.604 266.324 128.3 266.194 128.974 266.068L129.84 265.911L129.98 265.884L130.078 265.992C130.211 266.128 130.307 266.295 130.359 266.478C130.411 266.66 130.416 266.853 130.375 267.038C130.375 267.083 130.375 267.128 130.375 267.173C130.212 268.542 129.828 269.875 129.239 271.12C129.15 271.382 128.998 271.618 128.797 271.807C128.596 271.996 128.351 272.134 128.085 272.207H128.089ZM132.687 271.601C131.914 272.518 130.92 273.224 129.8 273.653L129.49 273.783L129.432 273.451C129.378 273.123 129.225 272.261 130.078 271.938C130.528 271.762 130.999 271.614 131.542 271.444L132.4 271.17L133.298 270.873L132.687 271.601ZM137.178 263.679C136.96 265.621 136.367 267.501 135.431 269.216C135.137 269.729 134.653 270.105 134.084 270.263C133.361 270.487 132.634 270.712 131.839 270.923L130.325 271.372L130.451 270.923C130.532 270.626 130.617 270.343 130.694 270.074C130.864 269.49 131.021 268.947 131.143 268.399C131.264 267.851 131.313 267.2 131.376 266.603C131.403 266.338 131.43 266.073 131.462 265.812V265.66L132.162 265.341C133.77 264.618 135.305 263.931 136.653 262.624L137.061 262.238L137.106 262.799C137.106 262.97 137.138 263.105 137.151 263.217C137.175 263.37 137.18 263.525 137.165 263.679H137.178ZM137.178 261.398V261.475L137.129 261.537C135.813 263.127 134.165 264.03 131.785 264.461L131.493 264.515L131.471 264.218C131.439 263.859 131.412 263.5 131.385 263.145C131.322 262.35 131.259 261.528 131.174 260.729C131.089 259.93 130.977 259.166 130.869 258.403C130.819 258.062 130.703 257.204 130.703 257.204L135.103 254.86L135.243 255.026C136.01 255.883 136.581 256.897 136.914 257.998C137.248 259.099 137.337 260.26 137.174 261.398H137.178Z" fill="#CC017A"/>
</g>
<path d="M148.147 253.384H160.81V256.462H151.549V261.16H160.324V264.238H151.549V269.422H161.296V272.5H148.147V253.384ZM167.704 265.534L163.222 259.54H167.164L169.756 263.428L172.564 259.54H176.263L171.835 265.534L177.046 272.5H173.104L169.729 267.856L166.327 272.5H162.493L167.704 265.534ZM178.858 259.54H181.936V261.484H181.99C182.458 260.692 183.088 260.116 183.88 259.756C184.672 259.396 185.527 259.216 186.445 259.216C187.435 259.216 188.326 259.396 189.118 259.756C189.91 260.098 190.585 260.575 191.143 261.187C191.701 261.799 192.124 262.519 192.412 263.347C192.7 264.175 192.844 265.066 192.844 266.02C192.844 266.974 192.691 267.865 192.385 268.693C192.079 269.521 191.647 270.241 191.089 270.853C190.549 271.465 189.892 271.951 189.118 272.311C188.344 272.653 187.498 272.824 186.58 272.824C185.968 272.824 185.428 272.761 184.96 272.635C184.492 272.509 184.078 272.347 183.718 272.149C183.358 271.951 183.052 271.744 182.8 271.528C182.548 271.294 182.341 271.069 182.179 270.853H182.098V278.656H178.858V259.54ZM189.604 266.02C189.604 265.516 189.514 265.03 189.334 264.562C189.172 264.094 188.92 263.68 188.578 263.32C188.254 262.96 187.858 262.672 187.39 262.456C186.922 262.24 186.391 262.132 185.797 262.132C185.203 262.132 184.672 262.24 184.204 262.456C183.736 262.672 183.331 262.96 182.989 263.32C182.665 263.68 182.413 264.094 182.233 264.562C182.071 265.03 181.99 265.516 181.99 266.02C181.99 266.524 182.071 267.01 182.233 267.478C182.413 267.946 182.665 268.36 182.989 268.72C183.331 269.08 183.736 269.368 184.204 269.584C184.672 269.8 185.203 269.908 185.797 269.908C186.391 269.908 186.922 269.8 187.39 269.584C187.858 269.368 188.254 269.08 188.578 268.72C188.92 268.36 189.172 267.946 189.334 267.478C189.514 267.01 189.604 266.524 189.604 266.02ZM195.919 252.088H199.159V272.5H195.919V252.088ZM202.23 266.02C202.23 264.994 202.41 264.067 202.77 263.239C203.148 262.393 203.652 261.673 204.282 261.079C204.912 260.485 205.659 260.026 206.523 259.702C207.387 259.378 208.305 259.216 209.277 259.216C210.249 259.216 211.167 259.378 212.031 259.702C212.895 260.026 213.642 260.485 214.272 261.079C214.902 261.673 215.397 262.393 215.757 263.239C216.135 264.067 216.324 264.994 216.324 266.02C216.324 267.046 216.135 267.982 215.757 268.828C215.397 269.656 214.902 270.367 214.272 270.961C213.642 271.555 212.895 272.014 212.031 272.338C211.167 272.662 210.249 272.824 209.277 272.824C208.305 272.824 207.387 272.662 206.523 272.338C205.659 272.014 204.912 271.555 204.282 270.961C203.652 270.367 203.148 269.656 202.77 268.828C202.41 267.982 202.23 267.046 202.23 266.02ZM205.47 266.02C205.47 266.524 205.551 267.01 205.713 267.478C205.893 267.946 206.145 268.36 206.469 268.72C206.811 269.08 207.216 269.368 207.684 269.584C208.152 269.8 208.683 269.908 209.277 269.908C209.871 269.908 210.402 269.8 210.87 269.584C211.338 269.368 211.734 269.08 212.058 268.72C212.4 268.36 212.652 267.946 212.814 267.478C212.994 267.01 213.084 266.524 213.084 266.02C213.084 265.516 212.994 265.03 212.814 264.562C212.652 264.094 212.4 263.68 212.058 263.32C211.734 262.96 211.338 262.672 210.87 262.456C210.402 262.24 209.871 262.132 209.277 262.132C208.683 262.132 208.152 262.24 207.684 262.456C207.216 262.672 206.811 262.96 206.469 263.32C206.145 263.68 205.893 264.094 205.713 264.562C205.551 265.03 205.47 265.516 205.47 266.02ZM219.358 259.54H222.598V261.592H222.652C223.012 260.836 223.525 260.251 224.191 259.837C224.857 259.423 225.622 259.216 226.486 259.216C226.684 259.216 226.873 259.234 227.053 259.27C227.251 259.306 227.449 259.351 227.647 259.405V262.537C227.377 262.465 227.107 262.411 226.837 262.375C226.585 262.321 226.333 262.294 226.081 262.294C225.325 262.294 224.713 262.438 224.245 262.726C223.795 262.996 223.444 263.311 223.192 263.671C222.958 264.031 222.796 264.391 222.706 264.751C222.634 265.111 222.598 265.381 222.598 265.561V272.5H219.358V259.54ZM231.97 267.154C232.078 268.126 232.456 268.882 233.104 269.422C233.752 269.962 234.535 270.232 235.453 270.232C236.263 270.232 236.938 270.07 237.478 269.746C238.036 269.404 238.522 268.981 238.936 268.477L241.258 270.232C240.502 271.168 239.656 271.834 238.72 272.23C237.784 272.626 236.803 272.824 235.777 272.824C234.805 272.824 233.887 272.662 233.023 272.338C232.159 272.014 231.412 271.555 230.782 270.961C230.152 270.367 229.648 269.656 229.27 268.828C228.91 267.982 228.73 267.046 228.73 266.02C228.73 264.994 228.91 264.067 229.27 263.239C229.648 262.393 230.152 261.673 230.782 261.079C231.412 260.485 232.159 260.026 233.023 259.702C233.887 259.378 234.805 259.216 235.777 259.216C236.677 259.216 237.496 259.378 238.234 259.702C238.99 260.008 239.629 260.458 240.151 261.052C240.691 261.646 241.105 262.384 241.393 263.266C241.699 264.13 241.852 265.129 241.852 266.263V267.154H231.97ZM238.612 264.724C238.594 263.77 238.297 263.023 237.721 262.483C237.145 261.925 236.344 261.646 235.318 261.646C234.346 261.646 233.572 261.925 232.996 262.483C232.438 263.041 232.096 263.788 231.97 264.724H238.612Z" fill="#CC017A"/>
</g>
<path d="M333.58 132.386C333.005 125.021 332.182 117.655 331.36 110.392C328.071 83.078 328.728 47.171 315.16 23.8467C309.239 13.6168 299.536 11.7754 290.325 9.52482C248.304 -1.01201 203.898 0.113298 161.219 0.0109985C135.644 -0.0913008 110.152 0.522476 84.6597 1.75007C62.4567 2.87536 37.54 1.03399 16.0771 8.60413C-5.63255 16.2766 0.617198 47.7847 1.52177 68.8584C3.00197 104.765 4.89332 140.672 7.11363 176.58C8.01819 191.208 12.0476 221.08 28.0831 221.182C67.144 221.489 107.109 225.274 145.924 222.921C174.459 221.182 202.994 219.136 231.611 219.034C247.564 218.931 327.084 237.55 331.771 209.52C335.8 184.15 335.636 158.063 333.58 132.386Z" fill="#CC017A"/>
<path d="M125.875 175.738C125.875 175.738 123.635 180.61 124.854 186.623C116.08 178.341 113.638 160.921 115.039 122.795L206.687 121.444C209.661 165.865 214.982 182.19 197.09 190.332C196.834 189.392 196.774 184.206 196.105 183.21C195.741 186.087 194.427 190.172 193.893 191.054C181.824 193.241 147.111 195.355 136.898 192.714C133.35 191.796 130.291 190.58 127.675 188.853C127.229 182.609 125.875 175.738 125.875 175.738Z" fill="#AD5C49"/>
<path d="M144.31 190.728C138.626 195.392 128.46 201.551 129.611 209.089C130.353 213.948 136.208 211.742 140.226 214.563C144.689 208.071 150.038 202.481 155.74 197.203C151.808 195.204 147.874 193.243 144.31 190.728Z" fill="#FAC7B3"/>
<path d="M148.223 185.818C146.536 187.551 147.687 202.345 145.896 203.852C141.172 206.179 133.537 199.519 131.355 197.456C134.846 192.801 143.569 185.239 148.223 185.818Z" fill="#E23768"/>
<path d="M142.056 225.769C151.514 232.913 186.778 227.264 190.312 224.932C190.312 224.932 186.274 192.3 183.015 183.123C173.802 183.669 157.527 183.491 147.64 185.818C144.267 194.058 144.36 215.578 142.056 225.769Z" fill="#E23768"/>
<path d="M149.388 227.935C158.169 230.34 179.827 228.499 183.04 227.17C183.04 227.17 181.277 209.106 180.442 202.187C172.259 202.436 158.347 202.659 150.699 203.07C150.318 208.772 149.964 221.889 149.388 227.935Z" fill="white"/>
<path d="M156.715 223.033C160.183 226.664 171.926 226.228 175.65 222.825C175.65 222.825 175.429 215.751 174.634 211.759C169.89 211.902 161.389 212.073 156.953 212.311C156.494 215.962 156.83 220.639 156.715 223.033Z" fill="white"/>
<path opacity="0.32" d="M170.961 226.13C165.72 227.173 159.095 226.571 156.382 223.733L156.036 223.372L156.061 222.873C156.101 222.053 156.083 220.954 156.066 219.726C156.038 217.401 155.996 214.51 156.306 212.06L176.284 211.425C177.089 215.468 177.313 222.389 177.323 222.682L177.338 223.216L176.941 223.577C175.647 224.761 173.461 225.633 170.961 226.13ZM158.403 222.436C161.602 225.032 171.307 224.886 174.973 222.188C174.908 220.608 174.687 216.067 174.176 212.842C174.176 212.842 161.668 213.173 158.518 213.319C158.338 215.397 158.37 217.75 158.398 219.693C158.41 220.724 158.42 221.661 158.403 222.436Z" fill="#84C0D3"/>
<path d="M156.625 222.772C160.067 226.428 171.813 226.075 175.562 222.697C175.562 222.697 175.391 215.623 174.624 211.624C169.88 211.734 161.376 211.844 156.94 212.052C156.454 215.696 156.757 220.378 156.625 222.772Z" fill="white"/>
<path d="M155.351 187.513C155.291 186.415 155.702 185.369 156.404 184.416C162.157 184.364 168.897 184.08 174.757 183.541C175.494 184.384 175.971 185.337 176.029 186.385C176.227 190.008 171.758 193.2 166.048 193.511C160.336 193.822 155.547 191.137 155.351 187.513Z" fill="#FFD5C7"/>
<path d="M172.082 175.743L172.661 186.385C172.786 188.674 169.755 190.7 165.893 190.911C162.029 191.122 158.796 189.437 158.671 187.15L158.092 176.507L172.082 175.743Z" fill="#FFD5C7"/>
<g opacity="0.45">
<path opacity="0.32" d="M187.892 163.248C187.892 163.248 183.285 185.284 163.295 185.919C143.264 186.553 136.566 168.634 136.566 168.634L187.892 163.248Z" fill="#3A0808"/>
</g>
<path d="M217.469 152.836C215.305 161.482 206.969 166.974 200.655 166.189C194.344 165.404 193.067 158.338 194.103 150.017C195.139 141.697 201.097 135.569 207.408 136.376C216.032 137.477 219.502 144.711 217.469 152.836Z" fill="#FAC7B3"/>
<path d="M209.903 154.772C209.449 158.42 206.472 161.053 203.255 160.654C200.038 160.253 197.796 156.971 198.25 153.322C198.704 149.674 201.68 147.043 204.897 147.442C208.115 147.843 210.356 151.126 209.903 154.772Z" fill="#E4A68D"/>
<path d="M110.525 154.413C112.942 162.992 121.435 168.235 127.722 167.265C134.008 166.292 135.077 159.193 133.795 150.905C132.514 142.62 126.378 136.669 120.094 137.662C111.508 139.019 108.251 146.351 110.525 154.413Z" fill="#FAC7B3"/>
<path d="M118.607 156.118C119.169 159.752 122.22 162.294 125.425 161.8C128.63 161.304 130.771 157.959 130.209 154.325C129.648 150.692 126.596 148.149 123.394 148.643C120.189 149.139 118.048 152.487 118.607 156.118Z" fill="#E4A68D"/>
<path d="M119.151 126.105C119.55 153.169 138.477 165.065 164.731 164.679C190.986 164.293 210.061 151.835 209.662 124.771C209.263 97.7066 189.915 91.7059 163.66 92.0921C137.406 92.4782 118.752 99.0406 119.151 126.105Z" fill="#AD5C49"/>
<path d="M122.378 135.466C122.847 167.182 140.187 181.197 164.177 180.843C188.167 180.489 205.55 165.963 205.081 134.247C204.612 102.531 187.006 101.954 163.019 102.308C139.028 102.661 121.909 103.75 122.378 135.466Z" fill="#FBD3C7"/>
<path d="M132.895 162.56C132.958 166.83 136.471 170.241 140.741 170.178C145.009 170.115 148.422 166.602 148.359 162.332C148.296 158.061 144.783 154.651 140.513 154.714C136.243 154.776 132.832 158.29 132.895 162.56Z" fill="#FFC0C0"/>
<path d="M178.654 162.297C178.716 166.567 182.229 169.978 186.5 169.915C190.768 169.852 194.181 166.339 194.118 162.069C194.055 157.798 190.542 154.388 186.272 154.451C182.001 154.513 178.591 158.027 178.654 162.297Z" fill="#FFC0C0"/>
<path d="M153.796 140.378C156.755 144.611 156.424 149.307 153.876 151.113C150.035 153.834 140.912 154.684 137.479 150.832C134.154 147.101 135.701 140.23 141.057 137.231C145.747 134.605 150.932 136.28 153.796 140.378Z" fill="#F9FEFF"/>
<path d="M136.782 139.34C140.924 132.7 151.012 134.846 153.894 140.521C150.937 136.291 145.523 135.042 141.188 137.464C138.507 138.964 136.614 141.609 136.122 144.538C135.731 146.873 136.285 149.483 137.667 151.033C136.085 150.027 133.738 144.225 136.782 139.34Z" fill="#602220"/>
<path d="M152.74 143.227C153.961 146.168 152.567 149.541 149.626 150.76C146.684 151.981 143.311 150.587 142.09 147.648C140.869 144.706 142.263 141.334 145.205 140.112C148.146 138.894 151.519 140.288 152.74 143.227Z" fill="#461D14"/>
<path d="M152.266 142.722C152.604 143.537 152.218 144.475 151.403 144.814C150.588 145.152 149.65 144.766 149.312 143.951C148.973 143.136 149.359 142.198 150.174 141.86C150.989 141.521 151.927 141.907 152.266 142.722Z" fill="#FEFFFE"/>
<path d="M174.479 140.072C171.648 144.39 172.114 149.077 174.717 150.807C178.636 153.415 187.782 153.994 191.099 150.042C194.311 146.213 192.564 139.39 187.12 136.551C182.353 134.064 177.22 135.892 174.479 140.072Z" fill="#F9FEFF"/>
<path d="M191.452 138.535C187.117 132.02 177.097 134.463 174.383 140.22C177.214 135.904 182.588 134.495 186.994 136.792C189.717 138.214 191.688 140.799 192.265 143.713C192.726 146.035 192.247 148.661 190.913 150.25C192.465 149.197 194.64 143.324 191.452 138.535Z" fill="#602220"/>
<path d="M186.327 142.733C187.548 145.672 186.154 149.047 183.212 150.268C180.271 151.489 176.898 150.095 175.677 147.156C174.456 144.215 175.85 140.842 178.792 139.621C181.733 138.397 185.106 139.792 186.327 142.733Z" fill="#461D14"/>
<path d="M185.853 142.229C186.192 143.044 185.806 143.979 184.991 144.317C184.176 144.656 183.238 144.27 182.9 143.455C182.561 142.64 182.947 141.705 183.762 141.363C184.58 141.025 185.515 141.411 185.853 142.229Z" fill="#FEFFFE"/>
<path d="M161.098 154.433C161.294 154.43 161.464 154.287 161.494 154.087C161.708 152.67 162.811 151.74 164.305 151.717C165.807 151.695 166.966 152.61 167.184 153.994C167.219 154.215 167.43 154.368 167.65 154.333C167.874 154.297 168.024 154.089 167.989 153.866C167.708 152.093 166.189 150.877 164.295 150.905C162.412 150.932 160.963 152.163 160.689 153.966C160.657 154.19 160.81 154.395 161.03 154.43L161.098 154.433Z" fill="#C68C75"/>
<path d="M194.058 102.285C193.677 103.175 193.685 117.81 193.559 124.121C193.471 128.652 202.674 146.83 221.393 132.792C195.294 133.632 220.591 106.904 194.058 102.285Z" fill="#AD5C49"/>
<path d="M122.834 105.585C116.337 100.605 117.578 93.5012 122.237 87.2122C129.269 107.504 173.239 81.1789 192.372 96.1141C191.833 96.1918 197.192 101.41 193.834 105.297C191.329 112.892 178.327 124.816 153.948 128.56C158.098 126.082 161.96 122.038 165.35 118.768C163.956 119.364 162.524 119.946 161.047 120.495C147.993 125.36 130.881 123.951 123.659 122.697C121.167 135.089 123.534 150.609 124.898 155.215C110.356 135.731 114.015 107.955 122.834 105.585Z" fill="#AD5C49"/>
<path d="M136.383 125.33C136.657 125.325 136.93 125.225 137.148 125.024C139.909 122.479 145.215 121.709 149.505 123.231C150.102 123.442 150.762 123.131 150.977 122.532C151.191 121.932 150.877 121.275 150.278 121.06C145.167 119.237 138.986 120.195 135.588 123.329C135.119 123.76 135.089 124.488 135.523 124.956C135.754 125.21 136.07 125.335 136.383 125.33Z" fill="#843E30"/>
<path d="M191.438 124.517C191.754 124.512 192.065 124.38 192.29 124.121C192.709 123.64 192.657 122.913 192.178 122.496C188.687 119.462 182.476 118.697 177.426 120.661C176.831 120.894 176.538 121.561 176.771 122.153C177.004 122.747 177.679 123.038 178.263 122.81C182.498 121.16 187.829 121.777 190.668 124.237C190.886 124.427 191.165 124.52 191.438 124.517Z" fill="#843E30"/>
<path d="M151.617 162.011C152.57 166.374 157.326 170.321 163.543 170.253C169.759 170.188 175.198 166.056 175.559 161.755C176.093 155.398 169.671 160.233 163.452 160.002C157.241 159.772 150.175 155.423 151.617 162.011Z" fill="#660E04"/>
<path d="M162.839 166.023C166.199 165.988 169.12 166.833 170.828 168.272C168.852 169.489 166.337 170.326 163.546 170.356C160.404 170.389 157.803 169.446 155.722 167.994C157.455 166.785 159.855 166.056 162.839 166.023Z" fill="#EF7D70"/>
<path d="M155.348 158.36C157.344 157.904 160.35 159.283 163.447 159.398C166.94 159.529 169.877 158.034 172.048 158.578C171.176 160.389 167.825 161.765 163.803 161.808C159.493 161.856 155.924 160.354 155.348 158.36Z" fill="white"/>
<path d="M193.847 49.9097C195.881 42.6879 190.831 32.5949 180.033 30.2703C166.031 27.2562 149.606 34.448 151.524 47.7432C148.159 43.4151 134.217 42.0008 129.555 47.51C121.754 56.7304 128.59 68.7016 135.054 67.4302C134.071 74.6721 133.302 92.97 133.319 97.0674C147.79 93.1957 182.719 91.7137 201.127 102.682C201.781 97.1802 204.407 77.6311 204.469 77.6211C211.779 76.2494 219.111 71.5979 215.934 60.6497C211.398 45.0149 195.828 48.2322 193.847 49.9097Z" fill="white"/>
<path d="M200.974 102.594C182.55 91.6156 147.59 93.5465 133.75 97.1098C133.575 97.1549 132.737 97.6238 132.74 97.4433C132.72 93.4913 133.427 75.9131 134.385 68.092C131.779 68.2174 128.444 66.4746 126.686 63.488C124.407 59.6038 124.144 53.0013 129.114 47.1286C131.245 44.6084 135.373 43.2268 140.431 43.3296C144.651 43.4198 148.56 44.5432 150.802 46.2434C150.629 42.0758 152.226 38.3094 155.474 35.2802C161.141 29.9867 171.058 27.7399 180.156 29.7008C185.442 30.8393 189.812 33.8935 192.468 38.2993C194.489 41.657 195.276 45.4159 194.692 48.8061C196.967 47.9159 201.342 47.3191 205.618 48.608C209.334 49.7289 214.241 52.7004 216.498 60.4865C217.78 64.8973 217.494 68.6537 215.646 71.6527C213.697 74.8173 209.878 77.0967 204.978 78.1098C204.565 80.823 202.305 97.7392 201.706 102.749C201.678 102.947 201.112 102.677 200.974 102.594ZM133.906 96.696C148.176 93.2506 182.079 91.2746 200.653 101.736C201.056 98.4664 201.846 92.4657 202.446 88.0147C203.895 77.1368 203.852 77.1494 204.351 77.0491C209.148 76.1438 212.827 74.0149 214.65 71.0434C216.318 68.3352 216.558 64.8923 215.377 60.8099C213.682 54.9623 210.284 51.231 205.279 49.7214C200.332 48.2294 195.216 49.5083 194.223 50.3533C194.025 50.5213 193.747 50.5389 193.531 50.3984C193.318 50.2605 193.218 49.9972 193.285 49.7515C194.228 46.4114 193.549 42.3516 191.467 38.8962C188.982 34.7687 184.877 31.905 179.91 30.8368C171.166 28.9586 161.67 31.0825 156.266 36.1303C152.903 39.2673 151.464 43.2518 152.101 47.6552C152.138 47.9159 151.998 48.1717 151.752 48.2745C151.519 48.3698 151.226 48.3046 151.063 48.0965C149.493 46.0704 145.107 44.5884 140.4 44.4931C135.761 44.3978 131.872 45.6566 129.999 47.8808C125.42 53.2872 125.764 59.5587 127.85 63.1169C129.528 65.9731 132.599 67.3146 134.944 66.8532C135.127 66.8181 135.318 66.8708 135.453 67.0012C135.588 67.1316 135.656 67.3171 135.628 67.5052C134.706 74.3208 133.963 91.5479 133.906 96.696Z" fill="#92C9D6"/>
<path opacity="0.26" d="M201.127 102.682C201.563 100.307 204.344 79.3714 204.575 77.0067C199.66 78.5514 194.991 76.5528 193.072 74.6872C175.1 82.4557 163.3 77.9696 156.181 73.1074C161.118 81.6784 180.078 83.7396 192.009 80.6101C189.469 84.8479 187.867 91.9093 189.549 97.8974C194.537 99.0258 200.246 102.173 201.127 102.682Z" fill="#84C0D3"/>
<path d="M154.145 204.267L150.654 204.377C150.606 202.855 149.531 185.525 149.533 183.787H153.026C153.021 185.415 153.352 190.761 153.646 195.472C153.879 199.211 154.097 202.729 154.145 204.267Z" fill="white"/>
<path d="M176.918 231.996C186.327 235.652 199.602 225.017 199.02 215.709C198.278 203.825 195.562 191.28 186.607 190.304L186.159 211.852C186.984 216.732 185.557 222.439 176.918 223.853C176.898 225.411 176.073 231.038 176.918 231.996Z" fill="#FBD3C7"/>
<path d="M199.991 195.71C195.545 203.08 186.593 207.408 184.286 206.179C184.286 206.179 171.356 195.853 183.827 184.108C186.858 185.401 199.991 195.71 199.991 195.71Z" fill="#E23768"/>
<path d="M180.61 203.153L177.12 203.264C177.052 201.082 177.275 195.129 177.473 189.881C177.596 186.498 177.712 183.511 177.709 182.335H181.205C181.202 183.531 181.087 186.571 180.961 190.008C180.776 194.948 180.543 201.092 180.61 203.153Z" fill="white"/>
<path opacity="0.19" d="M145.606 211.195C145.242 211.975 144.024 212.173 142.883 211.641C141.744 211.107 141.115 210.046 141.479 209.266C141.842 208.489 143.061 208.288 144.199 208.82C145.34 209.352 145.97 210.415 145.606 211.195Z" fill="#592219"/>
<path d="M101.059 200.909C108.379 211.661 117.243 214.317 117.243 214.317C125.032 216.107 130.049 206.899 124.626 205.239C119.851 204.374 111.975 199.918 106.383 195.816C105.415 195.106 100.375 199.903 101.059 200.909Z" fill="#FBD3C7"/>
<path d="M128.447 224.749C127.092 220.16 124.881 189.808 125.52 187.789C130.754 191.671 143.269 192.847 142.722 206.584L128.447 224.749Z" fill="white"/>
<path d="M128.446 224.749C127.092 220.16 120.598 195.079 120.603 193.978C132.273 189.926 142.145 200.069 142.722 206.584C142.712 206.702 137.015 224.904 136.553 226.579C134.979 225.285 130.638 223.801 128.446 224.749Z" fill="#EBF6F7"/>
<path d="M128.792 224.942C127.438 220.353 118.125 197.411 118.127 196.31C132.89 191.967 141.746 201.767 142.724 206.586C142.714 206.704 137.017 224.907 136.556 226.582C134.978 225.286 130.981 223.994 128.792 224.942Z" fill="#D0DDDD"/>
<path d="M162.56 226.772C166.078 222.585 169.845 223.159 169.837 215.992C169.835 214.638 170.487 200.245 170.497 196.024C158.282 194.921 144.984 197.564 142.078 204.861C142.058 204.979 142.592 223.866 142.78 225.601C145.611 224.689 148.776 224.23 152.109 224.348C155.923 224.485 159.486 225.361 162.56 226.772Z" fill="white"/>
<path d="M162.559 226.772C166.077 222.584 166.99 218.778 170.802 214.811C171.777 213.795 172.329 202.862 173.041 199.033C165.802 196.546 148.073 195.934 142.075 204.863C142.055 204.981 142.589 223.868 142.777 225.604C145.608 224.691 148.773 224.232 152.105 224.35C155.922 224.485 159.485 225.36 162.559 226.772Z" fill="#EBF6F7"/>
<path d="M162.56 226.773C166.078 222.585 170.755 218.588 174.566 214.618C175.542 213.603 173.772 207.141 173.807 205.4C168.305 200.651 153.112 197.79 142.078 204.861C142.058 204.979 142.592 223.866 142.78 225.601C145.611 224.689 148.776 224.23 152.109 224.348C155.923 224.486 159.486 225.361 162.56 226.773Z" fill="#D0DDDD"/>
<path d="M128.406 229.303C125.638 223.49 118.554 206.87 116.428 201.421C125.575 196.744 135.525 202.188 137.491 205.292C137.481 205.41 146.529 230.085 146.067 231.76C142.068 227.688 130.796 226.665 128.406 229.303Z" fill="#46C6CC"/>
<path d="M177.626 233.244C176.861 226.722 175.991 215.483 175.206 208.715C163.433 200.33 148.229 203.251 144.874 204.964C144.854 205.082 151.494 230.436 151.682 232.171C165 227.73 174.551 231.833 177.626 233.244Z" fill="#46C6CC"/>
<path d="M146.067 231.757L151.829 232.141L145.021 204.934L137.042 204.718L146.067 231.757Z" fill="#35B5B5"/>
<path d="M127.534 216.315L130.325 222.685C130.325 222.685 131.1 222.983 133.181 222.662C135.531 222.301 136.168 221.787 136.168 221.787L136.943 214.868L127.534 216.315Z" fill="#F45B83"/>
<path opacity="0.28" d="M134.37 222.432L133.939 215.33L133.317 215.426L133.986 222.52C134.129 222.489 134.247 222.459 134.37 222.432Z" fill="white"/>
<path opacity="0.28" d="M135.195 222.211L135.268 215.125L134.638 215.222L134.804 222.326C134.942 222.286 135.08 222.249 135.195 222.211Z" fill="white"/>
<path opacity="0.28" d="M135.902 221.935L136.381 214.954L135.847 215.037L135.559 222.086C135.707 222.028 135.814 221.978 135.902 221.935Z" fill="white"/>
<path opacity="0.28" d="M132.647 222.73L131.158 215.757L130.536 215.852L132.253 222.768C132.379 222.758 132.509 222.745 132.647 222.73Z" fill="white"/>
<path opacity="0.28" d="M131.002 222.793L128.627 216.145L128.093 216.228L130.628 222.75C130.726 222.767 130.846 222.782 131.002 222.793Z" fill="white"/>
<path opacity="0.28" d="M133.105 222.667C133.13 222.662 133.153 222.665 133.181 222.66C133.311 222.64 133.416 222.617 133.537 222.597L132.586 215.536L131.889 215.644L133.105 222.667Z" fill="white"/>
<path opacity="0.28" d="M131.806 222.8L129.838 215.96L129.208 216.057L131.395 222.808C131.518 222.808 131.656 222.805 131.806 222.8Z" fill="white"/>
<path d="M137.186 213.755C137.432 215.358 135.345 217.01 132.522 217.446C129.698 217.88 127.211 216.935 126.965 215.33C126.719 213.728 128.806 212.075 131.629 211.641C134.453 211.205 136.94 212.153 137.186 213.755Z" fill="#B23936"/>
<path d="M135.375 212.093C135.603 213.362 134.201 214.673 132.245 215.024C130.289 215.375 128.519 214.631 128.291 213.364C128.063 212.095 129.464 210.784 131.423 210.433C133.379 210.082 135.149 210.827 135.375 212.093Z" fill="#D85F59"/>
<path d="M134.285 210.591C134.952 211.499 133.555 212.83 132.068 213.194C130.581 213.558 129.164 212.978 128.901 211.903C128.64 210.827 130.077 208.575 132.908 208.274C131.506 210.774 133.693 209.786 134.285 210.591Z" fill="#F99191"/>
<path opacity="0.32" d="M162.414 218.888C162.342 219.362 162.106 220.33 164.954 221.923C165.426 222.186 162.7 221.135 162.765 221.802C162.958 223.851 164.473 226.569 167.612 229.084C173.829 234.067 180.479 230.413 182.154 228.503C183.333 227.158 183.317 217.452 175.757 214.543C175.145 214.307 177.69 217.925 176.921 218.033C175.867 218.179 174.298 217.542 172.106 216.702C167.244 214.844 163.563 214.232 163.976 216.057C164.119 216.687 171.206 220.037 171.106 220.358C171 220.684 162.469 218.532 162.414 218.888Z" fill="#3A0808"/>
<path d="M161.825 218.974C161.763 219.43 161.552 220.361 164.393 221.966C164.862 222.231 162.001 221.183 162.234 221.803C162.883 223.53 164.488 225.908 167.638 228.415C173.869 233.373 180.432 233.237 182.039 231.427C183.17 230.15 181.532 217.286 175.559 214.681C174.957 214.42 176.467 219.388 175.71 219.473C174.674 219.591 173.501 217.933 171.324 217.076C166.494 215.17 162.856 214.498 163.302 216.273C163.455 216.885 170.73 221.452 170.637 221.762C170.542 222.068 161.87 218.631 161.825 218.974Z" fill="#FBD3C7"/>
<path d="M108.589 197.769C108.082 198.913 103.087 202.403 101.327 202.315C98.2703 202.163 93.1774 200.151 88.0895 194.813C87.1191 191.43 89.4787 186.174 94.1102 182.137C96.1313 180.374 97.7738 187.002 101.044 188.353C102.817 189.085 104.213 185.459 104.213 183.714C104.517 185.67 109.244 196.295 108.589 197.769Z" fill="#FFD5C7"/>
<path opacity="0.2" d="M96.0509 182.679C94.3332 182.95 92.4575 183.965 90.9304 185.655C90.7323 185.873 90.5718 186.107 90.3963 186.332C89.8948 187.075 89.4234 187.809 89.0873 188.556C88.0617 190.833 88.2473 193.165 89.6641 194.447C91.6952 196.282 95.5544 195.322 98.2852 192.303C99.4838 190.976 100.239 189.479 100.565 188.055C98.6387 186.901 97.2846 184.088 96.0509 182.679Z" fill="#3A0808"/>
<path d="M108.013 182.621C110.094 186.648 110.185 192.837 108.7 197.125C100.305 195.75 103.753 186.736 103.048 184.298C102.812 183.478 102.466 182.553 101.303 180.808C100.458 179.539 101.303 176.154 103.048 176.735C105.375 179.065 106.802 180.279 108.013 182.621Z" fill="#FFD5C7"/>
<path d="M107.393 177.588C107.393 184.018 103.406 186.49 98.4914 186.49C93.574 186.49 89.5869 184.018 89.5869 177.588C89.5869 171.159 93.574 163.205 98.4914 163.205C103.406 163.207 107.393 171.159 107.393 177.588Z" fill="#F4AB76"/>
<path d="M91.3902 175.773C93.9905 175.434 96.3326 176.269 96.621 177.638C96.9094 179.007 95.0362 180.394 92.4383 180.735C89.838 181.074 87.4959 180.239 87.2075 178.869C86.9166 177.498 88.7898 176.111 91.3902 175.773Z" fill="#FFD5C7"/>
<path d="M91.5924 181.234C94.0473 180.359 96.5022 180.688 97.0715 181.967C97.6407 183.245 96.1136 184.991 93.6586 185.866C91.2037 186.741 88.7513 186.412 88.1796 185.134C87.6103 183.852 89.1375 182.107 91.5924 181.234Z" fill="#FFD5C7"/>
<path d="M90.579 186.047C92.9386 186.104 94.8945 187.223 94.9497 188.544C95.0049 189.866 93.1367 190.889 90.7771 190.831C88.4199 190.773 86.4615 189.655 86.4064 188.334C86.3537 187.012 88.2193 185.989 90.579 186.047Z" fill="#FFD5C7"/>
<path d="M89.8726 190.319C91.7333 190.655 93.1049 191.937 92.9344 193.18C92.7639 194.424 91.1164 195.156 89.2558 194.82C87.3951 194.484 86.0235 193.203 86.194 191.959C86.3645 190.715 88.012 189.981 89.8726 190.319Z" fill="#FFD5C7"/>
<path d="M84.8876 151.845C84.5992 151.537 84.1152 151.522 83.8043 151.81C83.5059 152.101 83.4783 152.585 83.7692 152.896L88.4985 157.951C88.7894 158.26 89.2783 158.282 89.5818 157.987C89.6068 157.961 89.6294 157.939 89.652 157.911C89.8927 157.618 89.8852 157.187 89.6194 156.901L84.8876 151.845ZM78.8844 160.519C78.4631 160.451 78.0694 160.742 78.0093 161.156C77.9441 161.575 78.2299 161.969 78.6487 162.034L85.4844 163.117C85.7627 163.16 86.0285 163.047 86.1965 162.846C86.2818 162.743 86.3394 162.621 86.362 162.48C86.4272 162.061 86.1414 161.668 85.7251 161.6L78.8844 160.519ZM95.0257 148.031C94.6095 147.949 94.2108 148.222 94.123 148.633L92.7789 155.421C92.6962 155.838 92.967 156.239 93.3833 156.321C93.6691 156.379 93.9525 156.266 94.123 156.056C94.2007 155.96 94.2559 155.845 94.2835 155.72L95.6301 148.932C95.7103 148.518 95.442 148.114 95.0257 148.031Z" fill="#919191"/>
<path opacity="0.4" d="M103.08 167.152C103.767 168.548 103.572 170.053 102.639 170.512C101.706 170.971 100.395 170.211 99.7051 168.812C99.018 167.415 99.2136 165.91 100.146 165.451C101.079 164.992 102.391 165.755 103.08 167.152Z" fill="white"/>
<defs>
<clipPath id="clip0_342_10466">
<rect width="329.668" height="108" fill="white" transform="translate(5.33154 202)"/>
</clipPath>
<clipPath id="clip1_342_10466">
<rect width="31.856" height="29" fill="white" transform="translate(106.674 247.5)"/>
</clipPath>
</defs>
</svg>
