<svg width="335" height="310" viewBox="0 0 335 310" fill="none" xmlns="http://www.w3.org/2000/svg">
<g clip-path="url(#clip0_342_1961)">
<path d="M8.50912 32.5025C4.54382 66.104 4.70566 100.654 6.72876 134.662L307.364 17.0567C293.486 16.9099 279.492 16.1627 265.478 15.4144C240.674 14.0901 215.805 12.7622 191.399 14.7534C187.578 15.0668 183.758 15.3877 179.937 15.7086C155.675 17.7464 131.406 19.7849 107.075 19.902M8.50912 32.5025L9.00531 32.5642C9.00531 32.5638 9.00543 32.5635 9.00543 32.5632C9.57031 28.0182 11.2573 24.4412 13.7951 21.6439C16.3374 18.8417 19.7556 16.7981 23.8151 15.3624C31.9467 12.4864 42.568 12.078 53.6007 12.8304C64.6225 13.582 75.9969 15.4872 85.6122 17.1997C86.8327 17.4171 88.0253 17.6314 89.1853 17.8399C92.5902 18.4519 95.7148 19.0135 98.4422 19.4533C102.089 20.0414 105.067 20.4191 107.078 20.402C107.078 20.402 107.079 20.402 107.08 20.402L107.075 19.902M8.50912 32.5025C12.1152 3.47971 60.7292 12.2173 89.276 17.3482C97.2444 18.7804 103.649 19.9316 107.075 19.902M8.50912 32.5025L107.075 19.902M7.22791 134.633L7.22787 134.632L24.8559 278.416C14.6201 254.735 12.6113 221.261 10.773 190.628C10.2133 181.3 9.66931 172.236 8.91373 163.792L9.41196 163.75C9.4119 163.749 9.4118 163.748 9.41174 163.747C8.60254 154.128 7.79388 144.38 7.22791 134.633Z" fill="#FFE3F4" stroke="#CC017A"/>
</g>
<path d="M333.58 132.386C333.005 125.021 332.182 117.655 331.36 110.392C328.071 83.078 328.728 47.171 315.16 23.8467C309.239 13.6168 299.536 11.7754 290.325 9.52482C248.304 -1.01201 203.898 0.113298 161.219 0.0109985C135.644 -0.0913008 110.152 0.522476 84.6597 1.75007C62.4567 2.87536 37.54 1.03399 16.0771 8.60413C-5.63255 16.2766 0.617198 47.7847 1.52177 68.8584C3.00197 104.765 4.89332 140.672 7.11363 176.58C8.01819 191.208 12.0476 221.08 28.0831 221.182C67.144 221.489 107.109 225.274 145.924 222.921C174.459 221.182 202.994 219.136 231.611 219.034C247.564 218.931 327.084 237.55 331.771 209.52C335.8 184.15 335.636 158.063 333.58 132.386Z" fill="#CC017A"/>
<g clip-path="url(#clip1_342_1961)">
<path d="M133.296 263.512C133.911 261.136 133.386 258.86 131.599 256.116C130.23 253.953 128.29 252.21 125.995 251.078C123.687 249.957 121.2 249.25 118.648 248.989L118.388 248.962C117.736 248.92 117.09 248.809 116.461 248.63C116.163 248.54 115.852 248.497 115.541 248.5C115.28 248.498 115.019 248.524 114.764 248.576C113.864 248.758 112.983 249.022 112.132 249.367C109.721 250.31 107.741 251.953 105.958 253.588C105.138 254.339 104.427 255.202 103.847 256.152C103.236 257.215 102.718 258.328 102.298 259.479C102.068 260.031 101.905 260.609 101.813 261.199C101.718 262.01 101.676 262.826 101.687 263.642C101.686 264.195 101.728 264.748 101.813 265.295C102.045 266.533 102.502 267.719 103.16 268.793C103.816 270.111 104.699 271.302 105.769 272.313C106.107 272.599 106.466 272.858 106.842 273.09C107.107 273.265 107.386 273.44 107.646 273.638C110.143 275.533 113.197 276.467 116.65 277.415C116.871 277.479 117.102 277.507 117.332 277.5C118.044 277.47 118.752 277.387 119.452 277.253C119.968 277.168 120.503 277.082 121.046 277.019C121.899 276.951 122.742 276.791 123.561 276.543C125.006 276.025 126.383 275.333 127.661 274.482C128.263 274.07 128.828 273.605 129.349 273.095C129.601 272.866 129.847 272.646 130.108 272.412C130.787 271.836 131.335 271.121 131.716 270.315C131.828 270.077 131.94 269.844 132.057 269.606C132.91 267.932 133.335 266.073 133.296 264.194C133.296 264.132 133.296 264.069 133.296 264.006C133.266 263.843 133.266 263.675 133.296 263.512ZM122.829 250.857C125.653 251.284 128.411 253.399 129.565 255.168L129.699 255.366L129.511 255.523C129.461 255.564 129.412 255.613 129.358 255.662C129.222 255.808 129.06 255.928 128.882 256.017L128.361 256.255C127.568 256.669 126.715 256.959 125.833 257.113L125.658 257.14L125.564 256.987C125.519 256.911 125.465 256.834 125.415 256.758C125.292 256.581 125.182 256.395 125.088 256.201C124.971 255.95 124.858 255.694 124.746 255.438C124.265 254.222 123.628 253.073 122.851 252.021C122.748 251.875 122.675 251.71 122.636 251.536C122.609 251.446 122.573 251.338 122.528 251.217L122.371 250.768L122.829 250.857ZM125.469 265.56V265.744L125.299 265.807C123.951 266.332 121.585 266.669 119.218 266.669C118.121 266.692 117.025 266.585 115.954 266.35L115.797 266.309L115.756 266.152C115.392 264.661 115.698 261.213 116.412 258.77L116.466 258.581H116.663H116.96H117.445C117.528 258.577 117.612 258.577 117.696 258.581C118.415 258.622 119.268 258.662 120.121 258.662C121.046 258.668 121.971 258.605 122.887 258.473C123.171 258.435 123.458 258.419 123.745 258.424H124.643L124.715 258.59L124.818 258.806C124.905 258.952 124.965 259.114 124.993 259.282C125.293 261.355 125.448 263.447 125.456 265.542L125.469 265.56ZM118.733 250.822C118.822 250.652 118.93 250.494 119.057 250.35L119.173 250.202L119.241 250.112H119.349C119.497 250.086 119.647 250.073 119.798 250.072C120.043 250.059 120.288 250.11 120.509 250.218C120.729 250.327 120.919 250.49 121.059 250.691L121.338 251.082C121.743 251.621 122.121 252.18 122.47 252.757C123.331 254.141 123.999 255.637 124.454 257.203L124.535 257.49L124.239 257.539C122.839 257.783 121.421 257.906 120 257.908C119.012 257.907 118.026 257.848 117.045 257.733L116.838 257.706L116.811 257.499C116.811 257.423 116.784 257.351 116.767 257.283C116.719 257.117 116.706 256.943 116.731 256.772C117.136 254.711 117.806 252.711 118.724 250.822H118.733ZM118.433 250.031L118.635 250.161L118.433 250.566C118.361 250.709 118.284 250.857 118.204 251.015C117.242 252.652 116.519 254.418 116.057 256.26L116.026 256.399C115.994 256.565 115.95 256.728 115.895 256.888C115.841 257.064 115.732 257.218 115.584 257.328C115.437 257.438 115.258 257.498 115.074 257.499C114.99 257.499 114.907 257.486 114.827 257.463C114.238 257.297 113.65 257.122 113.008 256.924L111.876 256.583L111.993 256.309C112.069 256.129 112.128 255.968 112.182 255.824C112.268 255.562 112.384 255.31 112.527 255.074C113.637 253.351 114.915 251.743 116.344 250.274C116.489 250.106 116.666 249.969 116.864 249.87C117.062 249.772 117.278 249.713 117.498 249.699C117.833 249.715 118.155 249.831 118.424 250.031H118.433ZM115.334 259.583C114.945 261.555 114.736 263.558 114.71 265.569C114.701 265.692 114.658 265.81 114.584 265.91C114.538 265.979 114.498 266.051 114.463 266.125L114.369 266.3L114.171 266.265C112.493 265.95 110.872 265.381 109.366 264.576L109.209 264.495V264.32C109.402 261.936 110.296 259.758 111.167 257.647L111.27 257.391L111.418 257.364C111.513 257.35 111.609 257.343 111.706 257.342C112.07 257.358 112.427 257.442 112.761 257.589C112.943 257.662 113.131 257.721 113.322 257.764C113.708 257.84 114.095 257.93 114.494 258.029L115.235 258.2V258.397C115.235 258.527 115.262 258.653 115.28 258.774C115.343 259.039 115.361 259.312 115.334 259.583ZM107.588 253.556C107.655 253.475 107.714 253.399 107.767 253.327C107.878 253.171 108.006 253.028 108.149 252.901C108.356 252.735 108.571 252.582 108.782 252.429C108.993 252.276 109.281 252.074 109.51 251.881C110.607 250.967 111.867 250.269 113.223 249.825C113.682 249.671 114.164 249.6 114.647 249.614C114.979 249.614 115.325 249.636 115.689 249.659L116.677 249.717L115.33 251.113C114.674 251.796 114.063 252.429 113.461 253.067C113.102 253.47 112.779 253.904 112.496 254.365C112.121 254.984 111.668 255.553 111.149 256.058L110.996 256.201L107.377 253.799L107.588 253.556ZM108.248 272.596C107.269 272.376 106.388 271.843 105.738 271.078C105.361 270.635 105.019 270.164 104.714 269.668C103.417 267.671 102.717 265.345 102.698 262.964C102.703 262.735 102.734 262.508 102.792 262.286C102.828 262.165 102.874 262.048 102.931 261.936L103.016 261.765L103.133 261.496L103.389 261.635C103.805 261.891 104.174 262.216 104.48 262.596C104.775 262.979 105.151 263.294 105.581 263.516C106.21 263.816 106.803 264.185 107.35 264.617C107.597 264.801 107.853 264.985 108.113 265.164L108.239 265.25L108.199 266.089C108.086 268.218 107.979 270.23 108.58 272.259L108.724 272.731L108.248 272.596ZM108.378 264.001L108.14 263.947C106.097 263.498 104.903 262.088 103.65 260.602L103.299 260.193L103.335 260.054C103.95 257.837 105.165 255.832 106.847 254.261L107.013 254.109L110.843 257.01C110.843 257.01 110.516 257.908 110.394 258.222C110.107 258.99 109.815 259.753 109.546 260.521C109.276 261.289 109.047 261.994 108.8 262.766C108.67 263.09 108.374 264.001 108.374 264.001H108.378ZM109.303 272.188C109.272 272.066 109.236 271.95 109.195 271.833C109.096 271.541 109.025 271.24 108.984 270.935C108.802 269.304 108.77 267.659 108.89 266.022V265.811L109.097 265.775C109.164 265.775 109.227 265.748 109.29 265.735C109.405 265.698 109.524 265.677 109.645 265.672C109.707 265.672 109.769 265.681 109.829 265.699C110.951 266.062 112.074 266.444 113.228 266.835L114.485 267.284V267.468C114.485 267.773 114.517 268.083 114.53 268.393C114.562 269.089 114.598 269.803 114.66 270.508C114.7 270.839 114.76 271.168 114.84 271.492C115.038 272.158 115.093 272.859 115.002 273.548L114.97 273.737L114.777 273.764L114.517 273.818C114.338 273.865 114.154 273.892 113.969 273.898C113.917 273.903 113.864 273.903 113.812 273.898C112.73 273.755 111.665 273.571 110.579 273.378C110.27 273.332 109.983 273.193 109.754 272.981C109.526 272.769 109.367 272.492 109.299 272.188H109.303ZM115.536 276.058C115.437 276.065 115.338 276.065 115.24 276.058C114.767 276.063 114.305 275.919 113.92 275.645C113.693 275.511 113.446 275.417 113.188 275.367C112.604 275.277 112.076 274.969 111.71 274.505L111.369 274.033L111.948 274.078L112.846 274.136C113.479 274.181 114.077 274.217 114.642 274.285C115.5 274.379 115.568 274.621 115.756 275.731L115.806 276.009L115.536 276.058ZM122.6 275.524L122.42 275.569C120.683 276.003 118.903 276.244 117.112 276.287H116.937L116.219 274.833L116.371 274.698C116.402 274.67 116.431 274.64 116.457 274.608C116.534 274.508 116.646 274.441 116.771 274.419C118.32 274.289 119.874 274.168 121.477 274.042L122.752 273.943L122.6 275.524ZM123.089 273.207C121.363 273.675 119.584 273.921 117.795 273.939C117.296 273.939 116.798 273.916 116.309 273.872H116.111L116.066 273.674C115.666 271.774 115.464 269.837 115.464 267.895V267.697L115.648 267.639C116.017 267.521 116.402 267.464 116.789 267.473C117.099 267.473 117.404 267.499 117.687 267.526C117.97 267.553 118.248 267.576 118.522 267.576H118.814C119.263 267.54 119.712 267.522 120.161 267.504C120.736 267.504 121.333 267.464 121.908 267.401C122.604 267.324 123.3 267.194 123.974 267.068L124.841 266.911L124.98 266.884L125.079 266.992C125.211 267.128 125.307 267.295 125.359 267.478C125.411 267.66 125.416 267.853 125.375 268.038C125.375 268.083 125.375 268.128 125.375 268.173C125.212 269.542 124.828 270.875 124.239 272.12C124.15 272.382 123.998 272.618 123.797 272.807C123.596 272.996 123.351 273.134 123.085 273.207H123.089ZM127.688 272.601C126.914 273.518 125.92 274.224 124.8 274.653L124.49 274.783L124.432 274.451C124.378 274.123 124.225 273.261 125.079 272.938C125.528 272.762 125.999 272.614 126.542 272.444L127.4 272.17L128.298 271.873L127.688 272.601ZM132.178 264.679C131.96 266.621 131.367 268.501 130.431 270.216C130.137 270.729 129.653 271.105 129.084 271.263C128.361 271.487 127.634 271.712 126.839 271.923L125.326 272.372L125.451 271.923C125.532 271.626 125.617 271.343 125.694 271.074C125.864 270.49 126.022 269.947 126.143 269.399C126.264 268.851 126.313 268.2 126.376 267.603C126.403 267.338 126.43 267.073 126.462 266.812V266.66L127.162 266.341C128.77 265.618 130.306 264.931 131.653 263.624L132.061 263.238L132.106 263.799C132.106 263.97 132.138 264.105 132.151 264.217C132.175 264.37 132.18 264.525 132.165 264.679H132.178ZM132.178 262.398V262.475L132.129 262.537C130.813 264.127 129.165 265.03 126.785 265.461L126.493 265.515L126.471 265.218C126.439 264.859 126.412 264.5 126.385 264.145C126.322 263.35 126.26 262.528 126.174 261.729C126.089 260.93 125.977 260.166 125.869 259.403C125.819 259.062 125.703 258.204 125.703 258.204L130.103 255.86L130.243 256.026C131.01 256.883 131.581 257.897 131.915 258.998C132.248 260.099 132.337 261.26 132.174 262.398H132.178Z" fill="#252525"/>
<path d="M133.296 263.512C133.911 261.136 133.386 258.86 131.599 256.116C130.23 253.953 128.29 252.21 125.995 251.078C123.687 249.957 121.2 249.25 118.648 248.989L118.388 248.962C117.736 248.92 117.09 248.809 116.461 248.63C116.163 248.54 115.852 248.497 115.541 248.5C115.28 248.498 115.019 248.524 114.764 248.576C113.864 248.758 112.983 249.022 112.132 249.367C109.721 250.31 107.741 251.953 105.958 253.588C105.138 254.339 104.427 255.202 103.847 256.152C103.236 257.215 102.718 258.328 102.298 259.479C102.068 260.031 101.905 260.609 101.813 261.199C101.718 262.01 101.676 262.826 101.687 263.642C101.686 264.195 101.728 264.748 101.813 265.295C102.045 266.533 102.502 267.719 103.16 268.793C103.816 270.111 104.699 271.302 105.769 272.313C106.107 272.599 106.466 272.858 106.842 273.09C107.107 273.265 107.386 273.44 107.646 273.638C110.143 275.533 113.197 276.467 116.65 277.415C116.871 277.479 117.102 277.507 117.332 277.5C118.044 277.47 118.752 277.387 119.452 277.253C119.968 277.168 120.503 277.082 121.046 277.019C121.899 276.951 122.742 276.791 123.561 276.543C125.006 276.025 126.383 275.333 127.661 274.482C128.263 274.07 128.828 273.605 129.349 273.095C129.601 272.866 129.847 272.646 130.108 272.412C130.787 271.836 131.335 271.121 131.716 270.315C131.828 270.077 131.94 269.844 132.057 269.606C132.91 267.932 133.335 266.073 133.296 264.194C133.296 264.132 133.296 264.069 133.296 264.006C133.266 263.843 133.266 263.675 133.296 263.512ZM122.829 250.857C125.653 251.284 128.411 253.399 129.565 255.168L129.699 255.366L129.511 255.523C129.461 255.564 129.412 255.613 129.358 255.662C129.222 255.808 129.06 255.928 128.882 256.017L128.361 256.255C127.568 256.669 126.715 256.959 125.833 257.113L125.658 257.14L125.564 256.987C125.519 256.911 125.465 256.834 125.415 256.758C125.292 256.581 125.182 256.395 125.088 256.201C124.971 255.95 124.858 255.694 124.746 255.438C124.265 254.222 123.628 253.073 122.851 252.021C122.748 251.875 122.675 251.71 122.636 251.536C122.609 251.446 122.573 251.338 122.528 251.217L122.371 250.768L122.829 250.857ZM125.469 265.56V265.744L125.299 265.807C123.951 266.332 121.585 266.669 119.218 266.669C118.121 266.692 117.025 266.585 115.954 266.35L115.797 266.309L115.756 266.152C115.392 264.661 115.698 261.213 116.412 258.77L116.466 258.581H116.663H116.96H117.445C117.528 258.577 117.612 258.577 117.696 258.581C118.415 258.622 119.268 258.662 120.121 258.662C121.046 258.668 121.971 258.605 122.887 258.473C123.171 258.435 123.458 258.419 123.745 258.424H124.643L124.715 258.59L124.818 258.806C124.905 258.952 124.965 259.114 124.993 259.282C125.293 261.355 125.448 263.447 125.456 265.542L125.469 265.56ZM118.733 250.822C118.822 250.652 118.93 250.494 119.057 250.35L119.173 250.202L119.241 250.112H119.349C119.497 250.086 119.647 250.073 119.798 250.072C120.043 250.059 120.288 250.11 120.509 250.218C120.729 250.327 120.919 250.49 121.059 250.691L121.338 251.082C121.743 251.621 122.121 252.18 122.47 252.757C123.331 254.141 123.999 255.637 124.454 257.203L124.535 257.49L124.239 257.539C122.839 257.783 121.421 257.906 120 257.908C119.012 257.907 118.026 257.848 117.045 257.733L116.838 257.706L116.811 257.499C116.811 257.423 116.784 257.351 116.767 257.283C116.719 257.117 116.706 256.943 116.731 256.772C117.136 254.711 117.806 252.711 118.724 250.822H118.733ZM118.433 250.031L118.635 250.161L118.433 250.566C118.361 250.709 118.284 250.857 118.204 251.015C117.242 252.652 116.519 254.418 116.057 256.26L116.026 256.399C115.994 256.565 115.95 256.728 115.895 256.888C115.841 257.064 115.732 257.218 115.584 257.328C115.437 257.438 115.258 257.498 115.074 257.499C114.99 257.499 114.907 257.486 114.827 257.463C114.238 257.297 113.65 257.122 113.008 256.924L111.876 256.583L111.993 256.309C112.069 256.129 112.128 255.968 112.182 255.824C112.268 255.562 112.384 255.31 112.527 255.074C113.637 253.351 114.915 251.743 116.344 250.274C116.489 250.106 116.666 249.969 116.864 249.87C117.062 249.772 117.278 249.713 117.498 249.699C117.833 249.715 118.155 249.831 118.424 250.031H118.433ZM115.334 259.583C114.945 261.555 114.736 263.558 114.71 265.569C114.701 265.692 114.658 265.81 114.584 265.91C114.538 265.979 114.498 266.051 114.463 266.125L114.369 266.3L114.171 266.265C112.493 265.95 110.872 265.381 109.366 264.576L109.209 264.495V264.32C109.402 261.936 110.296 259.758 111.167 257.647L111.27 257.391L111.418 257.364C111.513 257.35 111.609 257.343 111.706 257.342C112.07 257.358 112.427 257.442 112.761 257.589C112.943 257.662 113.131 257.721 113.322 257.764C113.708 257.84 114.095 257.93 114.494 258.029L115.235 258.2V258.397C115.235 258.527 115.262 258.653 115.28 258.774C115.343 259.039 115.361 259.312 115.334 259.583ZM107.588 253.556C107.655 253.475 107.714 253.399 107.767 253.327C107.878 253.171 108.006 253.028 108.149 252.901C108.356 252.735 108.571 252.582 108.782 252.429C108.993 252.276 109.281 252.074 109.51 251.881C110.607 250.967 111.867 250.269 113.223 249.825C113.682 249.671 114.164 249.6 114.647 249.614C114.979 249.614 115.325 249.636 115.689 249.659L116.677 249.717L115.33 251.113C114.674 251.796 114.063 252.429 113.461 253.067C113.102 253.47 112.779 253.904 112.496 254.365C112.121 254.984 111.668 255.553 111.149 256.058L110.996 256.201L107.377 253.799L107.588 253.556ZM108.248 272.596C107.269 272.376 106.388 271.843 105.738 271.078C105.361 270.635 105.019 270.164 104.714 269.668C103.417 267.671 102.717 265.345 102.698 262.964C102.703 262.735 102.734 262.508 102.792 262.286C102.828 262.165 102.874 262.048 102.931 261.936L103.016 261.765L103.133 261.496L103.389 261.635C103.805 261.891 104.174 262.216 104.48 262.596C104.775 262.979 105.151 263.294 105.581 263.516C106.21 263.816 106.803 264.185 107.35 264.617C107.597 264.801 107.853 264.985 108.113 265.164L108.239 265.25L108.199 266.089C108.086 268.218 107.979 270.23 108.58 272.259L108.724 272.731L108.248 272.596ZM108.378 264.001L108.14 263.947C106.097 263.498 104.903 262.088 103.65 260.602L103.299 260.193L103.335 260.054C103.95 257.837 105.165 255.832 106.847 254.261L107.013 254.109L110.843 257.01C110.843 257.01 110.516 257.908 110.394 258.222C110.107 258.99 109.815 259.753 109.546 260.521C109.276 261.289 109.047 261.994 108.8 262.766C108.67 263.09 108.374 264.001 108.374 264.001H108.378ZM109.303 272.188C109.272 272.066 109.236 271.95 109.195 271.833C109.096 271.541 109.025 271.24 108.984 270.935C108.802 269.304 108.77 267.659 108.89 266.022V265.811L109.097 265.775C109.164 265.775 109.227 265.748 109.29 265.735C109.405 265.698 109.524 265.677 109.645 265.672C109.707 265.672 109.769 265.681 109.829 265.699C110.951 266.062 112.074 266.444 113.228 266.835L114.485 267.284V267.468C114.485 267.773 114.517 268.083 114.53 268.393C114.562 269.089 114.598 269.803 114.66 270.508C114.7 270.839 114.76 271.168 114.84 271.492C115.038 272.158 115.093 272.859 115.002 273.548L114.97 273.737L114.777 273.764L114.517 273.818C114.338 273.865 114.154 273.892 113.969 273.898C113.917 273.903 113.864 273.903 113.812 273.898C112.73 273.755 111.665 273.571 110.579 273.378C110.27 273.332 109.983 273.193 109.754 272.981C109.526 272.769 109.367 272.492 109.299 272.188H109.303ZM115.536 276.058C115.437 276.065 115.338 276.065 115.24 276.058C114.767 276.063 114.305 275.919 113.92 275.645C113.693 275.511 113.446 275.417 113.188 275.367C112.604 275.277 112.076 274.969 111.71 274.505L111.369 274.033L111.948 274.078L112.846 274.136C113.479 274.181 114.077 274.217 114.642 274.285C115.5 274.379 115.568 274.621 115.756 275.731L115.806 276.009L115.536 276.058ZM122.6 275.524L122.42 275.569C120.683 276.003 118.903 276.244 117.112 276.287H116.937L116.219 274.833L116.371 274.698C116.402 274.67 116.431 274.64 116.457 274.608C116.534 274.508 116.646 274.441 116.771 274.419C118.32 274.289 119.874 274.168 121.477 274.042L122.752 273.943L122.6 275.524ZM123.089 273.207C121.363 273.675 119.584 273.921 117.795 273.939C117.296 273.939 116.798 273.916 116.309 273.872H116.111L116.066 273.674C115.666 271.774 115.464 269.837 115.464 267.895V267.697L115.648 267.639C116.017 267.521 116.402 267.464 116.789 267.473C117.099 267.473 117.404 267.499 117.687 267.526C117.97 267.553 118.248 267.576 118.522 267.576H118.814C119.263 267.54 119.712 267.522 120.161 267.504C120.736 267.504 121.333 267.464 121.908 267.401C122.604 267.324 123.3 267.194 123.974 267.068L124.841 266.911L124.98 266.884L125.079 266.992C125.211 267.128 125.307 267.295 125.359 267.478C125.411 267.66 125.416 267.853 125.375 268.038C125.375 268.083 125.375 268.128 125.375 268.173C125.212 269.542 124.828 270.875 124.239 272.12C124.15 272.382 123.998 272.618 123.797 272.807C123.596 272.996 123.351 273.134 123.085 273.207H123.089ZM127.688 272.601C126.914 273.518 125.92 274.224 124.8 274.653L124.49 274.783L124.432 274.451C124.378 274.123 124.225 273.261 125.079 272.938C125.528 272.762 125.999 272.614 126.542 272.444L127.4 272.17L128.298 271.873L127.688 272.601ZM132.178 264.679C131.96 266.621 131.367 268.501 130.431 270.216C130.137 270.729 129.653 271.105 129.084 271.263C128.361 271.487 127.634 271.712 126.839 271.923L125.326 272.372L125.451 271.923C125.532 271.626 125.617 271.343 125.694 271.074C125.864 270.49 126.022 269.947 126.143 269.399C126.264 268.851 126.313 268.2 126.376 267.603C126.403 267.338 126.43 267.073 126.462 266.812V266.66L127.162 266.341C128.77 265.618 130.306 264.931 131.653 263.624L132.061 263.238L132.106 263.799C132.106 263.97 132.138 264.105 132.151 264.217C132.175 264.37 132.18 264.525 132.165 264.679H132.178ZM132.178 262.398V262.475L132.129 262.537C130.813 264.127 129.165 265.03 126.785 265.461L126.493 265.515L126.471 265.218C126.439 264.859 126.412 264.5 126.385 264.145C126.322 263.35 126.26 262.528 126.174 261.729C126.089 260.93 125.977 260.166 125.869 259.403C125.819 259.062 125.703 258.204 125.703 258.204L130.103 255.86L130.243 256.026C131.01 256.883 131.581 257.897 131.915 258.998C132.248 260.099 132.337 261.26 132.174 262.398H132.178Z" fill="#CC017A"/>
</g>
<path d="M143.147 254.384H155.81V257.462H146.549V262.16H155.324V265.238H146.549V270.422H156.296V273.5H143.147V254.384ZM162.704 266.534L158.222 260.54H162.164L164.756 264.428L167.564 260.54H171.263L166.835 266.534L172.046 273.5H168.104L164.729 268.856L161.327 273.5H157.493L162.704 266.534ZM173.858 260.54H176.936V262.484H176.99C177.458 261.692 178.088 261.116 178.88 260.756C179.672 260.396 180.527 260.216 181.445 260.216C182.435 260.216 183.326 260.396 184.118 260.756C184.91 261.098 185.585 261.575 186.143 262.187C186.701 262.799 187.124 263.519 187.412 264.347C187.7 265.175 187.844 266.066 187.844 267.02C187.844 267.974 187.691 268.865 187.385 269.693C187.079 270.521 186.647 271.241 186.089 271.853C185.549 272.465 184.892 272.951 184.118 273.311C183.344 273.653 182.498 273.824 181.58 273.824C180.968 273.824 180.428 273.761 179.96 273.635C179.492 273.509 179.078 273.347 178.718 273.149C178.358 272.951 178.052 272.744 177.8 272.528C177.548 272.294 177.341 272.069 177.179 271.853H177.098V279.656H173.858V260.54ZM184.604 267.02C184.604 266.516 184.514 266.03 184.334 265.562C184.172 265.094 183.92 264.68 183.578 264.32C183.254 263.96 182.858 263.672 182.39 263.456C181.922 263.24 181.391 263.132 180.797 263.132C180.203 263.132 179.672 263.24 179.204 263.456C178.736 263.672 178.331 263.96 177.989 264.32C177.665 264.68 177.413 265.094 177.233 265.562C177.071 266.03 176.99 266.516 176.99 267.02C176.99 267.524 177.071 268.01 177.233 268.478C177.413 268.946 177.665 269.36 177.989 269.72C178.331 270.08 178.736 270.368 179.204 270.584C179.672 270.8 180.203 270.908 180.797 270.908C181.391 270.908 181.922 270.8 182.39 270.584C182.858 270.368 183.254 270.08 183.578 269.72C183.92 269.36 184.172 268.946 184.334 268.478C184.514 268.01 184.604 267.524 184.604 267.02ZM190.919 253.088H194.159V273.5H190.919V253.088ZM197.23 267.02C197.23 265.994 197.41 265.067 197.77 264.239C198.148 263.393 198.652 262.673 199.282 262.079C199.912 261.485 200.659 261.026 201.523 260.702C202.387 260.378 203.305 260.216 204.277 260.216C205.249 260.216 206.167 260.378 207.031 260.702C207.895 261.026 208.642 261.485 209.272 262.079C209.902 262.673 210.397 263.393 210.757 264.239C211.135 265.067 211.324 265.994 211.324 267.02C211.324 268.046 211.135 268.982 210.757 269.828C210.397 270.656 209.902 271.367 209.272 271.961C208.642 272.555 207.895 273.014 207.031 273.338C206.167 273.662 205.249 273.824 204.277 273.824C203.305 273.824 202.387 273.662 201.523 273.338C200.659 273.014 199.912 272.555 199.282 271.961C198.652 271.367 198.148 270.656 197.77 269.828C197.41 268.982 197.23 268.046 197.23 267.02ZM200.47 267.02C200.47 267.524 200.551 268.01 200.713 268.478C200.893 268.946 201.145 269.36 201.469 269.72C201.811 270.08 202.216 270.368 202.684 270.584C203.152 270.8 203.683 270.908 204.277 270.908C204.871 270.908 205.402 270.8 205.87 270.584C206.338 270.368 206.734 270.08 207.058 269.72C207.4 269.36 207.652 268.946 207.814 268.478C207.994 268.01 208.084 267.524 208.084 267.02C208.084 266.516 207.994 266.03 207.814 265.562C207.652 265.094 207.4 264.68 207.058 264.32C206.734 263.96 206.338 263.672 205.87 263.456C205.402 263.24 204.871 263.132 204.277 263.132C203.683 263.132 203.152 263.24 202.684 263.456C202.216 263.672 201.811 263.96 201.469 264.32C201.145 264.68 200.893 265.094 200.713 265.562C200.551 266.03 200.47 266.516 200.47 267.02ZM214.358 260.54H217.598V262.592H217.652C218.012 261.836 218.525 261.251 219.191 260.837C219.857 260.423 220.622 260.216 221.486 260.216C221.684 260.216 221.873 260.234 222.053 260.27C222.251 260.306 222.449 260.351 222.647 260.405V263.537C222.377 263.465 222.107 263.411 221.837 263.375C221.585 263.321 221.333 263.294 221.081 263.294C220.325 263.294 219.713 263.438 219.245 263.726C218.795 263.996 218.444 264.311 218.192 264.671C217.958 265.031 217.796 265.391 217.706 265.751C217.634 266.111 217.598 266.381 217.598 266.561V273.5H214.358V260.54ZM226.97 268.154C227.078 269.126 227.456 269.882 228.104 270.422C228.752 270.962 229.535 271.232 230.453 271.232C231.263 271.232 231.938 271.07 232.478 270.746C233.036 270.404 233.522 269.981 233.936 269.477L236.258 271.232C235.502 272.168 234.656 272.834 233.72 273.23C232.784 273.626 231.803 273.824 230.777 273.824C229.805 273.824 228.887 273.662 228.023 273.338C227.159 273.014 226.412 272.555 225.782 271.961C225.152 271.367 224.648 270.656 224.27 269.828C223.91 268.982 223.73 268.046 223.73 267.02C223.73 265.994 223.91 265.067 224.27 264.239C224.648 263.393 225.152 262.673 225.782 262.079C226.412 261.485 227.159 261.026 228.023 260.702C228.887 260.378 229.805 260.216 230.777 260.216C231.677 260.216 232.496 260.378 233.234 260.702C233.99 261.008 234.629 261.458 235.151 262.052C235.691 262.646 236.105 263.384 236.393 264.266C236.699 265.13 236.852 266.129 236.852 267.263V268.154H226.97ZM233.612 265.724C233.594 264.77 233.297 264.023 232.721 263.483C232.145 262.925 231.344 262.646 230.318 262.646C229.346 262.646 228.572 262.925 227.996 263.483C227.438 264.041 227.096 264.788 226.97 265.724H233.612Z" fill="#CC017A"/>
<path d="M143.875 170.738C143.875 170.738 141.635 175.61 142.854 181.623C134.08 173.341 131.638 155.921 133.039 117.795L224.687 116.444C227.661 160.865 232.982 177.19 215.09 185.332C214.834 184.392 214.774 179.206 214.105 178.21C213.741 181.087 212.427 185.172 211.893 186.054C199.824 188.241 165.111 190.355 154.898 187.714C151.35 186.796 148.29 185.58 145.675 183.853C145.229 177.609 143.875 170.738 143.875 170.738Z" fill="#AD5C49"/>
<path d="M162.31 185.728C156.626 190.392 146.46 196.551 147.611 204.089C148.353 208.948 154.208 206.742 158.225 209.563C162.689 203.071 168.038 197.481 173.74 192.203C169.808 190.204 165.874 188.243 162.31 185.728Z" fill="#FAC7B3"/>
<path d="M166.223 180.818C164.536 182.551 165.687 197.345 163.896 198.852C159.172 201.179 151.537 194.519 149.355 192.456C152.846 187.801 161.569 180.239 166.223 180.818Z" fill="#E23768"/>
<path d="M160.056 220.769C169.514 227.913 204.779 222.264 208.312 219.932C208.312 219.932 204.275 187.3 201.015 178.123C191.802 178.669 175.528 178.491 165.64 180.818C162.267 189.058 162.36 210.578 160.056 220.769Z" fill="#E23768"/>
<path d="M167.388 222.935C176.169 225.34 197.827 223.499 201.039 222.17C201.039 222.17 199.277 204.106 198.442 197.187C190.259 197.436 176.347 197.659 168.699 198.07C168.318 203.772 167.964 216.889 167.388 222.935Z" fill="white"/>
<path d="M174.715 218.033C178.183 221.664 189.926 221.228 193.65 217.825C193.65 217.825 193.43 210.751 192.635 206.759C187.89 206.902 179.39 207.073 174.954 207.311C174.495 210.962 174.831 215.639 174.715 218.033Z" fill="white"/>
<path opacity="0.32" d="M188.961 221.13C183.72 222.173 177.095 221.571 174.382 218.733L174.036 218.372L174.061 217.873C174.101 217.053 174.084 215.954 174.066 214.726C174.038 212.401 173.996 209.51 174.307 207.06L194.285 206.425C195.09 210.468 195.313 217.389 195.323 217.682L195.338 218.216L194.942 218.577C193.648 219.761 191.461 220.633 188.961 221.13ZM176.403 217.436C179.603 220.032 189.307 219.886 192.973 217.188C192.908 215.608 192.687 211.067 192.176 207.842C192.176 207.842 179.668 208.173 176.518 208.319C176.338 210.397 176.37 212.75 176.398 214.693C176.411 215.724 176.421 216.661 176.403 217.436Z" fill="#84C0D3"/>
<path d="M174.625 217.772C178.068 221.428 189.813 221.075 193.562 217.697C193.562 217.697 193.391 210.623 192.624 206.624C187.88 206.734 179.377 206.844 174.941 207.052C174.454 210.696 174.758 215.378 174.625 217.772Z" fill="white"/>
<path d="M173.351 182.513C173.291 181.415 173.702 180.369 174.404 179.416C180.156 179.364 186.897 179.08 192.757 178.541C193.494 179.384 193.971 180.337 194.028 181.385C194.226 185.008 189.758 188.2 184.048 188.511C178.336 188.822 173.546 186.137 173.351 182.513Z" fill="#FFD5C7"/>
<path d="M190.082 170.743L190.661 181.385C190.786 183.674 187.755 185.7 183.893 185.911C180.029 186.122 176.796 184.437 176.671 182.15L176.092 171.507L190.082 170.743Z" fill="#FFD5C7"/>
<g opacity="0.45">
<path opacity="0.32" d="M205.892 158.248C205.892 158.248 201.285 180.284 181.295 180.919C161.264 181.553 154.567 163.634 154.567 163.634L205.892 158.248Z" fill="#3A0808"/>
</g>
<path d="M235.469 147.836C233.305 156.482 224.969 161.974 218.655 161.189C212.344 160.404 211.067 153.338 212.103 145.017C213.139 136.697 219.097 130.569 225.408 131.376C234.032 132.477 237.502 139.711 235.469 147.836Z" fill="#FAC7B3"/>
<path d="M227.903 149.772C227.449 153.42 224.472 156.053 221.255 155.654C218.038 155.253 215.796 151.971 216.25 148.322C216.704 144.674 219.68 142.043 222.898 142.442C226.115 142.843 228.357 146.126 227.903 149.772Z" fill="#E4A68D"/>
<path d="M128.525 149.413C130.942 157.992 139.436 163.235 145.722 162.265C152.009 161.292 153.077 154.193 151.795 145.905C150.514 137.62 144.378 131.669 138.094 132.662C129.508 134.019 126.251 141.351 128.525 149.413Z" fill="#FAC7B3"/>
<path d="M136.607 151.118C137.169 154.752 140.22 157.294 143.425 156.8C146.63 156.304 148.771 152.959 148.21 149.325C147.648 145.692 144.596 143.149 141.394 143.643C138.189 144.139 136.048 147.487 136.607 151.118Z" fill="#E4A68D"/>
<path d="M137.151 121.105C137.549 148.169 156.477 160.065 182.731 159.679C208.986 159.293 228.061 146.835 227.662 119.771C227.263 92.7066 207.915 86.7059 181.66 87.0921C155.406 87.4782 136.752 94.0406 137.151 121.105Z" fill="#AD5C49"/>
<path d="M140.378 130.466C140.847 162.182 158.187 176.197 182.177 175.843C206.167 175.489 223.55 160.963 223.081 129.247C222.612 97.5311 205.006 96.9543 181.019 97.3079C157.028 97.6615 139.909 98.7498 140.378 130.466Z" fill="#FBD3C7"/>
<path d="M150.895 157.56C150.958 161.83 154.471 165.241 158.741 165.178C163.009 165.115 166.422 161.602 166.359 157.332C166.297 153.061 162.784 149.651 158.513 149.714C154.243 149.776 150.832 153.29 150.895 157.56Z" fill="#FFC0C0"/>
<path d="M196.654 157.297C196.717 161.567 200.23 164.978 204.5 164.915C208.768 164.852 212.181 161.339 212.118 157.069C212.055 152.798 208.542 149.388 204.272 149.451C200.001 149.513 196.591 153.027 196.654 157.297Z" fill="#FFC0C0"/>
<path d="M171.796 135.378C174.755 139.611 174.424 144.307 171.876 146.113C168.034 148.834 158.912 149.684 155.479 145.832C152.154 142.101 153.701 135.23 159.057 132.231C163.746 129.605 168.932 131.28 171.796 135.378Z" fill="#F9FEFF"/>
<path d="M154.782 134.34C158.924 127.7 169.012 129.846 171.894 135.521C168.937 131.291 163.523 130.042 159.188 132.464C156.507 133.964 154.614 136.609 154.122 139.538C153.731 141.873 154.285 144.483 155.667 146.033C154.085 145.027 151.738 139.225 154.782 134.34Z" fill="#602220"/>
<path d="M170.74 138.227C171.961 141.168 170.567 144.541 167.626 145.76C164.684 146.981 161.311 145.587 160.09 142.648C158.869 139.706 160.263 136.334 163.205 135.112C166.146 133.894 169.519 135.288 170.74 138.227Z" fill="#461D14"/>
<path d="M170.265 137.722C170.604 138.537 170.218 139.475 169.403 139.814C168.588 140.152 167.65 139.766 167.311 138.951C166.973 138.136 167.359 137.198 168.174 136.86C168.989 136.521 169.927 136.907 170.265 137.722Z" fill="#FEFFFE"/>
<path d="M192.479 135.072C189.648 139.39 190.114 144.077 192.717 145.807C196.637 148.415 205.782 148.994 209.099 145.042C212.312 141.213 210.564 134.39 205.12 131.551C200.353 129.064 195.22 130.892 192.479 135.072Z" fill="#F9FEFF"/>
<path d="M209.453 133.535C205.117 127.02 195.097 129.463 192.384 135.22C195.215 130.904 200.588 129.495 204.994 131.792C207.718 133.214 209.689 135.799 210.265 138.713C210.727 141.035 210.248 143.661 208.914 145.25C210.466 144.197 212.64 138.324 209.453 133.535Z" fill="#602220"/>
<path d="M204.327 137.733C205.548 140.672 204.154 144.047 201.213 145.268C198.271 146.489 194.898 145.095 193.677 142.156C192.456 139.215 193.85 135.842 196.792 134.621C199.733 133.397 203.106 134.792 204.327 137.733Z" fill="#461D14"/>
<path d="M203.853 137.229C204.192 138.044 203.806 138.979 202.991 139.317C202.176 139.656 201.238 139.27 200.899 138.455C200.561 137.64 200.947 136.705 201.762 136.363C202.58 136.025 203.515 136.411 203.853 137.229Z" fill="#FEFFFE"/>
<path d="M179.098 149.433C179.294 149.43 179.464 149.287 179.494 149.087C179.708 147.67 180.811 146.74 182.306 146.717C183.808 146.695 184.966 147.61 185.184 148.994C185.219 149.215 185.43 149.368 185.651 149.333C185.874 149.297 186.024 149.089 185.989 148.866C185.708 147.093 184.189 145.877 182.295 145.905C180.412 145.932 178.963 147.163 178.69 148.966C178.657 149.19 178.81 149.395 179.031 149.43L179.098 149.433Z" fill="#C68C75"/>
<path d="M212.058 97.2852C211.677 98.1753 211.685 112.81 211.559 119.121C211.471 123.652 220.674 141.83 239.393 127.792C213.294 128.632 238.591 101.904 212.058 97.2852Z" fill="#AD5C49"/>
<path d="M140.834 100.585C134.337 95.6052 135.578 88.5012 140.238 82.2122C147.269 102.504 191.239 76.1789 210.372 91.1141C209.833 91.1918 215.192 96.4101 211.834 100.297C209.329 107.892 196.327 119.816 171.948 123.56C176.098 121.082 179.96 117.038 183.35 113.768C181.956 114.364 180.524 114.946 179.047 115.495C165.993 120.36 148.881 118.951 141.659 117.697C139.167 130.089 141.534 145.609 142.898 150.215C128.357 130.731 132.015 102.955 140.834 100.585Z" fill="#AD5C49"/>
<path d="M154.383 120.33C154.657 120.325 154.93 120.225 155.148 120.024C157.909 117.479 163.215 116.709 167.505 118.231C168.102 118.442 168.762 118.131 168.977 117.532C169.191 116.932 168.877 116.275 168.278 116.06C163.167 114.237 156.986 115.195 153.588 118.329C153.119 118.76 153.089 119.488 153.523 119.956C153.754 120.21 154.07 120.335 154.383 120.33Z" fill="#843E30"/>
<path d="M209.438 119.517C209.754 119.512 210.065 119.38 210.29 119.121C210.709 118.64 210.656 117.913 210.177 117.496C206.687 114.462 200.476 113.697 195.425 115.661C194.831 115.894 194.538 116.561 194.771 117.153C195.004 117.747 195.679 118.038 196.263 117.81C200.498 116.16 205.829 116.777 208.668 119.237C208.886 119.427 209.164 119.52 209.438 119.517Z" fill="#843E30"/>
<path d="M169.617 157.011C170.57 161.374 175.327 165.321 181.543 165.253C187.759 165.188 193.198 161.056 193.559 156.755C194.093 150.398 187.672 155.233 181.453 155.002C175.241 154.772 168.175 150.423 169.617 157.011Z" fill="#660E04"/>
<path d="M180.839 161.023C184.199 160.988 187.121 161.833 188.828 163.272C186.852 164.489 184.337 165.326 181.546 165.356C178.404 165.389 175.804 164.446 173.723 162.994C175.455 161.785 177.855 161.056 180.839 161.023Z" fill="#EF7D70"/>
<path d="M173.348 153.36C175.344 152.904 178.35 154.283 181.447 154.398C184.94 154.529 187.877 153.034 190.048 153.578C189.176 155.389 185.825 156.765 181.803 156.808C177.493 156.856 173.924 155.354 173.348 153.36Z" fill="white"/>
<path d="M211.847 44.9097C213.881 37.6879 208.831 27.5949 198.033 25.2703C184.031 22.2562 167.606 29.448 169.524 42.7432C166.159 38.4151 152.217 37.0008 147.555 42.51C139.754 51.7304 146.59 63.7016 153.054 62.4302C152.071 69.6721 151.302 87.97 151.319 92.0674C165.79 88.1957 200.719 86.7137 219.127 97.6819C219.781 92.1802 222.407 72.6311 222.469 72.6211C229.779 71.2494 237.111 66.5979 233.934 55.6497C229.398 40.0149 213.828 43.2322 211.847 44.9097Z" fill="white"/>
<path d="M218.974 97.5938C200.551 86.6156 165.59 88.5465 151.751 92.1098C151.575 92.1549 150.738 92.6238 150.74 92.4433C150.72 88.4913 151.427 70.9131 152.385 63.092C149.78 63.2174 146.445 61.4746 144.687 58.488C142.407 54.6038 142.144 48.0013 147.114 42.1286C149.246 39.6084 153.373 38.2268 158.431 38.3296C162.651 38.4198 166.56 39.5432 168.802 41.2434C168.629 37.0758 170.226 33.3094 173.474 30.2802C179.141 24.9867 189.058 22.7399 198.156 24.7008C203.442 25.8393 207.813 28.8935 210.468 33.2993C212.489 36.657 213.277 40.4159 212.692 43.8061C214.967 42.9159 219.343 42.3191 223.618 43.608C227.334 44.7289 232.242 47.7004 234.498 55.4865C235.78 59.8973 235.494 63.6537 233.646 66.6527C231.697 69.8173 227.878 72.0967 222.979 73.1098C222.565 75.823 220.305 92.7392 219.706 97.7493C219.679 97.9474 219.112 97.6766 218.974 97.5938ZM151.906 91.696C166.177 88.2506 200.079 86.2746 218.653 96.7363C219.057 93.4664 219.847 87.4657 220.446 83.0147C221.895 72.1368 221.853 72.1494 222.352 72.0491C227.149 71.1438 230.827 69.0149 232.65 66.0434C234.318 63.3352 234.559 59.8923 233.377 55.8099C231.682 49.9623 228.285 46.231 223.279 44.7214C218.332 43.2294 213.217 44.5083 212.224 45.3533C212.025 45.5213 211.747 45.5389 211.531 45.3984C211.318 45.2605 211.218 44.9972 211.286 44.7515C212.229 41.4114 211.549 37.3516 209.468 33.8962C206.983 29.7687 202.878 26.905 197.91 25.8368C189.166 23.9586 179.67 26.0825 174.266 31.1303C170.903 34.2673 169.464 38.2518 170.101 42.6552C170.139 42.9159 169.998 43.1717 169.753 43.2745C169.519 43.3698 169.226 43.3046 169.063 43.0965C167.493 41.0704 163.107 39.5884 158.401 39.4931C153.762 39.3978 149.872 40.6566 147.999 42.8808C143.42 48.2872 143.764 54.5587 145.85 58.1169C147.528 60.9731 150.6 62.3146 152.944 61.8532C153.127 61.8181 153.318 61.8708 153.453 62.0012C153.589 62.1316 153.656 62.3171 153.629 62.5052C152.706 69.3208 151.964 86.5479 151.906 91.696Z" fill="#92C9D6"/>
<path opacity="0.26" d="M219.127 97.6819C219.563 95.3072 222.344 74.3714 222.575 72.0067C217.66 73.5514 212.991 71.5528 211.072 69.6872C193.1 77.4557 181.3 72.9696 174.181 68.1074C179.118 76.6784 198.078 78.7396 210.009 75.6101C207.469 79.8479 205.867 86.9093 207.549 92.8974C212.537 94.0258 218.246 97.1728 219.127 97.6819Z" fill="#84C0D3"/>
<path d="M172.145 199.267L168.654 199.377C168.607 197.855 167.531 180.525 167.533 178.787H171.026C171.021 180.415 171.352 185.761 171.646 190.472C171.879 194.211 172.097 197.729 172.145 199.267Z" fill="white"/>
<path d="M194.918 226.996C204.327 230.652 217.602 220.017 217.02 210.709C216.278 198.825 213.562 186.28 204.607 185.304L204.159 206.852C204.984 211.732 203.557 217.439 194.918 218.853C194.898 220.411 194.073 226.038 194.918 226.996Z" fill="#FBD3C7"/>
<path d="M217.99 190.71C213.545 198.08 204.592 202.408 202.285 201.179C202.285 201.179 189.356 190.853 201.827 179.108C204.858 180.401 217.99 190.71 217.99 190.71Z" fill="#E23768"/>
<path d="M198.61 198.153L195.12 198.264C195.052 196.082 195.275 190.129 195.473 184.881C195.596 181.498 195.711 178.511 195.709 177.335H199.205C199.202 178.531 199.087 181.571 198.961 185.008C198.776 189.948 198.543 196.092 198.61 198.153Z" fill="white"/>
<path opacity="0.19" d="M163.606 206.195C163.243 206.975 162.024 207.173 160.883 206.641C159.745 206.107 159.115 205.046 159.479 204.266C159.842 203.489 161.061 203.288 162.199 203.82C163.34 204.352 163.97 205.415 163.606 206.195Z" fill="#592219"/>
<path d="M119.059 195.909C126.379 206.661 135.243 209.317 135.243 209.317C143.032 211.107 148.049 201.899 142.625 200.239C137.851 199.374 129.975 194.918 124.383 190.816C123.415 190.106 118.375 194.903 119.059 195.909Z" fill="#FBD3C7"/>
<path d="M146.447 219.749C145.093 215.16 142.881 184.808 143.521 182.789C148.754 186.671 161.269 187.847 160.723 201.584L146.447 219.749Z" fill="white"/>
<path d="M146.447 219.749C145.092 215.16 138.598 190.079 138.603 188.978C150.273 184.926 160.145 195.069 160.722 201.584C160.712 201.702 155.015 219.904 154.554 221.579C152.979 220.285 148.638 218.801 146.447 219.749Z" fill="#EBF6F7"/>
<path d="M146.793 219.942C145.438 215.353 136.125 192.411 136.128 191.31C150.89 186.967 159.747 196.767 160.725 201.586C160.715 201.704 155.017 219.907 154.556 221.582C152.979 220.286 148.982 218.994 146.793 219.942Z" fill="#D0DDDD"/>
<path d="M180.56 221.772C184.078 217.585 187.845 218.159 187.837 210.992C187.835 209.638 188.487 195.245 188.497 191.024C176.282 189.921 162.984 192.564 160.078 199.861C160.058 199.979 160.592 218.866 160.78 220.601C163.611 219.689 166.776 219.23 170.108 219.348C173.923 219.485 177.486 220.361 180.56 221.772Z" fill="white"/>
<path d="M180.56 221.772C184.078 217.584 184.991 213.778 188.802 209.811C189.778 208.795 190.329 197.862 191.041 194.033C183.802 191.546 166.073 190.934 160.075 199.863C160.055 199.981 160.589 218.868 160.777 220.604C163.608 219.691 166.773 219.232 170.106 219.35C173.922 219.485 177.485 220.36 180.56 221.772Z" fill="#EBF6F7"/>
<path d="M180.56 221.773C184.078 217.585 188.755 213.588 192.566 209.618C193.542 208.603 191.772 202.141 191.807 200.4C186.305 195.651 171.112 192.79 160.078 199.861C160.058 199.979 160.592 218.866 160.78 220.601C163.611 219.689 166.776 219.23 170.108 219.348C173.923 219.486 177.486 220.361 180.56 221.773Z" fill="#D0DDDD"/>
<path d="M146.407 224.303C143.638 218.49 136.555 201.87 134.428 196.421C143.576 191.744 153.526 197.188 155.492 200.292C155.482 200.41 164.529 225.085 164.068 226.76C160.068 222.688 148.797 221.665 146.407 224.303Z" fill="#46C6CC"/>
<path d="M195.626 228.244C194.861 221.722 193.991 210.483 193.206 203.715C181.433 195.33 166.229 198.251 162.874 199.964C162.854 200.082 169.494 225.436 169.682 227.171C183 222.73 192.551 226.833 195.626 228.244Z" fill="#46C6CC"/>
<path d="M164.067 226.757L169.829 227.141L163.021 199.934L155.042 199.718L164.067 226.757Z" fill="#35B5B5"/>
<path d="M145.534 211.315L148.325 217.685C148.325 217.685 149.1 217.983 151.181 217.662C153.531 217.301 154.168 216.787 154.168 216.787L154.943 209.868L145.534 211.315Z" fill="#F45B83"/>
<path opacity="0.28" d="M152.37 217.432L151.939 210.33L151.317 210.426L151.986 217.52C152.129 217.489 152.247 217.459 152.37 217.432Z" fill="white"/>
<path opacity="0.28" d="M153.195 217.211L153.268 210.125L152.638 210.222L152.804 217.326C152.942 217.286 153.08 217.249 153.195 217.211Z" fill="white"/>
<path opacity="0.28" d="M153.902 216.935L154.381 209.954L153.847 210.037L153.559 217.086C153.707 217.028 153.814 216.978 153.902 216.935Z" fill="white"/>
<path opacity="0.28" d="M150.647 217.73L149.157 210.757L148.536 210.852L150.253 217.768C150.379 217.758 150.509 217.745 150.647 217.73Z" fill="white"/>
<path opacity="0.28" d="M149.002 217.793L146.627 211.145L146.093 211.228L148.628 217.75C148.726 217.767 148.846 217.782 149.002 217.793Z" fill="white"/>
<path opacity="0.28" d="M151.106 217.667C151.131 217.662 151.153 217.665 151.181 217.66C151.311 217.64 151.417 217.617 151.537 217.597L150.587 210.536L149.889 210.644L151.106 217.667Z" fill="white"/>
<path opacity="0.28" d="M149.807 217.8L147.838 210.96L147.209 211.057L149.395 217.808C149.518 217.808 149.656 217.805 149.807 217.8Z" fill="white"/>
<path d="M155.186 208.755C155.432 210.358 153.345 212.01 150.522 212.446C147.698 212.88 145.211 211.935 144.965 210.33C144.719 208.728 146.805 207.075 149.629 206.641C152.453 206.205 154.94 207.153 155.186 208.755Z" fill="#B23936"/>
<path d="M153.375 207.093C153.603 208.362 152.201 209.673 150.245 210.024C148.29 210.375 146.519 209.631 146.291 208.364C146.063 207.095 147.465 205.784 149.423 205.433C151.379 205.082 153.149 205.827 153.375 207.093Z" fill="#D85F59"/>
<path d="M152.285 205.591C152.952 206.499 151.555 207.83 150.068 208.194C148.581 208.558 147.164 207.978 146.901 206.903C146.64 205.827 148.077 203.575 150.908 203.274C149.506 205.774 151.693 204.786 152.285 205.591Z" fill="#F99191"/>
<path opacity="0.32" d="M180.415 213.888C180.342 214.362 180.106 215.33 182.955 216.923C183.426 217.186 180.7 216.135 180.766 216.802C180.959 218.851 182.473 221.569 185.613 224.084C191.829 229.067 198.479 225.413 200.154 223.503C201.333 222.158 201.318 212.452 193.757 209.543C193.146 209.307 195.691 212.925 194.921 213.033C193.868 213.179 192.298 212.542 190.106 211.702C185.244 209.844 181.563 209.232 181.977 211.057C182.12 211.687 189.206 215.037 189.106 215.358C189 215.684 180.47 213.532 180.415 213.888Z" fill="#3A0808"/>
<path d="M179.826 213.974C179.763 214.43 179.552 215.361 182.393 216.966C182.862 217.231 180.001 216.183 180.234 216.803C180.884 218.53 182.489 220.908 185.638 223.415C191.869 228.373 198.432 228.237 200.039 226.427C201.17 225.15 199.533 212.286 193.56 209.681C192.958 209.42 194.467 214.388 193.71 214.473C192.674 214.591 191.501 212.933 189.324 212.076C184.495 210.17 180.856 209.498 181.302 211.273C181.455 211.885 188.73 216.452 188.637 216.762C188.542 217.068 179.871 213.631 179.826 213.974Z" fill="#FBD3C7"/>
<path d="M126.589 192.769C126.082 193.913 121.087 197.403 119.327 197.315C116.27 197.163 111.177 195.151 106.09 189.813C105.119 186.43 107.479 181.174 112.11 177.137C114.131 175.374 115.774 182.002 119.044 183.353C120.817 184.085 122.213 180.459 122.213 178.714C122.517 180.67 127.244 191.295 126.589 192.769Z" fill="#FFD5C7"/>
<path opacity="0.2" d="M114.051 177.679C112.333 177.95 110.457 178.965 108.93 180.655C108.732 180.873 108.572 181.107 108.396 181.332C107.895 182.075 107.423 182.809 107.087 183.556C106.062 185.833 106.247 188.165 107.664 189.447C109.695 191.282 113.554 190.322 116.285 187.303C117.484 185.976 118.238 184.479 118.564 183.055C116.639 181.901 115.284 179.088 114.051 177.679Z" fill="#3A0808"/>
<path d="M126.013 177.621C128.094 181.648 128.185 187.837 126.7 192.125C118.305 190.75 121.753 181.736 121.048 179.298C120.812 178.478 120.466 177.553 119.303 175.808C118.458 174.539 119.303 171.154 121.048 171.735C123.375 174.065 124.802 175.279 126.013 177.621Z" fill="#FFD5C7"/>
<path d="M125.393 172.588C125.393 179.018 121.406 181.49 116.491 181.49C111.574 181.49 107.587 179.018 107.587 172.588C107.587 166.159 111.574 158.205 116.491 158.205C121.406 158.207 125.393 166.159 125.393 172.588Z" fill="#F4AB76"/>
<path d="M109.39 170.773C111.991 170.434 114.333 171.269 114.621 172.638C114.909 174.007 113.036 175.394 110.438 175.735C107.838 176.074 105.496 175.239 105.208 173.869C104.917 172.498 106.79 171.111 109.39 170.773Z" fill="#FFD5C7"/>
<path d="M109.592 176.234C112.047 175.359 114.502 175.688 115.071 176.967C115.641 178.245 114.114 179.991 111.659 180.866C109.204 181.741 106.751 181.412 106.18 180.134C105.61 178.852 107.137 177.107 109.592 176.234Z" fill="#FFD5C7"/>
<path d="M108.579 181.047C110.939 181.104 112.895 182.223 112.95 183.544C113.005 184.866 111.137 185.889 108.777 185.831C106.42 185.773 104.462 184.655 104.406 183.334C104.354 182.012 106.219 180.989 108.579 181.047Z" fill="#FFD5C7"/>
<path d="M107.873 185.319C109.733 185.655 111.105 186.937 110.934 188.18C110.764 189.424 109.116 190.156 107.256 189.82C105.395 189.484 104.023 188.203 104.194 186.959C104.365 185.715 106.012 184.981 107.873 185.319Z" fill="#FFD5C7"/>
<path d="M102.888 146.845C102.599 146.537 102.115 146.522 101.804 146.81C101.506 147.101 101.478 147.585 101.769 147.896L106.498 152.951C106.789 153.26 107.278 153.282 107.582 152.987C107.607 152.961 107.629 152.939 107.652 152.911C107.893 152.618 107.885 152.187 107.619 151.901L102.888 146.845ZM96.8844 155.519C96.4631 155.451 96.0694 155.742 96.0093 156.156C95.9441 156.575 96.2299 156.969 96.6487 157.034L103.484 158.117C103.763 158.16 104.029 158.047 104.197 157.846C104.282 157.743 104.339 157.621 104.362 157.48C104.427 157.061 104.141 156.668 103.725 156.6L96.8844 155.519ZM113.026 143.031C112.609 142.949 112.211 143.222 112.123 143.633L110.779 150.421C110.696 150.838 110.967 151.239 111.383 151.321C111.669 151.379 111.952 151.266 112.123 151.056C112.201 150.96 112.256 150.845 112.283 150.72L113.63 143.932C113.71 143.518 113.442 143.114 113.026 143.031Z" fill="#919191"/>
<path opacity="0.4" d="M121.08 162.152C121.767 163.548 121.572 165.053 120.639 165.512C119.706 165.971 118.394 165.211 117.705 163.812C117.018 162.415 117.213 160.91 118.146 160.451C119.079 159.992 120.39 160.755 121.08 162.152Z" fill="white"/>
<defs>
<clipPath id="clip0_342_1961">
<rect width="329.668" height="108" fill="white" transform="translate(5.33154 202)"/>
</clipPath>
<clipPath id="clip1_342_1961">
<rect width="31.856" height="29" fill="white" transform="translate(101.674 248.5)"/>
</clipPath>
</defs>
</svg>
