<svg width="335" height="310" viewBox="0 0 335 310" fill="none" xmlns="http://www.w3.org/2000/svg">
<g clip-path="url(#clip0_342_1959)">
<path d="M8.50916 32.5025C4.54385 66.104 4.70569 100.654 6.72879 134.662L307.364 17.0567C293.486 16.9099 279.492 16.1627 265.478 15.4144C240.674 14.0901 215.805 12.7622 191.399 14.7534C187.578 15.0668 183.758 15.3877 179.937 15.7086C155.676 17.7464 131.406 19.7849 107.075 19.902M8.50916 32.5025L9.00534 32.5642C9.00534 32.5638 9.00546 32.5635 9.00546 32.5632C9.57034 28.0182 11.2573 24.4412 13.7952 21.6439C16.3374 18.8417 19.7557 16.7981 23.8151 15.3624C31.9467 12.4864 42.568 12.078 53.6007 12.8304C64.6226 13.582 75.9969 15.4872 85.6122 17.1997C86.8327 17.4171 88.0253 17.6314 89.1853 17.8399C92.5902 18.4519 95.7148 19.0135 98.4422 19.4533C102.089 20.0414 105.068 20.4191 107.078 20.402C107.078 20.402 107.079 20.402 107.08 20.402L107.075 19.902M8.50916 32.5025C12.1153 3.47971 60.7292 12.2173 89.276 17.3482C97.2445 18.7804 103.649 19.9316 107.075 19.902M8.50916 32.5025L107.075 19.902M7.22794 134.633L7.22791 134.632L24.8559 278.416C14.6201 254.735 12.6113 221.261 10.773 190.628C10.2133 181.3 9.66934 172.236 8.91376 163.792L9.41199 163.75C9.41193 163.749 9.41183 163.748 9.41177 163.747C8.60257 154.128 7.79391 144.38 7.22794 134.633Z" fill="#FFF1D7" stroke="#F4B43F"/>
</g>
<path d="M333.58 132.386C333.005 125.021 332.182 117.655 331.36 110.392C328.071 83.078 328.728 47.171 315.16 23.8467C309.239 13.6168 299.536 11.7754 290.325 9.52482C248.304 -1.01201 203.898 0.113298 161.219 0.0109985C135.644 -0.0913008 110.152 0.522476 84.6597 1.75007C62.4567 2.87536 37.54 1.03399 16.0771 8.60413C-5.63255 16.2766 0.617198 47.7847 1.52177 68.8584C3.00197 104.765 4.89332 140.672 7.11363 176.58C8.01819 191.208 12.0476 221.08 28.0831 221.182C67.144 221.489 107.109 225.274 145.924 222.921C174.459 221.182 202.994 219.136 231.611 219.034C247.564 218.931 327.084 237.55 331.771 209.52C335.8 184.15 335.636 158.063 333.58 132.386Z" fill="#F4B43F"/>
<g clip-path="url(#clip1_342_1959)">
<path d="M138.521 260.303C137.285 257.59 133.827 256.041 130.815 257.981C130.494 258.187 130.17 258.389 129.835 258.601C129.813 258.556 129.797 258.508 129.787 258.459C129.772 258.213 129.762 257.966 129.752 257.72C129.695 256.206 129.576 254.701 129.034 253.26C128.945 253.026 128.825 252.83 128.534 252.93C128.243 253.03 128.257 253.246 128.347 253.485C128.726 254.491 128.89 255.537 128.965 256.6C129.01 257.288 129.033 257.971 129.094 258.655C129.153 259.295 129.612 259.52 130.194 259.214C130.359 259.128 130.512 259.022 130.672 258.925C131.025 258.711 131.372 258.475 131.743 258.289C134.666 256.82 137.99 259.026 138.168 261.946C138.262 263.507 137.568 264.76 136.462 265.812C134.58 267.603 132.22 268.62 129.849 269.625C129.408 269.072 128.768 268.922 128.056 268.679C128.44 268.358 128.762 268.093 129.082 267.819C129.727 267.267 130.373 266.718 131.006 266.156C131.194 265.99 131.227 265.772 131.006 265.598C130.803 265.436 130.632 265.534 130.456 265.689C129.846 266.228 129.237 266.771 128.598 267.277C128.125 267.65 127.627 267.986 127.39 268.56L124.477 268.163C124.522 267.507 124.748 266.908 125.041 266.332C125.394 265.631 125.814 264.956 126.126 264.237C126.391 263.621 126.567 262.963 126.754 262.317C126.824 262.078 126.709 261.877 126.438 261.846C126.184 261.817 126.069 261.978 126.039 262.216C125.942 263.006 125.627 263.724 125.244 264.419C124.6 265.599 123.855 266.741 123.744 268.084L119.652 268.231C119.631 268.004 119.631 267.766 119.588 267.537C119.422 266.663 119.245 265.791 119.068 264.919C119.025 264.701 118.892 264.563 118.653 264.599C118.415 264.634 118.32 264.805 118.359 265.023C118.455 265.56 118.573 266.094 118.671 266.632C118.776 267.206 118.869 267.783 118.968 268.368C118.299 268.497 117.718 268.614 117.133 268.717C117.094 268.72 117.054 268.715 117.016 268.702C116.979 268.69 116.944 268.67 116.914 268.644C116.208 268.026 115.679 267.278 115.227 266.474C115.084 266.216 114.962 265.95 114.785 265.723C114.733 265.669 114.668 265.627 114.596 265.602C114.524 265.577 114.447 265.568 114.371 265.577C114.271 265.599 114.174 265.78 114.138 265.906C114.115 265.992 114.196 266.105 114.246 266.198C114.762 267.184 115.336 268.133 116.145 268.895L114.482 269.651C113.175 268.318 111.781 266.943 110.457 265.511C109.806 264.792 109.328 263.94 109.059 263.017C108.319 260.598 109.923 258.167 112.785 258.481C113.627 258.573 114.406 258.874 115.168 259.216C115.424 259.338 115.69 259.44 115.963 259.519C116.076 259.548 116.276 259.5 116.337 259.417C116.408 259.321 116.4 259.143 116.372 259.009C116.328 258.792 116.223 258.586 116.173 258.369C115.731 256.455 116.103 254.637 116.907 252.887C118.353 249.738 121.418 248.517 124.607 249.803C125.622 250.207 126.523 250.841 127.236 251.653C127.479 251.929 127.702 251.997 127.873 251.825C128.116 251.582 127.961 251.378 127.779 251.185C127.771 251.177 127.764 251.169 127.757 251.161C126.823 250.103 125.598 249.327 124.226 248.925C121.954 248.252 119.826 248.513 118.061 250.139C115.98 252.057 115.22 254.518 115.28 257.25C115.29 257.675 115.383 258.097 115.441 258.553C115.109 258.424 114.808 258.3 114.503 258.188C113.363 257.773 112.202 257.586 111.006 257.93C109.353 258.408 108.34 259.834 108.08 261.463C107.76 263.477 108.335 265.219 109.859 266.644C110.081 266.852 110.286 267.078 110.508 267.287C111.261 267.997 112.013 268.707 112.774 269.408C113.24 269.838 113.337 270.354 113.316 270.956C113.265 271.962 113.274 272.969 113.343 273.974C113.46 275.37 114.219 276.368 115.65 276.704C116.783 276.976 117.936 277.163 119.098 277.263C120.855 277.407 122.622 277.467 124.385 277.501C126.019 277.532 127.651 277.431 129.255 277.091C130.245 276.881 130.534 276.562 130.612 275.592C130.738 274.116 130.715 272.631 130.545 271.159C130.515 270.907 130.604 270.815 130.832 270.718C131.847 270.277 132.883 269.869 133.849 269.342C135.809 268.266 137.408 266.813 138.393 264.803C139.122 263.32 139.232 261.854 138.521 260.303ZM127.597 276.041C124.027 276.378 120.429 276.313 116.874 275.849C116.395 275.789 115.927 275.657 115.454 275.554C115.351 275.531 115.252 275.486 115.101 275.432C117.086 274.578 127.221 274.801 129.069 275.786C128.575 275.874 128.09 275.996 127.597 276.044V276.041ZM129.274 274.837C129.274 274.889 129.267 274.941 129.261 275.009C126.92 274.347 124.52 274.251 122.119 274.198C119.719 274.146 117.312 274.167 114.862 274.71C114.862 273.362 114.851 272.044 114.869 270.731C114.874 270.343 115.178 270.105 115.514 269.983C116.159 269.738 116.819 269.533 117.491 269.37C120.422 268.709 123.459 268.632 126.422 269.144C127.018 269.245 127.612 269.357 128.204 269.481C128.394 269.534 128.58 269.6 128.761 269.679C129.15 269.82 129.302 270.081 129.29 270.495C129.271 271.942 129.279 273.391 129.274 274.838V274.837Z" fill="#F4B43F"/>
<path d="M130.682 252.108C131.254 252.207 131.731 252.28 132.202 252.375C132.411 252.418 132.544 252.589 132.459 252.781C132.405 252.904 132.209 253.061 132.091 253.05C131.601 253 131.116 252.914 130.64 252.792C130.531 252.763 130.403 252.534 130.416 252.408C130.429 252.282 130.611 252.181 130.682 252.108Z" fill="#F4B43F"/>
<path d="M130.13 251.296C129.985 251.164 129.831 251.089 129.808 250.985C129.78 250.867 129.825 250.662 129.916 250.601C130.276 250.358 130.653 250.142 131.046 249.954C131.144 249.908 131.357 249.971 131.442 250.055C131.528 250.139 131.539 250.378 131.484 250.418C131.057 250.719 130.606 250.993 130.13 251.296Z" fill="#F4B43F"/>
<path d="M128.81 249.773C128.974 249.359 129.103 248.975 129.285 248.614C129.328 248.528 129.561 248.479 129.679 248.511C129.778 248.538 129.922 248.731 129.899 248.81C129.782 249.207 129.635 249.595 129.457 249.97C129.424 250.042 129.198 250.085 129.088 250.056C128.979 250.027 128.905 249.874 128.81 249.773Z" fill="#F4B43F"/>
</g>
<path d="M161.283 258.866C160.581 258.11 159.897 257.606 159.231 257.354C158.583 257.102 157.926 256.976 157.26 256.976C156.27 256.976 155.37 257.156 154.56 257.516C153.768 257.858 153.084 258.344 152.508 258.974C151.932 259.586 151.482 260.306 151.158 261.134C150.852 261.962 150.699 262.853 150.699 263.807C150.699 264.833 150.852 265.778 151.158 266.642C151.482 267.506 151.932 268.253 152.508 268.883C153.084 269.513 153.768 270.008 154.56 270.368C155.37 270.728 156.27 270.908 157.26 270.908C158.034 270.908 158.781 270.728 159.501 270.368C160.239 269.99 160.923 269.396 161.553 268.586L164.361 270.584C163.497 271.772 162.444 272.636 161.202 273.176C159.96 273.716 158.637 273.986 157.233 273.986C155.757 273.986 154.398 273.752 153.156 273.284C151.932 272.798 150.87 272.123 149.97 271.259C149.088 270.377 148.395 269.324 147.891 268.1C147.387 266.876 147.135 265.517 147.135 264.023C147.135 262.493 147.387 261.107 147.891 259.865C148.395 258.605 149.088 257.534 149.97 256.652C150.87 255.77 151.932 255.095 153.156 254.627C154.398 254.141 155.757 253.898 157.233 253.898C158.529 253.898 159.726 254.132 160.824 254.6C161.94 255.05 162.975 255.824 163.929 256.922L161.283 258.866ZM165.699 267.02C165.699 265.994 165.879 265.067 166.239 264.239C166.617 263.393 167.121 262.673 167.751 262.079C168.381 261.485 169.128 261.026 169.992 260.702C170.856 260.378 171.774 260.216 172.746 260.216C173.718 260.216 174.636 260.378 175.5 260.702C176.364 261.026 177.111 261.485 177.741 262.079C178.371 262.673 178.866 263.393 179.226 264.239C179.604 265.067 179.793 265.994 179.793 267.02C179.793 268.046 179.604 268.982 179.226 269.828C178.866 270.656 178.371 271.367 177.741 271.961C177.111 272.555 176.364 273.014 175.5 273.338C174.636 273.662 173.718 273.824 172.746 273.824C171.774 273.824 170.856 273.662 169.992 273.338C169.128 273.014 168.381 272.555 167.751 271.961C167.121 271.367 166.617 270.656 166.239 269.828C165.879 268.982 165.699 268.046 165.699 267.02ZM168.939 267.02C168.939 267.524 169.02 268.01 169.182 268.478C169.362 268.946 169.614 269.36 169.938 269.72C170.28 270.08 170.685 270.368 171.153 270.584C171.621 270.8 172.152 270.908 172.746 270.908C173.34 270.908 173.871 270.8 174.339 270.584C174.807 270.368 175.203 270.08 175.527 269.72C175.869 269.36 176.121 268.946 176.283 268.478C176.463 268.01 176.553 267.524 176.553 267.02C176.553 266.516 176.463 266.03 176.283 265.562C176.121 265.094 175.869 264.68 175.527 264.32C175.203 263.96 174.807 263.672 174.339 263.456C173.871 263.24 173.34 263.132 172.746 263.132C172.152 263.132 171.621 263.24 171.153 263.456C170.685 263.672 170.28 263.96 169.938 264.32C169.614 264.68 169.362 265.094 169.182 265.562C169.02 266.03 168.939 266.516 168.939 267.02ZM182.179 267.02C182.179 265.994 182.359 265.067 182.719 264.239C183.097 263.393 183.601 262.673 184.231 262.079C184.861 261.485 185.608 261.026 186.472 260.702C187.336 260.378 188.254 260.216 189.226 260.216C190.198 260.216 191.116 260.378 191.98 260.702C192.844 261.026 193.591 261.485 194.221 262.079C194.851 262.673 195.346 263.393 195.706 264.239C196.084 265.067 196.273 265.994 196.273 267.02C196.273 268.046 196.084 268.982 195.706 269.828C195.346 270.656 194.851 271.367 194.221 271.961C193.591 272.555 192.844 273.014 191.98 273.338C191.116 273.662 190.198 273.824 189.226 273.824C188.254 273.824 187.336 273.662 186.472 273.338C185.608 273.014 184.861 272.555 184.231 271.961C183.601 271.367 183.097 270.656 182.719 269.828C182.359 268.982 182.179 268.046 182.179 267.02ZM185.419 267.02C185.419 267.524 185.5 268.01 185.662 268.478C185.842 268.946 186.094 269.36 186.418 269.72C186.76 270.08 187.165 270.368 187.633 270.584C188.101 270.8 188.632 270.908 189.226 270.908C189.82 270.908 190.351 270.8 190.819 270.584C191.287 270.368 191.683 270.08 192.007 269.72C192.349 269.36 192.601 268.946 192.763 268.478C192.943 268.01 193.033 267.524 193.033 267.02C193.033 266.516 192.943 266.03 192.763 265.562C192.601 265.094 192.349 264.68 192.007 264.32C191.683 263.96 191.287 263.672 190.819 263.456C190.351 263.24 189.82 263.132 189.226 263.132C188.632 263.132 188.101 263.24 187.633 263.456C187.165 263.672 186.76 263.96 186.418 264.32C186.094 264.68 185.842 265.094 185.662 265.562C185.5 266.03 185.419 266.516 185.419 267.02ZM199.306 253.088H202.546V265.913L207.541 260.54H211.699L206.137 266.426L212.05 273.5H207.757L202.6 266.885H202.546V273.5H199.306V253.088Z" fill="#F4B43F"/>
<path d="M127.826 168.667C127.826 168.667 125.618 173.47 126.819 179.399C118.169 171.233 115.761 154.058 117.143 116.471L207.498 115.138C210.43 158.934 215.676 175.028 198.037 183.055C197.785 182.126 197.725 177.015 197.065 176.034C196.707 178.87 195.411 182.897 194.885 183.767C182.986 185.923 148.763 188.007 138.694 185.404C135.195 184.499 132.179 183.3 129.601 181.596C129.161 175.443 127.826 168.667 127.826 168.667Z" fill="#AD5C49"/>
<path d="M146.002 183.446C140.397 188.044 130.375 194.116 131.509 201.548C132.241 206.339 138.014 204.163 141.974 206.945C146.375 200.544 151.648 195.033 157.27 189.829C153.393 187.861 149.515 185.928 146.002 183.446Z" fill="#FAC7B3"/>
<path d="M149.86 178.605C148.197 180.313 149.331 194.902 147.566 196.388C142.908 198.682 135.381 192.116 133.23 190.081C136.671 185.49 145.272 178.037 149.86 178.605Z" fill="#E23768"/>
<path d="M194.588 219.899C192.393 221.412 189.661 211.903 188.852 211.298C192.294 205.562 192.039 202.808 180.034 189.426C181.675 185.174 182.573 182.249 185.871 178.115C201.401 190.086 210.071 204.415 194.588 219.899Z" fill="#FBD3C7"/>
<path d="M200.897 188.358C196.514 195.624 187.688 199.889 185.413 198.68C185.413 198.68 172.667 188.499 184.961 176.919C187.95 178.197 200.897 188.358 200.897 188.358Z" fill="#E23768"/>
<path d="M143.779 217.995C153.104 225.038 187.871 219.468 191.354 217.172C191.354 217.172 187.374 185 184.163 175.952C175.08 176.491 159.035 176.318 149.287 178.61C145.96 186.729 146.051 207.948 143.779 217.995Z" fill="#E23768"/>
<path d="M151.008 220.129C159.666 222.5 181.018 220.685 184.185 219.375C184.185 219.375 182.447 201.565 181.624 194.744C173.557 194.989 159.841 195.209 152.301 195.614C151.925 201.236 151.576 214.171 151.008 220.129Z" fill="white"/>
<path d="M158.232 215.298C161.651 218.878 173.228 218.448 176.902 215.093C176.902 215.093 176.684 208.119 175.901 204.183C171.223 204.324 162.84 204.492 158.469 204.727C158.014 208.324 158.345 212.935 158.232 215.298Z" fill="white"/>
<path opacity="0.32" d="M172.276 218.351C167.109 219.38 160.578 218.786 157.903 215.988L157.562 215.632L157.586 215.14C157.626 214.331 157.609 213.249 157.591 212.037C157.564 209.745 157.522 206.895 157.829 204.48L177.525 203.854C178.318 207.839 178.538 214.663 178.551 214.952L178.566 215.479L178.175 215.834C176.897 216.999 174.741 217.859 172.276 218.351ZM159.895 214.707C163.05 217.266 172.617 217.123 176.232 214.462C176.168 212.902 175.95 208.428 175.446 205.248C175.446 205.248 163.114 205.575 160.009 205.718C159.831 207.768 159.863 210.087 159.888 212.003C159.903 213.019 159.913 213.946 159.895 214.707Z" fill="#84C0D3"/>
<path d="M158.142 215.038C161.537 218.643 173.117 218.294 176.813 214.964C176.813 214.964 176.644 207.99 175.888 204.047C171.21 204.156 162.827 204.264 158.451 204.467C157.974 208.064 158.273 212.677 158.142 215.038Z" fill="white"/>
<path d="M156.887 180.276C156.827 179.193 157.233 178.162 157.925 177.223C163.596 177.173 170.242 176.894 176.019 176.36C176.746 177.191 177.216 178.13 177.273 179.164C177.468 182.736 173.062 185.883 167.433 186.19C161.801 186.496 157.079 183.848 156.887 180.276Z" fill="#FFD5C7"/>
<path d="M173.381 168.674L173.952 179.166C174.076 181.423 171.087 183.421 167.28 183.629C163.47 183.836 160.284 182.175 160.16 179.918L159.589 169.426L173.381 168.674Z" fill="#FFD5C7"/>
<g opacity="0.45">
<path opacity="0.32" d="M188.969 156.353C188.969 156.353 184.427 178.078 164.719 178.704C144.97 179.329 138.367 161.663 138.367 161.663L188.969 156.353Z" fill="#3A0808"/>
</g>
<path d="M218.129 146.088C215.995 154.612 207.777 160.027 201.552 159.253C195.33 158.477 194.071 151.512 195.092 143.31C196.113 135.107 201.987 129.065 208.21 129.861C216.712 130.948 220.134 138.078 218.129 146.088Z" fill="#FAC7B3"/>
<path d="M210.67 147.999C210.22 151.596 207.288 154.192 204.116 153.796C200.944 153.401 198.734 150.165 199.182 146.57C199.629 142.973 202.564 140.379 205.735 140.773C208.907 141.166 211.117 144.402 210.67 147.999Z" fill="#E4A68D"/>
<path d="M112.693 147.643C115.076 156.101 123.45 161.27 129.648 160.313C135.846 159.354 136.899 152.355 135.635 144.187C134.372 136.019 128.323 130.152 122.127 131.131C113.662 132.469 110.451 139.695 112.693 147.643Z" fill="#FAC7B3"/>
<path d="M120.661 149.327C121.215 152.909 124.224 155.416 127.383 154.929C130.54 154.439 132.654 151.141 132.1 147.559C131.547 143.977 128.538 141.47 125.378 141.957C122.221 142.444 120.11 145.744 120.661 149.327Z" fill="#E4A68D"/>
<path d="M121.198 119.734C121.591 146.417 140.251 158.145 166.135 157.764C192.019 157.384 210.826 145.102 210.433 118.419C210.039 91.7363 190.964 85.8202 165.08 86.201C139.195 86.5842 120.805 93.0515 121.198 119.734Z" fill="#AD5C49"/>
<path d="M124.38 128.965C124.842 160.234 141.937 174.051 165.589 173.703C189.241 173.354 206.378 159.033 205.916 127.764C205.454 96.4952 188.096 95.9266 164.444 96.2752C140.795 96.6213 123.917 97.6967 124.38 128.965Z" fill="#FBD3C7"/>
<path d="M134.748 155.675C134.81 159.885 138.274 163.248 142.484 163.186C146.691 163.124 150.056 159.66 149.994 155.45C149.933 151.24 146.469 147.878 142.259 147.94C138.049 148.001 134.686 151.465 134.748 155.675Z" fill="#FFC0C0"/>
<path d="M179.861 155.416C179.923 159.626 183.387 162.988 187.597 162.926C191.804 162.865 195.169 159.401 195.107 155.191C195.046 150.981 191.582 147.618 187.372 147.68C183.162 147.742 179.799 151.208 179.861 155.416Z" fill="#FFC0C0"/>
<path d="M155.354 133.806C158.271 137.979 157.945 142.61 155.433 144.39C151.646 147.072 142.652 147.91 139.267 144.11C135.989 140.432 137.515 133.658 142.795 130.701C147.418 128.115 152.531 129.769 155.354 133.806Z" fill="#F9FEFF"/>
<path d="M138.583 132.785C142.667 126.238 152.612 128.355 155.453 133.949C152.538 129.779 147.201 128.548 142.926 130.936C140.283 132.414 138.417 135.022 137.932 137.91C137.547 140.211 138.093 142.785 139.455 144.313C137.893 143.322 135.579 137.598 138.583 132.785Z" fill="#602220"/>
<path d="M154.313 136.617C155.517 139.517 154.143 142.842 151.245 144.046C148.345 145.25 145.02 143.875 143.819 140.978C142.615 138.078 143.989 134.753 146.887 133.549C149.784 132.343 153.109 133.717 154.313 136.617Z" fill="#461D14"/>
<path d="M153.846 136.12C154.18 136.923 153.799 137.848 152.993 138.182C152.189 138.516 151.267 138.135 150.934 137.329C150.6 136.525 150.981 135.603 151.784 135.267C152.59 134.933 153.512 135.316 153.846 136.12Z" fill="#FEFFFE"/>
<path d="M175.745 133.507C172.951 137.764 173.413 142.385 175.98 144.088C179.844 146.659 188.86 147.23 192.131 143.334C195.3 139.559 193.574 132.835 188.207 130.034C183.507 127.584 178.447 129.386 175.745 133.507Z" fill="#F9FEFF"/>
<path d="M192.479 131.989C188.205 125.564 178.326 127.974 175.651 133.65C178.44 129.395 183.74 128.006 188.084 130.271C190.769 131.672 192.712 134.221 193.28 137.094C193.735 139.383 193.263 141.972 191.948 143.539C193.478 142.501 195.621 136.713 192.479 131.989Z" fill="#602220"/>
<path d="M187.426 136.127C188.63 139.027 187.256 142.352 184.356 143.556C181.458 144.76 178.131 143.386 176.929 140.486C175.725 137.588 177.1 134.261 179.997 133.059C182.897 131.855 186.222 133.23 187.426 136.127Z" fill="#461D14"/>
<path d="M186.959 135.631C187.292 136.434 186.912 137.359 186.108 137.692C185.305 138.026 184.383 137.645 184.046 136.842C183.713 136.038 184.093 135.114 184.897 134.78C185.703 134.446 186.625 134.827 186.959 135.631Z" fill="#FEFFFE"/>
<path d="M162.553 147.665C162.746 147.663 162.914 147.522 162.944 147.324C163.154 145.927 164.242 145.01 165.715 144.988C167.196 144.966 168.338 145.868 168.553 147.233C168.588 147.45 168.796 147.601 169.013 147.566C169.233 147.532 169.381 147.327 169.347 147.107C169.07 145.359 167.572 144.16 165.705 144.187C163.849 144.214 162.42 145.425 162.15 147.203C162.118 147.423 162.269 147.626 162.486 147.66L162.553 147.665Z" fill="#C68C75"/>
<path d="M195.048 96.2505C194.67 97.1281 194.68 111.556 194.556 117.779C194.469 122.246 203.542 140.167 222 126.33C196.267 127.156 221.206 100.804 195.048 96.2505Z" fill="#AD5C49"/>
<path d="M124.83 99.5039C118.424 94.5941 119.648 87.5902 124.241 81.3899C131.173 101.395 174.524 75.4417 193.384 90.1663C192.853 90.2429 198.136 95.3876 194.823 99.2196C192.353 106.708 179.535 118.463 155.5 122.154C159.592 119.712 163.399 115.724 166.741 112.5C165.367 113.089 163.955 113.662 162.499 114.204C149.626 119 132.758 117.61 125.638 116.374C123.181 128.592 125.514 143.893 126.859 148.434C112.528 129.225 116.135 101.843 124.83 99.5039Z" fill="#AD5C49"/>
<path d="M138.189 118.97C138.459 118.966 138.728 118.867 138.941 118.669C141.663 116.16 146.894 115.401 151.124 116.904C151.712 117.111 152.362 116.805 152.575 116.214C152.785 115.623 152.476 114.975 151.885 114.763C146.844 112.965 140.753 113.91 137.403 117C136.941 117.425 136.911 118.142 137.339 118.605C137.566 118.854 137.878 118.975 138.189 118.97Z" fill="#843E30"/>
<path d="M192.465 118.169C192.776 118.164 193.083 118.033 193.305 117.779C193.718 117.306 193.666 116.587 193.194 116.176C189.75 113.185 183.629 112.429 178.65 114.367C178.064 114.597 177.775 115.254 178.002 115.838C178.232 116.424 178.897 116.71 179.473 116.486C183.649 114.859 188.905 115.467 191.703 117.892C191.923 118.083 192.195 118.174 192.465 118.169Z" fill="#843E30"/>
<path d="M153.206 155.134C154.148 159.436 158.835 163.327 164.966 163.26C171.095 163.196 176.457 159.122 176.813 154.882C177.34 148.615 171.008 153.381 164.877 153.154C158.751 152.926 151.784 148.64 153.206 155.134Z" fill="#660E04"/>
<path d="M164.269 159.092C167.581 159.057 170.462 159.893 172.145 161.309C170.197 162.508 167.717 163.334 164.966 163.361C161.868 163.394 159.305 162.464 157.253 161.033C158.961 159.841 161.327 159.122 164.269 159.092Z" fill="#EF7D70"/>
<path d="M156.885 151.537C158.855 151.087 161.817 152.446 164.87 152.56C168.314 152.689 171.209 151.215 173.35 151.752C172.487 153.537 169.186 154.894 165.221 154.936C160.971 154.983 157.453 153.499 156.885 151.537Z" fill="white"/>
<path d="M194.84 44.6133C196.845 37.4933 191.864 27.5426 181.218 25.2509C167.414 22.2793 151.22 29.3671 153.112 42.4748C149.794 38.2078 136.048 36.8134 131.453 42.2474C123.761 51.3353 130.498 63.1401 136.874 61.8842C135.905 69.024 135.146 87.0638 135.163 91.1034C149.431 87.2863 183.866 85.8252 202.012 96.6387C202.657 91.2122 205.246 71.9412 205.308 71.9313C212.512 70.579 219.743 65.9931 216.611 55.1994C212.143 39.79 196.793 42.9594 194.84 44.6133Z" fill="white"/>
<path d="M201.866 96.557C183.7 85.7336 149.235 87.6372 135.591 91.1502C135.418 91.1947 134.592 91.6571 134.594 91.4791C134.575 87.5828 135.272 70.2526 136.219 62.5417C133.65 62.6653 130.362 60.9471 128.629 58.0027C126.382 54.1732 126.122 47.6639 131.022 41.8739C133.123 39.3894 137.193 38.0272 142.179 38.1285C146.34 38.215 150.194 39.3251 152.402 41.0012C152.231 36.8924 153.806 33.1791 157.008 30.1927C162.597 24.9738 172.372 22.7562 181.342 24.692C186.553 25.8144 190.865 28.8255 193.48 33.1692C195.473 36.4795 196.249 40.1854 195.673 43.5278C197.915 42.6502 202.229 42.0618 206.445 43.3325C210.108 44.4376 214.944 47.3672 217.172 55.0459C218.435 59.3946 218.153 63.098 216.331 66.0547C214.413 69.1747 210.645 71.4244 205.814 72.4207C205.409 75.0957 203.179 91.7732 202.588 96.7127C202.561 96.9031 202.002 96.6361 201.866 96.557ZM135.744 90.7423C149.813 87.3455 183.238 85.3974 201.55 95.7115C201.95 92.4877 202.726 86.5717 203.317 82.1835C204.746 71.459 204.704 71.4714 205.196 71.3725C209.926 70.48 213.552 68.3811 215.35 65.4515C216.994 62.7815 217.231 59.3872 216.067 55.3624C214.395 49.5972 211.045 45.9185 206.111 44.4302C201.233 42.9592 196.19 44.2201 195.211 45.0532C195.016 45.2188 194.741 45.2362 194.529 45.0977C194.318 44.9617 194.219 44.7021 194.286 44.4599C195.216 41.1669 194.546 37.1643 192.494 33.7576C190.044 29.6883 185.997 26.8651 181.097 25.8119C172.476 23.9602 163.114 26.0542 157.786 31.0308C154.471 34.1235 153.052 38.0519 153.68 42.3931C153.717 42.6502 153.579 42.9024 153.336 43.0037C153.106 43.0977 152.817 43.0334 152.656 42.8282C151.109 40.8307 146.785 39.3696 142.145 39.2756C137.571 39.1817 133.737 40.4227 131.887 42.6156C127.373 47.9457 127.712 54.1312 129.769 57.6368C131.423 60.4527 134.451 61.7753 136.763 61.3204C136.943 61.2858 137.131 61.3377 137.264 61.4663C137.398 61.5924 137.465 61.7778 137.437 61.9607C136.533 68.6802 135.801 85.6669 135.744 90.7423Z" fill="#92C9D6"/>
<path opacity="0.26" d="M202.017 96.6413C202.447 94.3001 205.189 73.6571 205.416 71.3282C200.571 72.8536 195.968 70.8807 194.076 69.0414C176.358 76.7004 164.724 72.2776 157.705 67.4814C162.573 75.9315 181.265 77.9637 193.028 74.8783C190.524 79.0564 188.944 86.0182 190.603 91.9218C195.518 93.0368 201.149 96.1394 202.017 96.6413Z" fill="#84C0D3"/>
<path d="M155.697 196.796L152.256 196.904C152.209 195.404 151.148 178.318 151.151 176.605H154.597C154.592 178.209 154.919 183.48 155.208 188.128C155.435 191.809 155.65 195.278 155.697 196.796Z" fill="white"/>
<path d="M181.789 195.696L178.348 195.804C178.281 193.654 178.501 187.785 178.697 182.61C178.818 179.275 178.931 176.331 178.929 175.171H182.373C182.37 176.351 182.257 179.347 182.133 182.739C181.953 187.607 181.723 193.666 181.789 195.696Z" fill="white"/>
<path d="M183.352 207.866C186.879 218.697 183.975 229.355 165.359 235.417C145.277 241.956 138.12 234.574 134.592 223.743C131.064 212.91 143.608 210.932 157.072 206.546C170.538 202.163 179.824 197.036 183.352 207.866Z" fill="#3A9BA0"/>
<path d="M184.585 203.678C186.514 209.604 176.113 218.304 161.349 223.11C146.587 227.916 133.057 227.011 131.126 221.085C129.198 215.162 139.601 206.46 154.362 201.654C169.124 196.848 182.657 197.752 184.585 203.678Z" fill="#46C6CC"/>
<path d="M182.123 203.11C183.658 207.827 173.937 215.221 160.409 219.627C146.881 224.032 134.668 223.78 133.133 219.063C131.598 214.346 141.319 206.952 154.847 202.549C168.375 198.141 180.588 198.393 182.123 203.11Z" fill="#BDEFEE"/>
<path d="M157.628 211.085C148.765 213.97 142.048 218.806 141.69 222.742C146.696 222.944 153.373 221.916 160.409 219.624C167.322 217.372 173.238 214.341 177.168 211.285C174.632 208.245 166.565 208.175 157.628 211.085Z" fill="#BA706E"/>
<path d="M155.554 220.002C153.089 220.806 150.691 221.325 148.802 221.469C146.693 221.629 145.492 221.305 145.232 220.507C144.995 219.777 145.63 218.902 147.124 217.904C147.297 217.787 147.529 217.834 147.643 218.007C147.759 218.18 147.712 218.413 147.539 218.527C146.135 219.466 145.875 220.069 145.942 220.277C146.019 220.514 146.696 220.878 148.743 220.722C150.572 220.583 152.909 220.074 155.319 219.29C155.517 219.226 155.727 219.332 155.791 219.53C155.858 219.728 155.749 219.938 155.554 220.002Z" fill="#E2B8B7"/>
<path d="M164.708 216.23C164.558 216.279 164.387 216.228 164.288 216.094C164.167 215.926 164.204 215.691 164.372 215.57C165.433 214.804 165.724 214.267 165.65 214.042C165.574 213.81 165.005 213.545 163.648 213.56C163.44 213.562 163.272 213.397 163.27 213.189C163.267 212.982 163.435 212.813 163.64 212.811C165.225 212.794 166.142 213.13 166.362 213.81C166.58 214.48 166.058 215.276 164.812 216.178C164.78 216.2 164.745 216.22 164.708 216.23Z" fill="#E2B8B7"/>
<path d="M169.04 214.764C168.889 214.814 168.716 214.762 168.62 214.626C168.498 214.458 168.538 214.223 168.706 214.104C170.209 213.031 170.612 212.242 170.489 211.864C170.348 211.432 169.403 211.009 167.176 211.12C166.968 211.13 166.793 210.972 166.783 210.764C166.773 210.559 166.929 210.381 167.139 210.371C169.49 210.255 170.894 210.69 171.201 211.632C171.482 212.5 170.79 213.538 169.141 214.715C169.109 214.737 169.077 214.752 169.04 214.764Z" fill="#E2B8B7"/>
<path d="M148.422 206.051C148.795 205.957 151.376 202.692 148.36 200.509C144.402 197.646 142.98 197.532 138.966 198.679C138.57 198.793 139.072 200.711 139.453 201.166C139.833 201.621 146.041 206.857 145.604 206.012C145.171 205.179 144.672 202.981 146.39 202.897C148.439 202.798 147.46 206.294 148.422 206.051Z" fill="#FFD5C7"/>
<path opacity="0.19" d="M147.28 203.624C146.921 204.393 145.72 204.588 144.595 204.064C143.472 203.54 142.852 202.492 143.21 201.723C143.569 200.954 144.77 200.759 145.895 201.283C147.017 201.809 147.638 202.858 147.28 203.624Z" fill="#592219"/>
<path d="M157.826 208.247C155.619 205.167 152.064 203.809 149.258 204.746C147.567 202.066 134.12 180.64 133.552 179.755C132.434 178.014 131.697 176.862 130.296 176.889C129.131 176.912 128.496 178.076 128.877 179.49C128.973 179.849 129.126 180.187 129.319 180.494C129.396 180.617 129.48 180.734 129.569 180.845C130.367 182.022 144.555 204.67 146.229 207.32C144.973 209.681 145.29 213.036 147.275 215.805C148.138 217.009 149.206 217.943 150.355 218.588L159.099 216.245C160.076 213.926 159.68 210.833 157.826 208.247Z" fill="#3DBFBF"/>
<path d="M143.351 201.382C144.276 202.875 146.961 204.215 149.982 203.362C150.728 203.152 150.432 205.206 148.533 206.46C146.417 207.857 141.257 209.577 139.537 209.004C138.491 208.655 135.522 206.71 132.656 203.842C131.428 198.929 136.926 197.716 139.005 198.761C140.525 199.525 142.743 200.398 143.351 201.382Z" fill="#FFD5C7"/>
<path d="M185.987 226.205C196.66 220.302 199.903 212.255 199.903 212.255C202.249 205.137 194.086 199.656 192.066 204.578C190.845 208.959 186.004 215.931 181.69 220.796C180.946 221.637 184.991 226.757 185.987 226.205Z" fill="#FBD3C7"/>
<path d="M167.453 233.597C167.838 233.852 168.585 234.448 171.309 232.586C171.759 232.279 169.529 234.403 170.192 234.465C172.046 234.633 174.914 234.223 178.59 232.475C185.866 229.014 188.689 223.033 187.772 220.793C187.127 219.216 174.768 215.08 169.735 219.332C169.228 219.76 174.395 220.566 174.133 221.288C173.774 222.274 171.752 222.611 169.999 224.2C166.11 227.728 163.871 230.719 165.675 231.09C166.298 231.219 173.688 226.648 173.925 226.865C174.16 227.08 167.164 233.404 167.453 233.597Z" fill="#FBD3C7"/>
<defs>
<clipPath id="clip0_342_1959">
<rect width="329.668" height="108" fill="white" transform="translate(5.33154 202)"/>
</clipPath>
<clipPath id="clip1_342_1959">
<rect width="31" height="29" fill="white" transform="translate(108 248.5)"/>
</clipPath>
</defs>
</svg>
