<svg width="335" height="310" viewBox="0 0 335 310" fill="none" xmlns="http://www.w3.org/2000/svg">
<g clip-path="url(#clip0_342_1960)">
<path d="M8.50916 32.5025C4.54385 66.104 4.70569 100.654 6.72879 134.662L307.364 17.0567C293.486 16.9099 279.492 16.1627 265.478 15.4144C240.674 14.0901 215.805 12.7622 191.399 14.7534C187.578 15.0668 183.758 15.3877 179.937 15.7086C155.676 17.7464 131.406 19.7849 107.075 19.902M8.50916 32.5025L9.00534 32.5642C9.00534 32.5638 9.00546 32.5635 9.00546 32.5632C9.57034 28.0182 11.2573 24.4412 13.7952 21.6439C16.3374 18.8417 19.7557 16.7981 23.8151 15.3624C31.9467 12.4864 42.568 12.078 53.6007 12.8304C64.6226 13.582 75.9969 15.4872 85.6122 17.1997C86.8327 17.4171 88.0253 17.6314 89.1853 17.8399C92.5902 18.4519 95.7148 19.0135 98.4422 19.4533C102.089 20.0414 105.068 20.4191 107.078 20.402C107.078 20.402 107.079 20.402 107.08 20.402L107.075 19.902M8.50916 32.5025C12.1153 3.47971 60.7292 12.2173 89.276 17.3482C97.2445 18.7804 103.649 19.9316 107.075 19.902M8.50916 32.5025L107.075 19.902M7.22794 134.633L7.22791 134.632L24.8559 278.416C14.6201 254.735 12.6113 221.261 10.773 190.628C10.2133 181.3 9.66934 172.236 8.91376 163.792L9.41199 163.75C9.41193 163.749 9.41183 163.748 9.41177 163.747C8.60257 154.128 7.79391 144.38 7.22794 134.633Z" fill="#DFF5FF" stroke="#31A1D5"/>
</g>
<path d="M333.58 132.386C333.005 125.021 332.182 117.655 331.36 110.392C328.071 83.078 328.728 47.171 315.16 23.8467C309.239 13.6168 299.536 11.7754 290.325 9.52482C248.304 -1.01201 203.898 0.113298 161.219 0.0109985C135.644 -0.0913008 110.152 0.522476 84.6597 1.75007C62.4567 2.87536 37.54 1.03399 16.0771 8.60413C-5.63255 16.2766 0.617198 47.7847 1.52177 68.8584C3.00197 104.765 4.89332 140.672 7.11363 176.58C8.01819 191.208 12.0476 221.08 28.0831 221.182C67.144 221.489 107.109 225.274 145.924 222.921C174.459 221.182 202.994 219.136 231.611 219.034C247.564 218.931 327.084 237.55 331.771 209.52C335.8 184.15 335.636 158.063 333.58 132.386Z" fill="#31A1D5"/>
<path d="M142.736 167.547C142.736 167.547 140.011 172.245 140.669 178.424C132.613 169.233 131.813 151.438 136.869 113.133L229.403 120.523C228.158 165.596 231.965 182.563 213.147 189.065C212.979 188.092 213.413 182.858 212.832 181.791C212.192 184.656 210.475 188.651 209.853 189.489C197.475 190.54 162.273 189.359 152.229 185.72C148.739 184.455 145.771 182.937 143.3 180.946C143.444 174.604 142.736 167.547 142.736 167.547Z" fill="#AD5C49"/>
<path d="M162.141 186.35C156.384 191.073 153.11 195.066 134.871 199.279C130.04 200.394 140.239 208.165 140.173 208.114C152.544 209.293 167.941 198.25 173.716 192.904C169.732 190.883 165.75 188.897 162.141 186.35Z" fill="#FBD3C7"/>
<path d="M166.103 181.375C164.394 183.13 165.56 198.116 163.746 199.642C158.962 201.999 151.229 195.254 149.019 193.161C152.554 188.45 161.39 180.791 166.103 181.375Z" fill="#E23768"/>
<path d="M245.616 169.824C246.724 172.227 247.945 175.691 249.309 177.977C232.982 185.154 217.325 191.99 199.477 194.545C199.469 189.565 199.037 184.79 198.789 179.825C214.984 179.17 230.026 174.345 245.616 169.824Z" fill="#FFD5C7"/>
<path d="M214.506 176.506C210.968 177.126 201.531 178.627 195.393 178.835C196.878 180.793 200.414 193.687 202.029 195.429C204.629 195.541 206.478 197.407 209.841 196.968C209.51 191.477 220.799 187.729 214.506 176.506Z" fill="#E23768"/>
<path d="M159.858 221.838C169.438 229.073 205.152 223.352 208.731 220.992C208.731 220.992 204.642 187.944 201.343 178.649C192.013 179.203 175.53 179.023 165.517 181.379C162.096 189.722 162.19 211.517 159.858 221.838Z" fill="#E23768"/>
<path d="M167.282 224.033C176.175 226.468 198.11 224.604 201.363 223.258C201.363 223.258 199.575 204.963 198.732 197.956C190.448 198.207 176.356 198.434 168.61 198.85C168.226 204.625 167.866 217.91 167.282 224.033Z" fill="white"/>
<path d="M174.702 219.067C178.214 222.745 190.107 222.303 193.879 218.857C193.879 218.857 193.655 211.695 192.85 207.649C188.045 207.794 179.436 207.967 174.943 208.208C174.479 211.906 174.821 216.642 174.702 219.067Z" fill="white"/>
<path opacity="0.32" d="M189.132 222.204C183.824 223.26 177.115 222.651 174.364 219.776L174.014 219.41L174.039 218.905C174.08 218.074 174.062 216.962 174.044 215.718C174.016 213.363 173.973 210.435 174.288 207.954L194.521 207.311C195.336 211.405 195.562 218.415 195.572 218.712L195.588 219.253L195.186 219.618C193.876 220.817 191.664 221.698 189.132 222.204ZM176.411 218.463C179.652 221.091 189.48 220.944 193.193 218.211C193.127 216.609 192.903 212.012 192.385 208.746C192.385 208.746 179.718 209.082 176.528 209.229C176.345 211.334 176.378 213.716 176.403 215.685C176.419 216.728 176.429 217.678 176.411 218.463Z" fill="#84C0D3"/>
<path d="M174.61 218.801C178.097 222.504 189.993 222.146 193.79 218.725C193.79 218.725 193.617 211.561 192.84 207.51C188.035 207.622 179.423 207.734 174.928 207.942C174.438 211.637 174.745 216.379 174.61 218.801Z" fill="white"/>
<path d="M173.321 183.094C173.26 181.982 173.677 180.923 174.388 179.958C180.214 179.907 187.04 179.62 192.975 179.071C193.722 179.925 194.204 180.89 194.263 181.951C194.463 185.621 189.938 188.854 184.155 189.169C178.37 189.484 173.522 186.764 173.321 183.094Z" fill="#FFD5C7"/>
<path d="M190.265 171.173L190.855 181.951C190.982 184.27 187.911 186.322 184 186.535C180.087 186.748 176.813 185.042 176.686 182.723L176.097 171.945L190.265 171.173Z" fill="#FFD5C7"/>
<g opacity="0.45">
<path opacity="0.32" d="M206.28 158.518C206.28 158.518 201.615 180.836 181.369 181.479C161.082 182.121 154.299 163.973 154.299 163.973L206.28 158.518Z" fill="#3A0808"/>
</g>
<path d="M237.276 153.202C234.269 161.713 225.34 166.454 219.049 165.06C212.761 163.666 212.149 156.418 213.988 148.128C215.827 139.839 222.419 134.229 228.705 135.644C237.294 137.581 240.103 145.205 237.276 153.202Z" fill="#FAC7B3"/>
<path d="M229.462 154.434C228.654 158.071 225.403 160.44 222.198 159.729C218.993 159.018 217.045 155.496 217.853 151.861C218.661 148.227 221.911 145.858 225.116 146.566C228.321 147.275 230.267 150.8 229.462 154.434Z" fill="#E4A68D"/>
<path d="M129.297 144.58C130.914 153.459 138.978 159.559 145.408 159.18C151.841 158.8 153.593 151.744 153.095 143.267C152.595 134.79 146.975 128.205 140.547 128.606C131.758 129.155 127.775 136.235 129.297 144.58Z" fill="#FAC7B3"/>
<path d="M137.283 147.072C137.502 150.79 140.336 153.644 143.615 153.451C146.893 153.258 149.372 150.089 149.154 146.371C148.935 142.653 146.101 139.798 142.822 139.991C139.544 140.187 137.065 143.356 137.283 147.072Z" fill="#E4A68D"/>
<path d="M140.697 116.86C138.516 144.187 156.463 157.989 182.972 160.105C209.48 162.223 229.904 151.483 232.085 124.157C234.267 96.8304 215.334 88.9322 188.826 86.8167C162.317 84.7012 142.881 89.5341 140.697 116.86Z" fill="#AD5C49"/>
<path d="M143.056 126.61C140.499 158.632 156.646 174.419 180.866 176.354C205.087 178.289 224.002 165.301 226.559 133.279C229.116 101.257 211.42 98.9947 187.198 97.0595C162.98 95.1243 145.614 94.5859 143.056 126.61Z" fill="#FBD3C7"/>
<path d="M151.074 154.93C150.729 159.242 153.946 163.016 158.256 163.359C162.566 163.702 166.342 160.486 166.685 156.177C167.03 151.864 163.813 148.091 159.503 147.748C155.193 147.402 151.419 150.62 151.074 154.93Z" fill="#FFC0C0"/>
<path d="M197.236 159.036C196.891 163.348 200.109 167.122 204.421 167.465C208.731 167.808 212.507 164.593 212.85 160.283C213.193 155.971 209.977 152.197 205.668 151.851C201.353 151.509 197.579 154.724 197.236 159.036Z" fill="#FFC0C0"/>
<path d="M174.265 134.562C176.843 139.113 176.063 143.816 173.321 145.393C169.189 147.771 159.909 147.755 156.816 143.542C153.819 139.461 156.036 132.68 161.725 130.171C166.702 127.972 171.769 130.158 174.265 134.562Z" fill="#F9FEFF"/>
<path d="M157.212 131.89C162.022 125.589 171.99 128.718 174.351 134.714C171.776 130.166 166.435 128.39 161.834 130.42C158.989 131.677 156.828 134.161 156.051 137.068C155.434 139.384 155.744 142.069 156.988 143.765C155.485 142.6 153.674 136.525 157.212 131.89Z" fill="#602220"/>
<path d="M172.93 137.335C173.88 140.416 172.153 143.684 169.072 144.634C165.991 145.584 162.723 143.857 161.773 140.776C160.823 137.696 162.55 134.427 165.631 133.477C168.711 132.525 171.977 134.252 172.93 137.335Z" fill="#461D14"/>
<path d="M172.498 136.782C172.762 137.638 172.282 138.544 171.429 138.806C170.573 139.07 169.666 138.59 169.405 137.737C169.141 136.881 169.621 135.974 170.474 135.713C171.33 135.449 172.236 135.926 172.498 136.782Z" fill="#FEFFFE"/>
<path d="M195.146 136.228C191.878 140.311 191.903 145.081 194.361 147.072C198.064 150.074 207.23 151.532 210.953 147.864C214.559 144.311 213.447 137.264 208.23 133.884C203.661 130.925 198.31 132.276 195.146 136.228Z" fill="#F9FEFF"/>
<path d="M212.408 136.299C208.66 129.315 198.321 130.821 195.037 136.367C198.303 132.286 203.855 131.38 208.078 134.115C210.689 135.809 212.429 138.605 212.733 141.597C212.977 143.981 212.243 146.584 210.745 148.06C212.413 147.146 215.166 141.434 212.408 136.299Z" fill="#602220"/>
<path d="M206.841 140.042C207.791 143.123 206.064 146.391 202.983 147.341C199.903 148.291 196.634 146.564 195.685 143.484C194.735 140.403 196.462 137.134 199.542 136.185C202.623 135.235 205.891 136.962 206.841 140.042Z" fill="#461D14"/>
<path d="M206.41 139.489C206.674 140.345 206.194 141.251 205.341 141.513C204.485 141.777 203.578 141.297 203.317 140.444C203.052 139.588 203.532 138.681 204.386 138.42C205.242 138.155 206.148 138.635 206.41 139.489Z" fill="#FEFFFE"/>
<path d="M180.287 149.431C180.485 149.446 180.668 149.319 180.719 149.121C181.069 147.714 182.27 146.881 183.779 147.001C185.298 147.123 186.377 148.154 186.466 149.571C186.481 149.797 186.677 149.969 186.903 149.957C187.131 149.942 187.301 149.746 187.289 149.52C187.174 147.707 185.76 146.333 183.848 146.18C181.945 146.028 180.368 147.13 179.921 148.921C179.865 149.142 180 149.365 180.221 149.421L180.287 149.431Z" fill="#C68C75"/>
<path d="M218.499 99.9976C218.029 100.858 216.64 115.616 215.911 121.968C215.388 126.526 222.93 145.733 243.148 133.371C216.751 131.722 244.809 107.19 218.499 99.9976Z" fill="#AD5C49"/>
<path d="M146.373 96.526C140.295 90.8829 142.228 83.8406 147.526 77.9436C152.676 99.0757 199.524 76.7297 217.388 93.6156C216.837 93.6435 221.741 99.416 217.982 103.015C214.731 110.435 200.484 121.214 175.545 122.661C179.967 120.561 184.246 116.85 187.977 113.877C186.514 114.346 185.013 114.793 183.471 115.207C169.844 118.864 152.727 115.812 145.565 113.856C141.867 126.112 142.774 141.988 143.706 146.76C130.912 125.729 137.253 98.0726 146.373 96.526Z" fill="#AD5C49"/>
<path d="M158.147 117.727C158.423 117.75 158.708 117.674 158.947 117.493C161.974 115.19 167.396 114.923 171.576 116.866C172.158 117.135 172.851 116.886 173.128 116.3C173.4 115.715 173.148 115.022 172.561 114.748C167.581 112.422 161.258 112.797 157.532 115.634C157.019 116.025 156.917 116.754 157.311 117.267C157.522 117.547 157.829 117.702 158.147 117.727Z" fill="#843E30"/>
<path d="M213.731 122.166C214.049 122.191 214.379 122.087 214.628 121.848C215.095 121.404 215.113 120.665 214.668 120.2C211.438 116.807 205.251 115.441 199.972 116.942C199.352 117.12 198.991 117.765 199.169 118.382C199.349 119.004 199.999 119.36 200.611 119.187C205.041 117.927 210.356 119.057 212.982 121.81C213.185 122.024 213.457 122.143 213.731 122.166Z" fill="#843E30"/>
<path d="M182.878 159.666C182.372 161.791 180.79 161.989 179.05 161.576C177.311 161.162 176.074 160.293 176.579 158.167C177.085 156.042 178.903 154.655 180.643 155.069C182.382 155.483 183.383 157.54 182.878 159.666Z" fill="#EF7D70"/>
<path d="M183.578 162.825C183.54 162.822 183.499 162.82 183.461 162.815C179.444 162.541 176.068 161.139 174.435 159.061C174.217 158.779 174.263 158.376 174.542 158.155C174.819 157.931 175.223 157.982 175.449 158.261C176.84 160.029 179.944 161.281 183.548 161.527C183.586 161.532 183.621 161.535 183.654 161.537C187.243 161.763 190.471 160.933 192.093 159.363C192.355 159.12 192.761 159.127 193.005 159.381C193.251 159.635 193.244 160.044 192.987 160.293C191.085 162.132 187.573 163.076 183.578 162.825Z" fill="#934341"/>
<path d="M223.288 47.1713C226.028 40.0832 221.898 29.4245 211.235 26.0493C197.404 21.671 180.157 27.3547 180.823 40.9416C177.844 36.256 163.922 33.498 158.695 38.6102C149.949 47.1611 155.696 59.8846 162.337 59.2192C160.653 66.4266 158.131 84.8033 157.758 88.9352C172.716 86.4134 208.075 88.2546 225.588 101.072C226.774 95.5865 231.287 76.128 231.353 76.1229C238.853 75.4372 246.693 71.45 244.534 60.1081C241.451 43.913 225.444 45.6704 223.288 47.1713Z" fill="white"/>
<path d="M225.441 100.973C207.913 88.1429 172.48 86.7512 158.187 89.0241C158.004 89.0546 157.118 89.4457 157.136 89.2654C157.491 85.2808 159.884 67.6228 161.598 59.8287C158.959 59.7068 155.762 57.6294 154.274 54.4524C152.346 50.3179 152.712 43.6362 158.284 38.1887C160.673 35.8497 164.968 34.8542 170.055 35.4383C174.304 35.931 178.133 37.4395 180.234 39.3645C180.457 35.1462 182.428 31.5019 185.991 28.7566C192.213 23.9592 202.425 22.6412 211.41 25.4881C216.631 27.1414 220.748 30.6384 223.003 35.3342C224.72 38.9125 225.154 42.7778 224.242 46.1402C226.62 45.4621 231.089 45.2767 235.277 46.9834C238.919 48.469 243.579 51.9331 245.113 60.0014C245.982 64.5702 245.337 68.3313 243.188 71.1783C240.923 74.1852 236.854 76.1178 231.816 76.6689C231.14 79.366 227.244 96.2062 226.162 101.199C226.117 101.395 225.571 101.067 225.441 100.973ZM158.383 88.6203C173.1 86.5074 207.471 87.7543 225.2 100.077C225.921 96.8182 227.29 90.8425 228.316 86.4109C230.818 75.582 230.772 75.5921 231.285 75.5388C236.209 75.0842 240.12 73.2887 242.243 70.4672C244.181 67.8971 244.755 64.4483 243.952 60.2173C242.802 54.1578 239.732 50.0715 234.83 48.0729C229.985 46.097 224.705 46.897 223.623 47.6538C223.407 47.8036 223.125 47.796 222.922 47.6335C222.719 47.4735 222.645 47.1992 222.736 46.9605C224.006 43.6819 223.709 39.5245 221.939 35.8421C219.829 31.4435 215.963 28.1648 211.054 26.6131C202.42 23.883 192.64 25.1173 186.71 29.6911C183.019 32.533 181.188 36.4135 181.409 40.9137C181.422 41.1803 181.257 41.4241 181 41.5054C180.757 41.5791 180.467 41.4851 180.322 41.2616C178.933 39.0699 174.651 37.1576 169.918 36.6116C165.25 36.0732 161.209 36.9722 159.106 39.0344C153.974 44.0476 153.722 50.4042 155.485 54.1908C156.905 57.2307 159.871 58.8764 162.278 58.6351C162.466 58.6173 162.654 58.6884 162.779 58.8332C162.903 58.9754 162.954 59.171 162.908 59.3564C161.326 66.1346 158.934 83.437 158.383 88.6203Z" fill="#92C9D6"/>
<path opacity="0.26" d="M225.586 101.075C226.254 98.723 231.056 77.8778 231.513 75.5185C226.411 76.608 221.893 74.1471 220.136 72.0824C201.274 78.1978 189.805 72.5497 183.09 66.9651C187.25 76.0798 206.168 79.9679 218.498 77.9515C215.531 81.9818 213.241 88.948 214.366 95.1472C219.29 96.7598 224.75 100.475 225.586 101.075Z" fill="#84C0D3"/>
<path d="M172.1 200.061L168.564 200.173C168.516 198.631 167.427 181.08 167.429 179.32H170.967C170.962 180.968 171.297 186.383 171.594 191.157C171.833 194.941 172.054 198.502 172.1 200.061Z" fill="white"/>
<path d="M198.903 198.933L195.368 199.045C195.299 196.836 195.525 190.807 195.726 185.491C195.85 182.065 195.967 179.041 195.964 177.85H199.505C199.502 179.061 199.385 182.139 199.258 185.623C199.07 190.621 198.834 196.846 198.903 198.933Z" fill="white"/>
<path d="M123.923 203.182C134.843 209.323 143.707 208.114 143.707 208.114C151.193 206.324 151.498 195.929 146.109 196.821C141.619 198.118 132.916 197.651 126.336 196.506C125.195 196.31 122.902 202.608 123.923 203.182Z" fill="#FBD3C7"/>
<path d="M107.459 190.972C107.443 191.447 107.324 192.419 110.425 193.796C110.938 194.022 107.875 193.219 108.182 193.834C109.036 195.543 110.943 197.829 114.455 200.099C121.406 204.589 128.156 203.827 129.622 201.816C130.653 200.401 127.595 187.365 121.162 185.263C120.515 185.052 122.6 190.002 121.828 190.162C120.774 190.38 119.387 188.795 117.051 188.12C111.867 186.624 108.045 186.281 108.693 188.059C108.916 188.671 116.901 192.663 116.837 192.988C116.774 193.318 107.469 190.616 107.459 190.972Z" fill="#FBD3C7"/>
<path d="M150.774 189.903C150.774 193.781 131.125 196.922 106.887 196.922C82.649 196.922 63 193.778 63 189.903C63 186.025 82.649 182.883 106.887 182.883C131.125 182.883 150.774 186.025 150.774 189.903Z" fill="#3A9BA0"/>
<path d="M106.889 195.644C131.127 195.644 150.776 192.502 150.776 188.625C150.776 184.748 131.127 181.605 106.889 181.605C82.6509 181.605 63.002 184.748 63.002 188.625C63.002 192.502 82.6509 195.644 106.889 195.644Z" fill="#A3E5E1"/>
<path d="M106.889 193.476C89.3127 193.476 70.6288 191.551 70.6288 187.988C70.6288 184.422 89.3127 182.5 106.889 182.5C124.466 182.5 143.15 184.425 143.15 187.988C143.15 191.553 124.464 193.476 106.889 193.476ZM106.889 183.267C83.9973 183.267 71.3373 186.058 71.3373 187.988C71.3373 189.918 83.9973 192.709 106.889 192.709C129.781 192.709 142.441 189.918 142.441 187.988C142.441 186.058 129.779 183.267 106.889 183.267Z" fill="white"/>
<path opacity="0.19" d="M108.586 187.363C108.586 188.712 103.715 189.806 97.7089 189.806C91.7028 189.806 86.8318 188.712 86.8318 187.363C86.8318 186.015 91.7028 184.92 97.7089 184.92C103.718 184.923 108.586 186.015 108.586 187.363Z" fill="#020202"/>
<path d="M81.7196 173.865L87.8731 187.911C87.8731 187.911 89.5848 188.567 94.1688 187.861C99.3521 187.063 100.751 185.928 100.751 185.928L102.463 170.673L81.7196 173.865Z" fill="#F45B83"/>
<path opacity="0.28" d="M96.7973 187.353L95.8474 171.688L94.4735 171.899L95.9516 187.543C96.2639 187.482 96.5204 187.416 96.7973 187.353Z" fill="white"/>
<path opacity="0.28" d="M98.6098 186.868L98.7698 171.236L97.3806 171.45L97.7438 187.116C98.0561 187.033 98.3584 186.949 98.6098 186.868Z" fill="white"/>
<path opacity="0.28" d="M100.175 186.258L101.234 170.86L100.056 171.041L99.4208 186.588C99.7433 186.461 99.9795 186.355 100.175 186.258Z" fill="white"/>
<path opacity="0.28" d="M92.9953 188.011L89.7116 172.633L88.3376 172.844L92.1242 188.097C92.401 188.074 92.688 188.046 92.9953 188.011Z" fill="white"/>
<path opacity="0.28" d="M89.3658 188.153L84.1266 173.494L82.9482 173.677L88.5379 188.061C88.7563 188.094 89.023 188.127 89.3658 188.153Z" fill="white"/>
<path opacity="0.28" d="M94.0058 187.874C94.0642 187.866 94.11 187.868 94.1709 187.858C94.4579 187.815 94.6941 187.767 94.9582 187.719L92.8605 172.146L91.3265 172.382L94.0058 187.874Z" fill="white"/>
<path opacity="0.28" d="M91.1416 188.168L86.8014 173.082L85.4122 173.296L90.2324 188.185C90.5067 188.185 90.814 188.18 91.1416 188.168Z" fill="white"/>
<path d="M103.007 168.219C103.55 171.757 98.9461 175.399 92.7215 176.359C86.4969 177.316 81.0088 175.229 80.4653 171.691C79.9193 168.156 84.5262 164.512 90.7508 163.554C96.9754 162.594 102.463 164.684 103.007 168.219Z" fill="#C64B42"/>
<path d="M99.0142 164.557C99.5145 167.353 96.4238 170.248 92.109 171.02C87.7942 171.792 83.8908 170.154 83.3905 167.355C82.8902 164.559 85.9809 161.664 90.2957 160.892C94.608 160.118 98.5114 161.758 99.0142 164.557Z" fill="#E67168"/>
<path d="M96.6072 161.241C98.0777 163.242 94.9971 166.18 91.7159 166.98C88.4373 167.78 85.311 166.505 84.7345 164.133C84.1555 161.764 87.33 156.796 93.5749 156.134C90.4766 161.645 95.3044 159.466 96.6072 161.241Z" fill="#F99191"/>
<path d="M81.0615 160.108C85.4576 160.796 84.0532 167.463 84.0532 167.463C84.0532 167.463 78.2426 168.989 76.6426 166.127C74.9411 163.084 79.3981 163.404 79.3981 163.404C79.3981 163.404 78.7606 159.747 81.0615 160.108Z" fill="#FBBA38"/>
<path d="M85.6834 173.588C85.7367 173.941 85.4955 174.269 85.145 174.324C84.792 174.378 84.4644 174.136 84.4085 173.786C84.3552 173.433 84.5964 173.105 84.9494 173.049C85.2999 172.996 85.6301 173.237 85.6834 173.588Z" fill="#D6F4FC"/>
<path d="M90.6059 172.496C90.6592 172.849 90.4179 173.177 90.0649 173.233C89.7119 173.286 89.3843 173.045 89.3284 172.694C89.2751 172.341 89.5164 172.014 89.8668 171.958C90.2224 171.902 90.5525 172.143 90.6059 172.496Z" fill="#D6F4FC"/>
<path d="M95.5376 173.032C95.591 173.385 95.3497 173.712 94.9992 173.768C94.6462 173.822 94.3186 173.58 94.2628 173.23C94.2094 172.877 94.4507 172.549 94.8012 172.493C95.1542 172.438 95.4818 172.681 95.5376 173.032Z" fill="#D6F4FC"/>
<path d="M99.398 168.453C99.4513 168.806 99.2101 169.134 98.8596 169.189C98.5066 169.243 98.1764 169.001 98.1231 168.651C98.0698 168.298 98.311 167.97 98.664 167.915C99.0145 167.859 99.3447 168.1 99.398 168.453Z" fill="#D6F4FC"/>
<path d="M97.3836 165.012C97.4369 165.365 97.1957 165.692 96.8452 165.748C96.4922 165.802 96.162 165.56 96.1087 165.21C96.0554 164.857 96.2966 164.529 96.6496 164.473C97.0001 164.418 97.3303 164.659 97.3836 165.012Z" fill="#D6F4FC"/>
<path d="M87.4717 164.323C87.5251 164.676 87.2838 165.004 86.9333 165.06C86.5803 165.113 86.2502 164.872 86.1968 164.521C86.1435 164.168 86.3848 163.841 86.7378 163.785C87.0857 163.729 87.4158 163.97 87.4717 164.323Z" fill="#D6F4FC"/>
<path d="M91.9442 164.13C91.9975 164.483 91.7562 164.814 91.4057 164.867C91.0527 164.92 90.7251 164.679 90.6692 164.326C90.6159 163.973 90.8572 163.645 91.2102 163.59C91.5581 163.536 91.8883 163.777 91.9442 164.13Z" fill="#D6F4FC"/>
<path d="M91.334 160.171C91.3873 160.524 91.1461 160.852 90.7931 160.908C90.4401 160.961 90.1125 160.72 90.0566 160.37C90.0032 160.017 90.2445 159.689 90.595 159.633C90.9505 159.577 91.2781 159.818 91.334 160.171Z" fill="#D6F4FC"/>
<path d="M86.0423 168.895C86.0956 169.248 85.8544 169.575 85.5039 169.631C85.1509 169.685 84.8233 169.443 84.7674 169.093C84.7141 168.74 84.9553 168.412 85.3058 168.356C85.6588 168.301 85.9864 168.542 86.0423 168.895Z" fill="#D6F4FC"/>
<path d="M81.3542 170.761C81.4075 171.114 81.1662 171.442 80.8158 171.498C80.4628 171.551 80.1352 171.31 80.0793 170.959C80.026 170.606 80.2672 170.279 80.6177 170.223C80.9707 170.167 81.2983 170.411 81.3542 170.761Z" fill="#D6F4FC"/>
<path d="M94.6718 167.406C94.7251 167.759 94.4839 168.087 94.1334 168.143C93.7804 168.196 93.4528 167.955 93.3969 167.605C93.3436 167.252 93.5848 166.924 93.9378 166.868C94.2883 166.812 94.6159 167.053 94.6718 167.406Z" fill="#D6F4FC"/>
<path opacity="0.19" d="M132.515 188.577C132.515 189.926 127.644 191.02 121.638 191.02C115.629 191.02 110.76 189.926 110.76 188.577C110.76 187.229 115.629 186.134 121.638 186.134C127.644 186.134 132.515 187.226 132.515 188.577Z" fill="#020202"/>
<path d="M108.18 171.818L110.946 188.379C110.946 188.379 112.586 189.535 117.643 190.015C123.359 190.558 125.15 189.73 125.15 189.73L131.057 173.995L108.18 171.818Z" fill="#E83F3F"/>
<path opacity="0.28" d="M120.563 190.18L123.756 173.297L122.242 173.152L119.616 190.154C119.964 190.172 120.253 190.175 120.563 190.18Z" fill="white"/>
<path opacity="0.28" d="M122.62 190.152L126.98 173.604L125.449 173.459L121.634 190.185C121.987 190.18 122.33 190.172 122.62 190.152Z" fill="white"/>
<path opacity="0.28" d="M124.446 189.923L129.7 173.863L128.4 173.738L123.557 190.071C123.933 190.025 124.21 189.974 124.446 189.923Z" fill="white"/>
<path opacity="0.28" d="M116.352 189.86L116.992 172.656L115.443 172.512V189.72C115.74 189.768 116.019 189.814 116.352 189.86Z" fill="white"/>
<path opacity="0.28" d="M112.464 189.034L110.836 172.07L109.536 171.945L111.611 188.712C111.832 188.811 112.106 188.917 112.464 189.034Z" fill="white"/>
<path opacity="0.28" d="M117.462 189.984C117.525 189.992 117.576 190.007 117.64 190.012C117.957 190.042 118.219 190.053 118.513 190.075L120.464 172.984L118.77 172.824L117.462 189.984Z" fill="white"/>
<path opacity="0.28" d="M114.343 189.527L113.782 172.349L112.25 172.204L113.373 189.301C113.665 189.377 113.99 189.453 114.343 189.527Z" fill="white"/>
<path d="M132.288 171.536C131.918 175.437 126.054 178.068 119.189 177.416C112.325 176.763 107.06 173.073 107.431 169.175C107.801 165.276 113.665 162.643 120.53 163.295C127.395 163.948 132.659 167.636 132.288 171.536Z" fill="#F2A35C"/>
<path d="M130.224 167.9C130 171.102 125.51 173.395 120.2 173.022C114.89 172.649 110.765 169.751 110.991 166.549C111.217 163.346 115.705 161.053 121.015 161.426C126.326 161.799 130.447 164.697 130.224 167.9Z" fill="#FCC281"/>
<path d="M116.728 161.67C116.954 163.389 115.745 164.966 114.026 165.192C112.307 165.418 110.73 164.21 110.504 162.49C110.278 160.771 111.486 159.194 113.206 158.968C114.925 158.739 116.502 159.951 116.728 161.67Z" fill="#EA3636"/>
<path d="M128.408 163.402C129.414 166.069 125.421 168.499 121.787 168.469C118.156 168.438 115.23 166.12 115.253 163.29C115.276 160.461 119.227 154.95 127.024 155.349C122.336 160.667 127.517 161.035 128.408 163.402Z" fill="#FFD6A9"/>
<path d="M111.791 159.971C110.993 158.417 108.632 154.27 104.787 152.647C104.177 152.322 104.774 151.667 105.457 152.03C109.998 154.447 112.08 159.567 112.273 159.778L111.791 159.971Z" fill="#9CC699"/>
<path d="M120.842 164.807C121.068 166.526 119.859 168.103 118.14 168.329C116.421 168.555 114.844 167.346 114.618 165.627C114.392 163.908 115.6 162.331 117.32 162.105C119.039 161.879 120.616 163.088 120.842 164.807Z" fill="#EA3636"/>
<path d="M117.675 162.744C117.622 161 117.274 156.238 114.501 153.119C114.092 152.563 114.912 152.228 115.372 152.85C118.432 156.985 118.112 162.503 118.196 162.777L117.675 162.744Z" fill="#9CC699"/>
<path d="M267.462 167.511C266.39 166.591 264.32 170.561 258.302 171.16C266.223 168.13 267.909 160.413 266.223 160.082C265.217 159.887 260.653 166.891 256.938 168.13C263.127 163.798 263.589 154.737 261.89 154.513C260.384 154.315 258.901 161.713 254.462 165.654C256.318 161.322 255.152 158.234 253.867 157.258C252.107 155.923 247.402 157.025 245.268 158.452C245.228 158.66 245.281 158.917 245.416 159.176C243.805 160.123 242.076 163.031 241.466 164.557C240.41 167.198 241.192 170.256 242.231 172.844C242.269 172.834 242.297 172.821 242.335 172.811C243.041 174.413 246.226 178.286 247.036 178.652C248.656 179.386 266.845 176.176 267.462 167.511ZM245.669 162.858C246.391 161.505 246.127 160.245 245.786 159.59C246.335 160.156 247.32 160.603 248.946 160.319C251.506 159.869 253.042 164.113 246.998 168.029C246.764 168.148 246.518 168.285 246.294 168.397C243.138 165.451 245.225 163.691 245.669 162.858Z" fill="#FFD5C7"/>
<path d="M262.938 134.61C263.068 134.166 262.811 133.699 262.367 133.567C261.925 133.447 261.453 133.691 261.323 134.138L259.187 141.429C259.058 141.874 259.312 142.351 259.759 142.473C259.797 142.483 259.832 142.491 259.868 142.496C260.279 142.559 260.683 142.31 260.803 141.899L262.938 134.61ZM251.386 133.782C251.213 133.346 250.72 133.137 250.296 133.31C249.864 133.483 249.651 133.97 249.824 134.402L252.62 141.467C252.734 141.754 252.991 141.945 253.275 141.988C253.42 142.011 253.57 141.998 253.712 141.94C254.144 141.767 254.357 141.279 254.187 140.845L251.386 133.782ZM272.203 142.056C272.05 141.617 271.568 141.391 271.131 141.541L263.964 144.063C263.528 144.218 263.296 144.698 263.451 145.137C263.558 145.439 263.82 145.642 264.117 145.688C264.249 145.708 264.388 145.698 264.526 145.653L271.692 143.133C272.127 142.976 272.358 142.496 272.203 142.056Z" fill="#919191"/>
<g clip-path="url(#clip1_342_1960)">
<path d="M140.2 266.358C140.174 266.403 140.131 266.446 140.129 266.49C140.092 267.626 139.556 268.544 138.865 269.399C137.836 270.668 136.633 271.785 135.29 272.716C134.904 272.951 134.504 273.163 134.092 273.351C133.983 273.394 133.879 273.452 133.784 273.522C133.379 273.906 132.893 274.194 132.362 274.365C132.271 274.386 132.187 274.434 132.124 274.503C132.06 274.572 132.019 274.659 132.006 274.752C131.928 275.125 131.847 275.498 131.753 275.868C131.696 276.121 131.617 276.369 131.517 276.609C131.434 276.812 131.299 276.99 131.125 277.124C130.952 277.258 130.745 277.343 130.528 277.372C129.878 277.456 129.227 277.557 128.562 277.447C128.067 277.367 127.559 277.374 127.059 277.317C126.527 277.256 125.997 277.179 125.468 277.09C124.888 276.99 124.302 276.9 123.734 276.747C122.172 276.338 120.62 275.892 119.191 275.11C119.085 275.051 118.977 274.993 118.874 274.939C118.207 274.519 118.12 274.278 118.214 273.515C118.332 272.533 118.569 271.568 118.921 270.643C118.974 270.483 118.979 270.311 118.936 270.147C118.488 268.364 118.121 266.569 118.065 264.723C118.048 264.209 118.017 263.682 117.998 263.162C117.966 261.648 118.237 260.143 118.794 258.735C119.718 256.274 120.916 253.976 122.72 252.03C123.311 251.394 123.983 250.837 124.718 250.374C126.078 249.525 127.6 248.969 129.186 248.74C130.093 248.598 131.007 248.411 131.924 248.548C132.797 248.678 133.663 248.868 134.52 249.075C135.044 249.224 135.503 249.544 135.824 249.984C137.08 251.538 137.506 253.293 137.133 255.254C136.883 256.572 136.449 257.821 136.007 259.093C135.659 260.109 135.363 261.142 135.119 262.188C135.052 262.598 135.072 263.017 135.177 263.419C135.271 263.879 135.424 263.932 135.892 263.836C136.278 263.739 136.669 263.661 137.063 263.603C137.529 263.552 137.999 263.543 138.466 263.576C139.322 263.65 139.921 264.231 140.097 265.087C140.125 265.2 140.16 265.312 140.201 265.421L140.2 266.358ZM118.915 263.946C118.869 265.518 119.044 266.98 119.239 268.443C119.372 269.444 119.725 270.325 120.452 271.01C121.39 271.894 122.552 272.416 123.755 272.834C124.378 273.047 125.013 273.225 125.656 273.366C126.652 273.59 127.651 273.85 128.663 273.956C130.872 274.187 132.864 273.499 134.601 272.178C135.986 271.1 137.228 269.849 138.295 268.455C138.821 267.757 139.146 266.928 139.234 266.059C139.304 265.645 139.247 265.219 139.072 264.837C139.022 264.708 138.938 264.595 138.83 264.508C138.722 264.422 138.593 264.366 138.456 264.346C137.752 264.237 137.035 264.259 136.339 264.411C136.085 264.468 135.825 264.49 135.566 264.476C135.329 264.474 135.099 264.402 134.904 264.269C134.709 264.135 134.559 263.946 134.472 263.727C134.258 263.213 134.056 262.672 134.181 262.113C134.402 261.115 134.647 260.123 134.938 259.144C135.244 258.117 135.66 257.116 135.946 256.083C136.149 255.366 136.27 254.628 136.307 253.884C136.336 253.222 136.232 252.562 136.001 251.942C135.77 251.322 135.416 250.754 134.962 250.273C134.784 250.083 134.562 249.941 134.315 249.859C133.479 249.568 132.607 249.392 131.724 249.335C130.51 249.304 129.298 249.457 128.13 249.79C126.198 250.279 124.462 251.348 123.158 252.855C121.977 254.205 121.104 255.73 120.348 257.34C119.354 259.469 118.712 261.665 118.915 263.946ZM119.446 271.069C119.318 271.773 119.196 272.401 119.093 273.031C119.056 273.251 119.076 273.482 119.042 273.703C119.014 273.841 119.037 273.984 119.107 274.106C119.177 274.228 119.289 274.32 119.422 274.365C120.033 274.654 120.639 274.956 121.265 275.209C122.848 275.851 124.516 276.162 126.19 276.468C127.069 276.629 127.978 276.639 128.876 276.696C129.308 276.722 129.744 276.684 130.177 276.681C130.336 276.689 130.493 276.641 130.618 276.543C130.744 276.446 130.83 276.306 130.861 276.15C130.985 275.688 131.069 275.214 131.181 274.696C131.01 274.711 130.891 274.713 130.776 274.731C129.871 274.9 128.941 274.895 128.038 274.714C126.719 274.432 125.394 274.177 124.102 273.783C122.353 273.256 120.772 272.502 119.446 271.069Z" fill="#31A1D5"/>
<path d="M127.84 264.539C128.216 264.692 128.642 264.651 129.06 265.008C127.948 264.996 126.969 264.837 125.872 264.781C126.44 264.51 126.955 264.618 127.381 264.546C127.667 263.441 127.941 262.37 128.237 261.237C127.628 261.086 126.967 261.127 126.245 261.134C125.903 262.228 125.552 263.309 125.18 264.476C125.086 264.338 124.98 264.252 124.98 264.168C124.967 263.841 124.993 263.513 125.056 263.191C125.227 262.52 125.444 261.863 125.661 261.138C124.96 261.1 124.256 261.128 123.56 261.221C123.355 261.921 123.154 262.611 122.952 263.301L122.848 263.283C122.792 262.609 122.971 261.95 123.076 261.262L122.318 261.175V261.062C122.471 261.008 122.629 260.969 122.79 260.944C122.916 260.947 123.039 260.904 123.136 260.822C123.232 260.741 123.295 260.626 123.312 260.501C123.426 260.066 123.596 259.645 123.74 259.218C123.777 259.108 123.801 258.992 123.842 258.843H122.378L122.359 258.74C122.681 258.647 123.01 258.58 123.343 258.538C123.901 258.509 124.19 258.251 124.369 257.725C124.618 257.026 124.961 256.356 125.293 255.614L122.533 255.888L122.501 255.773C122.624 255.716 122.751 255.671 122.882 255.638C123.599 255.514 124.316 255.386 125.038 255.295C125.191 255.286 125.338 255.236 125.465 255.151C125.592 255.066 125.695 254.95 125.762 254.813C126.265 253.957 126.811 253.138 127.352 252.309C127.47 252.143 127.621 252.004 127.795 251.899C127.742 252.33 127.431 252.617 127.244 252.97C127.058 253.322 126.839 253.654 126.64 253.997C126.442 254.339 126.229 254.717 126 255.119C126.413 255.23 126.786 255.157 127.155 255.157C127.525 255.157 127.884 255.157 128.271 255.157L128.959 254.272L129.051 254.317L128.728 255.2L130.971 255.605C131.365 255.117 131.601 254.484 132.2 254.122L131.401 255.718L132.587 256.144C132.587 256.172 132.575 256.201 132.57 256.228C132.369 256.199 132.169 256.172 131.969 256.139L131.254 256.018L130.037 258.43C130.853 258.697 131.68 258.834 132.465 259.37L129.888 258.839C129.552 259.502 129.257 260.185 129.005 260.884C129.655 261.107 130.299 261.262 130.802 261.75C130.489 261.665 130.177 261.579 129.861 261.499C129.544 261.418 129.219 261.37 128.866 261.302C128.377 262.358 128.137 263.453 127.84 264.539ZM128.057 255.528C127.355 255.528 126.733 255.538 126.11 255.528C126.007 255.516 125.903 255.54 125.816 255.597C125.73 255.654 125.666 255.739 125.636 255.838C125.331 256.536 125.013 257.229 124.705 257.926C124.655 258.064 124.612 258.205 124.578 258.348L126.818 258.217L128.057 255.528ZM128.546 255.578C128.149 256.474 127.73 257.298 127.455 258.21L129.525 258.348C129.948 257.539 130.354 256.76 130.79 255.927L128.546 255.578ZM123.671 260.775L125.896 260.619C126.146 259.977 126.387 259.353 126.657 258.66L124.352 258.773C124.135 259.425 123.916 260.056 123.671 260.775ZM128.476 260.794C128.759 260.109 129.027 259.471 129.315 258.781L127.309 258.653C126.953 259.288 126.594 260.272 126.582 260.629L128.476 260.794Z" fill="#31A1D5"/>
<path d="M131.183 272.159C132.308 271.53 133.482 270.962 134.548 270.248C135.614 269.534 136.541 268.674 137.549 267.852C137.255 269.267 133.096 272.057 131.183 272.159Z" fill="#31A1D5"/>
<path d="M127.165 266.294C128.002 266.177 129.474 266.412 129.859 266.704C129.161 266.916 127.67 266.709 127.165 266.294Z" fill="#31A1D5"/>
<path d="M121.316 268.182C121.351 268.218 121.417 268.26 121.414 268.292C121.357 268.713 121.296 269.134 121.219 269.55C121.202 269.586 121.177 269.618 121.145 269.642C121.113 269.666 121.075 269.682 121.036 269.688C120.996 269.68 120.959 269.662 120.928 269.638C120.896 269.613 120.87 269.581 120.853 269.545C120.709 269.216 120.984 268.42 121.316 268.182Z" fill="#31A1D5"/>
<path d="M121.65 270.436C121.332 270.039 121.448 269.62 121.909 269.409C122.046 269.812 121.883 270.118 121.65 270.436Z" fill="#31A1D5"/>
<path d="M129.748 268.414C129.255 268.628 128.906 268.465 128.536 268.242C128.926 268.065 129.147 268.095 129.748 268.414Z" fill="#31A1D5"/>
<path d="M122.521 271.167C122.179 271.08 122.146 270.886 122.204 270.671C122.219 270.635 122.243 270.604 122.273 270.579C122.302 270.555 122.338 270.538 122.376 270.53C122.439 270.53 122.547 270.619 122.547 270.674C122.552 270.839 122.543 271.004 122.521 271.167Z" fill="#31A1D5"/>
</g>
<path d="M149.823 254.384H157.275C157.995 254.384 158.706 254.474 159.408 254.654C160.11 254.816 160.731 255.095 161.271 255.491C161.829 255.869 162.279 256.364 162.621 256.976C162.963 257.588 163.134 258.326 163.134 259.19C163.134 260.27 162.828 261.161 162.216 261.863C161.604 262.565 160.803 263.069 159.813 263.375V263.429C160.407 263.501 160.956 263.672 161.46 263.942C161.982 264.194 162.423 264.527 162.783 264.941C163.143 265.337 163.422 265.805 163.62 266.345C163.836 266.867 163.944 267.434 163.944 268.046C163.944 269.09 163.737 269.963 163.323 270.665C162.909 271.349 162.36 271.907 161.676 272.339C161.01 272.753 160.236 273.05 159.354 273.23C158.49 273.41 157.608 273.5 156.708 273.5H149.823V254.384ZM153.225 262.16H156.33C157.464 262.16 158.31 261.944 158.868 261.512C159.444 261.062 159.732 260.477 159.732 259.757C159.732 258.929 159.435 258.317 158.841 257.921C158.265 257.507 157.329 257.3 156.033 257.3H153.225V262.16ZM153.225 270.584H156.357C156.789 270.584 157.248 270.557 157.734 270.503C158.238 270.449 158.697 270.323 159.111 270.125C159.525 269.927 159.867 269.648 160.137 269.288C160.407 268.91 160.542 268.406 160.542 267.776C160.542 266.768 160.209 266.066 159.543 265.67C158.895 265.274 157.878 265.076 156.492 265.076H153.225V270.584ZM175.134 271.718H175.053C174.585 272.456 173.991 272.996 173.271 273.338C172.551 273.662 171.759 273.824 170.895 273.824C170.301 273.824 169.716 273.743 169.14 273.581C168.582 273.419 168.078 273.176 167.628 272.852C167.196 272.528 166.845 272.123 166.575 271.637C166.305 271.151 166.17 270.584 166.17 269.936C166.17 269.234 166.296 268.64 166.548 268.154C166.8 267.65 167.133 267.236 167.547 266.912C167.979 266.57 168.474 266.3 169.032 266.102C169.59 265.904 170.166 265.76 170.76 265.67C171.372 265.562 171.984 265.499 172.596 265.481C173.208 265.445 173.784 265.427 174.324 265.427H175.134V265.076C175.134 264.266 174.855 263.663 174.297 263.267C173.739 262.853 173.028 262.646 172.164 262.646C171.48 262.646 170.841 262.772 170.247 263.024C169.653 263.258 169.14 263.582 168.708 263.996L167.007 262.295C167.727 261.557 168.564 261.026 169.518 260.702C170.49 260.378 171.489 260.216 172.515 260.216C173.433 260.216 174.207 260.324 174.837 260.54C175.467 260.738 175.989 260.999 176.403 261.323C176.817 261.647 177.132 262.025 177.348 262.457C177.582 262.871 177.744 263.294 177.834 263.726C177.942 264.158 178.005 264.581 178.023 264.995C178.041 265.391 178.05 265.742 178.05 266.048V273.5H175.134V271.718ZM174.945 267.695H174.27C173.82 267.695 173.316 267.713 172.758 267.749C172.2 267.785 171.669 267.875 171.165 268.019C170.679 268.145 170.265 268.343 169.923 268.613C169.581 268.865 169.41 269.225 169.41 269.693C169.41 269.999 169.473 270.26 169.599 270.476C169.743 270.674 169.923 270.845 170.139 270.989C170.355 271.133 170.598 271.241 170.868 271.313C171.138 271.367 171.408 271.394 171.678 271.394C172.794 271.394 173.613 271.133 174.135 270.611C174.675 270.071 174.945 269.342 174.945 268.424V267.695ZM181.536 253.088H184.776V265.913L189.771 260.54H193.929L188.367 266.426L194.28 273.5H189.987L184.83 266.885H184.776V273.5H181.536V253.088ZM198.63 268.154C198.738 269.126 199.116 269.882 199.764 270.422C200.412 270.962 201.195 271.232 202.113 271.232C202.923 271.232 203.598 271.07 204.138 270.746C204.696 270.404 205.182 269.981 205.596 269.477L207.918 271.232C207.162 272.168 206.316 272.834 205.38 273.23C204.444 273.626 203.463 273.824 202.437 273.824C201.465 273.824 200.547 273.662 199.683 273.338C198.819 273.014 198.072 272.555 197.442 271.961C196.812 271.367 196.308 270.656 195.93 269.828C195.57 268.982 195.39 268.046 195.39 267.02C195.39 265.994 195.57 265.067 195.93 264.239C196.308 263.393 196.812 262.673 197.442 262.079C198.072 261.485 198.819 261.026 199.683 260.702C200.547 260.378 201.465 260.216 202.437 260.216C203.337 260.216 204.156 260.378 204.894 260.702C205.65 261.008 206.289 261.458 206.811 262.052C207.351 262.646 207.765 263.384 208.053 264.266C208.359 265.13 208.512 266.129 208.512 267.263V268.154H198.63ZM205.272 265.724C205.254 264.77 204.957 264.023 204.381 263.483C203.805 262.925 203.004 262.646 201.978 262.646C201.006 262.646 200.232 262.925 199.656 263.483C199.098 264.041 198.756 264.788 198.63 265.724H205.272Z" fill="#31A1D5"/>
<defs>
<clipPath id="clip0_342_1960">
<rect width="329.668" height="108" fill="white" transform="translate(5.33154 202)"/>
</clipPath>
<clipPath id="clip1_342_1960">
<rect width="22.1979" height="29.0001" fill="white" transform="translate(118 248.5)"/>
</clipPath>
</defs>
</svg>
