<svg width="181" height="332" viewBox="0 0 181 332" fill="none" xmlns="http://www.w3.org/2000/svg">
<path d="M137.528 115.501H147.513L148.987 108.457H135.938L137.528 115.501Z" fill="#41C0E0"/>
<path d="M129.376 93.0768L137.132 107.093L137.663 106.798L129.904 92.7773L129.376 93.0768Z" fill="#A9A9A9"/>
<path d="M136.736 92.1259L139.996 106.918L140.592 106.783L137.333 91.9956L136.736 92.1259Z" fill="#A9A9A9"/>
<path d="M143.169 107.026L143.777 107.051L144.44 91.0185L143.833 90.9961L143.169 107.026Z" fill="#A9A9A9"/>
<path d="M145.704 107.044L146.29 107.221L151.263 90.829L150.677 90.6521L145.704 107.044Z" fill="#A9A9A9"/>
<path d="M147.774 106.822L148.333 107.068L155.06 91.7371L154.504 91.4941L147.774 106.822Z" fill="#A9A9A9"/>
<path d="M119.007 80.444L134.828 107.372L135.359 107.063L119.534 80.1379L119.007 80.444Z" fill="#A9A9A9"/>
<path d="M149.757 107.086L150.174 107.652L164.015 78.8474L163.019 79.5679L149.757 107.086Z" fill="#A9A9A9"/>
<path d="M150.183 106.634H134.406V108.55H150.183V106.634Z" fill="#FFC600"/>
<path d="M140.719 8.9043C118.951 8.9043 98.8787 22.6373 101.303 43.712C103.812 65.5586 129.44 93.1325 129.44 93.1325L153.904 93.0693C153.904 93.0693 177.767 62.8792 180.135 43.712C182.496 24.602 162.487 8.9043 140.719 8.9043Z" fill="#FFC600"/>
<path d="M101.399 43.555C103.917 65.4021 129.537 92.9796 129.537 92.9796L131.267 92.9572C130.441 92.0662 112.925 65.0437 110.457 43.5556C108.209 24.0022 127.05 8.70721 144.605 9.21784C143.157 9.07574 142.285 8.74609 140.816 8.74609C119.048 8.74727 98.9771 22.4844 101.399 43.555Z" fill="#41C0E0"/>
<path d="M140.94 8.8817C139.582 8.87816 141.944 8.77778 140.94 8.8817V8.8817Z" fill="#FCFFFF"/>
<path d="M140.995 8.88159H140.939C140.877 8.88926 140.805 8.89394 140.719 8.90455C160.709 10.8209 173.42 25.4531 171.217 43.2759C168.849 62.4455 152.289 92.6298 152.289 92.6298H154.041C154.041 92.6298 177.901 62.4461 180.269 43.2759C182.633 24.1659 162.763 8.88159 140.995 8.88159Z" fill="#41C0E0"/>
<path d="M143.281 9.07568L139.546 9.12463C132.274 13.7829 126.986 25.4863 127.87 42.2318C129.05 64.6385 139.81 92.9276 139.81 92.9276C139.81 92.9276 144.254 92.8758 144.247 92.8604C144.247 92.8604 153.387 61.8972 154.507 42.2318C155.384 26.7239 150.454 13.8035 143.281 9.07568Z" fill="#41C0E0"/>
<path d="M121.009 83.0085C125.767 89.1904 129.5 93.2094 129.5 93.2094L153.97 93.1428C153.97 93.1428 157.297 88.9327 161.592 82.647C153.504 85.6117 132.724 86.2722 121.009 83.0085Z" fill="#FFC600"/>
<path d="M112.74 7.56398C110.593 7.56025 108.489 8.16078 106.667 9.29694C105.648 6.51869 103.701 4.1772 101.156 2.66776C98.6102 1.15832 95.6219 0.573363 92.6952 1.01167C89.7685 1.44997 87.0828 2.88468 85.0912 5.07358C83.0997 7.26248 81.9243 10.0715 81.7636 13.0265C80.465 12.0989 78.9101 11.5982 77.3142 11.5936C72.7238 11.5936 69.0001 15.7182 69.0001 20.8057C69.0001 25.8932 72.722 30.0184 77.3142 30.0184C78.7635 30.0156 80.1821 29.6013 81.4052 28.8238C84.7609 30.6818 89.4699 31.8382 94.6847 31.8382C99.557 31.8382 103.987 30.8293 107.285 29.1812C108.826 30.0122 110.535 30.4808 112.284 30.5511C114.032 30.6214 115.774 30.2916 117.376 29.5869C118.978 28.8823 120.398 27.8213 121.527 26.4847C122.657 25.1482 123.467 23.5714 123.895 21.8745C124.323 20.1777 124.358 18.4055 123.997 16.6931C123.637 14.9806 122.89 13.373 121.814 11.9928C120.738 10.6127 119.361 9.49625 117.789 8.72874C116.216 7.96123 114.489 7.56289 112.739 7.56398H112.74Z" fill="white"/>
<path d="M14.4081 137.372C14.5841 134.935 15.3472 132.577 16.6321 130.5C18.2424 128.054 22.7145 126.588 25.3908 127.689C27.09 128.391 27.9275 129.843 28.5342 131.47C29.6841 134.667 30.206 138.056 30.0712 141.451C29.9775 146.975 29.5395 152.487 28.7596 157.955C28.4641 160.628 27.4145 163.163 25.7331 165.262C24.494 166.722 24.3233 166.862 22.6631 166.181C20.1232 165.141 18.272 163.165 16.3209 161.361C14.1024 159.313 12.0718 157.063 9.86105 155.004C6.20456 151.6 3.7092 147.433 1.66611 142.949C1.37798 142.296 1.15264 141.618 0.993139 140.922C0.261685 137.863 1.27855 136.231 4.28079 135.307C5.59013 134.851 6.98774 134.705 8.36309 134.882C9.73844 135.059 11.0538 135.553 12.2051 136.326C12.8111 136.898 13.582 137.263 14.4081 137.372ZM23.0498 159.689C24.0106 154.741 22.6295 135.682 21.1331 133.058C20.9506 133.257 20.7081 133.413 20.6215 133.632C19.4035 136.693 18.2431 139.779 18.3539 143.151C18.3835 144.02 18.3125 144.765 17.4017 145.129C16.4909 145.493 15.8819 144.961 15.3282 144.341C15.0943 144.075 14.8978 143.767 14.6412 143.524C12.4578 141.448 10.456 139.147 7.69164 137.777C7.15436 137.511 6.58978 136.932 5.99245 137.29C5.22123 137.758 5.62985 138.572 5.74916 139.24C5.86129 139.668 6.01404 140.085 6.20534 140.484C7.19179 143.031 8.96662 145.051 10.7859 146.991C14.3075 150.746 18.0115 154.329 21.2984 158.306C21.7289 158.828 22.0174 159.565 23.0498 159.689Z" fill="white"/>
<path d="M44.124 108.262C45.3062 106.923 46.7945 105.89 48.462 105.25C50.4825 104.541 53.7327 105.669 54.8018 107.495C55.0851 108.047 55.2457 108.654 55.2727 109.274C55.2996 109.894 55.1922 110.512 54.9578 111.087C54.209 113.457 53.0104 115.661 51.4276 117.577C48.9252 120.748 46.2279 123.76 43.3512 126.595C41.9948 128.018 40.2618 129.026 38.3542 129.502C36.9865 129.803 36.8251 129.808 36.1607 128.677C35.1469 126.947 34.9426 124.978 34.6073 123.062C34.226 120.888 34.0412 118.678 33.6668 116.501C33.149 112.951 33.3443 109.333 34.2416 105.859C34.363 105.352 34.533 104.858 34.7492 104.383C35.678 102.278 36.9935 101.78 39.1496 102.573C40.1136 102.887 40.9912 103.422 41.7128 104.134C42.4345 104.846 42.9805 105.717 43.3075 106.676C43.4062 107.278 43.6919 107.832 44.124 108.262ZM39.2627 125.072C42.0146 122.619 49.6559 110.921 49.946 108.732C49.7576 108.737 49.5713 108.774 49.3947 108.84C47.3298 110.081 45.2882 111.361 43.8581 113.372C43.4892 113.89 43.1188 114.293 42.4271 114.099C41.7355 113.906 41.6177 113.328 41.5694 112.724C41.5491 112.464 41.5694 112.198 41.5319 111.944C41.181 109.769 41.0368 107.545 40.0355 105.523C39.8413 105.133 39.7688 104.543 39.2635 104.487C38.6085 104.415 38.4837 105.072 38.2575 105.513C38.1331 105.812 38.037 106.122 37.9706 106.439C37.5218 108.344 37.4474 110.318 37.7515 112.252C38.1367 115.995 38.7036 119.723 38.8525 123.492C38.8767 123.984 38.7176 124.542 39.2627 125.072Z" fill="white"/>
<path d="M107.194 287.184C106.912 287.183 106.64 287.08 106.428 286.894C106.217 286.707 106.08 286.45 106.045 286.17C104.606 274.742 103.622 263.117 103.121 251.618C103.114 251.465 103.137 251.313 103.189 251.17C103.241 251.027 103.321 250.895 103.424 250.783C103.527 250.67 103.651 250.579 103.789 250.515C103.928 250.451 104.077 250.414 104.229 250.407C104.536 250.397 104.834 250.508 105.06 250.715C105.287 250.922 105.423 251.209 105.44 251.515C105.939 262.952 106.921 274.514 108.348 285.879C108.387 286.184 108.302 286.493 108.113 286.736C107.925 286.979 107.647 287.137 107.342 287.176C107.293 287.181 107.243 287.184 107.194 287.184Z" fill="white"/>
<path d="M89.0561 271.938C88.7503 271.942 88.455 271.826 88.2345 271.614C88.0141 271.402 87.8862 271.111 87.8788 270.805C87.8714 270.5 87.9851 270.203 88.195 269.981C88.405 269.758 88.6943 269.628 89 269.618L122.822 267.953C123.127 267.943 123.423 268.052 123.648 268.259C123.872 268.465 124.006 268.752 124.021 269.056C124.036 269.36 123.931 269.658 123.728 269.886C123.525 270.113 123.241 270.252 122.937 270.272L89.1146 271.937L89.0561 271.938Z" fill="white"/>
<path d="M113.745 277.849C113.487 277.849 113.236 277.762 113.032 277.603L95.2578 263.738C95.1377 263.644 95.0372 263.528 94.9621 263.395C94.887 263.262 94.8388 263.116 94.8202 262.965C94.8016 262.814 94.813 262.66 94.8536 262.514C94.8943 262.367 94.9636 262.229 95.0574 262.109C95.1512 261.989 95.2677 261.889 95.4004 261.813C95.533 261.738 95.6791 261.69 95.8304 261.672C95.9816 261.653 96.1351 261.664 96.282 261.705C96.4288 261.746 96.5663 261.815 96.6864 261.909L114.46 275.774C114.651 275.922 114.791 276.126 114.86 276.358C114.929 276.59 114.924 276.838 114.845 277.067C114.766 277.295 114.618 277.494 114.421 277.634C114.224 277.774 113.988 277.849 113.746 277.849H113.745Z" fill="white"/>
<path d="M99.2168 278.921C98.9959 278.921 98.7795 278.858 98.5932 278.739C98.4069 278.62 98.2584 278.45 98.1652 278.25C98.072 278.05 98.038 277.827 98.067 277.608C98.0961 277.389 98.1871 277.183 98.3294 277.014C103.1 271.333 107.536 265.38 111.616 259.185C111.785 258.928 112.049 258.748 112.351 258.686C112.652 258.624 112.966 258.684 113.223 258.853C113.48 259.022 113.66 259.287 113.722 259.588C113.784 259.89 113.724 260.203 113.555 260.461C109.426 266.732 104.936 272.757 100.108 278.507C99.999 278.637 99.8626 278.741 99.7086 278.813C99.5545 278.885 99.3867 278.921 99.2168 278.921Z" fill="white"/>
<path d="M111.128 318.14C110.915 318.14 110.707 318.081 110.525 317.97C110.344 317.86 110.196 317.701 110.098 317.512C110.001 317.323 109.957 317.111 109.971 316.899C109.986 316.687 110.059 316.483 110.181 316.309C114.265 310.532 118.638 304.851 123.181 299.427C123.378 299.191 123.661 299.043 123.967 299.016C124.274 298.989 124.578 299.085 124.814 299.282C125.05 299.479 125.198 299.763 125.225 300.069C125.252 300.375 125.157 300.68 124.959 300.916C120.459 306.292 116.125 311.922 112.076 317.649C111.969 317.801 111.827 317.925 111.662 318.01C111.497 318.096 111.314 318.14 111.128 318.14Z" fill="white"/>
<path d="M125.23 316.975C124.96 316.975 124.698 316.881 124.49 316.709L108.488 303.463C108.25 303.267 108.101 302.984 108.072 302.677C108.043 302.371 108.137 302.065 108.334 301.828C108.53 301.591 108.813 301.441 109.12 301.412C109.426 301.384 109.732 301.478 109.969 301.674L125.971 314.92C126.155 315.072 126.288 315.278 126.35 315.508C126.413 315.739 126.403 315.983 126.322 316.207C126.241 316.432 126.093 316.626 125.898 316.763C125.702 316.901 125.469 316.975 125.231 316.975H125.23Z" fill="white"/>
<path d="M117.957 316.624C117.683 316.624 117.418 316.527 117.208 316.35C116.999 316.174 116.859 315.928 116.814 315.658L114.505 302.023C114.479 301.873 114.483 301.719 114.517 301.571C114.551 301.422 114.614 301.282 114.702 301.157C114.79 301.033 114.902 300.927 115.031 300.846C115.16 300.765 115.303 300.71 115.454 300.684C115.604 300.659 115.758 300.663 115.906 300.697C116.055 300.731 116.195 300.794 116.32 300.882C116.444 300.97 116.55 301.082 116.631 301.211C116.712 301.34 116.767 301.483 116.792 301.634L119.101 315.268C119.127 315.419 119.123 315.572 119.089 315.721C119.055 315.87 118.992 316.01 118.903 316.134C118.815 316.259 118.703 316.364 118.574 316.445C118.445 316.526 118.301 316.581 118.151 316.606C118.087 316.618 118.022 316.624 117.957 316.624Z" fill="white"/>
<path d="M110.935 311.096C110.641 311.095 110.358 310.983 110.144 310.781C109.93 310.58 109.8 310.304 109.781 310.011C109.762 309.717 109.855 309.427 110.041 309.2C110.228 308.973 110.494 308.824 110.786 308.786C115.28 308.191 119.735 307.336 124.13 306.223C124.428 306.148 124.744 306.194 125.009 306.351C125.274 306.509 125.465 306.765 125.54 307.064C125.616 307.362 125.57 307.679 125.412 307.943C125.254 308.208 124.998 308.399 124.7 308.475C120.217 309.608 115.673 310.481 111.089 311.087C111.038 311.094 110.987 311.097 110.935 311.096Z" fill="white"/>
<path d="M63.768 331.171C63.672 331.171 63.5764 331.159 63.4834 331.136C63.3356 331.098 63.1965 331.033 63.0741 330.942C62.9518 330.851 62.8485 330.737 62.7703 330.606C62.6921 330.475 62.6404 330.33 62.6183 330.179C62.5961 330.029 62.6039 329.875 62.6412 329.727C66.7453 313.416 71.5746 297.071 76.9942 281.146C77.0968 280.858 77.3082 280.623 77.5827 280.491C77.8573 280.358 78.173 280.339 78.4616 280.437C78.7503 280.535 78.9887 280.743 79.1255 281.015C79.2622 281.288 79.2863 281.603 79.1925 281.893C73.7916 297.759 68.981 314.044 64.8925 330.295C64.829 330.545 64.6841 330.767 64.4805 330.926C64.2769 331.085 64.0262 331.171 63.768 331.171Z" fill="white"/>
<path d="M94.1171 316.462C93.9922 316.462 93.8681 316.442 93.7498 316.402L46.787 300.707C46.6424 300.659 46.5088 300.582 46.3938 300.483C46.2787 300.383 46.1844 300.261 46.1164 300.125C46.0483 299.988 46.0078 299.84 45.9971 299.688C45.9864 299.536 46.0057 299.383 46.054 299.239C46.1023 299.094 46.1786 298.96 46.2785 298.845C46.3784 298.73 46.5 298.636 46.6363 298.568C46.7727 298.5 46.9211 298.459 47.0732 298.449C47.2252 298.438 47.3778 298.457 47.5223 298.506L94.4852 314.201C94.7469 314.288 94.969 314.465 95.1118 314.701C95.2545 314.937 95.3087 315.216 95.2643 315.488C95.22 315.76 95.0803 316.008 94.87 316.186C94.6598 316.365 94.3929 316.463 94.1171 316.462Z" fill="white"/>
<path d="M77.6499 321.933C77.4485 321.933 77.2505 321.881 77.0754 321.782C76.9003 321.682 76.754 321.539 76.6509 321.366L59.7994 293.038C59.716 292.907 59.6597 292.76 59.6339 292.607C59.6081 292.454 59.6133 292.297 59.6492 292.146C59.6851 291.995 59.751 291.852 59.843 291.727C59.9349 291.602 60.051 291.496 60.1845 291.417C60.3179 291.337 60.466 291.285 60.6199 291.264C60.7737 291.243 60.9303 291.252 61.0804 291.293C61.2304 291.333 61.3708 291.403 61.4933 291.499C61.6157 291.594 61.7178 291.713 61.7934 291.849L78.6457 320.178C78.8032 320.442 78.8491 320.759 78.7733 321.057C78.6976 321.356 78.5064 321.612 78.2417 321.769C78.063 321.877 77.8584 321.933 77.6499 321.933Z" fill="white"/>
<path d="M57.2942 315.679C57.0364 315.679 56.786 315.594 56.5823 315.436C56.3786 315.278 56.2333 315.056 56.1693 314.807C56.1053 314.557 56.1263 314.293 56.2289 314.057C56.3314 313.82 56.5098 313.625 56.7358 313.501C66.2709 308.286 75.495 302.521 84.3619 296.236C84.486 296.146 84.6269 296.082 84.7761 296.046C84.9254 296.011 85.0802 296.006 85.2316 296.031C85.3829 296.055 85.5278 296.11 85.6579 296.191C85.788 296.273 85.9007 296.379 85.9895 296.504C86.0783 296.629 86.1413 296.771 86.1751 296.92C86.2088 297.07 86.2126 297.225 86.1861 297.376C86.1596 297.527 86.1034 297.671 86.0208 297.801C85.9382 297.93 85.8307 298.041 85.7047 298.129C76.7642 304.467 67.4626 310.28 57.8471 315.539C57.6775 315.631 57.4873 315.68 57.2942 315.679Z" fill="white"/>
</svg>
