<svg width="39" height="39" viewBox="0 0 39 39" fill="none" xmlns="http://www.w3.org/2000/svg">
<path d="M30.1709 38.4183H8.10839C3.10267 38.4183 0.01263 34.669 0.01263 29.6633C0.01263 29.6633 0.565328 25.7455 0.01263 16.4797C-0.0956394 14.6706 0.527783 10.1556 0.527783 10.1556C0.527783 5.14987 3.98804 1.31853 8.99462 1.31853C8.99462 1.31853 16.2932 0.737895 18.5529 0.906411C25.4935 1.42506 28.3906 0.551916 29.8618 0.535326C35.4036 0.473333 37.9986 4.79887 37.9986 9.80458C37.9986 9.80458 38.2457 19.2389 38.2457 20.8463C38.2457 24.3485 37.7105 29.5803 37.7105 29.5803C38.2457 33.9067 35.1766 38.4183 30.1709 38.4183Z" fill="#0171BB"/>
<g clip-path="url(#clip0_342_1867)">
<path d="M23.6496 8.52042C23.9707 8.57912 24.2918 8.64531 24.6141 8.69527C24.8248 8.72128 25.0168 8.82887 25.149 8.99491C25.2812 9.16095 25.343 9.37221 25.3212 9.58331C25.2688 10.5558 25.1499 11.5235 24.9651 12.4797C24.9127 12.7657 24.7702 12.8894 24.4754 12.8706C23.9595 12.8357 23.4585 12.8632 22.99 13.113C22.3779 13.4402 22.0131 13.9748 21.7408 14.588C21.4335 15.2812 21.2998 16.0219 21.1761 16.7638C21.1549 16.8886 21.2199 16.8886 21.311 16.8986C22.253 16.9686 23.1949 17.0535 24.1381 17.1072C24.5604 17.131 24.6491 17.2459 24.7627 17.6393C25.0251 18.5398 25.0126 19.4753 24.9364 20.4058C24.919 20.5458 24.868 20.6795 24.7877 20.7955C24.7483 20.8481 24.7217 20.9093 24.7103 20.9741C24.6703 21.3063 24.5541 21.4087 24.2231 21.4137C23.2237 21.4275 22.2243 21.4462 21.2248 21.4475C21.025 21.4475 20.9862 21.5062 20.9837 21.6973C20.9413 24.6224 21.015 27.5475 21.01 30.4727C21.0087 30.5754 21.0012 30.6781 20.9875 30.7799C20.9815 30.8319 20.9586 30.8805 20.9222 30.9182C20.8859 30.9559 20.8381 30.9806 20.7864 30.9885C19.5933 31.277 18.3878 31.262 17.1785 31.1446C16.74 31.1009 16.7463 31.0809 16.6788 30.645C16.4315 29.075 16.3062 27.4882 16.304 25.8989C16.289 24.45 16.2928 23.0025 16.304 21.5549C16.304 21.3725 16.2541 21.3176 16.0779 21.3051C15.3284 21.2539 14.5788 21.1802 13.8293 21.0728C13.4895 21.0253 13.1659 20.7705 13.1572 20.4195C13.1297 19.4041 12.9935 18.3837 13.2196 17.3733C13.2328 17.2659 13.285 17.1671 13.3663 17.0957C13.4477 17.0243 13.5524 16.9853 13.6606 16.9861C14.4989 16.9011 15.3371 16.8225 16.1791 16.8062C16.3315 16.8062 16.3727 16.7525 16.384 16.6026C16.4564 15.5797 16.5089 14.5505 16.7713 13.5551C17.3859 11.192 18.7988 9.54708 21.1611 8.78895C21.5273 8.67636 21.904 8.60186 22.2855 8.56663C22.3267 8.56663 22.3767 8.57412 22.3979 8.51917H22.4866C22.7627 8.591 23.0525 8.591 23.3286 8.51917L23.6496 8.52042Z" fill="white"/>
<path d="M23.3386 8.52014C23.0625 8.59198 22.7726 8.59198 22.4966 8.52014H23.3386Z" fill="white"/>
</g>
<defs>
<clipPath id="clip0_342_1867">
<rect width="12.224" height="22.7016" fill="white" transform="translate(13.0974 8.52441)"/>
</clipPath>
</defs>
</svg>
