<svg width="99" height="33" viewBox="0 0 99 33" fill="none" xmlns="http://www.w3.org/2000/svg">
<path d="M64.1747 5.91473C66.4828 5.84261 68.7908 5.77051 71.0268 5.6984C72.2529 5.62628 73.4791 5.62627 74.6331 5.55416C75.8593 5.48205 77.2296 5.55416 78.3837 5.19359C80.1868 4.68879 80.3311 1.87636 78.3837 1.37157C76.3641 0.866771 74.0561 1.15525 71.9644 1.08314C69.8727 1.08314 67.781 1.011 65.6894 1.011C61.5781 0.938884 57.4669 0.938875 53.3557 0.866761C45.0611 0.794647 36.7666 0.650436 28.472 0.434095C26.1639 0.361981 23.8559 0.289876 21.6199 0.217762C20.3938 0.145648 19.1676 0.145639 18.0136 0.0735252C16.6432 0.00141138 15.2006 -0.214912 13.9745 0.722567C12.8205 1.51582 12.2434 3.39076 13.4696 4.40035C14.5515 5.33783 15.5613 5.48204 16.9317 5.55416C18.0136 5.55416 19.0955 5.6263 20.1774 5.6263C22.2691 5.69841 24.3607 5.77053 26.4524 5.77053C30.6357 5.84265 34.8191 5.91475 39.0025 5.98687C47.4413 6.27532 55.808 6.20318 64.1747 5.91473Z" fill="white"/>
<path d="M4.38174 21.2026C5.39151 21.2026 6.4013 21.2026 7.41108 21.2026C9.3585 21.2026 11.3059 21.2026 13.2533 21.2026C17.076 21.2026 20.8988 21.2026 24.7936 21.1305C32.5112 21.0584 40.3009 21.0584 48.0185 20.9142C50.2544 20.9142 52.4903 20.8421 54.6541 20.8421C56.9622 20.8421 59.1981 20.8421 61.5062 20.4094C62.1553 20.2652 62.8045 19.6162 62.9487 18.9671C63.0208 18.6066 63.0208 18.3181 62.9487 17.9575L62.9487 17.8854C62.8045 17.2364 62.1553 16.5874 61.5062 16.4432C57.6835 15.7221 53.5722 16.0826 49.6053 16.0105C45.7825 16.0105 41.9598 16.0105 38.065 16.0105C30.3474 16.0105 22.5577 16.0826 14.8401 16.0826C12.6042 16.0826 10.3683 16.0826 8.20445 16.1547C7.12255 16.1547 6.04065 16.1547 4.95874 16.1547C3.66046 16.1547 2.36219 16.0105 1.13603 16.6595C-0.378628 17.5249 -0.378628 19.8325 1.13603 20.6978C2.21793 21.2747 3.22771 21.2026 4.38174 21.2026Z" fill="white"/>
<path d="M56.7457 32.3803C65.4009 32.3082 73.984 32.0198 82.6392 31.5871C85.0915 31.4429 87.4717 31.3708 89.924 31.2265C91.1502 31.1544 92.3763 31.0823 93.5304 31.0102C94.9729 30.9381 96.4154 31.0102 97.4973 29.8564C98.435 28.9189 98.0744 27.6209 97.1367 26.8997C96.1269 26.1065 94.9729 26.3228 93.7468 26.3949C92.6649 26.467 91.583 26.5391 90.5011 26.6113C88.3373 26.7555 86.1735 26.8997 84.0097 26.9718C79.682 27.1882 75.3544 27.4045 71.0989 27.5487C62.4437 27.8372 53.8606 27.9814 45.2054 27.9814C42.8252 27.9814 40.5171 27.9093 38.137 27.9814C35.6125 27.9814 33.0881 27.9093 30.6358 28.6304C29.1933 29.0631 29.3375 30.9381 30.6358 31.4429C32.7275 32.164 34.8913 32.2361 37.1272 32.3082C39.291 32.3803 41.4548 32.4525 43.6186 32.4525C48.0184 32.4525 52.4181 32.4524 56.7457 32.3803Z" fill="white"/>
</svg>
