<svg width="124" height="103" viewBox="0 0 124 103" fill="none" xmlns="http://www.w3.org/2000/svg">
<path opacity="0.42" d="M54.9328 102.657C53.7809 102.657 52.6017 102.607 51.4208 102.509C44.1658 101.899 38.0705 98.8804 34.487 94.1615C32.6694 94.6648 30.7911 94.9121 28.9058 94.8963C25.4422 94.8354 22.0089 94.2365 18.7275 93.1208C8.57701 89.8453 1.87006 82.8629 0.322909 73.9637C-0.793805 67.5369 1.13771 61.2905 5.39298 57.2857C1.61716 51.6224 0.0904447 44.7426 1.11407 38.0036C2.18652 31.7 5.76583 26.3931 11.4646 22.6588C15.8726 19.7707 20.2807 18.7252 24.2565 19.602C24.7142 16.1449 27.3581 3.81844 41.862 2.49385C48.7229 1.87238 54.124 2.75645 57.8009 5.09855C61.5765 2.17255 66.1965 0.5599 70.9639 0.503912C74.4499 0.501187 77.8708 1.45307 80.8591 3.25728C83.5171 4.78678 85.9426 6.6922 88.0614 8.91512C89.1179 8.67037 90.1988 8.54771 91.283 8.54954C95.297 8.54954 99.4892 10.1446 103.743 13.2922C113.363 20.4087 114.708 30.4619 112.677 38.0128C113.437 38.3448 114.224 38.7159 115.031 39.1223C120.943 42.098 124.125 48.2006 123.996 56.2944C123.842 65.7992 119.064 75.5082 112.931 79.1067C113.379 82.9733 112.311 86.8634 109.954 89.952C106.554 94.2968 100.58 96.8686 92.1984 97.5973C85.0065 98.2242 79.2641 97.6582 75.2646 95.9425C71.9145 98.7244 65.3385 102.658 54.9388 102.658L54.9328 102.657ZM37.5273 92.946C40.638 96.5621 45.6844 98.878 51.6796 99.3788C52.7709 99.4714 53.8688 99.5171 54.9322 99.5171C63.4906 99.5171 69.1354 96.6364 72.3401 94.2523C69.3118 91.8883 68.711 88.7992 69.2718 86.4601C69.64 84.8975 70.5148 83.5024 71.7586 82.4943C73.0023 81.4862 74.5443 80.9225 76.1419 80.8919C76.5326 80.8922 76.9226 80.9258 77.3077 80.9924C78.1851 81.1048 79.0109 81.4715 79.6845 82.0476C80.3581 82.6237 80.8503 83.3844 81.101 84.2368C81.8552 86.8476 80.5554 90.3388 77.749 93.5303C81.1883 94.6556 86.0189 94.9786 91.9232 94.4692C99.4098 93.8173 104.648 91.6451 107.493 88.0108C109.165 85.8228 110.007 83.1085 109.871 80.3533C109.152 80.5249 108.415 80.612 107.677 80.6128C107.224 80.6123 106.772 80.5793 106.324 80.5141C97.4461 79.2035 97.1315 73.9338 97.2473 72.3497C97.5049 68.8103 100.494 65.8187 103.775 65.8187C104.465 65.8193 105.148 65.9508 105.788 66.2063C108.415 67.2494 111.104 71.2938 112.317 75.7592C117.046 72.2784 120.741 64.0817 120.866 56.2414C120.929 52.2877 120.074 45.1731 113.625 41.9232C112.947 41.5812 112.288 41.2682 111.648 40.9843C109.761 45.4564 106.774 48.4584 104.07 48.4584C103.266 48.4604 102.485 48.1909 101.852 47.6931C99.1636 45.5959 97.8202 42.0079 98.7271 39.3459C99.0818 38.3046 100.351 35.8851 104.46 35.8851C106.258 35.9362 108.037 36.2693 109.732 36.8722C110.823 32.489 111.672 23.056 101.884 15.8141C97.7905 12.7865 93.8492 11.4071 90.2402 11.7318C93.5018 16.8657 92.2851 20.9448 91.5255 22.5857C90.913 23.9779 89.9192 25.1665 88.6601 26.0127C87.401 26.8589 85.9284 27.3278 84.4141 27.3649C83.2461 27.3636 82.0948 27.0862 81.0531 26.5552C78.7663 25.4054 77.5878 23.0688 77.8194 20.1449C78.0988 16.6201 80.5681 12.3661 84.8476 10.1142C83.1479 8.52276 81.2746 7.12961 79.2634 5.96129C76.7559 4.44488 73.8843 3.64441 70.9578 3.64601C67.1186 3.69198 63.3861 4.92217 60.2654 7.17011C61.4221 8.4231 62.2235 9.96485 62.586 11.6348C62.9486 13.3048 62.859 15.0419 62.3266 16.6652C61.43 19.2852 59.4287 20.9753 57.2262 20.9753C55.9517 20.9408 54.7344 20.4361 53.8064 19.5575C53.1395 18.9814 52.6076 18.2644 52.2484 17.4577C51.8893 16.651 51.7118 15.7746 51.7287 14.891C51.7433 12.4417 53.0413 9.75166 55.345 7.30721C52.2671 5.69991 47.7214 5.11073 42.1397 5.62314C36.2111 6.16174 31.9152 8.8426 29.3738 13.5901C28.2098 15.7705 27.499 18.166 27.2847 20.6311C27.2847 20.6506 27.2847 20.6701 27.2811 20.692C31.5624 22.8915 33.8892 27.2339 33.6158 30.3863C33.5705 31.4032 33.1737 32.3723 32.4937 33.1267C31.8138 33.8811 30.8934 34.3735 29.891 34.5191C29.2849 34.6297 28.6706 34.6875 28.0546 34.6922C25.5084 34.6922 24.1625 33.5303 23.4811 32.556C21.6726 29.9678 22.4262 25.6936 23.3489 22.6246C20.2443 22.0202 16.7663 22.9348 13.1675 25.2939C8.2169 28.5372 5.11229 33.1172 4.19079 38.5374C3.24928 44.0715 4.68852 50.5202 7.8774 55.3768C9.66881 54.273 11.6559 53.5282 13.7289 53.1834C14.351 53.0742 14.9811 53.0182 15.6126 53.0158C20.1552 53.0158 22.5317 56.1037 22.5329 59.1544C22.5329 61.884 20.5238 64.6477 16.6844 64.6477C15.3823 64.62 14.0961 64.3535 12.8893 63.8611C10.7376 62.9614 8.82837 61.5625 7.31783 59.7789C3.97618 63.069 2.48419 68.1572 3.39903 73.4226C4.74005 81.1338 10.674 87.2224 19.6817 90.1305C22.6549 91.1448 25.766 91.6925 28.9052 91.7542C30.2037 91.762 31.4993 91.6292 32.7695 91.3582C31.3145 88.3014 31.0568 85.0825 32.1408 82.6143C32.6062 81.5486 33.3381 80.6221 34.2653 79.9249C35.1925 79.2278 36.2835 78.7836 37.4321 78.6357C40.5913 78.1355 43.1018 79.8494 43.6159 82.7843C44.1912 86.055 42.2191 90.4522 37.5273 92.946ZM76.1455 84.0321C75.248 84.0575 74.3844 84.382 73.6905 84.9545C72.9966 85.5271 72.5117 86.3152 72.3122 87.1949C71.8672 89.0472 72.759 90.8092 74.7717 92.1411C77.4932 89.3591 78.5238 86.5655 78.1061 85.113C77.9933 84.7206 77.7424 84.2521 76.7827 84.0863C76.5718 84.05 76.3582 84.0319 76.1443 84.0321H76.1455ZM38.561 81.6845C38.3473 81.6858 38.134 81.7039 37.9232 81.7388C37.2905 81.8041 36.6865 82.0371 36.1728 82.4141C35.6592 82.791 35.2544 83.2983 34.9999 83.8841C34.242 85.6083 34.5367 87.9998 35.7492 90.3346C39.5631 88.4641 40.8732 85.2227 40.5386 83.3321C40.5174 83.0929 40.4494 82.8602 40.3382 82.6476C40.2271 82.435 40.0751 82.2467 39.8911 82.0935C39.7071 81.9403 39.4947 81.8252 39.2662 81.7551C39.0377 81.6849 38.7976 81.6609 38.5598 81.6845H38.561ZM103.777 68.9614C102.129 68.9614 100.503 70.6863 100.365 72.5812C100.187 75.0183 102.526 76.778 106.78 77.4061C107.077 77.4498 107.378 77.4718 107.678 77.4719C108.282 77.4702 108.883 77.3841 109.464 77.216C108.5 73.0309 106.081 69.7011 104.641 69.1296C104.366 69.0188 104.072 68.9618 103.776 68.9614H103.777ZM9.81013 57.8688C10.9616 59.1923 12.3943 60.2388 14.0024 60.931C14.8545 61.283 15.7629 61.4772 16.6838 61.5044C18.6923 61.5044 19.4119 60.2858 19.4119 59.1507C19.4119 57.7061 18.2231 56.1512 15.615 56.1512C15.1605 56.1534 14.707 56.1941 14.2594 56.2731C12.6932 56.533 11.1862 57.0734 9.81013 57.8688ZM104.465 39.0291C102.924 39.0291 101.99 39.4787 101.687 40.3695C101.216 41.7501 102.172 43.971 103.772 45.22C103.857 45.2906 103.965 45.328 104.075 45.3254C105.115 45.3254 107.222 43.3922 108.738 39.8522C107.364 39.358 105.923 39.0804 104.465 39.0291ZM26.2814 23.7147C25.3265 26.9597 25.221 29.579 26.0389 30.7489C26.2814 31.0925 26.75 31.5507 28.0553 31.5507C28.4895 31.5464 28.9226 31.5042 29.3496 31.4246C29.6739 31.3984 29.9754 31.2465 30.1903 31.001C30.4053 30.7556 30.5168 30.4357 30.5015 30.1091C30.6524 28.3952 29.2265 25.4194 26.2814 23.7147ZM87.0095 12.5526C83.3332 14.1489 81.1507 17.6571 80.9337 20.3904C80.8433 21.5285 81.0337 23.0317 82.4493 23.7415C83.0565 24.0544 83.7287 24.2189 84.4111 24.2216C85.3306 24.1864 86.2212 23.8897 86.9794 23.3658C87.7377 22.8419 88.3323 22.1125 88.6943 21.2623C89.8668 18.735 89.2478 15.6057 87.0095 12.5526ZM57.8767 9.19659C55.9974 11.1091 54.8643 13.2179 54.854 14.9062C54.84 15.3406 54.9243 15.7725 55.1004 16.1694C55.2765 16.5663 55.5398 16.9179 55.8706 17.1977C56.232 17.567 56.7142 17.7923 57.228 17.832C58.0622 17.832 58.9255 16.951 59.3736 15.6386C59.7269 14.5291 59.7743 13.3441 59.5108 12.2097C59.2472 11.0753 58.6825 10.034 57.8767 9.19659Z" fill="white"/>
</svg>
