<svg width="38" height="39" viewBox="0 0 38 39" fill="none" xmlns="http://www.w3.org/2000/svg">
<path d="M36.2008 7.54393C35.0641 4.17606 32.8484 1.96299 29.259 1.43224C25.346 0.839034 21.3946 0.539062 17.4373 0.53479C13.9152 0.53479 10.4507 0.763172 7.0886 1.87936C5.60374 2.33751 4.24621 3.13836 3.12457 4.21788C1.82458 5.50455 1.57482 7.18366 1.3795 8.8692C0.991042 12.1227 0.768743 15.3941 0.713488 18.6704C0.675064 22.45 0.841582 26.2135 1.61005 29.9288C1.99749 31.8138 2.58665 33.5958 4.11078 34.8986C5.54846 36.1306 7.28072 36.6806 9.09303 37.0055C12.3634 37.5782 15.6693 37.9222 18.9871 38.0348C22.9735 38.1828 26.9311 38.0027 30.7927 36.8704C34.1259 35.9054 35.8742 33.6055 36.3449 30.2119C36.5786 28.5263 36.6267 26.8311 36.7484 25.1392C36.9597 22.1509 37.2703 19.169 37.2895 16.1711C37.3119 13.2568 37.1454 10.3424 36.2008 7.54393ZM27.9109 26.1235C26.2139 28.3751 24.0686 29.9031 21.2733 30.437C18.3659 30.9903 15.6923 30.3309 13.1467 28.9091C11.7751 28.0995 10.5371 27.0805 9.47725 25.8886C8.83686 25.2228 8.60953 24.2449 8.34376 23.3475C7.95651 22.085 7.76641 20.7698 7.78021 19.4489C7.84425 15.666 9.12824 12.4719 12.263 10.2073C14.4402 8.61701 17.1203 7.87931 19.8004 8.13259C23.6011 8.43817 26.6238 10.1655 28.625 13.4658C29.7749 15.407 30.3213 17.649 30.1941 19.9043C30.0669 22.1596 29.2718 24.3253 27.9109 26.1235ZM30.4725 10.5612C29.0828 10.5901 27.5427 8.99787 27.5075 7.49568C27.4723 5.99349 28.737 4.81297 30.5013 4.76472C32.2656 4.71647 33.556 5.84874 33.5944 7.44421C33.6328 9.03968 32.1599 10.5194 30.4661 10.5547L30.4725 10.5612Z" fill="url(#paint0_radial_342_1872)"/>
<path d="M19.3968 26.9818C16.736 26.7823 14.4754 25.219 12.9929 22.5653C11.5968 20.0659 11.6929 17.4186 13.3131 15.1476C15.5544 11.9888 19.1694 10.7343 22.7364 13.8609C24.5823 15.4195 25.7505 17.6397 25.9928 20.0498C26.377 23.7168 23.4953 26.9689 19.3968 26.9818Z" fill="url(#paint1_radial_342_1872)"/>
<defs>
<radialGradient id="paint0_radial_342_1872" cx="0" cy="0" r="1" gradientUnits="userSpaceOnUse" gradientTransform="translate(10.4258 40.9711) rotate(-90) scale(37.2094 36.2565)">
<stop stop-color="#FFDD55"/>
<stop offset="0.1" stop-color="#FFDD55"/>
<stop offset="0.5" stop-color="#FF543E"/>
<stop offset="1" stop-color="#C837AB"/>
</radialGradient>
<radialGradient id="paint1_radial_342_1872" cx="0" cy="0" r="1" gradientUnits="userSpaceOnUse" gradientTransform="translate(15.7381 28.1316) rotate(-90) scale(14.7952 13.8856)">
<stop stop-color="#FFDD55"/>
<stop offset="0.1" stop-color="#FFDD55"/>
<stop offset="0.5" stop-color="#FF543E"/>
<stop offset="1" stop-color="#C837AB"/>
</radialGradient>
</defs>
</svg>
