<svg width="39" height="39" viewBox="0 0 39 39" fill="none" xmlns="http://www.w3.org/2000/svg">
<path d="M37.233 7.27733C36.0523 3.77896 33.7507 1.48013 30.0222 0.928806C25.9576 0.312616 21.8531 0.00101982 17.7425 -0.00341797C14.0838 -0.00341797 10.485 0.233814 6.9927 1.39326C5.4503 1.86916 4.04016 2.70105 2.87506 3.8224C1.52469 5.15893 1.26526 6.9031 1.06237 8.65396C0.658856 12.0335 0.427942 15.4317 0.370546 18.835C0.330634 22.7611 0.503604 26.6704 1.30185 30.5296C1.7043 32.4877 2.31629 34.3388 3.89949 35.692C5.39288 36.9717 7.19227 37.5431 9.07481 37.8806C12.4719 38.4755 15.9059 38.8328 19.3523 38.9498C23.4932 39.1035 27.6042 38.9164 31.6154 37.7402C35.0778 36.7378 36.8938 34.3488 37.3827 30.8237C37.6255 29.0728 37.6754 27.3119 37.8018 25.5544C38.0213 22.4503 38.344 19.3529 38.3639 16.2388C38.3872 13.2115 38.2142 10.1843 37.233 7.27733ZM28.6219 26.5769C26.8591 28.9158 24.6307 30.5029 21.7271 31.0576C18.707 31.6323 15.9298 30.9473 13.2856 29.4704C11.8608 28.6294 10.5749 27.571 9.47392 26.3329C8.80871 25.6413 8.57257 24.6255 8.2965 23.6933C7.89425 22.3819 7.69677 21.0158 7.71112 19.6436C7.77764 15.7142 9.11138 12.3962 12.3676 10.044C14.6292 8.392 17.4131 7.62571 20.1971 7.8888C24.1451 8.20623 27.2849 10.0005 29.3636 13.4287C30.5581 15.4451 31.1257 17.774 30.9936 20.1167C30.8614 22.4594 30.0355 24.709 28.6219 26.5769ZM31.2828 10.4115C29.8393 10.4416 28.2394 8.78761 28.2029 7.22721C28.1663 5.66681 29.4801 4.44055 31.3127 4.39043C33.1454 4.34031 34.4857 5.51645 34.5256 7.17375C34.5656 8.83105 33.0356 10.3681 31.2761 10.4048L31.2828 10.4115Z" fill="url(#paint0_radial_342_10814)"/>
<path d="M19.7776 27.4688C17.0137 27.2617 14.6655 25.6378 13.1255 22.8812C11.6754 20.285 11.7752 17.5351 13.4581 15.1761C15.7864 11.8949 19.5415 10.5918 23.2467 13.8395C25.1641 15.4585 26.3776 17.7648 26.6293 20.2683C27.0284 24.0774 24.035 27.4555 19.7776 27.4688Z" fill="url(#paint1_radial_342_10814)"/>
<defs>
<radialGradient id="paint0_radial_342_10814" cx="0" cy="0" r="1" gradientUnits="userSpaceOnUse" gradientTransform="translate(10.4592 41.9998) rotate(-90) scale(38.6514 37.6614)">
<stop stop-color="#FFDD55"/>
<stop offset="0.1" stop-color="#FFDD55"/>
<stop offset="0.5" stop-color="#FF543E"/>
<stop offset="1" stop-color="#C837AB"/>
</radialGradient>
<radialGradient id="paint1_radial_342_10814" cx="0" cy="0" r="1" gradientUnits="userSpaceOnUse" gradientTransform="translate(15.9771 28.6632) rotate(-90) scale(15.3685 14.4237)">
<stop stop-color="#FFDD55"/>
<stop offset="0.1" stop-color="#FFDD55"/>
<stop offset="0.5" stop-color="#FF543E"/>
<stop offset="1" stop-color="#C837AB"/>
</radialGradient>
</defs>
</svg>
