<svg width="315" height="547" viewBox="0 0 315 547" fill="none" xmlns="http://www.w3.org/2000/svg">
<g opacity="0.2">
<path fill-rule="evenodd" clip-rule="evenodd" d="M178.807 15.2567C172.892 10.9952 127.79 -6.78849 107.066 3.57357C93.6394 10.2864 82.5631 19.6147 73.8074 31.289C56.7941 53.9732 71.3917 85.0853 59.9501 107.969C49.2973 129.274 19.2264 124.82 7.29008 160.628C1.25729 178.726 35.4002 226.346 39.6248 247.47C41.8025 258.356 46.2918 278.282 42.397 289.967C40.8152 294.711 35.0547 308.542 37.7776 313.987C41.3427 321.118 49.965 324.504 53.4829 331.54C60.3783 345.331 51.0904 367.618 54.4064 384.2C61.956 421.945 104.043 527.733 140.325 545.873C156.308 553.866 156.176 495.405 157.878 488.595C165.709 457.271 178.316 427.47 197.603 401.753C221.55 369.824 246.111 358.777 260.426 315.835C268.102 292.803 231.553 250.709 241.025 231.765C265.055 183.703 327.323 162.019 312.555 88.1756C306.665 58.7273 294.293 31.3936 264.121 41.4513C252.473 45.3338 233.822 55.988 220.7 51.6135C208.925 47.6886 196.412 44.8932 191.137 34.0604C189.459 30.6158 183.191 18.4154 178.807 15.2567Z" fill="#C4F1DB"/>
<path d="M24.725 264.578C24.3059 263.201 23.8567 261.971 23.4778 260.719C23.2065 259.822 22.794 258.882 22.8524 257.988C23.0593 254.823 22.0143 252.012 20.5388 249.355C19.1514 246.857 17.5338 244.486 16.0237 242.056C15.8911 241.843 15.681 241.579 15.7165 241.375C16.057 239.42 14.7992 238.031 14.088 236.429C13.56 235.239 13.3546 233.909 12.9499 232.66C12.7433 232.022 12.3253 231.447 12.1585 230.803C11.7406 229.19 11.4877 227.531 11.0181 225.935C10.736 224.976 10.1658 224.103 9.73625 223.186C9.52184 222.729 9.24222 222.277 9.14793 221.792C8.80859 220.048 8.37345 218.342 8.1866 216.54C7.96251 214.38 6.62122 212.361 6.10772 210.199C5.506 207.666 3.51656 205.679 3.5795 202.859C3.60659 201.645 2.59838 200.444 2.32617 199.18C1.86636 197.045 0.445977 195.139 0.879861 192.77C0.98892 192.174 0.504812 191.485 0.367537 190.823C0.291516 190.457 0.316765 190.049 0.388619 189.677C0.534078 188.925 0.853207 188.191 0.898089 187.438C0.961402 186.375 0.838365 185.315 1.73117 184.481C1.92025 184.305 2.06027 183.9 1.99798 183.658C1.51116 181.768 2.601 180.142 2.90165 178.395C3.20564 176.629 4.06922 174.965 4.57622 173.224C4.99384 171.791 5.19316 170.294 5.59522 168.854C5.8542 167.927 6.25576 167.03 6.68079 166.162C7.36879 164.756 8.12844 163.386 8.85848 162.002C8.9178 161.889 9.03735 161.778 9.03562 161.668C8.99092 158.825 11.4152 157.647 13.0878 156.149C14.1843 155.167 15.1778 154.227 16.1398 153.088C17.6197 151.337 19.6047 149.98 21.4961 148.624C22.3219 148.032 23.4681 147.905 24.4273 147.475C25.0835 147.18 25.726 146.794 26.274 146.33C28.4104 144.523 30.8199 142.918 32.5402 140.767C34.7899 137.955 37.3818 135.5 39.7049 132.791C40.4337 131.942 41.1317 131.224 41.9968 130.519C43.045 129.665 43.6207 128.256 44.587 127.27C45.8107 126.021 47.0594 124.887 46.6284 122.892C46.5838 122.685 46.7574 122.403 46.8879 122.191C47.9421 120.483 49.0101 118.784 50.0751 117.082C50.0985 117.045 50.168 117.007 50.162 116.984C49.6969 115.169 50.6351 113.62 51.3079 112.123C52.6532 109.13 51.3671 105.898 52.2374 103.051C52.8536 101.036 52.1984 98.756 53.6803 96.9465C54.056 96.4877 54.0356 95.5854 53.9707 94.9087C53.813 93.2635 54.3085 91.8596 55.0529 90.4158C55.7816 89.0024 56.3501 87.4811 56.9015 85.9798C57.4184 84.5726 58.7327 83.4433 58.3917 81.6808C60.0596 79.7701 59.2686 77.4475 59.4862 75.2894C59.5488 74.669 59.8307 74.0702 60.0159 73.4627C60.1021 73.1798 60.3286 72.8669 60.2677 72.6235C59.796 70.7361 60.8709 69.1075 61.1809 67.363C61.3695 66.302 62.2884 65.3797 62.8321 64.3697C63.211 63.6659 63.5201 62.9235 63.8419 62.1902C64.1297 61.5346 64.5519 60.8871 64.6339 60.2023C64.8344 58.5284 66.145 57.612 66.922 56.3383C68.2094 54.2279 70.0354 52.6943 71.624 50.9063C72.0613 50.4141 72.2707 49.7225 72.6006 49.1312C74.2125 46.242 75.8468 43.3652 77.4332 40.4622C77.8348 39.7271 78.0421 38.8874 78.4271 38.1414C78.7405 37.5342 79.0593 36.7427 79.5966 36.4733C81.2017 35.6682 82.128 34.2293 83.2781 32.9934C83.3689 32.8959 83.5121 32.8038 83.5331 32.6909C83.9875 30.2568 86.0773 29.7393 87.9085 28.8807C88.4491 28.6273 88.9439 28.1877 89.3398 27.7298C90.7449 26.1044 92.4672 24.9878 94.4685 24.2399C94.8983 24.0793 95.3175 23.7413 95.6059 23.3775C96.845 21.8138 98.4572 21.0554 100.413 20.7913C101.038 20.707 101.577 20.1105 102.195 19.8352C104.773 18.6859 107.357 17.5487 109.957 16.4519C110.966 16.0264 112.033 15.742 113.058 15.351C113.687 15.1111 114.282 14.7861 114.897 14.5079C116.893 13.604 118.878 12.672 120.9 11.8287C121.327 11.6506 121.898 11.7538 122.393 11.8112C124.652 12.0736 126.674 11.4725 128.645 10.3746C130.133 9.54524 131.74 9.51412 133.249 10.4935C133.324 10.542 133.397 10.6871 133.441 10.6753C135.659 10.0741 137.353 12.1793 139.553 11.8448C140.165 11.7517 140.855 12.164 141.507 12.3532C141.627 12.3879 141.728 12.4951 141.848 12.5179C143.497 12.8319 145.149 13.1359 146.799 13.4449C147.264 13.5318 147.849 13.4798 148.168 13.7449C149.189 14.5918 150.348 14.6666 151.543 14.5259C153.364 14.3114 155.001 14.7316 156.535 15.7043C156.884 15.9259 157.318 16.1714 157.702 16.1556C159.918 16.0652 161.538 17.2186 163.181 18.496C164.807 19.7609 166.59 20.8241 168.279 22.0117C168.715 22.3185 169.059 22.7579 169.441 23.1407C170.116 23.8173 170.812 24.4755 171.456 25.1807C172.55 26.3773 173.919 27.3079 174.491 28.9843C175.206 31.0804 177.083 32.3188 178.506 33.8918C178.954 34.3866 179.207 35.0546 179.566 35.6328C179.816 36.0344 180.012 36.5381 180.375 36.7872C181.498 37.5577 182.817 38.0831 183.827 38.9694C185.593 40.5198 187.18 42.2743 188.855 43.9299C189.39 44.4588 189.989 44.9231 190.52 45.456C191.714 46.6546 192.894 47.8674 194.055 49.0975C194.379 49.4404 194.605 49.8735 194.897 50.2489C195.891 51.5264 196.806 52.8823 197.928 54.0357C198.55 54.6755 199.581 54.8962 200.325 55.4454C201.042 55.9747 201.749 56.6031 202.233 57.3377C202.664 57.9931 203.015 58.3899 203.865 58.3325C204.772 58.2712 205.591 58.3144 206.496 58.9548C207.199 59.4531 208.51 59.0435 209.539 59.151C210.205 59.2204 210.847 59.5029 211.504 59.6738C211.918 59.7814 212.338 59.9285 212.758 59.9379C214.216 59.9704 215.678 59.9108 217.134 59.9712C217.67 59.9934 218.279 60.1302 218.71 60.4252C220.202 61.4445 221.716 61.2844 223.155 60.5009C224.573 59.7296 225.779 59.7328 227.185 60.5943C228.448 61.3676 229.783 62.0292 231.442 61.908C233.755 61.7389 236.089 61.875 238.414 61.8615C239.635 61.8543 240.844 62.0231 241.988 61.2126C242.486 60.8595 243.478 61.2489 244.043 60.9358C247.522 59.0071 251.257 60.2273 254.86 60.0249C256.08 59.9563 257.346 60.7663 258.598 61.15C259.45 61.4109 260.315 61.8172 261.175 61.8183C262.285 61.8198 263.197 62.1366 264.124 62.6751C266.232 63.8999 268.511 64.7402 270.345 66.5295C274.057 70.1495 277.851 73.7209 281.915 76.9279C283.628 78.2798 285.208 79.7361 286.831 81.1679C287.624 81.8677 288.056 82.6733 287.893 83.7405C287.759 84.6207 288.27 85.1733 288.711 85.8754C289.812 87.6266 291.388 89.1003 291.769 91.3112C291.98 92.5324 292.722 93.6522 293.072 94.8617C293.523 96.4181 293.979 98.0029 294.139 99.6048C294.275 100.956 294.905 102.024 295.405 103.199C295.768 104.051 296.011 105 296.073 105.921C296.179 107.51 296.093 109.111 296.106 110.707C296.113 111.538 295.893 112.409 296.761 113.057C296.978 113.218 296.833 113.817 296.932 114.194C297.147 115.013 297.409 115.819 297.658 116.628C297.77 116.991 298.035 117.366 297.994 117.707C297.786 119.483 298.694 120.86 299.474 122.307C299.667 122.666 299.656 123.163 299.65 123.596C299.628 125.138 299.538 126.675 300.541 128.023C300.726 128.272 300.739 128.685 300.744 129.024C300.765 130.483 300.748 131.942 300.757 133.401C300.759 133.707 300.703 134.108 300.867 134.304C302.054 135.72 301.636 137.408 301.507 138.937C301.392 140.288 300.701 141.59 300.269 142.916C300.06 143.559 299.649 144.224 299.7 144.848C299.837 146.528 299.245 147.897 298.358 149.243C298.095 149.643 298.039 150.233 298.032 150.737C298 153.153 297.991 155.571 298.028 157.986C298.048 159.319 297.953 160.551 297.252 161.782C296.854 162.481 296.863 163.515 296.956 164.369C297.127 165.925 296.709 167.322 296.093 168.679C294.61 171.941 293.136 175.21 291.529 178.412C291.013 179.441 290.154 180.326 289.341 181.17C288.098 182.461 287.013 183.788 287.075 185.711C287.076 185.756 287.095 185.825 287.072 185.844C285.504 187.216 285.161 189.145 284.715 191.025C284.577 191.609 284.277 192.231 284.373 192.779C284.694 194.594 283.71 195.97 282.951 197.405C282.451 198.351 281.743 199.185 281.138 200.077C280.997 200.286 280.807 200.52 280.797 200.75C280.65 204.185 277.989 206.509 276.899 209.539C276.419 210.873 275.333 211.983 274.573 213.226C274.36 213.574 274.178 214.061 274.244 214.439C274.496 215.872 273.713 216.719 272.855 217.726C271.122 219.758 270.046 222.082 269.443 224.8C268.955 226.998 269.309 229.318 268.626 231.285C267.372 234.903 268.12 238.488 268.003 242.068C267.945 243.851 267.193 245.203 266.541 246.69C266.304 247.229 266.115 247.808 266.022 248.387C265.635 250.808 266.336 253.089 267.147 255.303C267.474 256.196 268.344 256.875 268.842 257.724C269.602 259.018 269.976 260.52 271.24 261.544C271.604 261.839 271.534 262.67 271.663 263.255C271.876 264.215 272.001 265.206 272.325 266.128C272.728 267.277 273.307 268.364 273.785 269.489C273.966 269.915 274.186 270.369 274.196 270.814C274.226 272.089 274.376 273.264 274.862 274.511C275.31 275.658 274.962 277.1 275.058 278.406C275.104 279.03 275.342 279.647 275.536 280.253C276.107 282.038 276.969 283.73 276.993 285.684C277 286.26 277.447 286.854 277.764 287.398C278.578 288.798 279.436 290.172 280.267 291.561C280.374 291.74 280.428 291.95 280.509 292.144C281.508 294.545 281.764 297.044 281.639 299.626C281.606 300.307 282.011 301.007 282.202 301.701C282.293 302.031 282.442 302.379 282.409 302.702C282.215 304.605 282.809 306.519 281.704 308.44C281.133 309.434 281.668 311.031 281.576 312.347C281.531 313.004 281.233 313.654 280.992 314.285C280.519 315.523 280.529 316.937 280.112 318.076C279.524 319.679 280.337 321.651 278.684 322.982C278.144 323.418 278.01 324.41 277.795 325.178C277.676 325.6 277.927 326.406 277.75 326.491C275.42 327.6 276.789 330.358 275.322 331.822C275.226 331.918 275.288 332.164 275.258 332.337C274.913 334.291 274.579 336.247 274.208 338.196C274.098 338.775 273.892 339.338 273.706 339.901C273.64 340.098 273.39 340.288 273.414 340.454C273.62 341.887 272.74 343.031 272.467 344.29C272.082 346.061 271.09 347.48 270.509 349.109C269.972 350.616 269.447 352.147 268.698 353.55C268.342 354.217 267.441 354.573 266.85 355.137C265.993 355.955 265.077 356.752 264.398 357.708C263.568 358.878 262.92 360.068 261.436 360.674C260.756 360.951 260.366 362.005 259.909 362.747C259.107 364.05 258.321 365.366 257.596 366.713C257.3 367.263 257.19 367.91 256.98 368.508C256.84 368.905 256.769 369.386 256.499 369.667C255.229 370.991 254.7 372.586 254.112 374.305C253.637 375.694 251.97 376.677 250.825 377.833C249.873 378.794 248.906 379.741 247.957 380.705C247.476 381.194 247.066 381.762 246.544 382.199C245.746 382.866 244.833 383.399 244.053 384.084C242.817 385.168 241.434 385.85 239.799 386.057C239.482 386.097 239.127 386.275 238.898 386.5C236.593 388.773 234.309 391.066 232.025 393.36C231.841 393.544 231.538 393.798 231.566 393.975C231.839 395.669 230.505 396.409 229.607 397.42C227.881 399.361 225.522 400.783 224.658 403.439C224.595 403.632 224.376 403.85 224.183 403.914C221.105 404.933 219.201 407.5 217.396 409.813C215.305 412.492 212.832 414.807 210.811 417.476C209.605 419.069 208.573 421.038 208.485 423.346C208.422 424.996 207.587 426.605 207.217 428.259C206.997 429.241 207.078 430.288 206.899 431.283C206.75 432.109 206.357 432.889 206.184 433.714C205.997 434.609 205.8 435.539 205.854 436.439C205.976 438.473 205.014 439.975 203.888 441.533C203.141 442.568 202.8 443.897 202.268 445.089C201.769 446.205 201.229 447.303 200.764 448.433C200.556 448.94 200.499 449.507 200.351 450.04C200.182 450.653 199.973 451.254 199.813 451.868C199.694 452.324 199.55 452.793 199.546 453.258C199.521 455.902 199.429 458.552 199.568 461.189C199.675 463.224 198.976 464.872 197.997 466.581C197.317 467.767 196.611 469.012 196.718 470.595C196.776 471.452 196.084 472.402 195.61 473.241C194.875 474.542 194.037 475.784 193.241 477.05C193.104 477.268 193.003 477.617 192.814 477.675C191.113 478.197 191.012 479.91 190.272 481.113C189.435 482.474 188.567 483.907 188.178 485.428C187.66 487.449 186.311 489.244 186.643 491.523C186.904 493.311 185.797 494.68 184.856 496.106C183.88 497.584 183.136 499.216 182.304 500.787C182.147 501.083 182.111 501.457 181.914 501.716C180.938 503.006 179.536 504.128 179.011 505.573C178.053 508.21 175.441 509.427 174.322 511.953C172.607 515.828 168.72 517.963 166.097 521.14C164.298 523.32 162.699 525.664 160.944 527.882C160.337 528.649 159.632 529.453 158.791 529.892C157.425 530.605 156.314 531.495 155.474 532.775C155.301 533.04 154.958 533.255 154.649 533.359C152.85 533.969 151.425 535.334 149.349 535.503C147.966 535.615 146.689 536.727 145.299 537.202C144.566 537.452 143.684 537.222 142.887 537.336C139.765 537.782 137.233 536.41 134.769 534.793C134.731 534.768 134.697 534.697 134.672 534.702C132.677 535.123 131.721 533.243 130.177 532.669C129.98 532.596 129.758 532.516 129.621 532.37C126.03 528.536 121.275 525.98 117.991 521.824C116.052 519.37 114.238 516.817 112.368 514.309C112.341 514.273 112.27 514.235 112.276 514.214C112.812 512.341 111.632 510.823 111.124 509.212C109.535 504.164 110.759 499.021 110.353 493.943C110.332 493.673 110.427 493.202 110.325 493.158C108.627 492.427 109.153 490.668 108.603 489.422C108.475 489.132 108.726 488.491 109.007 488.239C110.125 487.232 110.897 486.398 109.61 484.815C109.119 484.212 109.539 482.874 109.528 481.871C109.512 480.344 109.595 478.877 108.703 477.411C108.191 476.57 108.648 475.197 108.402 474.126C108.014 472.442 107.845 470.684 106.533 469.278C105.779 468.471 105.407 467.303 104.882 466.289C103.736 464.074 102.601 461.854 101.468 459.632C101.392 459.484 101.306 459.297 101.333 459.147C101.683 457.198 100.505 455.78 99.7057 454.205C99.2135 453.236 99.0829 452.076 98.5583 451.131C97.6975 449.579 97.2977 447.988 97.4823 446.232C97.5026 446.039 97.3727 445.828 97.3047 445.627C96.8438 444.27 96.174 442.974 95.6252 441.674C94.9433 440.058 93.2678 438.87 92.059 437.465C91.4564 436.764 90.9283 435.998 90.387 435.247C90.2421 435.046 90.2145 434.757 90.0615 434.565C88.8808 433.089 87.6413 431.658 86.5062 430.148C85.897 429.338 85.4916 428.378 84.9333 427.525C84.2945 426.549 83.7013 425.503 82.8835 424.695C81.766 423.591 80.9713 422.355 80.4859 420.884C80.4078 420.647 80.2797 420.299 80.0995 420.242C77.3162 419.374 76.7304 416.377 74.7798 414.64C73.4456 413.451 72.4677 411.875 70.8188 410.787C69.1292 409.672 68.2281 407.478 66.0561 406.823C65.86 406.764 65.696 406.59 65.5247 406.458C64.3471 405.558 63.285 404.394 61.9661 403.818C60.3616 403.117 59.4262 401.783 58.1662 400.765C56.7815 399.647 55.1427 398.791 53.9417 397.513C52.8244 396.324 52.1423 394.728 51.2575 393.318C51.028 392.952 50.7614 392.61 50.5043 392.262C49.7554 391.249 49.003 390.239 48.2513 389.228C48.199 389.158 48.1563 389.06 48.0851 389.027C46.0706 388.106 45.4357 385.661 43.6431 384.707C41.6575 383.651 40.5544 381.717 38.776 380.608C35.7921 378.746 34.6422 375.726 33.1816 372.841C32.7368 371.963 32.0692 371.17 31.39 370.444C30.7025 369.71 30.1276 369.088 30.1244 367.921C30.1221 367.07 29.6162 366.087 29.0448 365.406C28.3665 364.598 28.1243 363.755 28.3082 362.837C28.5767 361.499 27.8813 360.429 27.4015 359.368C26.2709 356.868 24.9284 354.464 23.6685 352.022C23.5517 351.796 23.4581 351.529 23.2763 351.369C20.7365 349.13 19.9879 346.222 20.0676 342.979C20.1067 341.384 20.1784 339.778 20.0394 338.195C19.9392 337.053 19.7986 335.977 20.0143 334.804C20.204 333.772 20.2972 332.822 20.8366 331.84C21.4537 330.716 21.5755 329.33 22.0052 328.091C22.3352 327.138 22.8067 326.235 23.2194 325.312C23.3742 324.966 23.5896 324.638 23.6931 324.278C24.0569 323.013 24.3606 321.729 24.7387 320.468C24.8577 320.072 25.13 319.719 25.3478 319.355C26.0481 318.185 26.6467 316.933 27.487 315.874C28.6611 314.393 29.1783 312.838 29.5668 310.947C29.9974 308.851 31.1741 306.886 31.0201 304.605C31.0082 304.429 30.9699 304.189 31.063 304.082C32.6634 302.245 31.9984 300.025 32.0983 297.945C32.1661 296.535 32.0406 295.114 32.1362 293.707C32.1995 292.776 32.5018 291.861 32.6963 290.939C32.7759 290.561 32.9513 290.174 32.9158 289.807C32.7103 287.678 33.546 285.43 32.1411 283.422C31.927 283.116 32.1865 282.515 32.092 282.079C31.9772 281.55 31.827 280.967 31.5035 280.556C30.4527 279.22 29.4772 277.892 29.3431 276.098C29.3121 275.684 28.9005 275.28 28.6169 274.907C27.5039 273.444 26.425 271.965 26.6447 269.98C26.8373 268.24 25.6347 267.025 25.0446 265.579C24.9286 265.295 24.8311 265.003 24.725 264.578ZM23.4939 215.062C24.4549 215.815 24.8683 216.767 24.7557 218.014C24.7133 218.483 24.9564 219.014 25.1757 219.465C26.8521 222.913 28.7089 226.297 28.3001 230.354C28.2257 231.092 28.2511 231.903 28.4834 232.596C28.9643 234.03 29.6273 235.402 30.1938 236.808C31.385 239.766 33.1808 242.361 35.0245 244.93C35.2711 245.273 35.5102 245.641 35.6572 246.034C36.0862 247.179 36.4036 248.37 36.8865 249.491C37.2705 250.382 37.8947 251.168 38.2994 252.052C38.6838 252.893 39.0154 253.78 39.2049 254.682C39.6305 256.706 39.9503 258.753 40.3232 260.788C40.3605 260.992 40.448 261.193 40.5438 261.379C41.3764 262.995 42.3296 264.561 43.022 266.234C43.7144 267.908 44.2116 269.672 44.6753 271.428C45.0478 272.838 45.2209 274.3 45.5311 275.729C45.6089 276.087 45.9072 276.392 46.045 276.744C46.26 277.294 46.4366 277.86 46.6056 278.426C46.7033 278.754 46.7387 279.099 46.8289 279.429C47.2984 281.148 48.23 282.883 48.165 284.58C47.9842 289.3 48.7404 294.002 47.5938 298.78C46.8893 301.716 47.3053 304.932 45.5307 307.667C45.4473 307.796 45.5054 308.025 45.5178 308.205C45.6475 310.087 44.6132 311.66 44.164 313.387C44.0336 313.889 44.0935 314.44 44.0661 314.969C44.5653 314.889 45.1324 314.934 45.5515 314.707C47.0005 313.92 48.3669 313.109 50.1601 313.237C52.292 313.389 54.4444 313.229 56.5849 313.299C57.2407 313.32 57.9479 313.545 58.5234 313.869C59.6422 314.499 60.5993 315.521 61.7787 315.912C63.4681 316.473 64.1327 317.73 64.9931 319.064C65.7848 320.291 66.8848 321.47 68.1245 322.206C68.9886 322.72 70.2424 322.467 68.5043 323.543C68.3531 323.637 68.2243 323.917 68.2369 324.1C68.3039 325.073 67.6723 325.044 67.002 325.04C65.0417 325.028 63.0796 325.086 61.1215 325.019C59.7196 324.971 58.3867 324.619 56.9054 324.953C55.5382 325.262 54.2282 325.065 53.0263 326.286C51.9029 327.427 50.1441 327.913 48.8295 328.905C47.92 329.592 47.1648 330.572 46.5655 331.558C45.7355 332.924 45.2126 334.475 44.3859 335.843C43.0342 338.079 42.1739 340.445 41.9548 343.048C41.9372 343.256 41.9141 343.517 41.7867 343.655C40.9268 344.584 41.1494 345.722 41.1429 346.811C41.1296 349.045 41.1663 351.279 41.1245 353.513C41.1093 354.326 41.4408 354.87 41.8761 355.545C42.7125 356.842 43.2846 358.324 43.8553 359.773C44.2729 360.833 44.2976 362.097 44.8809 363.031C45.8276 364.546 47.0642 365.886 48.2221 367.263C50.3311 369.771 52.4598 372.262 54.6073 374.737C55.223 375.447 55.9712 376.041 56.5893 376.749C57.9765 378.337 60.0096 379.383 60.6625 381.602C60.7416 381.871 61.0812 382.074 61.3214 382.282C64.2923 384.867 66.5638 388.174 70.0283 390.284C71.5001 391.18 72.4313 392.922 73.7521 394.121C74.9285 395.189 76.3133 396.025 77.5835 396.993C77.8834 397.222 78.0845 397.577 78.3452 397.861C80.7366 400.465 83.0935 403.103 85.5532 405.641C86.1105 406.216 87.0884 406.358 87.7684 406.845C90.1405 408.544 91.3725 411.352 93.7384 413.071C93.8332 413.14 93.8698 413.287 93.9376 413.395C94.3231 414.011 94.6365 414.691 95.1126 415.226C95.9089 416.121 97.0304 416.797 96.6918 418.284C96.6453 418.489 96.8315 418.764 96.9503 418.985C97.712 420.403 98.6237 421.759 99.2255 423.24C100.48 426.329 102.753 428.672 104.784 431.189C105.91 432.585 107.465 433.684 108.378 435.189C109.793 437.524 110.761 440.125 112.047 442.545C112.696 443.767 112.82 445.083 113.211 446.318C113.644 447.686 113.744 449.086 114.145 450.432C114.17 450.515 114.146 450.617 114.184 450.689C116.086 454.291 118.192 457.762 118.68 461.994C118.813 463.145 119.422 464.35 119.397 465.635C119.393 465.808 119.655 465.973 119.752 466.164C121.012 468.659 122.242 471.154 122.13 474.076C122.081 475.334 121.852 476.65 122.827 477.757C123.014 477.97 122.931 478.443 122.931 478.796C122.937 483.081 122.903 487.367 122.966 491.652C122.977 492.38 123.37 493.112 123.627 493.828C124.296 495.692 125.456 497.524 125.557 499.415C125.694 502.003 126.574 503.966 128.353 505.688C128.759 506.081 129.26 506.522 129.393 507.026C130.173 509.978 132.638 511.783 134.217 514.183C134.766 515.017 136.083 515.308 136.793 516.081C138.933 518.41 141.667 518.271 144.423 518.165C144.58 518.16 144.747 518.06 144.884 517.967C145.775 517.361 146.75 516.842 147.527 516.114C149.388 514.368 151.178 512.544 152.942 510.699C153.299 510.325 153.28 509.555 153.661 509.248C155.245 507.97 156.746 506.733 156.902 504.449C156.953 503.702 157.457 502.948 157.872 502.27C159.388 499.791 160.937 497.332 162.518 494.895C162.795 494.467 163.238 494.088 163.689 493.842C165.495 492.859 166.939 491.638 167.851 489.675C168.684 487.882 169.213 485.995 169.916 484.233C170.694 482.283 169.947 480.186 171.23 478.317C171.804 477.48 171.506 475.82 172.157 474.63C172.374 474.235 172.338 473.708 172.455 473.251C172.779 471.974 172.933 470.609 173.503 469.45C174.365 467.696 175.618 466.138 176.526 464.404C177.404 462.727 178.314 461.007 177.939 458.964C177.852 458.495 177.8 457.87 178.034 457.517C179.127 455.867 178.75 453.845 179.535 452.112C180.203 450.636 180.977 449.135 180.72 447.402C180.712 447.348 180.831 447.26 180.906 447.212C181.824 446.62 181.351 446.022 181.024 445.309C180.808 444.837 180.766 444.146 180.944 443.664C181.264 442.8 182.045 442.064 182.214 441.194C182.624 439.087 183.213 437.069 184.216 435.174C184.474 434.687 184.939 434.237 185.003 433.731C185.253 431.755 185.916 429.935 186.8 428.174C186.893 427.989 186.979 427.744 186.938 427.556C186.501 425.54 187.475 423.871 188.39 422.274C189.312 420.664 189.904 419.06 189.695 417.196C189.666 416.947 189.69 416.638 189.815 416.433C190.858 414.718 191.948 413.032 192.99 411.316C193.917 409.79 194.715 408.179 195.723 406.71C197.41 404.252 197.425 400.863 200.076 398.953C200.164 398.89 200.162 398.714 200.234 398.614C200.97 397.595 201.648 396.524 202.472 395.582C203.43 394.486 204.454 393.426 205.568 392.494C206.717 391.532 207.987 390.709 209.245 389.887C210.636 388.977 212.184 388.272 213.459 387.227C214.628 386.268 215.65 385.156 216.367 383.676C217.293 381.767 218.972 380.222 219.892 378.312C220.956 376.103 222.618 374.505 224.323 372.914C225.935 371.409 227.67 370.034 229.39 368.651C230.193 368.005 231.145 367.542 231.924 366.873C232.772 366.146 233.592 365.347 234.255 364.454C235.355 362.975 236.273 361.361 237.361 359.873C237.968 359.042 238.799 358.38 239.465 357.589C240.333 356.558 241.165 355.494 241.958 354.405C242.458 353.718 242.889 352.974 243.295 352.226C243.636 351.598 243.821 350.876 244.212 350.287C244.65 349.626 245.304 349.11 245.753 348.455C246.597 347.221 247.357 345.931 248.162 344.67C248.257 344.52 248.392 344.356 248.547 344.288C250.171 343.58 250.657 341.921 251.463 340.603C252.4 339.069 253.522 337.523 253.46 335.551C253.456 335.426 253.701 335.294 253.829 335.165C255.484 333.502 256.356 331.542 256.174 329.155C256.146 328.776 256.15 328.165 256.365 328.035C258.135 326.964 258.135 324.969 258.678 323.366C259.217 321.773 260.052 320.176 259.762 318.313C259.571 317.087 259.852 315.903 260.425 314.641C261.027 313.315 260.779 311.578 260.793 310.019C260.803 308.91 260.781 307.889 261.835 307.14C262.165 306.905 262.432 306.326 262.421 305.913C262.385 304.648 263.615 303.606 263.02 302.254C262.965 302.128 263.246 301.887 263.262 301.691C263.301 301.223 263.407 300.697 263.248 300.288C262.881 299.348 262.369 298.464 261.921 297.556C260.912 295.512 259.861 293.487 258.91 291.417C257.943 289.313 257.137 287.133 256.134 285.047C255.652 284.042 255.232 283.098 255.316 281.952C255.345 281.561 255.088 281.147 254.957 280.745C254.722 280.022 254.255 279.29 254.286 278.579C254.427 275.33 253.066 272.714 251.09 270.311C250.952 270.143 250.742 269.982 250.703 269.791C250.406 268.313 250.179 266.82 249.852 265.35C249.726 264.786 249.401 264.263 249.153 263.729C249.046 263.498 248.833 263.299 248.787 263.062C248.491 261.538 248.234 260.007 247.948 258.482C247.91 258.281 247.795 258.084 247.678 257.912C246.465 256.134 245.82 254.228 246.014 252.022C246.149 250.484 246.08 248.923 246.026 247.375C245.989 246.282 246.044 245.267 246.875 244.431C247.003 244.302 247.066 243.88 246.977 243.802C246.086 243.025 246.717 242.237 246.876 241.429C247.037 240.615 246.795 239.537 247.242 239.004C248.124 237.951 247.914 236.844 247.948 235.718C247.979 234.715 247.821 233.689 247.988 232.714C248.208 231.425 248.647 230.171 249.023 228.911C249.277 228.062 249.74 227.247 249.835 226.386C249.992 224.961 249.595 223.466 250.674 222.203C251.049 221.764 251.312 221.192 251.498 220.637C252.17 218.633 252.527 216.471 253.511 214.642C254.26 213.25 254.185 211.949 254.25 210.56C254.26 210.343 254.257 210.106 254.343 209.916C255.201 208.037 256.07 206.163 256.949 204.294C257.309 203.53 257.727 202.793 258.072 202.023C259.149 199.615 260.085 197.138 262.253 195.402C263.102 194.722 263.817 193.874 264.584 193.094C264.801 192.873 265.075 192.656 265.176 192.384C265.985 190.191 267.197 188.112 267.113 185.659C267.108 185.505 267.244 185.351 267.292 185.19C267.507 184.458 267.746 183.731 267.912 182.988C268 182.6 267.794 182.053 267.997 181.799C269.463 179.962 269.016 177.587 269.828 175.573C270.27 174.478 270.42 173.234 271.011 172.24C271.808 170.899 273.004 169.798 273.842 168.476C274.72 167.089 275.715 165.634 276.045 164.078C276.437 162.228 276.144 160.303 276.858 158.383C277.436 156.829 278.582 155.271 278.061 153.397C278.042 153.328 278.266 153.217 278.311 153.1C278.51 152.589 278.907 152.034 278.832 151.558C278.316 148.304 279.838 145.252 279.706 142.044C279.695 141.782 279.96 141.517 280.053 141.239C280.308 140.478 280.633 139.724 280.762 138.939C280.978 137.623 280.374 136.188 281.558 134.998C281.832 134.723 281.763 133.683 281.461 133.345C280.704 132.495 280.783 131.563 280.783 130.596C280.783 128.909 280.802 127.222 280.77 125.535C280.761 125.07 280.624 124.602 280.504 124.145C280.247 123.16 279.846 122.197 279.72 121.198C279.578 120.077 280.094 118.653 279.57 117.855C278.807 116.692 278.993 115.589 278.849 114.432C278.771 113.811 278.551 113.192 278.304 112.612C277.892 111.642 277.305 110.737 276.979 109.743C276.582 108.531 276.446 107.234 276.075 106.01C275.525 104.194 274.502 102.433 274.388 100.604C274.316 99.4658 274.046 98.6205 273.557 97.7064C273.422 97.4536 273.38 97.1097 273.407 96.8181C273.647 94.2379 272.626 92.1845 270.727 90.5468C269.95 89.8771 269.043 89.3541 268.176 88.7947C265.911 87.334 263.636 85.8901 261.364 84.4395C260.103 83.6336 258.831 82.8419 257.584 82.0141C257.152 81.7271 256.825 81.2504 256.368 81.0364C255.493 80.6269 254.582 80.1872 253.643 80.052C252.723 79.9193 251.584 79.8583 250.838 80.2845C249.509 81.0428 248.306 80.7551 247.028 80.4639C246.323 80.3035 245.631 79.9596 244.928 79.9466C242.416 79.9 239.938 80.3466 237.458 80.5955C232.538 81.0892 227.534 80.7414 222.565 80.7414C221.546 80.7414 220.528 80.7414 219.509 80.7414C218.308 80.7414 216.945 81.1053 215.942 80.6596C214.271 79.9167 212.62 79.9396 210.912 79.9131C210.571 79.9078 210.221 79.836 209.893 79.7384C209.245 79.5466 208.576 79.0647 207.976 79.146C206.005 79.4129 204.285 78.6293 202.508 78.0814C201.995 77.9231 201.574 77.4885 201.08 77.2394C200.442 76.9169 199.77 76.6613 199.12 76.3619C198.583 76.115 198.031 75.8872 197.535 75.5731C197.197 75.3592 196.993 74.8694 196.644 74.7465C194.692 74.0593 192.715 72.9299 190.744 72.9229C187.356 72.911 183.966 72.3596 180.492 73.4391C178.538 74.0458 176.21 74.0972 174.049 74.4161C172.758 74.6067 171.417 74.4595 170.099 74.4804C169.697 74.4867 169.296 74.5467 168.894 74.5822C169.056 74.1478 169.106 73.6076 169.4 73.2971C170.802 71.8119 172.265 70.3826 173.722 68.9499C173.964 68.7126 174.289 68.5616 174.569 68.3627C175.521 67.6879 176.467 67.0036 177.423 66.3353C177.88 66.0165 178.321 65.639 178.828 65.4378C180.403 64.8136 180.957 63.5452 180.165 62.0672C178.985 59.8633 177.88 57.604 176.505 55.5255C175.796 54.4543 174.601 53.6892 173.575 52.8488C172.809 52.2216 171.955 51.7026 171.149 51.1228C169.813 50.1616 168.598 48.9319 167.126 48.2828C164.83 47.2707 163.65 45.131 161.852 43.6352C160.705 42.6807 159.911 41.2397 159.014 39.9782C156.834 36.9137 153.741 34.7998 150.187 33.3868C148.585 32.7497 146.901 32.0444 145.626 30.9401C144.568 30.0231 143.591 29.8371 142.349 29.8382C141.156 29.8393 139.957 29.7202 138.772 29.5672C138.105 29.4812 137.462 29.2196 136.808 29.0375C136.276 28.8896 135.693 28.8371 135.222 28.5785C133.065 27.393 130.523 27.4863 128.585 28.1593C126.745 28.798 125.04 28.9615 123.217 29.0353C121.999 29.0847 120.769 28.8271 119.694 29.8227C119.177 30.3018 118.321 30.6049 117.603 30.6335C116.437 30.6801 115.384 30.7802 114.37 31.4714C113.618 31.9844 112.698 32.2591 111.838 32.6045C110.822 33.0129 109.621 33.1669 108.796 33.8102C106.25 35.7952 103.85 37.967 101.378 40.0489C101.023 40.3484 100.586 40.5517 100.188 40.801C98.1241 42.094 95.5809 42.6122 93.9886 44.684C93.7196 45.034 93.2066 45.1924 92.8158 45.4535C92.3855 45.7411 91.8007 45.952 91.5717 46.3587C90.7444 47.8284 89.9893 49.3443 89.2989 50.8841C88.4203 52.8435 87.6938 54.8726 86.7783 56.8134C86.2894 57.85 85.5109 58.7461 84.9157 59.7373C83.6607 61.8272 83.0718 64.3327 81.0101 65.9221C80.7512 66.1217 80.6167 66.4813 80.4206 66.7641C78.838 69.0453 78.3502 71.7693 77.6041 74.3408C77.0466 76.2618 76.2853 78.0917 75.7 79.9884C75.3106 81.25 74.9192 82.5511 74.8303 83.8551C74.7222 85.4398 74.5844 86.8612 73.7754 88.3667C72.6308 90.4969 72.0349 92.9253 71.2442 95.2398C71.0649 95.7646 71.0556 96.3464 70.9556 96.8997C70.8641 97.4067 70.9059 98.0216 70.6288 98.3967C69.4025 100.056 69.1755 101.899 69.2817 103.881C69.3108 104.425 68.895 104.984 68.7272 105.549C68.5335 106.202 68.3591 106.863 68.2324 107.531C68.15 107.965 68.3405 108.566 68.1096 108.837C67.2967 109.789 67.4848 110.89 67.376 111.974C67.3054 112.677 67.0504 113.381 66.7728 114.041C66.3968 114.934 65.8256 115.752 65.5073 116.661C64.9623 118.218 64.5449 119.82 64.0806 121.405C63.7232 122.626 63.3736 123.848 63.0248 125.071C62.5362 126.784 62.1459 128.532 61.5408 130.202C60.8389 132.14 59.1374 133.668 59.1746 135.931C59.1781 136.142 58.9407 136.396 58.7558 136.566C55.6205 139.443 52.4776 142.312 49.3286 145.174C49.1439 145.342 48.9072 145.505 48.6705 145.555C46.9259 145.919 46.0212 147.08 45.4891 148.692C45.3616 149.078 44.8968 149.352 44.5901 149.68C43.458 150.892 42.0329 151.943 41.2617 153.352C39.9578 155.735 38.1928 157.465 35.8348 158.692C35.5614 158.834 35.3546 159.107 35.1209 159.323C34.1746 160.199 33.3016 161.175 32.2673 161.93C30.8553 162.961 29.2063 163.686 27.8691 164.795C26.3468 166.058 24.927 167.469 24.0403 169.338C23.5157 170.444 22.7167 171.418 22.0556 172.461C21.6222 173.145 21.2476 173.867 20.7885 174.532C20.0011 175.673 19.1796 176.82 19.2698 178.274C19.4191 180.679 17.5659 182.722 18.0774 185.18C18.0963 185.271 17.9217 185.387 17.891 185.506C17.6984 186.248 17.4033 186.988 17.3633 187.741C17.2813 189.287 17.3316 190.84 17.3442 192.39C17.347 192.738 17.2918 193.194 17.4804 193.416C18.3962 194.492 18.1041 195.755 18.1676 196.973C18.218 197.94 18.0575 199.062 18.4891 199.838C19.5543 201.752 20.413 203.637 20.095 205.894C20.0669 206.093 20.3618 206.32 20.4508 206.555C20.9728 207.935 21.8307 209.305 21.8972 210.71C21.9748 212.348 22.5599 213.629 23.4939 215.062Z" fill="#85D7AE"/>
<path d="M147.351 137.575C146.826 136.099 146.381 134.689 145.909 133.288C145.721 132.73 145.594 132.087 145.229 131.665C144.127 130.391 143.778 128.768 143.046 127.377C141.828 125.065 141.553 123.198 143.179 121.144C142.708 119.575 144.008 119.326 144.93 118.794C145.893 118.238 146.793 117.629 148.039 118.18C148.573 118.417 149.299 118.245 149.936 118.214C150.77 118.173 151.088 118.549 151.433 119.338C152.194 121.079 153.249 122.687 154.113 124.385C154.723 125.585 155.203 126.851 155.768 128.075C156.104 128.804 156.471 129.52 156.862 130.22C157.546 131.444 158.269 132.646 158.958 133.867C159.457 134.752 159.934 135.65 160.41 136.548C160.528 136.77 160.544 137.077 160.711 137.238C163.494 139.929 165.082 143.393 166.903 146.713C167.682 148.132 168.553 149.505 169.451 150.854C170.538 152.487 169.892 154.477 170.57 156.137C171.744 159.01 170.683 162.444 172.886 165.025C172.882 167.542 175.311 169.291 174.998 171.992C174.901 172.835 175.852 173.78 176.258 174.707C176.511 175.285 176.78 175.911 176.802 176.524C176.871 178.436 176.763 180.356 176.854 182.266C176.901 183.239 177.248 184.195 177.422 185.165C177.492 185.558 177.633 186.189 177.449 186.332C176.693 186.917 176.842 187.676 176.826 188.426C176.803 189.518 176.505 190.493 176.139 191.551C175.54 193.287 174.598 195.041 174.872 197.076C175.077 198.598 174.894 200.171 174.931 201.72C174.937 201.976 175.19 202.226 175.329 202.478C175.555 202.259 175.876 202.082 175.992 201.815C176.947 199.612 177.538 197.161 178.896 195.253C179.959 193.762 180.888 192.251 181.689 190.634C183.827 186.314 188.036 183.846 190.941 180.228C192.54 178.236 193.781 175.952 195.151 173.779C196.425 171.759 197.654 169.71 198.911 167.679C199.094 167.385 199.533 167.092 199.499 166.847C199.3 165.404 200.28 164.655 201.131 163.811C202.037 162.912 203.043 162.087 203.815 161.084C204.939 159.624 205.876 158.021 206.933 156.507C207.164 156.177 207.588 155.988 207.884 155.694C208.488 155.093 209.058 154.457 209.658 153.851C210.23 153.271 210.836 152.724 211.403 152.139C212.652 150.851 213.896 149.558 215.119 148.246C215.409 147.935 215.538 147.456 215.857 147.196C217.787 145.622 218.563 143.326 219.592 141.21C220.325 139.7 220.762 138.048 221.447 136.51C221.716 135.904 222.235 135.363 222.752 134.924C223.643 134.167 224.577 133.439 225.573 132.83C227.379 131.725 229.104 130.368 231.344 130.298C231.674 130.288 232.077 130.788 232.352 131.128C233.825 132.947 232.564 135.555 234.115 137.376C234.21 137.487 234.148 137.898 234.02 138.007C233.215 138.692 233.206 139.583 233.15 140.54C233.096 141.469 232.788 142.384 232.578 143.302C232.541 143.462 232.352 143.619 232.374 143.756C232.681 145.688 231.315 147.066 230.814 148.717C230.291 150.44 229.593 152.051 228.79 153.629C228.193 154.802 227.467 155.911 226.778 157.037C225.887 158.493 224.984 159.943 224.068 161.384C223.812 161.787 223.531 162.188 223.197 162.526C221.081 164.665 218.983 166.825 216.806 168.901C215.48 170.166 214.762 171.734 213.947 173.326C213.278 174.631 212.011 175.631 211.001 176.76C210.888 176.886 210.633 176.94 210.597 177.07C210.003 179.217 207.923 180.131 206.732 181.768C205.625 183.29 204.661 184.916 203.64 186.5C203.549 186.64 203.529 186.834 203.422 186.954C201.048 189.613 198.465 192.115 196.344 194.962C194.283 197.727 191.399 199.923 190.276 203.372C190.161 203.725 189.876 204.046 189.607 204.321C188.44 205.518 187.085 206.571 186.116 207.907C185.187 209.187 184.726 210.794 183.92 212.177C183.078 213.622 182.064 214.966 181.141 216.364C180.861 216.788 180.661 217.266 180.376 217.686C180.086 218.114 179.72 218.489 179.417 218.91C179.169 219.255 178.972 219.637 178.741 219.996C178.324 220.645 177.87 221.271 177.488 221.94C177.219 222.413 177.042 222.939 176.828 223.443C176.366 224.529 176.151 225.838 175.4 226.658C173.371 228.874 172.68 231.765 171.195 234.241C171.109 234.384 171.108 234.62 170.992 234.695C169.149 235.889 169.431 237.743 169.436 239.532C169.45 245.413 169.518 251.296 169.384 257.174C169.353 258.561 168.737 259.987 168.159 261.293C167.61 262.534 166.738 263.583 166.647 265.065C166.597 265.888 165.915 266.658 165.597 267.482C165.277 268.308 164.875 269.162 164.827 270.022C164.713 272.022 164.864 274.036 164.761 276.037C164.705 277.14 164.296 278.22 164.151 279.325C164.018 280.34 163.889 281.389 164 282.397C164.192 284.139 163.356 285.482 162.6 286.895C162.344 287.372 162.019 287.958 162.09 288.44C162.478 291.049 160.935 292.978 159.857 295.055C159.345 296.042 158.495 296.854 157.981 297.839C157.517 298.727 157.249 299.73 156.99 300.707C156.542 302.397 156.09 304.093 155.793 305.813C155.625 306.787 155.732 307.815 155.769 308.817C155.843 310.823 155.093 312.593 154.284 314.359C154.145 314.663 154.076 315.06 154.137 315.383C154.529 317.458 153.287 319.025 152.532 320.746C152.414 321.015 152.196 321.307 152.225 321.566C152.432 323.394 151.581 324.824 150.618 326.25C150.373 326.613 150.275 327.164 150.311 327.612C150.535 330.381 149.966 332.963 148.801 335.478C148.488 336.155 148.711 337.072 148.641 337.874C148.6 338.343 148.595 338.886 148.355 339.252C147.144 341.108 147.16 342.904 148.358 344.753C148.576 345.089 148.633 345.577 148.638 345.996C148.663 348.412 148.641 350.828 148.654 353.245C148.661 354.465 148.47 355.686 149.305 356.817C149.617 357.238 149.561 358.053 149.445 358.644C149.159 360.104 148.723 361.534 148.39 362.986C148.312 363.324 148.323 363.731 148.443 364.05C148.541 364.311 148.863 364.489 149.085 364.703C149.214 364.486 149.415 364.282 149.46 364.049C150.164 360.355 152.439 357.342 153.798 353.945C155.583 349.482 159.552 346.999 162.504 343.6C165.233 343.009 165.748 340.19 167.37 338.511C169.369 336.441 170.975 333.869 172.608 331.445C175.095 327.755 178.622 325.145 181.492 321.88C183.783 319.275 186.498 317.195 189.51 315.487C189.782 315.333 190.137 315.111 190.209 314.852C190.653 313.258 192.008 312.388 192.956 311.191C194.43 309.327 195.725 307.323 197.147 305.416C198.111 304.123 199.07 302.921 200.727 302.244C201.933 301.75 202.78 300.419 203.853 299.542C204.579 298.948 205.405 298.469 206.226 298.009C206.342 297.944 206.904 298.314 206.886 298.424C206.642 299.976 207.547 301.33 207.642 302.746C207.737 304.164 207.194 305.704 206.632 307.067C206.067 308.439 205.698 309.768 205.818 311.247C205.925 312.573 205.737 313.794 205.05 315.035C204.137 316.682 203.682 318.584 202.775 320.235C201.968 321.705 200.523 322.861 199.881 324.377C198.984 326.498 197.366 328.042 195.678 329.117C193.265 330.655 191.194 332.556 189.601 334.711C186.293 339.182 181.955 342.6 178.318 346.706C177.661 347.449 177.329 348.475 176.823 349.358C176.463 349.987 176.161 350.688 175.667 351.195C173.156 353.776 170.528 356.247 168.064 358.871C166.325 360.723 165.011 362.904 163.973 365.235C163.888 365.427 163.914 365.734 163.778 365.828C161.94 367.105 161.561 369.314 160.583 371.091C159.544 372.981 159.241 375.262 158.472 377.318C157.957 378.695 157.202 379.984 156.532 381.301C155.692 382.949 154.911 384.611 154.942 386.524C154.963 387.797 154.772 388.969 154.292 390.218C153.594 392.035 153.37 394.046 153.048 395.992C152.876 397.033 150.965 398.88 149.788 398.893C147.828 398.914 145.866 398.848 143.908 398.916C142.524 398.964 141.866 398.108 141.267 397.103C141.051 396.74 140.937 396.293 140.66 395.994C139.84 395.109 138.953 394.302 140.292 393.122C140.472 392.963 140.443 392.449 140.363 392.137C140.154 391.319 139.9 390.509 139.598 389.721C139.086 388.384 138.502 387.074 137.993 385.736C137.827 385.301 137.823 384.807 137.702 384.351C137.518 383.655 137.288 382.972 137.096 382.278C137.004 381.948 136.975 381.601 136.883 381.271C136.62 380.333 136.322 379.404 136.073 378.462C135.942 377.964 135.769 377.436 135.812 376.938C136.042 374.253 135.409 371.761 134.303 369.346C134.147 369.005 134.158 368.57 134.157 368.179C134.147 364.076 134.135 359.972 134.165 355.87C134.171 355.059 133.964 354.536 133.149 354.246C131.562 353.682 130.272 352.587 128.465 352.284C126.616 351.975 124.979 350.475 123.127 350.09C121.073 349.663 119.847 348.254 118.246 347.267C116.59 346.246 115.97 344.646 114.994 343.219C114.826 342.972 114.69 342.7 114.507 342.465C113.159 340.742 111.858 338.977 110.435 337.318C108.233 334.751 105.734 332.411 103.753 329.69C101.683 326.847 98.9456 324.432 97.765 320.973C97.7244 320.854 97.5951 320.735 97.6111 320.632C98.0164 318.03 95.796 316.547 94.9869 314.465C94.9414 314.348 94.7622 314.25 94.7683 314.15C94.9228 311.66 93.394 309.378 93.9088 306.825C94.0855 305.949 94.0104 304.999 93.9125 304.098C93.8406 303.436 93.537 302.801 93.3505 302.15C93.2565 301.822 93.1345 301.487 93.1268 301.152C93.0996 299.967 93.0585 298.778 93.1308 297.597C93.2213 296.118 92.8218 294.796 92.3427 293.407C91.8342 291.933 91.0987 290.519 91.1359 288.814C91.1698 287.26 91.9024 286.265 92.9479 285.458C93.8048 284.797 94.2692 283.99 94.8453 283.121C95.7577 281.746 97.1642 280.651 98.4996 279.615C100.655 277.942 102.205 279.451 103.753 280.814C105.453 282.31 106.427 284.131 106.842 286.387C107.145 288.029 107.959 289.57 108.416 291.192C108.871 292.809 109.014 294.524 109.561 296.103C110.72 299.445 111.413 302.829 111.173 306.376C111.161 306.558 111.095 306.799 111.183 306.914C112.692 308.884 111.606 311.579 113.075 313.571C113.886 314.672 114.579 315.861 115.322 317.013C115.948 317.984 116.549 318.971 117.194 319.93C118.395 321.715 119.586 323.51 120.86 325.243C121.164 325.656 121.778 325.844 122.254 326.128C122.435 326.236 122.705 326.275 122.804 326.429C123.567 327.613 124.292 328.821 125.045 330.011C125.276 330.377 125.519 330.748 125.82 331.055C127.289 332.551 128.826 333.985 130.244 335.527C130.966 336.313 131.353 337.441 132.147 338.113C132.697 338.579 133.681 338.63 134.473 338.634C134.637 338.635 134.94 337.612 134.949 337.057C134.998 334.232 134.971 331.405 134.972 328.578C134.972 328.26 134.843 327.816 135.003 327.645C136.288 326.266 135.603 324.582 135.809 323.039C135.886 322.462 136.138 321.904 136.341 321.349C136.499 320.914 136.859 320.497 136.862 320.071C136.88 317.023 138.947 314.813 140.047 312.217C140.622 310.862 141.473 309.668 141.289 308.067C141.159 306.942 141.246 305.79 141.269 304.651C141.293 303.39 141.234 302.208 141.993 300.968C142.55 300.06 142.234 298.634 142.374 297.446C142.432 296.951 142.679 296.481 142.809 295.991C142.952 295.454 143.21 294.89 143.151 294.368C142.946 292.56 143.696 291.102 144.518 289.581C145.153 288.408 145.266 286.937 145.962 285.817C146.919 284.277 146.617 282.674 146.764 281.07C146.843 280.197 147.217 279.352 147.454 278.493C147.499 278.327 147.523 278.156 147.556 277.988C147.921 276.133 147.996 274.155 148.719 272.452C149.773 269.969 148.84 267.295 149.635 265.025C150.211 263.381 150.436 261.65 151.053 260.017C151.63 258.493 152.475 256.957 152.252 255.153C152.164 254.445 152.374 253.491 152.822 252.974C153.507 252.186 153.194 251.755 152.666 251.225C151.058 249.609 149.444 248 147.832 246.388C146.94 245.496 146.079 244.572 145.152 243.719C142.153 240.963 139.131 238.231 136.111 235.498C135.96 235.361 135.748 235.276 135.551 235.206C132.054 233.959 129.504 231.351 127.411 228.569C123.244 223.029 117.882 218.703 113.171 213.727C111.8 212.278 109.908 211.322 108.257 210.137C107.938 209.909 107.599 209.698 107.323 209.425C105.669 207.792 104.241 205.813 102.329 204.586C100.186 203.209 99.2097 200.928 97.3637 199.359C96.4706 198.599 96.1877 197.146 95.5609 196.045C94.2986 193.828 92.9605 191.654 91.7114 189.43C90.9311 188.041 90.1395 186.667 90.3295 184.917C90.4042 184.228 89.887 183.483 89.6742 182.753C89.2583 181.328 88.6459 179.916 88.5171 178.462C88.3206 176.245 88.4656 173.999 88.4656 171.765C88.4656 171.491 88.3486 171.118 88.4837 170.96C89.852 169.354 89.0637 167.441 89.3027 165.679C89.3809 165.102 89.5099 164.436 89.8576 164.008C91.4465 162.049 93.0398 160.068 95.4314 158.992C96.3152 158.595 97.229 159.026 97.4926 159.961C97.769 160.941 97.7817 162.128 98.3656 162.862C99.7569 164.611 99.2924 166.559 99.4297 168.467C99.4775 169.13 99.7698 169.777 99.9582 170.429C99.9929 170.549 100.118 170.661 100.112 170.772C99.926 174.048 102.73 175.975 103.693 178.729C104.014 179.647 104.161 180.643 104.591 181.501C105.623 183.56 106.882 185.48 108.531 187.121C111.505 190.079 114.494 193.022 117.412 196.035C118.214 196.864 118.667 198.037 119.486 198.844C121.294 200.625 123.229 202.278 125.122 203.973C125.376 204.2 125.7 204.348 125.969 204.56C126.899 205.294 127.87 205.988 128.725 206.801C129.245 207.297 129.504 208.062 130.012 208.574C135.183 213.784 140.358 218.99 145.59 224.138C146.671 225.202 148.135 225.89 149.163 226.993C150.837 228.788 152.292 230.788 153.855 232.688C154.059 232.936 154.357 233.105 154.612 233.311C154.722 233.037 154.802 232.746 154.947 232.493C155.771 231.057 155.947 229.714 155.025 228.15C154.724 227.641 155.459 226.573 155.599 225.74C155.802 224.532 155.85 223.298 156.054 222.09C156.172 221.388 156.539 220.727 156.659 220.025C156.801 219.197 156.859 218.344 156.84 217.504C156.821 216.693 156.974 216.066 157.617 215.474C158.055 215.071 158.302 214.403 158.501 213.809C159.003 212.309 159.558 210.861 159.736 209.215C159.843 208.215 160.878 206.911 160.34 206.028C158.797 203.491 160.533 200.446 158.845 198.012C158.714 197.824 158.75 197.487 158.778 197.227C159.064 194.606 158.115 191.892 159.537 189.329C159.905 188.666 159.534 187.622 159.612 186.763C159.67 186.135 159.921 185.527 160.062 184.905C160.12 184.649 160.24 184.265 160.12 184.133C159.234 183.162 159.999 181.853 159.538 180.95C158.295 178.509 159.498 175.604 157.907 173.274C157.728 173.012 157.648 172.599 157.694 172.281C157.973 170.379 157.212 168.804 156.268 167.251C156.06 166.908 156.044 166.409 156.047 165.983C156.061 164.311 156.163 162.646 155.113 161.161C154.891 160.847 154.963 160.308 154.948 159.871C154.911 158.867 155.006 157.914 154.279 156.978C153.898 156.487 154.089 155.498 154.138 154.741C154.2 153.772 153.785 153.102 153.189 152.377C152.701 151.783 152.431 150.96 152.224 150.195C151.704 148.266 151.58 146.253 150.101 144.622C149.208 143.637 148.679 142.358 148.583 140.872C148.513 139.775 147.829 138.718 147.351 137.575Z" fill="#85D7AE"/>
</g>
</svg>
