<svg width="428" height="329" viewBox="0 0 428 329" fill="none" xmlns="http://www.w3.org/2000/svg">
<g filter="url(#filter0_d_342_10712)">
<g opacity="0.2" clip-path="url(#clip0_342_10712)">
<path fill-rule="evenodd" clip-rule="evenodd" d="M163.692 61.2083C161.976 72.7833 167.852 102.106 156.565 124.855C111.45 215.785 -42.6864 340.494 54.2625 444.884C72.482 464.501 100.504 484.409 129.126 485.894C368.961 498.344 483.267 204.675 346.965 45.9742C335.218 32.2968 326.817 29.4342 313.754 17.6935C295.623 1.39779 243.634 -6.15361 197.011 8.59943C181.588 13.4797 165.79 47.0523 163.692 61.2083Z" fill="#A0D0FD"/>
<path fill-rule="evenodd" clip-rule="evenodd" d="M163.691 61.2081L163.416 61.167C164.637 52.8338 170.576 37.7887 178.399 25.778C183.948 17.2583 190.458 10.2763 196.893 8.22615C221.251 0.464887 247.085 -1.21647 268.814 1.25955C288.858 3.54411 305.416 9.38347 314.175 17.2245C323.618 25.6786 330.624 29.5126 338.218 36.1245C341.168 38.6938 344.207 41.6791 347.508 45.507C417.397 126.614 421.957 243.075 377.66 336.093C335.027 425.615 247.185 493.382 129.05 487.337C114.606 486.587 100.305 481.239 87.3091 473.582C74.2251 465.873 62.4654 455.828 53.2117 445.859C22.8177 413.096 16.798 378.363 24.4071 343.308C32.6758 305.214 57.0862 266.715 83.5794 230.015C110.813 192.289 140.257 156.47 156.233 124.689C160.153 116.902 162.041 108.324 162.911 99.9555C164.571 83.9905 162.524 68.7822 163.691 61.2081ZM163.691 61.2081C162.61 68.8024 164.833 84.001 163.355 99.9991C162.574 108.449 160.76 117.12 156.897 125.019C141.237 157.002 112.244 193.247 85.2755 231.23C59.28 267.842 35.1782 306.072 27.0942 343.887C19.7772 378.111 25.6245 411.975 55.3128 443.907C64.3971 453.683 75.939 463.53 88.7769 471.089C101.369 478.504 115.208 483.724 129.2 484.451C246.124 490.607 333.052 423.553 375.46 335.042C419.66 242.793 415.549 127.194 346.422 46.4403C343.185 42.6573 340.205 39.7057 337.309 37.164C329.739 30.5195 322.746 26.6555 313.333 18.1615C303.041 8.87538 281.713 2.45552 256.674 1.35834C237.893 0.535456 217.026 2.71939 197.129 8.97234C190.812 10.9574 184.44 17.8179 178.97 26.1511C171.157 38.0519 165.206 52.9755 163.966 61.2486L163.691 61.2081Z" fill="#A0D0FD"/>
<path d="M396.86 312.363C396.719 312.552 396.543 312.708 396.572 312.803C396.98 314.159 395.739 314.978 395.487 316.121C395.439 316.342 394.996 316.458 394.774 316.664C394.462 316.953 394.182 317.277 393.899 317.595C393.827 317.676 393.82 317.815 393.746 317.891C392.133 319.53 391.527 321.928 389.446 323.282C388.646 323.803 388.371 325.125 387.842 326.074C387.549 326.6 387.31 327.189 386.905 327.614C385.43 329.161 383.891 330.646 382.39 332.168C382.152 332.41 381.83 332.713 381.811 333.005C381.664 335.165 379.655 336.365 379.131 338.317C379.063 338.569 378.872 338.83 378.907 339.062C379.139 340.609 378.3 341.78 377.596 343.005C377.448 343.264 377.214 343.54 377.216 343.807C377.223 345.317 376.247 346.394 375.705 347.667C375.257 348.72 374.668 349.531 373.932 350.328C373.782 350.49 373.818 350.847 373.813 351.116C373.77 353.197 372.229 355.352 370.254 356.114C369.908 356.247 369.539 356.412 369.278 356.664C368.087 357.81 366.979 359.048 365.75 360.149C363.579 362.093 362.236 364.618 360.756 367.045C360.176 367.996 359.82 369.082 359.271 370.054C358.898 370.713 358.021 371.251 357.963 371.895C357.706 374.768 355.079 375.733 353.59 377.591C353.163 378.123 352.233 378.223 351.654 378.675C351.266 378.978 351.141 379.595 350.805 379.992C350.341 380.54 349.845 381.093 349.262 381.5C348.249 382.208 347.184 382.851 346.095 383.437C345.079 383.983 344.01 384.434 342.951 384.898C342.645 385.032 342.218 384.97 341.978 385.163C339.1 387.467 335.751 389.328 333.687 392.422C332.961 393.509 332.194 394.583 331.313 395.474C330.505 396.291 329.172 396.56 328.23 397.279C327.194 398.072 326.349 399.112 325.401 400.025C325.073 400.34 324.726 400.687 324.32 400.861C323.327 401.284 322.049 401.355 321.325 402.036C319.628 403.631 317.424 404.19 315.542 405.356C314.482 406.012 313.682 407.075 312.695 407.867C312.245 408.228 311.629 408.389 311.079 408.621C310.083 409.04 309.036 409.361 308.089 409.87C304.94 411.564 302.817 414.435 300.415 416.942C299.741 417.645 299.23 418.406 298.3 418.806C298.065 418.907 297.888 419.217 297.752 419.467C296.536 421.705 294.906 423.493 292.593 424.682C292.014 424.98 291.766 425.867 291.268 426.39C290.71 426.976 290.112 427.593 289.407 427.957C287.687 428.846 285.937 429.714 284.118 430.365C282.787 430.842 281.657 432.033 280.03 431.636C279.74 431.565 279.301 431.687 279.063 431.882C277.429 433.221 275.799 434.571 274.238 435.995C273.82 436.377 273.768 437.177 273.337 437.523C272.461 438.229 271.418 438.724 270.49 439.373C270.027 439.696 269.555 440.104 269.285 440.585C268.871 441.323 268.436 441.855 267.539 442.056C266.945 442.19 266.455 442.733 265.87 442.977C263.669 443.894 261.342 444.576 259.282 445.735C258.351 446.259 257.553 446.331 256.631 446.377C256.433 446.387 256.167 446.318 256.049 446.42C254.226 447.999 252.032 447.095 250.016 447.358C249.426 447.435 248.856 447.665 248.279 447.83C248.028 447.903 247.769 448.085 247.534 448.056C245.611 447.824 244.183 448.888 242.688 449.819C242.219 450.111 241.677 450.298 241.151 450.485C240.291 450.792 239.799 451.355 239.278 452.141C238.836 452.807 237.684 453.018 236.827 453.383C236.519 453.514 236.072 453.4 235.828 453.584C234.823 454.336 233.686 454.301 232.52 454.417C231.674 454.502 230.721 454.917 230.101 455.492C229.421 456.123 228.735 455.955 228.017 456.081C227.365 456.195 226.744 456.498 226.116 456.735C225.942 456.8 225.801 456.993 225.63 457.015C223.675 457.273 221.719 457.683 219.761 457.696C218.237 457.705 217.186 458.532 215.977 459.131C215.673 459.281 215.421 459.626 215.116 459.667C213.043 459.948 210.959 460.143 208.888 460.431C208.268 460.517 207.674 460.799 207.076 461.012C206.796 461.111 206.536 461.355 206.261 461.366C204.495 461.433 203.169 462.314 201.909 463.464C201.316 464.005 200.53 464.429 199.757 464.659C197.413 465.357 195.77 467.241 193.588 468.177C192.631 468.588 191.569 468.753 190.601 469.144C189.669 469.52 188.754 469.978 187.91 470.523C187.129 471.026 184.94 471.216 184.021 471.187C182.261 471.131 180.414 470.487 178.72 471.644C178.471 471.815 177.895 471.698 177.567 471.526C176.454 470.943 175.567 471.004 174.33 471.559C173.328 472.008 172.181 472.553 171.071 472.693C169.704 472.865 168.721 473.685 167.542 474.151C166.327 474.631 165.278 475.371 163.842 475.511C162.375 475.654 160.854 476.062 159.443 476.819C158.694 477.22 157.417 477.11 156.573 476.76C154.904 476.069 153.434 475.731 151.758 476.784C151.218 477.123 150.11 477.068 149.532 476.73C148.303 476.012 147.041 476.102 145.774 476.17C144.735 476.225 144.046 475.845 143.237 475.211C142.228 474.421 141.156 473.513 139.634 473.701C138.64 473.824 137.618 473.757 136.612 473.708C136.214 473.688 135.765 473.57 135.44 473.348C134.238 472.529 133.613 472.608 132.274 473.303C131.565 473.672 130.619 473.563 129.793 473.736C129.173 473.865 128.584 474.148 127.964 474.27C127.544 474.353 127.079 474.344 126.661 474.254C126.156 474.145 125.685 473.776 125.188 473.752C124.235 473.705 123.304 473.777 122.607 472.918C122.479 472.76 122.102 472.768 121.839 472.763C120.952 472.745 120.051 472.656 119.18 472.776C117.203 473.049 115.566 472.292 113.98 471.281C113.825 471.182 113.63 471.055 113.468 471.074C110.829 471.374 109.024 469.535 106.875 468.569C106.337 468.327 105.637 468.418 105.01 468.406C103.557 468.378 102.241 468.476 100.982 467.178C100.247 466.421 98.983 465.558 97.5183 465.693C97.0398 465.737 96.5345 465.125 96.0041 465.036C94.5054 464.785 93.1886 463.73 91.5685 464.039C91.4592 464.06 91.2944 464.063 91.2286 463.999C89.5895 462.404 87.5439 463.258 85.6767 463.097C84.7839 463.02 83.9829 462.888 83.1204 462.534C82.1198 462.123 80.8829 462.334 79.7938 462.081C78.3026 461.735 76.8699 461.141 75.3815 460.778C74.4099 460.541 73.3831 460.425 72.3829 460.436C70.5672 460.454 69.1359 459.703 67.8352 458.535C65.7239 456.638 63.5903 454.766 61.4653 452.885C61.3786 452.808 61.273 452.668 61.1935 452.68C59.3296 452.946 58.1185 451.523 56.5896 450.928C55.6505 450.562 54.6499 450.014 53.7076 450.069C51.805 450.181 50.4445 449.175 48.9321 448.375C48.451 448.121 47.8136 448.157 47.2458 448.073C46.7741 448.003 46.1831 448.112 45.8462 447.866C44.2576 446.705 42.7374 445.451 41.1956 444.227C41.0701 444.127 40.8778 444.01 40.865 443.885C40.6599 441.888 38.7642 441.531 37.5263 440.678C36.3995 439.901 35.5167 439.222 34.9226 437.9C34.325 436.57 33.1279 435.518 32.2592 434.297C31.9435 433.854 31.8126 433.277 31.6061 432.758C31.4408 432.342 31.2695 431.927 31.1363 431.501C31.0239 431.141 30.8963 430.767 30.8905 430.397C30.8699 429.079 30.9517 427.808 30.1504 426.574C29.6016 425.729 29.5673 424.566 29.1469 423.614C28.9791 423.234 28.1271 422.728 28.0341 422.807C26.6265 424.002 24.9672 423.58 23.3925 423.612C22.7829 423.625 21.8999 423.686 21.6137 423.337C20.9914 422.579 20.3916 421.604 20.2851 420.66C20.0115 418.238 19.3515 415.975 18.02 413.967C17.3885 413.014 17.7178 412.065 17.5533 411.124C17.4512 410.54 17.2086 409.98 17.0221 409.411C16.9759 409.27 16.8293 409.124 16.8529 409.004C17.2343 407.076 15.7628 405.705 15.3905 404.052C14.8658 401.722 13.1537 399.962 12.614 397.827C12.0295 395.514 10.4877 393.708 9.95597 391.547C9.58042 390.02 8.38446 388.668 8.79096 386.886C8.89391 386.435 8.29204 385.705 7.84678 385.277C7.2993 384.751 7.14168 384.215 7.14726 383.489C7.17735 379.577 7.17873 375.664 7.14009 371.752C7.13516 371.253 6.82506 370.76 6.681 370.258C6.50488 369.643 6.285 369.03 6.20695 368.401C5.99854 366.721 6.44575 365.042 5.56373 363.33C5.03833 362.31 5.48508 360.798 5.45632 359.508C5.44804 359.136 5.41563 358.683 5.20655 358.412C4.27279 357.203 4.14338 355.672 4.5901 354.498C5.21663 352.851 5.02687 351.032 5.62388 349.606C6.25049 348.11 5.85697 346.73 6.22185 345.372C6.64221 343.808 7.12781 342.27 7.47328 340.678C7.68321 339.71 8.64142 338.925 9.14671 337.994C9.47982 337.381 9.5837 336.646 9.8283 335.98C10.2779 334.756 10.7523 333.54 11.2276 332.325C11.268 332.222 11.4483 332.164 11.47 332.064C11.8176 330.472 12.2058 328.885 12.4626 327.277C12.5945 326.451 12.3309 325.55 12.5213 324.748C12.8215 323.484 13.3942 322.288 13.7782 321.041C14.3292 319.251 15.857 317.891 15.9215 315.86C15.9432 315.177 16.4762 314.487 16.8516 313.845C17.4807 312.769 18.1841 311.736 18.8311 310.67C19.3179 309.867 19.766 309.041 20.2298 308.225C20.508 307.735 20.7773 307.241 21.061 306.754C21.6678 305.714 22.3346 304.705 22.8785 303.634C23.5332 302.344 24.102 301.056 25.1309 299.952C26.4177 298.571 27.4055 296.929 28.2589 295.217C29.2438 293.241 30.3399 291.321 31.348 289.355C31.5314 288.998 31.4685 288.521 31.6175 288.137C31.8464 287.548 32.1163 286.964 32.4515 286.429C32.7556 285.944 33.4357 285.559 33.4921 285.076C33.8159 282.303 35.6835 280.244 36.7037 277.803C36.7612 277.665 36.9371 277.526 36.9162 277.414C36.6122 275.785 37.8236 274.994 38.7564 274.056C40.8325 271.968 42.9211 269.893 44.9988 267.807C45.7358 267.067 46.4527 266.37 46.8486 265.305C47.233 264.271 48.069 263.412 48.6561 262.445C49.1415 261.646 49.5134 260.777 50.008 259.984C50.5687 259.085 51.2294 258.249 51.8089 257.361C52.132 256.866 52.4068 256.333 52.6466 255.792C52.7514 255.556 52.6114 255.166 52.7576 254.999C54.1381 253.422 55.2504 251.54 57.4094 250.82C57.6294 250.746 57.8925 250.542 57.9687 250.337C58.7895 248.125 60.3985 246.709 62.472 245.72C62.7913 245.568 63.2599 245.257 63.2683 245.007C63.3039 243.947 63.9509 243.961 64.753 243.759C65.8166 243.492 66.9631 243.039 67.7579 242.317C69.9948 240.286 72.0741 238.081 74.2024 235.931C74.4092 235.722 74.653 235.428 74.6626 235.165C74.7511 232.746 76.5793 231.739 78.2921 230.66C79.3659 229.983 80.3416 229.338 80.7948 227.996C81.0144 227.346 81.8715 226.897 82.4709 226.393C83.4476 225.573 84.492 224.829 85.4304 223.968C86.599 222.896 87.4746 221.573 89.101 220.935C89.9888 220.587 90.5438 219.414 91.2755 218.638C91.9297 217.944 92.6095 217.273 93.3005 216.615C93.5766 216.353 93.9445 216.186 94.2162 215.92C95.4265 214.735 96.658 213.567 97.7985 212.317C98.4089 211.648 98.8562 210.829 99.3663 210.07C100.019 209.099 100.702 208.144 101.299 207.139C102.409 205.272 103.442 203.36 104.554 201.494C105.152 200.489 105.876 199.559 106.489 198.562C107.057 197.636 107.635 196.7 108.061 195.706C108.733 194.138 109.198 192.567 111.133 191.896C112.025 191.587 112.642 190.486 113.383 189.745C114.211 188.918 115.019 188.071 115.871 187.271C116.473 186.705 116.999 186.163 116.814 185.224C116.763 184.966 116.916 184.621 117.072 184.378C117.733 183.356 118.433 182.359 119.114 181.349C119.24 181.163 119.437 180.962 119.44 180.765C119.47 178.575 121.173 177.103 121.803 175.208C122.578 172.88 124.151 171.261 125.756 169.564C126.424 168.857 126.773 167.827 127.19 166.908C128.084 164.936 129.616 163.479 131.382 162.434C132.241 161.926 133.008 161.507 133.487 160.646C133.722 160.222 133.879 159.756 134.12 159.337C134.702 158.325 135.438 157.381 135.88 156.314C136.454 154.929 136.67 153.392 137.784 152.258C137.87 152.17 137.856 151.956 137.843 151.805C137.654 149.589 138.784 147.969 140.046 146.284C140.768 145.319 141.559 144.221 141.532 142.781C141.52 142.15 142.065 141.486 142.421 140.875C143.048 139.799 143.734 138.758 144.377 137.69C144.686 137.177 144.991 136.655 145.228 136.107C145.705 135.002 146.318 134.028 147.156 133.13C147.546 132.712 147.375 131.801 147.542 131.135C147.677 130.598 147.83 130.003 148.166 129.589C149.064 128.486 150.547 127.744 150.208 125.939C150.185 125.812 150.395 125.596 150.545 125.489C151.704 124.664 152.037 123.562 151.931 122.164C151.888 121.6 152.414 121.011 152.602 120.408C153.185 118.532 153.846 116.674 153.608 114.638C153.558 114.202 153.897 113.724 154.046 113.262C154.219 112.728 154.469 112.2 154.525 111.652C154.607 110.854 154.526 110.04 154.552 109.234C154.581 108.352 154.412 107.511 155.195 106.693C155.823 106.037 155.247 104.678 156.24 104.007C155.355 103.213 156.137 102.411 156.252 101.627C156.529 99.7503 157.39 98.193 158.8 96.8868C159.299 96.4252 159.541 95.676 159.865 95.0399C160.135 94.5092 160.268 93.8912 160.61 93.4183C161.504 92.1801 162.063 90.829 162.648 89.4174C163.3 87.8417 162.733 85.9869 163.981 84.6438C164.078 84.5386 164.158 84.3868 164.181 84.2462C164.445 82.5789 164.755 80.9155 164.929 79.2382C165.019 78.3718 165.026 77.5967 165.696 76.8711C166.349 76.1642 166.696 75.1849 167.279 74.4008C168.225 73.1298 169.254 71.9215 170.242 70.6822C170.283 70.6305 170.29 70.5269 170.274 70.457C169.902 68.9019 171.124 68.2081 171.945 67.2697C172.653 66.4605 173.172 65.4734 173.934 64.7272C174.555 64.1182 175.379 63.6827 176.175 63.2956C176.732 63.0242 177.376 62.9831 177.321 62.1127C177.308 61.907 177.59 61.6588 177.776 61.4688C178.623 60.6044 179.459 59.7272 180.345 58.9047C181.537 57.7987 182.073 56.3459 182.635 54.8879C182.768 54.5427 183.034 54.1278 183.345 53.9951C184.246 53.6113 184.337 52.9082 184.32 52.0954C184.316 51.8705 184.311 51.5611 184.444 51.4309C185.865 50.0378 187.308 48.6671 188.76 47.306C189.006 47.075 189.469 46.9813 189.582 46.7171C190.386 44.8403 191.647 43.6002 193.624 42.8435C194.622 42.4617 195.3 41.2587 196.139 40.4443C196.469 40.1239 196.832 39.8325 197.203 39.5602C197.782 39.1359 198.384 38.7445 198.969 38.3275C199.16 38.1909 199.307 37.9118 199.505 37.8784C201.375 37.5637 202.153 35.863 203.451 34.8281C203.744 34.5948 204.122 34.224 204.406 34.2679C205.524 34.4402 206.189 33.8514 206.86 33.1189C207.656 32.2496 208.419 31.3008 209.848 31.5359C210.09 31.5756 210.409 31.1788 210.684 30.9718C213.521 28.8333 216.064 26.3474 218.767 24.0753C220.197 22.8742 221.652 21.6112 223.174 20.4895C224.329 19.638 225.766 19.1773 227.05 18.4903C227.749 18.1161 228.392 17.6351 229.057 17.1979C230.072 16.5303 231.031 15.7863 232.366 15.8239C233.832 15.8653 235.236 15.9073 236.656 15.0592C237.494 14.5594 238.871 15.0672 239.942 14.8312C241.392 14.5116 242.777 13.9033 244.198 13.441C244.592 13.3127 245.044 13.1182 245.414 13.2012C247.227 13.6075 248.629 12.5809 250.077 11.8654C251.565 11.1305 252.94 10.2637 254.728 10.4747C255.261 10.5376 255.849 10.1153 256.416 9.92972C256.844 9.79004 257.277 9.5668 257.71 9.56334C261.38 9.53402 265.05 9.54042 268.72 9.55711C269.05 9.55861 269.461 9.61035 269.695 9.80539C270.738 10.6728 271.962 10.4553 273.157 10.5429C273.729 10.5848 274.303 10.8797 274.833 11.145C275.471 11.4645 276.184 11.7632 276.654 12.2667C277.889 13.5876 279.445 13.0269 280.887 13.198C281.544 13.2759 282.174 13.58 282.815 13.7865C282.956 13.8321 283.09 13.9473 283.229 13.9485C284.663 13.9605 285.802 15.1181 287.331 14.9027C288.478 14.7412 289.666 14.8654 290.835 14.8723C292.15 14.8799 293.388 15.2596 294.649 15.5248C296.659 15.9475 298.115 17.4591 300.249 17.651C301.729 17.7841 303.09 19.0666 304.54 19.7599C305.648 20.2892 306.812 20.7006 307.952 21.1623C308.159 21.2463 308.396 21.2824 308.576 21.4046C309.648 22.1336 310.778 22.8016 311.749 23.6497C312.449 24.261 313.12 24.6944 314.049 24.5447C315.021 24.3881 315.731 24.7351 316.323 25.5002C317.426 26.9278 319.073 27.4849 320.639 28.2116C321.694 28.7014 322.584 29.5355 323.606 30.111C325.072 30.9356 326.589 31.6673 328.089 32.4306C328.219 32.4971 328.38 32.5105 328.528 32.5365C329.92 32.7804 331.357 32.8809 332.69 33.3078C333.776 33.6556 334.678 34.6013 335.767 34.9111C337.599 35.4324 339.24 36.0826 340.69 37.4245C341.443 38.1216 342.8 38.1204 343.796 38.6137C344.969 39.1952 346.376 39.3849 347.2 40.6195C347.904 41.6745 348.652 42.718 349.511 43.6451C350.008 44.181 350.806 44.4241 351.391 44.896C351.902 45.3089 352.523 45.7874 352.706 46.3612C353.054 47.453 353.579 48.1519 354.756 48.277C354.931 48.2956 355.115 48.4024 355.258 48.5147C356.479 49.469 357.739 50.3811 358.89 51.4143C359.673 52.1177 360.309 52.8728 361.551 52.672C361.924 52.6117 362.608 53.0174 362.773 53.3807C363.552 55.0977 365.305 55.5102 366.713 56.1712C368.131 56.8371 369.066 57.8403 369.903 58.9818C370.485 59.7747 370.639 60.8758 371.199 61.6911C371.642 62.3353 372.418 62.7484 373.036 63.2749C373.543 63.7058 374.226 64.0594 374.496 64.6111C375.134 65.9118 375.749 67.1658 376.695 68.3178C377.442 69.2274 377.694 70.5436 378.164 71.6796C378.55 72.6091 378.86 73.5783 379.334 74.4601C380.099 75.885 380.931 77.279 381.818 78.6315C382.186 79.1929 382.802 79.585 383.243 80.107C383.66 80.6002 383.991 81.1653 384.366 81.6938C384.536 81.9327 384.688 82.2022 384.908 82.3847C385.985 83.2757 387.271 83.9924 388.113 85.0622C388.842 85.988 389.337 87.1502 389.619 88.4255C389.886 89.6362 390.77 90.7284 391.466 91.82C391.869 92.4514 392.599 92.9068 392.889 93.5695C393.319 94.5533 394.034 95.4329 393.955 96.6644C393.921 97.1934 394.608 97.7368 394.848 98.3228C395.229 99.2544 395.522 100.223 395.827 101.184C396.089 102.005 396.213 102.887 396.583 103.652C397.073 104.666 397.778 105.574 398.325 106.564C398.683 107.213 399.087 107.905 399.183 108.617C399.336 109.757 399.563 110.846 399.84 111.967C400.603 115.058 402.524 117.561 403.648 120.452C404.049 121.484 405.338 122.144 406.099 123.074C406.585 123.669 407.071 124.427 407.144 125.153C407.221 125.917 407.452 126.445 408.008 126.869C409.868 128.29 410.283 130.629 411.556 132.422C411.925 132.942 412.179 133.543 412.546 134.065C413.298 135.133 414.036 136.162 414.005 137.586C413.978 138.841 413.853 140.218 414.303 141.326C414.794 142.536 414.746 143.899 415.609 145.041C416.069 145.649 415.901 146.779 415.905 147.673C415.915 149.593 416.544 151.329 417.429 152.974C418.126 154.268 419.011 155.461 419.7 156.758C420.026 157.372 420.029 158.15 420.29 158.81C420.645 159.71 421.104 160.569 421.524 161.444C421.557 161.512 421.683 161.557 421.685 161.617C421.75 163.388 423.482 164.845 422.87 166.644C422.535 167.632 422.251 168.13 422.785 169.321C423.404 170.703 424.08 172.397 423.689 174.161C423.464 175.178 423.046 176.16 423.606 177.331C424.134 178.44 423.11 179.45 422.563 180.349C421.808 181.59 421.649 184.252 422.629 185.275C423.234 185.907 422.807 186.338 422.479 186.778C421.733 187.779 421.749 189.571 422.561 190.558C422.685 190.709 422.897 190.845 422.923 191.01C423.187 192.681 423.577 194.352 423.63 196.032C423.739 199.497 423.663 202.968 423.663 206.437C423.663 206.719 423.777 207.081 423.645 207.271C422.339 209.156 423.204 211.282 422.917 213.272C422.828 213.886 422.499 214.465 422.286 215.062C422.173 215.379 421.997 215.697 421.983 216.02C421.943 216.987 422.007 217.958 421.959 218.923C421.901 220.066 422.303 221.276 421.278 222.288C420.971 222.591 421.05 223.313 421.007 223.847C420.928 224.84 421.262 225.91 420.335 226.73C420.19 226.858 420.277 227.262 420.277 227.539C420.273 230.241 420.263 232.943 420.288 235.645C420.291 236.008 420.382 236.438 420.591 236.719C421.238 237.586 421.136 238.444 420.749 239.354C420.633 239.628 420.432 240.084 420.542 240.202C421.353 241.068 420.962 242.102 420.982 243.051C421.036 245.59 420.915 248.136 421.029 250.672C421.112 252.504 420.524 254.008 419.622 255.555C419.015 256.594 418.523 257.732 418.486 259.106C418.457 260.203 417.574 261.272 417.099 262.367C416.907 262.811 416.718 263.279 416.659 263.753C416.514 264.927 416.919 266.151 415.969 267.245C415.649 267.613 415.918 268.492 415.918 269.137C415.918 270.428 415.94 271.719 415.906 273.009C415.895 273.416 415.859 273.936 415.615 274.203C414.796 275.096 414.685 275.832 415.686 276.683C415.868 276.838 415.715 277.498 415.583 277.877C415.487 278.152 414.942 278.412 414.986 278.572C415.335 279.855 414.395 280.684 413.973 281.686C413.8 282.098 413.592 282.536 413.283 282.844C412.641 283.48 412.534 284.313 412.199 285.062C411.604 286.386 411.449 287.821 410.569 289.134C408.896 291.631 406.799 293.662 404.741 295.769C404.685 295.827 404.572 295.891 404.578 295.94C404.884 298.258 402.493 299.249 402.013 301.172C401.91 301.583 402.068 302.123 401.856 302.432C401.007 303.671 400.963 305.069 400.76 306.474C400.643 307.285 400.158 308.095 399.673 308.789C398.823 310.007 397.845 311.136 396.86 312.363ZM401.156 168.185C400.833 166.634 400.514 165.081 400.184 163.532C400.13 163.277 400.093 162.975 399.935 162.794C399.138 161.88 399.215 160.793 399.211 159.697C399.205 158.098 398.606 156.687 397.475 155.592C396.781 154.921 396.468 154.262 396.53 153.295C396.579 152.533 396.421 151.749 396.284 150.987C396.206 150.553 395.983 150.147 395.833 149.725C395.669 149.268 395.517 148.807 395.356 148.349C395.195 147.892 394.927 147.446 394.885 146.979C394.801 146.053 395.029 145.093 394.16 144.351C393.931 144.155 393.892 143.633 393.909 143.268C393.996 141.396 393.281 139.848 391.917 138.654C390.878 137.744 390.243 136.781 390.489 135.35C390.535 135.083 390.413 134.729 390.254 134.493C389.201 132.925 388.916 130.895 387.327 129.641C387.163 129.511 387.194 129.144 387.117 128.892C386.701 127.532 386.285 126.172 385.85 124.818C385.806 124.681 385.639 124.577 385.516 124.474C384.78 123.864 384.322 123.145 384.44 122.127C384.472 121.851 384.357 121.513 384.205 121.267C383.232 119.69 382.17 118.164 381.257 116.554C380.467 115.161 379.943 113.61 379.102 112.252C378.246 110.869 377.33 109.548 376.949 107.933C376.865 107.578 376.518 107.268 376.49 106.922C376.349 105.161 376.749 103.402 375.577 101.707C374.923 100.761 375.027 99.2946 374.769 98.0671C374.724 97.8546 374.613 97.6349 374.474 97.467C373.228 95.9624 371.988 94.4529 370.708 92.977C369.799 91.9277 368.846 90.9146 367.881 89.9161C367.656 89.6834 367.307 89.4488 367.006 89.4368C366.388 89.4121 366.044 89.2935 366.032 88.5683C366.028 88.2845 365.678 87.9979 365.467 87.7268C364.006 85.8506 362.877 83.703 360.941 82.2124C360.816 82.116 360.808 81.8713 360.739 81.698C360.12 80.1394 359.716 78.4412 358.822 77.0605C357.837 75.5394 356.433 74.2787 355.141 72.9747C354.801 72.6321 354.18 72.5856 353.724 72.3381C352.963 71.9255 352.219 71.4793 351.495 71.005C351.299 70.8763 351.102 70.6074 351.076 70.3831C350.947 69.274 350.235 68.7408 349.292 68.3363C348.946 68.1878 348.563 67.8788 348.42 67.5469C347.889 66.3107 347.077 65.425 345.814 64.9055C344.953 64.551 344.052 64.1822 343.335 63.6113C341.882 62.4548 340.661 61.1039 338.983 60.1139C336.658 58.7422 334.79 56.6155 332.629 54.9381C331.731 54.2414 330.626 53.6216 329.532 53.4241C328.542 53.245 327.934 52.7659 327.238 52.1871C326.273 51.3853 325.306 50.4191 324.167 50.0415C323.043 49.6687 322.103 48.5381 320.716 48.973C320.621 49.0027 320.447 48.6994 320.282 48.5959C319.066 47.8349 317.855 47.0643 316.618 46.3394C315.746 45.829 314.708 45.531 313.97 44.8818C312.505 43.593 310.958 42.7199 308.95 42.9471C308.01 43.0536 307.361 42.6209 306.651 42.0356C305.791 41.326 304.757 40.429 303.755 40.3726C301.79 40.2619 300.295 39.1286 298.785 38.3051C296.668 37.1506 295.007 35.1876 293.027 33.7409C292.088 33.0553 290.899 32.6026 289.755 32.3376C288.386 32.0204 286.832 32.732 285.571 31.5888C285.416 31.4483 285.024 31.5696 284.741 31.5696C282.16 31.5696 279.579 31.5698 276.997 31.5694C276.715 31.5694 276.287 31.6852 276.175 31.5465C274.93 30.0045 273.218 30.7998 271.711 30.5974C271.337 30.5471 270.916 30.5343 270.607 30.3518C269.03 29.4219 267.463 28.6245 265.512 28.8789C264.322 29.034 263.095 28.9027 261.885 28.9112C261.614 28.9131 261.227 28.8561 261.091 29.0058C260.369 29.7998 259.445 29.6266 258.556 29.6314C257.104 29.6392 255.642 29.531 254.202 29.6614C252.663 29.8008 251.346 31.0164 249.678 30.7077C249.633 30.6994 249.572 30.8226 249.508 30.8692C248.275 31.7594 246.978 32.4878 245.38 32.2907C243.51 32.0599 242.028 33.8733 240.092 33.2748C240.056 33.2637 239.972 33.3743 239.925 33.4384C239.295 34.2877 238.39 34.2711 237.469 34.2372C237.116 34.2241 236.698 34.1588 236.416 34.3125C235.097 35.0316 233.729 35.6835 232.765 36.9296C232.51 37.2595 232.027 37.4671 231.608 37.6049C230.739 37.8901 230.452 38.6728 231.142 39.2787C231.823 39.8767 232.576 40.4805 233.405 40.805C235.175 41.498 236.634 42.964 238.691 42.9573C238.933 42.9565 239.201 43.0981 239.414 43.2395C240.672 44.0766 241.931 44.8433 243.559 44.6671C243.915 44.6286 244.31 44.9577 244.689 45.1152C245.859 45.6022 247.005 46.4072 248.204 46.4956C249.796 46.613 250.942 47.335 252.13 48.1895C253.397 49.1013 254.64 50.0738 256.001 50.8232C258.192 52.0287 260.392 53.3122 262.743 54.0934C264.105 54.5457 265.581 54.789 266.997 55.2165C267.801 55.4591 268.587 55.5504 269.116 56.2439C269.605 56.8864 270.221 57.0297 270.994 57.0038C271.596 56.9836 272.377 56.9664 272.779 57.304C273.945 58.2825 275.02 59.3898 276.015 60.5457C276.678 61.3149 277.244 62.0202 278.304 62.3723C278.952 62.5877 279.394 63.4531 279.904 64.0478C280.302 64.5121 280.658 65.0119 281.038 65.4909C281.546 66.1291 282.296 66.6894 282.52 67.4135C282.949 68.8005 284.052 69.4375 285.051 70.216C285.802 70.8007 286.623 71.294 287.386 71.864C287.516 71.961 287.616 72.2911 287.55 72.4265C286.871 73.8276 286.095 75.1607 284.838 76.1527C284.584 76.3535 284.343 76.6897 284.283 76.9995C284.036 78.2863 283.081 78.9487 282.095 79.5737C281.865 79.7193 281.358 79.8064 281.232 79.6758C280.283 78.6897 279.312 78.1046 277.825 77.8546C276.539 77.6384 275.281 76.43 274.306 75.3851C272.779 73.7494 270.729 73.0833 268.912 71.9894C268.335 71.6418 267.719 71.0483 267.139 71.07C265.069 71.1475 263.641 69.7111 261.906 69.0367C259.749 68.1975 257.971 66.3601 255.388 66.6492C255.228 66.6671 255.041 66.5236 254.878 66.4346C253.398 65.6254 251.937 64.7783 250.437 64.008C248.777 63.1558 247.078 62.3802 245.403 61.5569C244.129 60.9305 242.903 59.8783 241.587 59.757C240.285 59.637 239.41 58.8772 238.308 58.5199C235.884 57.7349 234.069 55.6771 231.491 55.105C230.982 54.9922 230.597 54.3766 230.125 54.0347C229.011 53.2286 227.974 52.197 226.729 51.7248C225.4 51.2208 224.611 50.2629 223.757 49.3252C222.375 47.8067 220.81 46.5506 218.987 45.6251C218.738 45.4989 218.228 45.4964 218.064 45.661C217.259 46.4687 216.529 47.3506 215.776 48.2096C215.337 48.71 214.951 49.2682 214.459 49.7072C213.86 50.2414 213.152 50.6515 212.528 51.1612C210.626 52.7164 208.743 54.2956 206.846 55.8572C206.738 55.9465 206.571 55.9975 206.428 56.0074C204.579 56.1357 203.069 56.9544 201.792 58.2575C201.652 58.4004 201.526 58.6165 201.357 58.6623C199.763 59.0933 198.769 60.1454 198.168 61.6348C198.084 61.8419 197.988 62.0811 197.823 62.2123C196.115 63.5735 195.443 65.6855 194.91 67.5257C194.464 69.0661 193.599 69.9434 192.698 70.9868C192.549 71.1594 192.425 71.3548 192.301 71.5476C190.971 73.6224 189.854 75.8479 187.913 77.4807C187.175 78.1015 186.529 78.833 185.855 79.5276C185.641 79.748 185.411 79.9857 185.291 80.2604C184.386 82.3456 183.542 84.4577 182.609 86.5299C181.858 88.1972 181.008 89.8201 180.204 91.4634C179.551 92.7972 178.596 94.037 178.978 95.6823C179.058 96.0268 179.139 96.6081 178.966 96.7365C177.621 97.7305 177.243 99.1529 177.032 100.679C177.023 100.742 176.911 100.785 176.869 100.852C176.444 101.522 175.979 102.172 175.614 102.874C175.236 103.599 174.726 104.362 174.683 105.131C174.601 106.594 173.651 107.629 173.206 108.893C172.773 110.125 171.67 111.095 171.928 112.625C172.047 113.332 171.849 114.189 171.535 114.855C170.433 117.19 168.821 119.338 169.285 122.167C169.353 122.579 169.161 123.071 168.984 123.48C168.17 125.362 166.761 126.995 166.635 129.167C166.623 129.372 166.436 129.564 166.344 129.768C165.758 131.067 164.642 132.157 164.926 133.795C165.02 134.337 164.902 134.977 164.698 135.5C163.937 137.443 163.111 139.36 162.284 141.276C162.003 141.927 161.67 142.558 161.318 143.174C160.291 144.972 159.766 147.006 158.104 148.51C156.629 149.844 155.494 151.575 154.314 153.207C153.638 154.142 153.044 155.181 152.646 156.259C152.243 157.35 152.153 158.553 151.866 159.692C151.788 160.003 151.485 160.255 151.301 160.544C151.16 160.765 150.992 160.988 150.925 161.234C150.549 162.614 150.434 164.123 149.787 165.356C148.9 167.048 148.475 169.053 146.852 170.32C146.733 170.413 146.606 170.545 146.568 170.683C146.106 172.354 145.252 173.762 143.95 174.93C142.93 175.845 141.985 176.844 141.039 177.837C140.729 178.162 140.491 178.569 140.273 178.967C139.088 181.137 138.505 183.629 136.756 185.498C136.28 186.007 135.827 186.542 135.403 187.095C134.728 187.978 134.076 188.88 133.434 189.788C133.108 190.251 132.788 190.726 132.53 191.228C131.814 192.624 131.266 194.126 130.402 195.419C129.285 197.09 127.928 198.599 126.67 200.174C126.021 200.987 126.146 201.284 127.169 201.716C128.096 202.108 129.007 202.557 129.874 203.068C130.789 203.608 131.58 204.405 132.542 204.811C133.737 205.314 134.69 206.05 135.505 206.996C137.519 209.328 139.96 211.214 141.78 213.801C143.128 215.717 144.888 217.512 147.141 218.755C148.702 219.617 149.837 221.27 151.12 222.609C153.459 225.051 156.313 227.08 157.392 230.538C157.622 231.276 158.011 232.018 158.506 232.606C159.381 233.644 160.466 234.484 160.987 235.824C161.391 236.864 162.006 237.82 162.501 238.827C163.012 239.864 163.543 240.896 163.97 241.969C164.398 243.043 164.43 244.411 165.135 245.208C166.314 246.54 166.874 248.153 167.799 249.561C168.738 250.991 169.924 252.296 170.977 253.678C172.354 255.485 174.017 257.013 174.774 259.277C175.374 261.07 176.983 262.313 177.705 264.112C178.02 264.894 178.157 265.364 177.542 265.962C176.328 267.144 175.141 268.352 173.944 269.551C173.233 270.264 172.38 270.531 171.545 269.926C170.869 269.436 170.287 268.775 169.781 268.101C168.263 266.08 166.828 263.996 165.304 261.979C164.803 261.315 164.08 260.821 163.55 260.174C162.923 259.408 162.475 258.488 161.809 257.764C160.526 256.37 159.145 255.067 157.804 253.727C157.605 253.527 157.238 253.329 157.235 253.126C157.209 251.387 155.778 250.307 154.869 249.31C153.155 247.428 152.017 245.276 151.126 243.062C150.078 240.456 147.953 238.705 146.6 236.358C145.685 234.772 144 233.63 142.66 232.29C141.951 231.582 141.001 230.993 140.581 230.143C139.374 227.695 137.527 226.156 134.945 225.403C134.745 225.345 134.524 225.056 134.474 224.837C134.082 223.11 132.538 222.382 131.408 221.318C130.575 220.534 129.572 219.931 128.647 219.244C128.276 218.968 127.92 218.671 127.542 218.405C126.795 217.878 125.924 217.474 125.308 216.825C124.257 215.72 122.991 215.147 121.57 214.759C120.963 214.594 120.36 214.347 119.821 214.026C119.004 213.54 118.251 212.945 117.451 212.429C117.353 212.366 117.051 212.447 116.974 212.555C116.331 213.452 115.736 214.383 115.095 215.281C113.76 217.151 112.504 219.091 111.035 220.851C108.721 223.623 105.366 225.554 104.277 229.317C104.22 229.516 103.867 229.641 103.637 229.773C103.28 229.978 102.787 230.07 102.57 230.368C102.065 231.062 101.822 231.984 101.232 232.572C100.233 233.568 99.5021 234.999 97.8209 235.114C97.6975 235.123 97.4792 235.325 97.4864 235.424C97.6062 237.056 96.0444 236.942 95.2262 237.478C93.4444 238.645 91.4097 239.433 89.6569 240.636C87.3243 242.237 86.0295 244.799 84.3644 247.01C84.2737 247.131 84.2017 247.265 84.1211 247.393C83.3344 248.64 82.7361 250.073 81.7248 251.099C79.0122 253.85 76.5689 256.928 73.094 258.838C72.6646 259.074 72.2175 259.303 71.8461 259.615C70.9991 260.327 69.9667 260.952 69.42 261.859C68.3554 263.627 67.5543 265.613 65.9247 266.916C63.4402 268.903 62.209 271.909 59.879 273.995C59.776 274.087 59.6672 274.273 59.6895 274.39C59.9783 275.913 58.8071 276.62 58.0066 277.578C56.1473 279.804 53.3279 281.208 52.3403 284.18C52.3175 284.248 52.2396 284.311 52.1721 284.35C50.4033 285.374 50.6186 287.647 49.2874 288.95C49.2448 288.991 49.3009 289.174 49.3535 289.266C49.6878 289.855 49.9242 290.552 50.3946 291.002C52.8795 293.382 55.1498 295.934 57.1552 298.735C57.7113 299.511 58.5103 300.112 59.1856 300.806C59.3723 300.998 59.5975 301.209 59.6644 301.451C60.061 302.883 60.8435 304.048 61.8139 305.173C62.9073 306.441 63.7922 307.889 64.7542 309.268C64.8785 309.447 64.896 309.696 65.0077 309.887C65.2186 310.246 65.4107 310.639 65.7024 310.925C66.378 311.586 67.148 312.151 67.8086 312.825C69.445 314.496 71.3563 315.765 73.3659 316.934C73.9265 317.261 74.2406 318.002 74.6866 318.537C74.9187 318.816 75.1606 319.106 75.4547 319.308C75.7565 319.516 76.1538 319.583 76.4628 319.783C77.2621 320.301 78.0638 320.824 78.808 321.416C79.1895 321.719 79.4431 322.18 79.7662 322.561C80.5653 323.5 81.2341 324.628 82.2108 325.32C83.3002 326.09 84.8816 326.173 85.3975 327.728C85.4316 327.83 85.5476 327.949 85.6496 327.98C88.0881 328.714 89.1064 331.319 91.4812 332.307C92.5413 332.748 93.4332 333.461 94.6768 333.364C95.8921 333.269 97.0097 333.429 98.1287 334.1C98.9966 334.62 99.9191 335.332 101.121 335.086C101.295 335.05 101.769 335.485 101.755 335.677C101.654 337.087 102.248 338.607 101.085 339.877C100.844 340.14 100.836 340.676 100.831 341.087C100.807 343.144 100.822 345.201 100.819 347.258C100.817 348.083 100.43 348.727 99.6397 348.892C99.2136 348.981 98.5092 348.841 98.2691 348.537C96.696 346.546 94.3429 347.047 92.7378 347.587C90.7652 348.251 88.9191 347.86 87.0402 348.105C86.8058 348.136 86.5471 347.949 86.2948 347.88C85.6777 347.713 85.0662 347.489 84.437 347.408C83.0398 347.227 81.6042 347.743 80.3104 346.48C79.3618 345.554 77.6332 345.387 76.7716 344.419C73.795 341.076 70.0363 338.65 66.8411 335.579C66.5824 335.331 66.1628 335.258 65.8604 335.044C65.3154 334.658 64.7158 334.3 64.2943 333.799C63.429 332.772 62.7106 331.621 61.8501 330.589C60.7531 329.273 59.5531 328.08 58.5296 326.66C56.4904 323.832 53.952 321.368 51.695 318.69C50.5601 317.344 49.59 315.858 48.5455 314.435C48.4774 314.343 48.413 314.247 48.3418 314.157C47.536 313.135 46.7012 312.134 45.934 311.084C45.5333 310.536 45.2237 309.914 44.9235 309.301C44.6621 308.766 44.5898 308.099 44.226 307.664C43.4077 306.687 42.4257 305.89 41.973 304.592C41.5815 303.469 40.7261 303.368 40.0226 304.286C39.4573 305.022 39.0447 305.887 38.634 306.729C38.2591 307.497 37.9858 308.315 37.6525 309.104C37.3626 309.791 37.0482 310.467 36.7507 311.151C36.4831 311.766 36.2205 312.384 35.9621 313.003C35.8186 313.346 35.6741 313.691 35.5546 314.044C35.202 315.083 34.527 315.869 33.8315 316.717C32.4906 318.353 31.4698 320.247 30.2496 321.987C29.4287 323.157 28.4682 324.229 27.6257 325.386C27.3966 325.7 27.3427 326.156 27.2569 326.557C27.1918 326.861 27.3274 327.293 27.1617 327.478C25.8978 328.888 26.3696 330.593 26.2731 332.204C26.2529 332.541 26.159 332.878 26.0647 333.205C25.9093 333.743 25.6425 334.263 25.572 334.81C25.4317 335.898 25.6931 337.154 25.2312 338.054C24.731 339.029 24.5971 339.925 24.5665 340.94C24.5547 341.333 24.3139 341.716 24.1881 342.107C23.9933 342.713 23.7797 343.314 23.624 343.93C23.2816 345.283 23.2923 346.855 22.5735 347.955C21.4064 349.741 21.0244 351.549 21.207 353.573C21.2297 353.825 21.3209 354.105 21.4694 354.306C22.4363 355.615 22.1721 357.243 21.7336 358.403C21.3834 359.329 21.2405 360.172 21.2115 361.08C21.1627 362.612 21.1887 364.146 21.2063 365.678C21.2097 365.977 21.2943 366.281 21.383 366.57C21.5471 367.105 21.8359 367.619 21.9076 368.163C22.1834 370.256 21.2529 372.527 22.8738 374.431C23.0131 374.594 22.8922 374.98 22.8922 375.262C22.8922 377.843 22.8718 380.425 22.9125 383.006C22.9192 383.43 23.2205 383.842 23.3408 384.272C23.6834 385.497 24.789 386.426 24.6101 387.874C24.4871 388.868 24.4062 389.911 25.2903 390.74C25.5178 390.953 25.5898 391.475 25.5343 391.823C25.2933 393.333 26.4524 394.485 26.5146 395.906C26.5194 396.017 26.5651 396.126 26.5976 396.234C26.8137 396.951 27.1009 397.656 27.2289 398.388C27.3573 399.122 27.028 400.171 27.4215 400.582C28.7744 401.997 27.7692 404.022 28.9172 405.448C29.2684 405.883 29.2929 406.572 29.5119 407.127C29.8674 408.028 30.4726 408.891 30.5779 409.814C30.6877 410.777 31.062 411.438 31.7393 412.006C31.8752 412.12 32.1572 412.195 32.3092 412.133C33.5523 411.629 34.7847 411.098 36.0115 410.555C36.6938 410.254 37.3698 409.934 38.0301 409.587C39.4228 408.856 40.7994 408.094 42.1925 407.363C42.4474 407.23 42.7495 407.186 43.0298 407.101C42.9577 407.381 42.9687 407.732 42.7995 407.93C41.9786 408.886 41.932 411.736 42.9075 412.506C44.5531 413.806 45.373 415.85 47.132 417.029C47.3008 417.142 47.4209 417.395 47.4733 417.605C47.999 419.715 50.2865 420.976 50.2424 423.358C50.2411 423.429 50.2619 423.521 50.3082 423.569C52.0694 425.389 53.7902 427.229 56.2812 428.137C57.4652 428.569 58.5268 429.33 59.6577 429.915C60.5193 430.361 61.5432 430.604 62.2481 431.22C63.871 432.637 65.6157 433.428 67.8128 433.357C68.4887 433.335 69.2135 433.836 69.8623 434.195C70.8523 434.742 71.765 435.433 72.7662 435.956C74.1869 436.699 75.6822 437.299 77.1024 438.043C79.4352 439.265 81.6365 440.816 84.5122 440.359C84.9728 440.286 85.6391 440.51 85.9736 440.838C86.8002 441.648 87.6382 442.222 88.862 442.063C89.0634 442.037 89.2908 442.36 89.5319 442.46C90.0141 442.659 90.5038 442.921 91.0086 442.97C92.8813 443.152 94.8916 442.476 96.5552 443.915C96.6274 443.978 96.785 443.932 96.8976 443.959C98.0355 444.229 99.1736 444.498 100.308 444.783C100.484 444.827 100.636 444.964 100.809 445.031C101.366 445.245 101.924 445.457 102.49 445.645C102.741 445.729 103.009 445.774 103.273 445.799C103.757 445.845 104.243 445.887 104.729 445.888C106.038 445.892 107.488 445.511 108.62 445.953C110.103 446.531 111.582 447.021 113.126 447.332C113.996 447.507 114.993 447.343 115.754 447.705C117.171 448.379 118.962 448.431 119.902 449.997C119.991 450.144 120.32 450.132 120.519 450.23C121.792 450.856 122.826 452.016 124.409 451.954C124.492 451.951 124.566 452.145 124.67 452.188C125.082 452.361 125.502 452.641 125.923 452.648C128.544 452.69 131.166 452.679 133.788 452.658C134.158 452.656 134.652 452.631 134.876 452.406C135.786 451.486 136.903 451.707 137.985 451.704C140.365 451.696 142.745 451.694 145.124 451.709C145.462 451.711 145.823 451.767 146.134 451.894C147.514 452.456 148.833 453.252 150.262 453.595C153.102 454.278 155.722 452.736 158.485 452.48C158.559 452.473 158.667 452.47 158.7 452.423C159.375 451.473 160.378 451.709 161.308 451.704C162.881 451.694 164.456 451.654 166.027 451.72C166.893 451.755 167.572 451.58 168.104 450.861C168.608 450.178 169.312 449.959 170.166 449.991C171.323 450.036 172.524 450.233 173.512 449.299C173.726 449.096 174.153 449.058 174.484 449.05C175.653 449.022 176.824 449.054 177.993 449.028C178.285 449.022 178.574 448.883 178.863 448.802C179.441 448.64 180.01 448.419 180.599 448.326C181.444 448.193 182.38 448.339 183.142 448.031C184.592 447.444 185.884 446.437 187.356 445.945C188.769 445.472 190.281 445.346 191.709 444.76C192.35 444.497 193.017 444.408 193.515 443.848C193.74 443.596 194.04 443.311 194.347 443.251C195.829 442.962 197.339 442.84 198.694 442.042C199.195 441.747 199.829 441.654 200.416 441.537C201.857 441.249 203.267 440.761 204.663 440.452C206.119 440.131 206.902 439.349 207.803 438.438C208.143 438.095 208.68 437.661 209.073 437.709C210.703 437.91 212.014 436.913 213.516 436.685C213.799 436.642 214.057 436.44 214.333 436.327C214.643 436.199 214.961 435.986 215.274 435.989C216.264 436.001 217.208 436.016 218.018 435.266C218.258 435.044 218.738 435.016 219.108 435.013C221.689 434.993 224.271 435.004 226.852 435C227.169 435 227.53 435.065 227.794 434.94C229.042 434.346 230.295 433.748 231.483 433.045C232.119 432.67 233.119 432.129 232.438 431.235C231.281 429.719 231.614 427.828 230.947 426.155C230.245 424.395 229.239 422.875 228.17 421.526C226.23 419.076 223.803 417.011 221.574 414.79C221.354 414.571 221.117 414.252 220.853 414.212C219.385 413.987 219.094 412.672 218.727 411.676C217.735 408.987 215.878 406.782 214.048 404.848C212.216 402.911 209.796 401.424 207.903 399.421C207.709 399.216 207.399 399.056 207.321 398.816C206.384 395.936 204.7 393.476 202.925 391.084C202.291 390.23 202.073 389.509 202.703 388.62C202.742 388.564 202.706 388.461 202.734 388.392C203.359 386.8 205.102 385.894 206.316 386.926C207.29 387.754 208.094 388.518 209.386 388.869C210.477 389.165 211.442 389.922 212.466 390.472C214.255 391.433 216.304 391.943 217.74 393.519C217.866 393.658 218.03 393.794 218.204 393.853C219.942 394.453 221.298 395.645 222.671 396.787C223.8 397.726 224.634 399.001 226.166 399.475C226.589 399.606 226.809 400.339 227.163 400.761C227.685 401.382 228.23 401.984 228.793 402.568C229.19 402.981 229.641 403.341 230.052 403.741C230.889 404.556 231.62 405.526 232.577 406.155C233.294 406.627 234.019 406.89 234.273 407.842C234.413 408.364 234.832 408.832 235.19 409.27C236.77 411.205 239.175 412.448 239.994 415.029C240.047 415.195 240.411 415.238 240.541 415.406C241.097 416.13 241.658 416.856 242.146 417.626C243.237 419.347 244.282 421.097 245.353 422.83C245.81 423.57 246.261 424.317 246.766 425.024C246.937 425.262 247.294 425.568 247.52 425.535C249.129 425.297 250.592 424.552 252.278 424.391C253.372 424.285 254.605 423.272 255.348 422.329C257.32 419.826 260.411 419.243 262.9 417.655C264.133 416.868 265.738 416.765 266.212 414.992C266.316 414.601 266.914 414.255 267.36 414.057C269.292 413.198 271.299 412.503 272.873 410.98C273.161 410.701 273.707 410.595 274.14 410.58C274.975 410.552 275.625 410.347 276.058 409.552C276.22 409.254 276.614 409.066 276.929 408.871C277.439 408.555 278.083 408.38 278.477 407.962C280.975 405.308 283.67 402.935 286.992 401.33C287.397 401.134 287.566 400.473 287.881 400.056C288.118 399.742 288.368 399.396 288.693 399.199C289.59 398.657 290.711 398.364 291.415 397.649C293.07 395.97 294.783 394.487 297.067 393.706C297.574 393.532 297.923 392.83 298.291 392.331C298.532 392.005 298.59 391.508 298.878 391.258C300.199 390.107 301.608 389.056 302.919 387.895C305.165 385.906 307.523 384.2 310.701 384.171C310.874 384.169 311.047 384.04 311.219 383.968C312.385 383.474 313.592 383.056 314.709 382.467C316.106 381.729 317.435 380.859 318.779 380.023C319.008 379.881 319.338 379.616 319.328 379.423C319.265 378.24 320.216 377.738 320.836 377.008C321.634 376.069 322.765 375.433 323.107 374.071C323.289 373.348 323.79 372.376 324.386 372.153C325.749 371.642 326.502 370.544 327.455 369.641C328.315 368.826 328.934 367.696 329.896 367.066C331.191 366.217 332.711 365.71 334.136 365.062C336.064 364.185 337.211 362.462 338.569 360.968C338.641 360.889 338.66 360.764 338.718 360.669C339.381 359.572 340.034 358.468 340.724 357.389C340.828 357.226 341.149 357.217 341.303 357.068C341.908 356.485 342.666 355.966 343.028 355.252C343.495 354.33 343.981 353.627 345.046 353.433C345.289 353.388 345.614 353.254 345.716 353.062C346.081 352.372 346.408 351.655 346.674 350.921C347.217 349.422 347.918 348.066 349.149 346.973C350.473 345.796 351.68 344.487 352.924 343.22C353.162 342.978 353.32 342.658 353.529 342.386C354.353 341.314 355.034 340.065 356.054 339.232C356.951 338.499 357.196 337.763 357.109 336.75C357.023 335.741 357.39 335.023 358.271 334.447C358.803 334.099 359.296 333.521 359.536 332.936C359.851 332.167 360.129 331.543 361.05 331.389C361.225 331.36 361.447 330.908 361.447 330.651C361.447 329.111 362.436 328.06 363.205 326.893C363.536 326.391 363.813 325.853 364.13 325.341C364.975 323.974 365.669 322.546 366.906 321.395C367.697 320.658 368.269 319.409 368.408 318.322C368.575 317.023 369.297 316.053 369.842 315.029C370.629 313.553 371.824 312.295 372.837 310.937C372.946 310.79 372.988 310.595 373.085 310.437C373.835 309.214 374.574 307.984 375.358 306.783C375.512 306.546 375.84 306.419 376.097 306.254C376.765 305.824 377.529 305.497 378.092 304.959C379.728 303.393 381.549 301.932 382.363 299.722C382.827 298.461 383.94 297.368 383.501 295.828C383.443 295.624 383.48 295.324 383.596 295.153C384.555 293.738 385.404 292.305 385.205 290.48C385.173 290.185 385.406 289.846 385.557 289.549C386.185 288.315 387.055 287.251 387.197 285.726C387.289 284.727 387.887 283.397 388.682 282.918C390.464 281.842 390.481 279.524 392.197 278.519C392.232 278.499 392.176 278.354 392.205 278.287C392.757 277.023 393.477 275.803 393.17 274.329C393.162 274.291 393.152 274.229 393.172 274.212C394.296 273.244 393.77 271.934 393.901 270.759C393.943 270.385 393.962 269.958 394.153 269.659C395.109 268.163 396.076 266.688 395.836 264.783C395.822 264.675 395.83 264.51 395.897 264.453C396.756 263.73 396.507 262.742 396.563 261.818C396.656 260.289 396.11 258.644 397.412 257.321C397.583 257.148 397.464 256.713 397.534 256.412C397.609 256.087 397.747 255.776 397.859 255.459C398.07 254.861 398.317 254.273 398.484 253.663C398.684 252.933 398.81 252.184 398.981 251.446C399.04 251.192 399.168 250.953 399.215 250.698C399.503 249.133 398.711 247.886 398.022 246.596C397.495 245.609 396.671 244.595 396.636 243.57C396.567 241.543 395.792 240.014 394.434 238.637C394.162 238.361 393.902 237.896 393.926 237.539C394.009 236.335 393.816 235.213 393.161 234.213C392.067 232.54 391.729 230.432 390.149 229.04C389.897 228.818 389.65 228.515 389.558 228.203C389.032 226.426 388.021 224.963 386.715 223.694C385.256 222.277 383.727 220.93 382.293 219.488C380.319 217.503 378.415 215.448 376.463 213.44C375.235 212.177 373.941 210.979 372.748 209.685C372.272 209.169 372.107 208.345 371.599 207.885C368.868 205.411 366.717 202.332 363.474 200.377C362.117 199.559 361.154 198.073 359.552 197.614C358.135 197.207 357.278 196.162 356.306 195.216C356.11 195.026 355.916 194.776 355.675 194.699C354.118 194.199 352.771 193.429 351.603 192.235C347.938 188.486 344.196 184.811 340.506 181.086C340.113 180.689 339.916 180.104 339.545 179.679C338.609 178.609 337.791 177.294 336.616 176.61C335.284 175.835 334.265 174.815 333.2 173.792C332.703 173.314 332.778 172.892 333.302 172.401C333.738 171.992 333.965 171.367 334.375 170.92C334.779 170.479 335.263 169.895 335.774 169.825C336.329 169.748 336.985 170.135 337.547 170.419C339.583 171.448 341.521 172.726 343.641 173.523C346.423 174.567 348.214 176.946 350.738 178.299C351.641 178.782 352.416 179.5 353.275 180.071C354.092 180.613 354.941 181.108 355.78 181.616C356.327 181.946 356.896 182.242 357.433 182.588C359.28 183.778 361.456 184.347 363.03 186.104C364.209 187.419 365.881 188.291 367.334 189.361C367.396 189.406 367.458 189.45 367.523 189.488C368.692 190.174 369.859 190.86 371.029 191.542C372.237 192.246 373.337 193.001 374.364 194.038C376.938 196.634 379.847 198.894 382.525 201.392C383.592 202.386 384.943 203.217 385.309 204.826C385.355 205.032 385.699 205.188 385.928 205.329C386.375 205.605 386.871 205.811 387.29 206.122C390.067 208.182 391.488 211.431 393.964 213.763C394.863 214.611 395.807 215.447 396.53 216.436C397.46 217.708 398.05 219.241 399.042 220.452C399.998 221.619 400.605 222.854 400.926 224.289C400.978 224.523 401.19 224.721 401.328 224.937C401.518 224.81 401.793 224.725 401.878 224.549C402.023 224.251 402.123 223.891 402.109 223.563C402.072 222.708 401.96 221.855 401.882 221.001C401.817 220.278 402.152 219.452 401.33 218.922C401.28 218.89 401.305 218.699 401.334 218.592C401.51 217.94 401.836 217.295 401.856 216.64C401.923 214.464 401.863 212.285 401.899 210.107C401.906 209.715 402.143 209.328 402.271 208.937C402.969 206.809 404.891 205.123 404.552 202.617C404.533 202.481 404.583 202.291 404.674 202.191C405.846 200.9 405.498 199.317 405.49 197.816C405.488 197.392 405.222 196.968 405.073 196.546C404.899 196.053 404.647 195.575 404.559 195.068C404.383 194.049 404.677 193.036 404.118 191.974C403.467 190.738 403.126 189.295 402.88 187.902C402.52 185.864 403.528 183.616 401.922 181.751C401.801 181.609 401.92 181.281 401.877 181.049C401.659 179.873 402.742 178.947 402.744 178.061C402.748 175.586 403.553 172.987 402.135 170.61C401.969 170.332 401.994 169.946 401.874 169.631C401.702 169.179 401.478 168.747 401.156 168.185Z" fill="#508EC9"/>
<path d="M250.322 230.563C252.35 232.591 254.352 234.526 256.268 236.542C257.027 237.341 257.577 238.336 258.261 239.212C258.576 239.617 258.984 239.951 259.349 240.316C260.49 241.457 261.639 242.589 262.763 243.745C262.965 243.953 263.183 244.26 263.187 244.524C263.2 245.36 263.53 245.769 264.395 245.766C264.632 245.765 264.905 245.922 265.101 246.081C266.494 247.208 267.822 248.423 269.273 249.469C270.14 250.095 271.216 250.422 272.155 250.959C273.789 251.894 275.33 253.013 277.023 253.818C278.396 254.47 279.513 255.341 280.547 256.415C282.168 258.099 283.893 259.686 285.482 261.4C286.532 262.532 287.447 263.794 288.369 265.037C289 265.888 289.551 266.799 290.108 267.703C290.24 267.917 290.272 268.203 290.309 268.463C290.353 268.773 290.229 269.205 290.394 269.387C291.67 270.793 291.155 272.503 291.308 274.107C291.362 274.68 291.749 275.214 291.898 275.787C292.022 276.263 292.184 276.835 292.024 277.245C291.897 277.569 291.331 277.817 290.917 277.91C290.419 278.023 289.865 277.872 289.353 277.949C287.773 278.187 286.601 277.255 285.268 276.696C283.809 276.084 282.899 274.673 281.62 274.106C279.347 273.097 278.151 271.045 276.318 269.666C275.211 268.833 273.76 268.406 272.787 267.462C271.321 266.041 269.14 265.654 267.972 263.792C267.516 263.063 266.437 262.728 265.648 262.203C265.423 262.054 265.203 261.889 265.01 261.701C264.346 261.054 263.64 260.438 263.051 259.727C261.951 258.4 260.502 257.674 258.943 257.067C258.529 256.906 258.171 256.55 257.844 256.225C254.955 253.355 252.036 250.512 249.216 247.576C247.536 245.827 245.767 244.077 244.512 242.036C243.681 240.684 242.62 239.602 241.726 238.357C240.57 236.747 239.614 234.977 238.716 233.203C237.792 231.377 236.949 229.496 236.257 227.572C235.963 226.753 236.02 225.748 236.131 224.854C236.316 223.366 235.479 222.251 234.796 221.17C234.121 220.102 234.603 219.075 234.437 218.048C234.422 217.956 234.798 217.677 234.97 217.696C236.449 217.855 237.436 216.794 238.602 216.223C239.387 215.839 239.509 216.002 239.773 216.765C240.149 217.849 240.706 218.899 241.346 219.856C242.183 221.11 243.784 221.746 244.199 223.406C244.272 223.698 245.158 223.707 245.445 224.04C246.115 224.815 246.898 225.632 247.183 226.569C247.719 228.333 249.168 229.251 250.322 230.563Z" fill="#A0D0FD"/>
</g>
</g>
<defs>
<filter id="filter0_d_342_10712" x="0.199707" y="0.476562" width="427.684" height="328" filterUnits="userSpaceOnUse" color-interpolation-filters="sRGB">
<feFlood flood-opacity="0" result="BackgroundImageFix"/>
<feColorMatrix in="SourceAlpha" type="matrix" values="0 0 0 0 0 0 0 0 0 0 0 0 0 0 0 0 0 0 127 0" result="hardAlpha"/>
<feOffset dy="4"/>
<feGaussianBlur stdDeviation="2"/>
<feComposite in2="hardAlpha" operator="out"/>
<feColorMatrix type="matrix" values="0 0 0 0 0 0 0 0 0 0 0 0 0 0 0 0 0 0 0.25 0"/>
<feBlend mode="normal" in2="BackgroundImageFix" result="effect1_dropShadow_342_10712"/>
<feBlend mode="normal" in="SourceGraphic" in2="effect1_dropShadow_342_10712" result="shape"/>
</filter>
<clipPath id="clip0_342_10712">
<rect width="419.684" height="320" fill="white" transform="translate(4.19971 0.476562)"/>
</clipPath>
</defs>
</svg>
