<svg width="39" height="39" viewBox="0 0 39 39" fill="none" xmlns="http://www.w3.org/2000/svg">
<path d="M30.9252 38.4184H8.86266C3.85695 38.4184 0.766902 34.6691 0.766902 29.6634C0.766902 29.6634 1.3196 25.7456 0.766902 16.4799C0.658633 14.6707 1.28206 10.1557 1.28206 10.1557C1.28206 5.14999 4.74231 1.31865 9.7489 1.31865C9.7489 1.31865 17.0475 0.738017 19.3072 0.906533C26.2478 1.42518 29.1448 0.552038 30.6161 0.535448C36.1579 0.473455 38.7529 4.79899 38.7529 9.80471C38.7529 9.80471 39 19.239 39 20.8464C39 24.3486 38.4647 29.5805 38.4647 29.5805C39 33.9069 35.9309 38.4184 30.9252 38.4184Z" fill="#010101"/>
<path d="M31.552 17.2088C31.6446 17.1922 31.7511 17.2018 31.8445 17.2061C32.0645 16.8054 31.8157 16.0344 31.7668 15.5952C31.6908 14.9237 31.6157 14.2514 31.5398 13.58C31.5223 13.4237 31.4961 13.2508 31.3748 13.1513C31.3084 13.0963 31.2228 13.0727 31.139 13.05C30.3497 12.8361 29.5595 12.6213 28.7702 12.4074C28.4305 12.3148 28.0874 12.2223 27.7757 12.059C26.9794 11.6425 26.4791 10.8252 26.0844 10.0176C25.7448 9.32255 25.4531 8.60483 25.2113 7.87052C25.0113 7.26194 25.1702 6.6979 24.4647 6.65773C24.0247 6.63241 23.5846 6.6132 23.1445 6.59923C22.2112 6.56954 21.2725 6.59137 20.3435 6.57129C20.1174 7.37807 20.2186 8.26693 20.1785 9.09641C20.1313 10.0804 20.1069 11.0653 20.1043 12.0502C20.1008 14.02 20.1872 15.9899 20.3645 17.9518C20.4291 18.6686 20.5059 19.3855 20.5435 20.1041C20.5897 21.0078 20.5731 21.9124 20.5557 22.8169C20.54 23.6578 20.5225 24.5073 20.3086 25.3202C20.0528 26.2903 19.5131 27.1844 18.7736 27.8628C18.4689 28.1422 18.1266 28.3884 17.7415 28.5386C16.9968 28.8285 16.1559 28.7377 15.3841 28.529C14.7179 28.3492 14.0586 28.0767 13.5592 27.6017C12.7882 26.8692 12.4957 25.7123 12.6974 24.668C12.8991 23.6246 13.5505 22.6999 14.3852 22.0416C15.2391 21.3693 16.4161 20.8061 17.5032 20.669C17.5783 20.4926 17.594 20.4568 17.5949 20.27C17.5957 20.1198 17.6499 19.9984 17.6586 19.8526C17.6796 19.5147 17.6569 19.1663 17.6569 18.8276C17.6569 18.3927 17.7302 17.8907 17.6429 17.4663C17.6141 17.3275 17.5826 17.2061 17.5311 17.0865C17.5128 17.0437 17.5102 16.9922 17.4883 16.9477C17.4613 16.8918 17.4045 16.8586 17.4167 16.7862C17.4351 16.7827 17.4421 16.7172 17.4604 16.7137L17.4089 16.6517C17.4229 16.6517 17.4464 16.7137 17.4604 16.7137C16.8361 16.7137 16.2232 16.5984 15.6041 16.643C14.9711 16.6892 14.3433 16.8089 13.7365 16.9975C12.5437 17.3677 11.4314 18.0007 10.5163 18.852C8.97522 20.2857 8.0104 22.3236 7.87768 24.4244C7.83577 25.0854 7.87419 25.7472 7.94666 26.4047C8.01389 27.0124 8.03834 27.6681 8.3387 28.2086C9.2328 29.8169 10.3364 31.1406 11.8644 32.1971C12.2617 32.4721 12.6782 32.7262 13.1296 32.8991C13.8404 33.1706 14.6148 33.23 15.3762 33.2239C16.4729 33.2152 17.5678 33.0755 18.6322 32.8109C19.9925 32.473 21.2036 32.0347 22.1885 31C23.0843 30.0588 23.7007 28.873 24.091 27.641C24.6306 25.9375 24.7712 24.138 24.9083 22.3559C24.9554 21.7473 25.0017 21.1379 25.0489 20.5293C25.117 19.6483 25.1824 18.7638 25.1641 17.8793C25.1545 17.4288 25.1248 16.9791 25.0593 16.5329C24.9991 16.1156 24.8122 15.6712 24.7913 15.2634C24.8646 15.2835 24.945 15.3132 25.0113 15.3542C25.1475 15.4389 25.2802 15.5498 25.4199 15.6275C27.3426 16.6919 29.3604 17.2088 31.552 17.2088C31.538 17.2088 31.2674 17.2088 31.2534 17.2088H31.552Z" fill="#D6E5E5"/>
</svg>
