<svg width="481" height="456" viewBox="0 0 481 456" fill="none" xmlns="http://www.w3.org/2000/svg">
<path opacity="0.6" d="M473.848 174.596L473.848 174.599C474.044 175.936 474.232 177.276 474.413 178.618L474.908 178.552C475.45 182.582 475.924 186.628 476.353 190.659L475.856 190.712C476.143 193.415 476.411 196.113 476.665 198.795L477.162 198.748C477.55 202.842 477.905 206.901 478.253 210.893L477.754 210.936C477.873 212.294 477.99 213.644 478.107 214.985L478.107 214.986C478.229 216.358 478.347 217.732 478.46 219.108L478.958 219.068C479.295 223.18 479.588 227.314 479.832 231.464L479.333 231.493C479.494 234.242 479.634 236.998 479.749 239.759L480.249 239.738C480.421 243.869 480.54 248.012 480.597 252.16L480.097 252.167C480.136 254.923 480.147 257.682 480.13 260.442L480.63 260.445C480.603 264.586 480.512 268.729 480.348 272.869L479.849 272.849C479.74 275.605 479.599 278.359 479.424 281.111L479.923 281.142C479.66 285.279 479.32 289.409 478.897 293.526L478.399 293.475C478.117 296.22 477.797 298.958 477.438 301.689L477.934 301.755C477.393 305.867 476.763 309.962 476.037 314.035L475.545 313.947C475.061 316.663 474.534 319.369 473.962 322.062L474.451 322.166C473.59 326.223 472.627 330.252 471.555 334.249L471.072 334.12C470.358 336.783 469.595 339.43 468.782 342.062L469.26 342.209C468.037 346.167 466.7 350.089 465.242 353.967L464.774 353.791C463.806 356.368 462.783 358.926 461.705 361.463L462.165 361.658C460.549 365.463 458.807 369.221 456.933 372.927L456.487 372.701C455.866 373.929 455.23 375.151 454.58 376.367C453.951 377.54 453.305 378.695 452.644 379.832L453.077 380.083C451.045 383.578 448.869 386.905 446.561 390.072L446.157 389.778C444.589 391.93 442.958 394.009 441.27 396.016L441.653 396.337C439.07 399.408 436.353 402.311 433.514 405.057L433.167 404.697C431.262 406.539 429.302 408.311 427.29 410.013L427.614 410.395C424.571 412.97 421.413 415.39 418.152 417.663L417.866 417.253C415.699 418.763 413.487 420.208 411.232 421.592L411.494 422.018C408.11 424.094 404.633 426.032 401.077 427.839L400.851 427.393C398.498 428.589 396.111 429.727 393.692 430.812L393.897 431.268C390.279 432.89 386.592 434.391 382.85 435.781L382.676 435.312C380.201 436.231 377.701 437.101 375.18 437.925L375.335 438.4C371.564 439.632 367.746 440.762 363.894 441.797L363.764 441.314C361.211 442 358.642 442.644 356.063 443.25L356.177 443.737C352.305 444.646 348.409 445.467 344.5 446.21L344.407 445.718C341.803 446.213 339.194 446.673 336.583 447.1L336.664 447.594C332.727 448.238 328.785 448.809 324.852 449.316L324.789 448.82C323.473 448.989 322.159 449.151 320.846 449.306L320.905 449.803L320.846 449.306C319.515 449.464 318.184 449.618 316.852 449.769L316.909 450.266C312.909 450.718 308.908 451.139 304.906 451.529L304.858 451.032C302.189 451.292 299.521 451.539 296.851 451.773L296.895 452.271C292.886 452.622 288.876 452.944 284.865 453.238L284.829 452.74C282.155 452.936 279.481 453.12 276.806 453.292L276.839 453.791C272.823 454.05 268.807 454.282 264.79 454.489L264.764 453.99C262.087 454.128 259.409 454.255 256.732 454.371L256.753 454.87C252.734 455.045 248.714 455.196 244.693 455.325L244.677 454.825C241.998 454.911 239.318 454.987 236.638 455.053L236.651 455.553C232.629 455.653 228.607 455.732 224.584 455.791L224.577 455.291C221.896 455.331 219.216 455.362 216.535 455.385L216.539 455.885C212.517 455.919 208.494 455.935 204.47 455.934L204.47 455.434C201.79 455.434 199.109 455.426 196.427 455.411L196.425 455.911C192.402 455.889 188.379 455.851 184.356 455.8L184.363 455.3C181.682 455.265 179.001 455.225 176.32 455.179L176.311 455.679C172.29 455.609 168.267 455.527 164.245 455.434L164.257 454.934C161.576 454.872 158.896 454.805 156.215 454.734L156.202 455.233C152.181 455.126 148.16 455.009 144.138 454.883L144.154 454.384C141.474 454.3 138.794 454.212 136.114 454.122L136.097 454.621C132.076 454.485 128.056 454.342 124.035 454.193L124.054 453.693C122.714 453.644 121.374 453.594 120.034 453.543L120.033 453.543C118.596 453.492 117.169 453.424 115.754 453.339L115.724 453.838C111.346 453.577 107.069 453.153 102.904 452.562L102.974 452.067C100.109 451.66 97.2981 451.173 94.5433 450.604L94.4422 451.093C90.1487 450.207 85.9904 449.121 81.9793 447.827L82.1328 447.352C79.3874 446.466 76.7119 445.483 74.1101 444.4L73.9179 444.862C69.8994 443.189 66.0543 441.278 62.3965 439.117L62.6507 438.687C60.1893 437.233 57.8137 435.667 55.5279 433.984L55.2315 434.386C51.7802 431.845 48.5319 429.041 45.5012 425.961L45.8575 425.611C43.878 423.599 41.9917 421.47 40.2029 419.22L39.8115 419.531C37.1928 416.237 34.7819 412.685 32.5916 408.867L33.0253 408.618C31.6355 406.195 30.3346 403.663 29.1261 401.02L28.6714 401.228C26.9424 397.447 25.402 393.441 24.0599 389.203L24.5366 389.052C24.111 387.708 23.7053 386.34 23.3199 384.949C22.9709 383.688 22.6258 382.426 22.2848 381.161L21.802 381.292C20.7798 377.502 19.7938 373.696 18.8442 369.874L19.3294 369.753C18.6986 367.215 18.0839 364.669 17.4852 362.117L16.9984 362.232C16.1018 358.409 15.2413 354.573 14.4172 350.724L14.9061 350.619C14.3583 348.06 13.8265 345.496 13.3109 342.926L12.8207 343.025C12.0481 339.174 11.3116 335.313 10.6115 331.44L11.1036 331.351C10.6379 328.776 10.1884 326.196 9.75495 323.612L9.26184 323.694C8.61204 319.82 7.9985 315.936 7.42139 312.045L7.91598 311.971C7.53199 309.382 7.16413 306.789 6.81247 304.193L6.317 304.26C5.78951 300.366 5.29843 296.465 4.84393 292.559L5.34058 292.501C5.03799 289.9 4.75164 287.297 4.48156 284.692L3.98422 284.744C3.57891 280.834 3.21023 276.919 2.87835 273.002L3.37657 272.96C3.15551 270.35 2.9508 267.739 2.76247 265.127L2.26377 265.163C1.98101 261.242 1.73518 257.318 1.52644 253.393L2.02574 253.366C1.88664 250.751 1.76402 248.135 1.65795 245.519L1.15836 245.539C0.99902 241.609 0.876973 237.679 0.792398 233.751L1.29228 233.74C1.23589 231.121 1.19618 228.502 1.17318 225.885L0.673198 225.889C0.638633 221.955 0.641812 218.023 0.682911 214.095L1.18288 214.1C1.2103 211.48 1.2546 208.862 1.31583 206.245L0.81597 206.234C0.908043 202.3 1.03838 198.37 1.20715 194.447L1.70669 194.469C1.81933 191.85 1.9491 189.235 2.09606 186.622L1.59685 186.594C1.81794 182.664 2.0779 178.741 2.37691 174.826L2.87546 174.864C3.07508 172.251 3.29212 169.641 3.52663 167.036L3.02864 166.991C3.38166 163.069 3.77423 159.157 4.20654 155.255L4.7035 155.31C4.84771 154.009 4.99634 152.709 5.14942 151.41L5.14965 151.408C5.29746 150.107 5.4553 148.806 5.62347 147.505L5.12759 147.441C5.63148 143.543 6.228 139.646 6.92549 135.762L7.41761 135.85C7.88053 133.272 8.38798 130.701 8.9424 128.139L8.45371 128.033C9.28716 124.182 10.2266 120.353 11.2803 116.56L11.762 116.693C12.4635 114.168 13.2157 111.658 14.021 109.168L13.5452 109.014C14.7591 105.261 16.0935 101.552 17.5568 97.9002L18.0209 98.0862C18.9957 95.6537 20.0277 93.247 21.1194 90.87L20.6651 90.6613C22.3104 87.079 24.0912 83.5634 26.0159 80.1277L26.4521 80.3721C27.7306 78.0898 29.0728 75.8432 30.4811 73.6361L30.0596 73.3672C32.1738 70.0536 34.4367 66.8285 36.8567 63.7049L37.2519 64.0111C38.0518 62.9787 38.8689 61.9575 39.7034 60.9479C40.5389 59.9445 41.3873 58.9589 42.2482 57.9909L41.8746 57.6586C44.5034 54.703 47.2488 51.9104 50.0992 49.2708L50.4389 49.6376C52.3547 47.8636 54.3182 46.1588 56.3261 44.5202L56.01 44.1328C59.0547 41.6482 62.2006 39.3155 65.4356 37.1243L65.716 37.5383C67.8713 36.0784 70.0666 34.6814 72.2982 33.3441L72.0412 32.9152C75.3986 30.9033 78.8375 29.0264 82.3457 27.274L82.5691 27.7213C84.895 26.5595 87.2517 25.4524 89.6358 24.397L89.4334 23.9398C93.0069 22.3577 96.6409 20.8916 100.323 19.5311L100.497 20.0001C102.937 19.0987 105.398 18.2436 107.878 17.4319L107.722 16.9567C111.438 15.7402 115.194 14.6209 118.979 13.5886L119.11 14.071C121.623 13.3856 124.149 12.7387 126.684 12.127L126.566 11.641C130.375 10.7221 134.204 9.88303 138.042 9.11368L138.14 9.60393C140.699 9.09088 143.263 8.60883 145.827 8.15478L145.74 7.66243C149.609 6.97732 153.48 6.35594 157.339 5.78794L157.412 6.28261C158.704 6.09246 159.995 5.90829 161.285 5.72971C162.625 5.5447 163.968 5.36416 165.314 5.18815L165.249 4.69238C169.271 4.16635 173.314 3.68084 177.377 3.23776L177.431 3.73481C180.121 3.44143 182.818 3.16667 185.523 2.91108L185.476 2.41329C189.519 2.03132 193.577 1.69213 197.648 1.39758L197.684 1.89627C200.385 1.70081 203.091 1.52502 205.802 1.36944L205.774 0.870261C209.832 0.637364 213.9 0.449719 217.975 0.309139L217.992 0.808842C220.7 0.715416 223.41 0.642798 226.123 0.591518L226.113 0.0916073C230.181 0.0147034 234.254 -0.0142544 238.327 0.00652898L238.324 0.506522C241.035 0.520357 243.747 0.556251 246.458 0.614735L246.469 0.114852C250.54 0.202685 254.61 0.341418 258.675 0.532844L258.651 1.03229C261.361 1.15989 264.068 1.31092 266.772 1.48591L266.805 0.986959C270.872 1.25013 274.931 1.56744 278.981 1.94071L278.935 2.4386C281.637 2.68764 284.334 2.96162 287.025 3.26106L287.081 2.76413C291.134 3.21508 295.174 3.72373 299.198 4.29191L299.128 4.787C301.816 5.16653 304.497 5.57265 307.169 6.00589L307.249 5.51234C311.277 6.16531 315.286 6.87985 319.273 7.65783L319.177 8.14857C321.841 8.66853 324.496 9.21685 327.139 9.7941L327.246 9.30561C331.234 10.1765 335.197 11.1132 339.131 12.1176L339.008 12.602C340.321 12.9374 341.632 13.2803 342.939 13.6308C344.323 14.0031 345.705 14.3879 347.085 14.7856L347.223 14.3051C351.357 15.4963 355.473 16.802 359.554 18.2266L359.389 18.6986C362.096 19.6438 364.788 20.6414 367.459 21.6926L367.642 21.2274C371.657 22.8078 375.625 24.5095 379.529 26.3366L379.317 26.7894C381.917 28.0064 384.489 29.279 387.026 30.6087L387.258 30.1658C391.087 32.1717 394.839 34.3072 398.496 36.5766L398.233 37.0015C400.673 38.5154 403.071 40.0888 405.421 41.7232L405.706 41.3127C409.254 43.7799 412.695 46.3858 416.01 49.1349L415.691 49.5198C417.898 51.3501 420.049 53.2439 422.14 55.2025L422.481 54.8377C425.627 57.785 428.634 60.879 431.486 64.1241L431.11 64.4541C432.055 65.5291 432.983 66.6207 433.892 67.729L433.893 67.7301C434.711 68.7214 435.513 69.7224 436.299 70.7327L436.694 70.4257C439.076 73.4879 441.313 76.6351 443.415 79.8583L442.996 80.1314C444.399 82.2832 445.742 84.4692 447.028 86.6867L447.461 86.4358C449.398 89.7774 451.207 93.1897 452.896 96.6634L452.446 96.8821C453.568 99.1887 454.637 101.523 455.656 103.881L456.115 103.683C457.645 107.221 459.063 110.814 460.381 114.453L459.91 114.623C460.783 117.034 461.612 119.465 462.4 121.914L462.876 121.761C464.055 125.429 465.142 129.136 466.146 132.874L465.663 133.003C466.329 135.482 466.959 137.974 467.556 140.476L468.042 140.36C468.937 144.112 469.757 147.888 470.512 151.679L470.021 151.776C470.523 154.297 470.997 156.825 471.444 159.357L471.937 159.269C472.609 163.075 473.224 166.89 473.791 170.705L473.296 170.778C473.485 172.051 473.669 173.324 473.848 174.596Z" stroke="black" stroke-dasharray="8 12"/>
</svg>
