<svg width="369" height="380" viewBox="0 0 369 380" fill="none" xmlns="http://www.w3.org/2000/svg">
<path d="M228.574 379.121C252.971 378.001 277.815 375.536 299.973 362.991C326.16 348.204 347.422 319.304 356.823 284.803C361.523 268.224 363.537 250.75 365.104 233.275C368.462 198.774 370.476 163.377 365.552 129.1C360.852 94.8229 348.542 61.2179 327.503 38.8146C297.958 7.44993 256.328 2.74524 217.831 1.40104C164.562 -0.167193 110.845 2.07314 58.6954 17.3074C40.3422 22.6842 20.1984 31.6455 11.6933 52.9287C7.66454 63.0102 6.76926 74.6599 6.0978 86.0856C3.18815 139.854 4.30725 194.07 9.00745 247.837C11.2456 273.153 14.3791 298.693 23.7795 321.32C40.566 362.318 71.2293 370.608 104.578 374.64C145.761 379.569 187.168 381.137 228.574 379.121Z" fill="#40AE49"/>
<mask id="mask0_342_12179" style="mask-type:alpha" maskUnits="userSpaceOnUse" x="0" y="0" width="365" height="380">
<path d="M224.574 379.121C248.971 378.001 273.815 375.536 295.973 362.991C322.16 348.204 343.422 319.304 352.823 284.803C357.523 268.224 359.537 250.75 361.104 233.275C364.462 198.774 366.476 163.377 361.552 129.1C356.852 94.8229 344.542 61.2179 323.503 38.8146C293.958 7.44993 252.328 2.74524 213.831 1.40104C160.562 -0.167193 106.845 2.07314 54.6954 17.3074C36.3422 22.6842 16.1984 31.6455 7.69329 52.9287C3.66454 63.0102 2.76926 74.6599 2.0978 86.0856C-0.811851 139.854 0.307246 194.07 5.00745 247.837C7.24565 273.153 10.3791 298.693 19.7795 321.32C36.566 362.318 67.2293 370.608 100.578 374.64C141.761 379.569 183.168 381.137 224.574 379.121Z" fill="#40AE49"/>
</mask>
<g mask="url(#mask0_342_12179)">
<g clip-path="url(#clip0_342_12179)">
<g clip-path="url(#clip1_342_12179)">
<path d="M203.085 148.819C203.085 148.819 193.482 172.982 164.404 186.79C136.022 200.241 115.78 197.483 115.78 197.483C111.567 201.095 108.479 211.486 108.479 211.486C108.479 211.486 103.553 209.743 98.6437 212.607C95.1808 214.636 91.9678 218.746 92.6461 225.222C92.9674 228.283 94.3775 230.685 96.2696 232.375C98.1261 234.048 100.447 235.062 102.624 235.4C107.051 236.058 110.246 235.169 110.246 235.169C110.246 235.169 111.032 241.592 116.762 252.428C116.78 252.499 116.833 252.552 116.851 252.606C117.047 252.979 117.244 253.335 117.458 253.709C119.136 256.734 121.206 259.474 122.884 261.502C123.348 262.072 123.848 262.641 124.33 263.175C124.491 263.371 124.651 263.548 124.83 263.726C125.508 264.456 125.955 264.919 126.044 264.99C126.062 265.007 130.881 269.954 130.881 269.954C130.881 269.954 127.954 272.552 123.438 273.94C121.117 274.651 118.636 275.025 116.208 274.865C114.495 274.758 112.817 274.367 111.21 273.779C109.871 273.281 108.533 272.658 107.265 271.929C105.48 270.915 103.82 269.669 102.392 268.228C101.553 267.374 100.857 266.449 100.161 265.506C94.199 257.321 85.0776 238.016 86.6662 216.273C88.5941 190.259 104.606 166.452 104.606 166.452C128.793 151.826 154.301 144.531 180.344 145.688C181.683 145.741 183.022 145.812 184.36 145.919C190.608 146.4 196.838 147.378 203.085 148.819Z" fill="#732204"/>
<path d="M106.016 261.947C106.07 264.99 105.445 268.264 104.909 270.381C105.195 270.577 106.284 271.698 110.229 273.352C111.567 271.644 113.335 268.886 114.066 266.467C115.566 261.502 114.763 257.018 114.388 255.435C114.299 255.061 113.995 254.741 113.602 254.616C113.37 254.545 113.12 254.563 112.924 254.688C112.728 254.812 112.621 255.026 112.621 255.239C112.621 257.268 112.424 262.125 110.764 266.164C109.907 268.264 108.765 270.096 107.694 271.52C108.604 268.797 109.568 264.812 109.158 260.773C108.586 255.043 106.087 250.862 105.124 249.421C104.891 249.083 104.499 248.887 104.088 248.94C103.838 248.976 103.624 249.101 103.481 249.314C103.356 249.528 103.321 249.795 103.41 250.026C104.213 252.072 105.945 257.09 106.016 261.947Z" fill="#823F1E"/>
<path opacity="0.17" d="M130.899 269.972C130.899 269.972 127.971 272.57 123.455 273.957C121.135 274.669 118.654 275.043 116.226 274.883C114.512 274.776 112.835 274.384 111.228 273.797C109.889 273.299 108.55 272.676 107.283 271.947L107.712 271.502C107.712 271.502 110.764 266.2 112.281 260.239C113.816 254.278 109.175 248.193 109.175 248.193C109.175 248.193 107.89 247.82 101.803 244.546C91.093 238.781 91.6821 227.802 91.6821 227.802L96.3053 232.393C98.1617 234.066 100.482 235.08 102.66 235.418C107.087 236.076 110.282 235.187 110.282 235.187C110.282 235.187 111.067 241.61 116.797 252.446C116.815 252.517 116.869 252.57 116.887 252.624C117.083 252.997 117.279 253.353 117.493 253.727C119.171 256.752 121.242 259.492 122.92 261.52C123.384 262.09 123.884 262.659 124.366 263.193C124.526 263.388 124.687 263.566 124.866 263.744C125.544 264.474 125.99 264.936 126.079 265.008C126.062 265.008 130.899 269.954 130.899 269.972Z" fill="#010202"/>
<path d="M261.794 410.714C256.778 416.194 230.342 441.994 177.773 441.994C126.169 441.994 99.7145 418.241 92.2889 410.252C90.9858 408.846 90.9144 406.711 92.1282 405.234C94.2702 402.618 98.1437 397.69 103.874 389.647C106.248 386.338 108.925 382.477 111.96 378.046C114.494 374.328 116.833 370.698 118.993 367.228C130.078 349.293 136.04 335.432 136.04 335.432L138.396 336.34C138.396 336.34 138.681 336.606 144.643 330.005C149.695 324.383 152.962 317.07 152.962 317.07C152.962 317.07 166.956 321.233 179.737 321.91C192.5 322.586 208.708 319.988 208.708 319.988C208.708 319.988 211.849 325.788 215.277 330.735C218.704 335.663 223.274 339.24 223.274 339.24C223.274 339.24 223.541 343.955 233.091 364.15C234.751 367.673 236.75 371.338 238.875 375.004C243.337 382.637 248.46 390.27 252.816 396.426C256.957 402.227 260.384 406.729 261.866 408.668C262.348 409.273 262.312 410.145 261.794 410.714Z" fill="#EB5D73"/>
<path d="M250.62 393.295C241.713 409.237 223.845 435.464 182.558 435.464C119.529 435.464 103.874 389.647 103.874 389.647C106.248 386.338 108.926 382.477 111.96 378.046C114.495 374.328 116.833 370.698 118.993 367.228L154.586 347.496L238.875 375.004C243.32 382.655 246.265 387.156 250.62 393.295Z" fill="#CF4969"/>
<path d="M307.188 158.019C300.155 181.737 273.558 182.359 273.558 182.359C272.987 176.843 270.416 171.114 266.846 166.666C251.638 147.61 236.662 139.211 218.222 133.144C215.616 132.29 212.974 131.507 210.279 130.777C209.333 131.133 208.369 131.454 207.423 131.756C196.088 135.244 184.61 134.585 173.561 129.692C171.258 128.678 169.009 127.486 166.76 126.116C166.189 126.151 165.636 126.187 165.064 126.223C160.191 126.561 155.336 127.201 150.57 128.144H150.552C143.269 129.585 136.183 131.792 129.453 134.817C128.632 135.19 127.811 135.564 126.99 135.973C121.367 138.695 116.084 142.379 112.228 147.361C110.371 149.727 108.836 152.343 107.64 155.154C107.64 155.154 107.444 155.136 107.051 155.065C103.249 154.407 81.8647 149.763 79.3479 128.055C76.1705 100.921 99.9113 95.3339 99.9113 95.3339C99.9113 95.3339 98.5368 81.6867 105.623 68.3954C109.051 61.9543 114.495 55.6022 123.027 50.9405C149.927 36.2257 174.097 54.6948 174.097 54.6948C174.097 54.6948 187.698 34.3397 217.972 39.1082C248.264 43.8767 251.709 67.9861 251.709 67.9861C251.709 67.9861 276.771 60.2996 291.676 77.5232C309.847 98.5189 295.817 119.853 295.817 119.853C295.817 119.853 295.835 119.853 295.835 119.87C296.602 120.386 314.578 133.108 307.188 158.019Z" fill="#EEEEEE"/>
<path opacity="0.53" d="M307.187 158.018C300.154 181.736 273.557 182.359 273.557 182.359C272.986 176.843 270.416 171.114 266.846 166.666C251.637 147.61 236.661 139.211 218.222 133.144C215.616 132.29 212.974 131.507 210.279 130.777C209.332 131.133 208.369 131.454 207.423 131.756L206.548 129.852L229.985 113.465C229.985 113.465 239.517 124.336 259.956 127.165C280.394 129.995 295.834 119.853 295.834 119.853C295.834 119.853 295.852 119.853 295.852 119.87C296.602 120.386 314.577 133.108 307.187 158.018Z" fill="#E5E3D3"/>
<path opacity="0.53" d="M175.132 132.219C174.828 131.916 170.651 127.699 165.082 126.222C163.065 125.689 160.869 125.511 158.602 125.991C156.674 126.4 153.836 127.183 150.588 128.126H150.57C143.894 130.083 135.451 132.824 129.471 134.799C125.044 136.275 121.956 137.307 121.956 137.307L108.104 150.136L107.033 155.065C103.231 154.406 81.8464 149.763 79.3296 128.055C76.1701 100.921 99.9108 95.3338 99.9108 95.3338C99.9108 95.3338 98.5364 81.6866 105.623 68.3953L107.943 67.8971C107.943 67.8971 103.481 87.1135 125.526 103.27C139.431 113.465 155.978 107.38 155.978 107.38L173.561 129.692L175.132 132.219Z" fill="#E5E3D3"/>
<path d="M270.184 246.343C266.221 256.467 251.816 253.638 251.816 253.638C251.816 253.638 246.872 262.623 239.553 268.958C234.644 273.21 233.52 273.726 223.113 279.491C215.098 283.921 205.816 285.701 196.641 286.733C187.038 287.818 177.22 287.444 167.813 285.843C164.618 285.309 161.423 284.58 158.299 283.708C146.268 280.292 134.737 274.082 126.062 265.061C125.633 264.634 125.241 264.207 124.83 263.762C124.669 263.584 124.509 263.406 124.33 263.21C123.83 262.677 123.348 262.089 122.884 261.538C121.706 260.097 120.582 258.584 119.564 257.018C118.672 255.648 117.744 254.172 116.869 252.641C116.851 252.588 116.815 252.535 116.78 252.463C113.138 246.592 110.389 236.201 110.389 235.934C110.389 235.88 110.264 235.204 110.264 235.204C110.264 235.204 107.051 236.094 102.642 235.436C98.2154 234.777 93.3245 231.343 92.664 225.258C91.9857 218.799 95.1987 214.671 98.6617 212.643C103.57 209.796 108.497 211.522 108.497 211.522C108.497 211.522 111.567 201.113 115.798 197.519C115.798 197.519 136.058 200.277 164.422 186.825C193.5 172.982 203.085 148.819 203.085 148.819C203.085 148.819 204.067 176.861 224.148 193.551C244.23 210.259 247.425 211.077 251.656 215.952C255.868 220.81 255.868 228.745 255.868 228.834C255.868 228.834 259.885 228.603 263.026 229.564C268.935 231.379 273.522 237.784 270.184 246.343Z" fill="#FECFA8"/>
<path d="M219.686 281.537C211.385 285.398 204.513 286.644 195.338 287.676C195.32 287.658 193.66 288.832 193.66 288.832C193.66 288.832 193.089 280.772 200.979 276.164C208.868 271.573 218.811 274.367 220.292 276.27C221.685 278.068 219.686 281.537 219.686 281.537Z" fill="#DB9662"/>
<path d="M208.708 320.006C200.461 321.376 189.858 322.372 179.737 321.927C161.227 321.127 152.962 317.088 152.962 317.088C157.424 307.479 157.657 300.184 154.818 289.491C154.818 289.491 168.188 287.729 184.45 288.975C195.731 289.829 203.96 291.679 206.834 292.409C206.566 293.103 202.496 303.689 207.387 316.838C207.78 317.924 208.226 318.974 208.708 320.006Z" fill="#4F5D69"/>
<path d="M164.618 287.427C164.618 287.427 167.456 304.864 181.094 304.134C191.858 303.547 194.946 289.758 194.946 289.758L164.618 287.427Z" fill="#F9C38F"/>
<path d="M281.001 153.588C277.342 155.278 272.183 156.844 266.561 155.937C263.508 155.456 260.67 154.104 258.474 152.77C260.402 152.663 262.509 152.271 264.758 151.453C270.523 149.407 274.076 145.67 276.235 142.201C277.199 140.653 275.611 138.571 274.325 139.692C270.738 142.805 265.418 146.222 258.867 146.809C253.334 147.325 247.747 145.154 244.944 143.855C244.052 143.428 243.105 144.211 243.105 145.385C243.105 145.901 243.284 146.382 243.605 146.72C244.837 148.054 248.3 151.311 253.691 152.414C253.726 152.503 253.726 152.592 253.78 152.681C254.958 154.727 259.778 161.63 270.559 160.794C275.807 160.385 279.573 158.196 282.09 155.937C283.215 154.958 282.322 152.983 281.001 153.588Z" fill="#CCCAB6"/>
<path d="M271.183 198.818C273.361 193.533 274.129 187.875 273.557 182.359C272.986 176.843 270.416 171.132 266.846 166.666C251.637 147.627 236.661 139.229 218.204 133.162C214.402 131.916 210.511 130.813 206.53 129.852C192.714 133.98 180.415 132.699 169.42 125.991C154.657 126.489 140.092 129.585 126.99 135.955C121.349 138.695 116.083 142.378 112.21 147.36C110.353 149.727 108.818 152.36 107.622 155.154C106.962 156.702 106.408 158.303 105.98 159.94C105.319 162.413 104.855 164.655 104.605 166.47C104.605 166.47 135.433 143.197 183.575 145.884L184.057 145.919C184.699 145.937 185.36 145.99 186.02 146.044C192 146.489 197.676 147.449 203.067 148.837C205.495 149.46 207.887 150.172 210.189 150.955C211.528 151.399 212.849 151.88 214.152 152.378L214.206 152.396C214.759 152.609 215.312 152.823 215.848 153.054C250.995 167.289 270.398 197.608 271.13 198.782L271.183 198.818Z" fill="#FDFBE9"/>
<path d="M271.184 198.818L271.166 198.782C264.436 186.879 254.458 177.039 243.48 168.997C236.019 163.534 227.576 158.018 218.775 154.14C215.955 152.876 213.081 151.809 210.225 150.955L203.103 148.837C203.103 148.837 204.085 176.861 224.166 193.569C244.248 210.276 247.443 211.077 251.673 215.952C255.904 220.845 255.886 228.834 255.886 228.834C258.956 228.888 260.616 229.066 263.597 229.76C263.597 229.76 268.453 221.575 270.13 211.985C271.755 202.376 271.184 198.818 271.184 198.818Z" fill="#732204"/>
<path d="M255.868 228.834C255.868 228.834 253.262 222.536 250.085 218.87C248.442 216.966 246.336 215.507 244.283 214.084C233.645 206.789 222.131 200.686 213.153 191.238C212.278 190.33 211.439 189.387 210.636 188.427C202.103 178.285 199.301 168.872 199.301 168.872C199.301 168.872 185.306 186.487 162.708 193.8C133.237 203.337 115.78 197.465 115.78 197.465C115.78 197.465 136.04 200.241 164.422 186.772C193.499 172.982 203.085 148.819 203.085 148.819C203.085 148.819 204.067 176.843 224.148 193.551C244.23 210.259 247.425 211.059 251.655 215.935C255.886 220.845 255.868 228.834 255.868 228.834Z" fill="#FFB378"/>
<path d="M138.485 131.543C139.181 130.653 138.467 129.372 137.325 129.479C133.88 129.834 127.811 129.799 119.975 127.148C112.781 124.71 108.158 120.28 105.534 116.97C104.445 115.6 102.231 116.205 101.999 117.949C101.946 118.394 102.017 118.838 102.249 119.212C103.481 121.329 108.086 128.411 116.869 131.863C119.439 132.877 122.045 133.375 124.526 133.571C121.902 134.123 118.689 134.55 114.905 134.55C108.068 134.55 102.963 132.308 99.8395 130.404C98.5543 129.621 96.805 130.688 97.037 132.112C97.0906 132.468 97.2869 132.788 97.5725 133.037C99.1612 134.372 104.945 138.678 113.406 139.051C122.331 139.443 130.006 134.639 131.595 133.589C131.702 133.518 131.773 133.446 131.863 133.357C134.826 132.948 137.057 132.29 137.914 132.005C138.128 131.881 138.342 131.738 138.485 131.543Z" fill="#CCCAB6"/>
<path d="M147.808 242.721C156.429 242.199 162.873 232.853 162.201 221.847C161.53 210.841 153.998 202.343 145.377 202.866C136.757 203.388 130.313 212.734 130.984 223.739C131.656 234.745 139.188 243.244 147.808 242.721Z" fill="#F2A96D"/>
<path d="M150.391 241.034C157.595 240.597 162.933 232.021 162.314 221.878C161.695 211.736 155.354 203.867 148.151 204.304C140.947 204.741 135.609 213.317 136.228 223.459C136.847 233.602 143.188 241.47 150.391 241.034Z" fill="white"/>
<path d="M150.166 237.376C155.962 237.024 160.268 230.299 159.783 222.353C159.299 214.408 154.207 208.252 148.411 208.603C142.615 208.954 138.309 215.68 138.794 223.625C139.278 231.571 144.37 237.727 150.166 237.376Z" fill="#2D2C29"/>
<path d="M146.589 216.771C146.5 218.105 145.34 219.102 144.001 218.995C142.662 218.906 141.662 217.749 141.77 216.415C141.859 215.08 143.019 214.084 144.358 214.191C145.697 214.298 146.696 215.454 146.589 216.771Z" fill="white"/>
<path d="M233.896 231.999C236.174 221.21 231.17 211.025 222.719 209.252C214.268 207.479 205.57 214.788 203.291 225.578C201.013 236.367 206.017 246.552 214.468 248.325C222.919 250.098 231.617 242.789 233.896 231.999Z" fill="#F2A96D"/>
<path d="M228.753 230.962C230.853 221.018 226.83 211.756 219.768 210.274C212.707 208.793 205.279 215.652 203.18 225.596C201.08 235.539 205.102 244.801 212.164 246.283C219.226 247.765 226.653 240.905 228.753 230.962Z" fill="white"/>
<path d="M226.182 230.763C227.827 222.974 224.554 215.693 218.872 214.501C213.189 213.308 207.249 218.656 205.604 226.446C203.959 234.235 207.232 241.516 212.915 242.708C218.597 243.901 224.537 238.553 226.182 230.763Z" fill="#2D2C29"/>
<path d="M209.708 221.237C209.618 222.571 210.618 223.71 211.939 223.817C213.26 223.924 214.42 222.909 214.527 221.593C214.616 220.258 213.617 219.119 212.296 219.013C210.975 218.906 209.815 219.902 209.708 221.237Z" fill="white"/>
<path d="M207.101 215.49C213.438 205.668 223.416 207.43 227.772 214.92C228.504 214.992 229.557 215.027 230.574 214.867C231.663 214.689 232.502 214.12 233.02 213.693C233.18 213.568 233.377 213.497 233.591 213.515C233.787 213.533 233.984 213.639 234.109 213.799C234.394 214.137 234.376 214.636 234.073 214.956C233.573 215.49 232.734 216.273 231.717 216.629C230.753 216.967 229.628 217.127 228.825 217.216C228.968 217.589 229.093 217.981 229.218 218.39C229.896 218.657 230.878 218.959 231.895 219.066C232.984 219.191 233.966 218.87 234.573 218.586C234.751 218.497 234.965 218.497 235.162 218.568C235.358 218.639 235.501 218.781 235.59 218.977C235.769 219.386 235.626 219.849 235.251 220.08C234.626 220.472 233.609 220.988 232.538 221.059C231.574 221.13 230.503 221.006 229.735 220.881C229.878 221.931 229.932 223.034 229.878 224.191C229.914 225.134 228.664 225.098 228.629 224.262C226.754 212.323 217.437 206.878 208.083 216.255C207.458 216.842 206.601 216.326 207.101 215.49Z" fill="#391C10"/>
<path d="M132.273 186.238C149.57 183.623 175.15 169.477 184.628 154.602C184.985 153.837 186.127 154.353 185.788 155.065C179.773 170.029 163.118 180.046 148.428 185.099C143.216 186.754 137.807 187.982 132.202 187.484C131.077 187.395 130.988 186.309 132.273 186.238Z" fill="#823F1E"/>
<path d="M119.1 185.9C118.565 185.42 117.726 185.348 117.172 185.74C115.566 186.896 112.353 189.779 109.497 195.562C107.819 198.978 106.605 202.519 105.802 205.383C106.159 201.576 106.783 196.54 107.801 192.893C109.158 188.053 111.585 183.302 112.745 181.185C113.102 180.527 112.888 179.726 112.281 179.317C111.657 178.907 110.835 179.032 110.371 179.601C109.015 181.309 106.123 184.316 103.82 193.284C101.821 201.024 101.75 208.817 101.803 211.362C101.803 211.362 103.142 211.041 103.874 211.024C105.32 210.917 106.016 210.97 107.283 211.202C107.39 210.846 109.639 201.682 112.496 196.54C114.62 192.697 117.797 189.156 119.261 187.59C119.707 187.11 119.653 186.38 119.1 185.9Z" fill="#823F1E"/>
<path d="M257.403 190.508C256.957 190.277 256.564 189.992 256.207 189.69C258.867 198.889 260.099 208.515 258.724 218.034C258.671 218.372 258.617 218.71 258.563 219.048C257.76 213.355 255.832 207.857 252.084 203.302C247.211 197.376 240.481 193.231 234.609 188.498C227.379 182.662 222.453 174.335 219.436 165.58C219.293 165.153 218.829 164.904 218.383 164.993C218.365 164.993 218.347 164.993 218.329 165.011C217.865 165.118 217.562 165.58 217.651 166.043C219.596 176.63 225.273 186.79 233.93 193.337C240.089 198.355 247.443 202.821 251.459 209.76C254.976 215.472 255.618 222.198 256.279 228.87C257.26 228.87 258.903 228.995 259.045 229.012C260.634 225.667 261.509 222.144 262.062 218.568C263.365 210.045 263.258 200.668 259.599 192.715C258.671 192.145 257.939 191.38 257.403 190.508Z" fill="#823F1E"/>
<path opacity="0.17" d="M99.9287 174.37C100.339 173.694 102.481 173.036 103.142 172.698C106.141 171.203 109.175 169.78 112.245 168.445C122.206 164.086 132.523 160.456 143.073 157.787C168.652 151.328 195.588 151.115 219.793 162.823C236.661 170.99 251.441 183.373 263.526 197.59C266.114 200.65 268.702 203.782 270.898 207.145C270.898 207.145 271.005 205.686 271.166 203.533C271.326 201.38 271.148 198.782 271.148 198.782C271.148 198.782 261.277 181.897 248.014 172.484C234.751 163.054 221.399 153.321 206.994 149.923C192.607 146.506 178.666 144.905 164.832 146.115C150.766 147.343 137.771 151.008 130.417 153.517C118.761 157.502 104.605 166.47 104.605 166.47C104.605 166.47 99.9287 174.352 99.9287 174.37Z" fill="#732204"/>
<path d="M119.243 276.484C119.243 276.68 119.225 276.875 119.189 277.053C119.136 277.516 118.957 278.388 118.511 279.349C117.529 281.413 115.227 283.904 109.872 283.761C102.035 283.566 96.9837 278.69 97.0015 272.979C97.0015 272.445 97.0194 271.929 97.0908 271.466V271.449C97.18 270.683 97.3228 270.007 97.5013 269.402C97.6084 269.046 97.7334 268.726 97.8583 268.442C98.7865 266.289 100.179 265.541 100.179 265.541C101.357 267.16 102.428 268.335 103.249 269.011C106.462 271.733 107.533 272 109.39 272.925C112.388 274.438 115.762 275.132 119.1 274.811H119.189C119.243 275.31 119.279 275.861 119.243 276.484Z" fill="#2D2C29"/>
<path d="M119.243 276.484C119.243 276.68 119.225 276.875 119.189 277.053C119.136 277.516 118.957 278.388 118.511 279.349C113.495 281.573 104.802 280.327 99.9469 275.559C98.3939 274.029 97.787 272.979 97.0908 271.449V271.431C97.1801 270.666 97.3229 269.99 97.5014 269.385C97.6085 269.029 97.7334 268.709 97.8584 268.424C101.946 277.516 112.906 279.171 119.243 276.484Z" fill="#64625B"/>
<path d="M135.522 199.245C134.326 200.277 132.755 198.8 133.398 197.27C134.505 194.672 136.54 191.825 140.306 190.295C144.162 188.729 147.535 189.832 149.963 191.362C151.284 192.199 150.695 194.476 149.178 194.405C146.732 194.298 143.698 194.53 140.895 195.739C138.896 196.594 137.022 197.946 135.522 199.245Z" fill="#823F1E"/>
<path d="M231.77 208.07C232.734 209.298 234.573 208.159 234.234 206.54C233.645 203.782 232.199 200.579 228.807 198.373C225.326 196.095 221.81 196.522 219.132 197.572C217.687 198.142 217.812 200.472 219.311 200.704C221.721 201.077 224.666 201.878 227.183 203.604C228.986 204.832 230.557 206.522 231.77 208.07Z" fill="#823F1E"/>
<path d="M107.337 218.248C107.355 217.963 107.176 217.696 106.891 217.625C105.588 217.287 101.928 216.717 99.7327 220.009C97.1087 223.959 99.8576 228.763 103.553 229.813C105.034 230.24 107.248 229.831 108.372 229.564C108.551 229.528 108.693 229.404 108.765 229.244C108.836 229.084 108.836 228.906 108.765 228.745C108.319 227.785 107.533 225.863 107.319 223.657C107.123 221.361 107.265 219.173 107.337 218.248Z" fill="#E59153"/>
<path d="M253.53 246.449C253.441 246.716 254.565 247.232 254.833 247.339C256.315 247.926 259.724 248.336 261.83 246.467C265.329 243.336 263.99 238.069 260.759 236.13C258.939 235.044 256.85 234.92 256.029 235.009C255.868 235.026 255.725 235.115 255.618 235.24C255.511 235.364 255.476 235.525 255.511 235.685C255.69 236.663 255.958 238.781 255.583 241.023C255.19 243.3 253.851 245.578 253.53 246.449Z" fill="#E59153"/>
<path d="M236.251 125.368C233.216 126.187 229.539 126.952 226.023 127.13C223.577 127.254 221.239 126.916 219.222 126.472C220.989 125.137 222.649 123.678 224.113 122.059C226.522 119.426 228.575 116.65 229.985 113.483C230.324 112.735 229.95 111.881 229.129 111.508C228.397 111.187 227.522 111.348 227.022 111.881C220.668 118.571 212.189 123.749 202.567 125.867C181.754 130.048 167.135 122.628 155.996 107.362C155.55 106.739 154.675 106.472 153.89 106.721H153.872C152.765 107.077 152.176 108.163 152.569 109.159C156.3 119.016 164.207 127.984 175.167 132.219C186.056 136.453 198.837 136.044 209.547 131.792C213.367 132.93 220.239 134.407 227.04 133.144C231.342 132.343 234.894 130.422 237.572 128.464C239.053 127.379 238.018 124.888 236.251 125.368Z" fill="#CCCAB6"/>
<path d="M194.213 49.0365C193.607 47.8978 194.053 46.4744 195.213 45.905C199.283 43.93 209.19 40.4959 223.006 44.4993C236.054 48.2714 242.23 58.0754 244.729 63.4666C245.176 64.4097 245.211 65.495 244.837 66.4736C244.462 67.4523 243.712 68.2351 242.748 68.6444C240.838 69.4807 238.625 68.7511 237.572 66.9541C235.126 62.7905 229.985 55.6021 221.846 51.7767C213.492 47.8444 201.014 49.4636 196.605 50.2109C195.641 50.3888 194.678 49.9084 194.213 49.0365Z" fill="white"/>
<path d="M259.938 73.8755C259.938 72.7012 260.92 71.7938 262.098 71.8827C266.275 72.203 275.825 74.0179 285.392 83.4304C294.407 92.3091 295.246 102.771 294.96 108.109C294.906 109.052 294.478 109.906 293.746 110.493C293.014 111.081 292.068 111.348 291.104 111.241C289.194 111.027 287.695 109.444 287.606 107.575C287.409 103.216 286.303 95.2805 281.305 88.5903C276.182 81.7044 265.293 77.3096 261.384 75.8861C260.545 75.5837 259.956 74.7652 259.938 73.8755Z" fill="white"/>
<path d="M111.406 80.8504C110.175 80.5835 109.407 79.338 109.729 78.1102C110.907 73.8221 114.744 64.2673 126.651 56.4918C137.878 49.1611 149.124 50.7803 154.747 52.346C155.728 52.6129 156.567 53.2891 157.049 54.1787C157.531 55.0684 157.621 56.1359 157.317 57.1146C156.692 59.0718 154.729 60.2639 152.73 59.908C148.071 59.0896 139.431 58.3601 131.327 61.9898C123.009 65.7263 116.155 76.0463 113.852 79.8006C113.316 80.6368 112.335 81.0639 111.406 80.8504Z" fill="white"/>
<path d="M110.978 302.551C108.444 313.476 102.214 324.098 89.6473 325.753C78.1161 327.265 75.0994 318.92 75.0994 318.92C75.0994 318.92 64.1394 325.61 57.6062 318.066C50.127 309.419 59.9803 300.487 59.9803 300.487C59.9803 300.487 52.3582 293.494 55.1072 279.295C56.3388 272.908 63.1754 264.474 69.8871 266.431C76.0097 268.21 72.9216 276.413 72.9216 276.413C72.9216 276.413 80.8471 275.007 82.4179 280.06C83.9709 285.131 80.2045 289.562 80.2045 289.562C80.2045 289.562 84.0245 291.661 90.2185 289.117C93.6993 287.694 96.2875 284.953 97.9119 282.8C99.1793 281.11 99.8397 279.793 99.8397 279.793C102.874 282.889 107.265 283.761 112.228 283.619C112.228 283.619 113.102 293.441 110.978 302.551Z" fill="#732204"/>
<path d="M103.874 282.48C102.446 289.242 98.9829 295.789 93.1102 299.793C84.31 305.237 72.9752 303.369 67.5309 294.241C66.2992 292.284 65.371 290.22 64.7998 287.978C64.6391 287.16 65.4602 286.893 65.9779 287.551C68.1378 291.163 70.9402 294.49 74.3318 296.43C81.1506 300.593 90.0578 297.853 95.1094 292.142C97.9297 289.206 100.107 285.416 102.482 281.786L103.874 282.48Z" fill="#823F1E"/>
<path d="M108.444 283.494C107.408 283.352 106.659 283.227 105.82 283.032C103.981 294.063 98.0727 306.109 86.6308 309.561C79.3657 312.266 70.5656 312.283 64.2466 307.657C63.8182 307.337 63.2113 307.408 62.8543 307.817C62.8543 307.817 62.8543 307.817 62.8365 307.835C62.5866 308.12 62.6044 308.565 62.8722 308.832C68.6556 314.668 77.8128 315.806 85.7561 313.76C97.1802 311.127 104.267 302.622 107.123 291.59C107.801 288.832 108.372 286.395 108.444 283.494Z" fill="#823F1E"/>
<path d="M114.602 350.307C102.571 362.299 92.289 378.882 92.289 378.882C92.289 378.882 94.9487 385.092 92.9316 386.605C90.0756 388.758 88.4691 382.423 88.4691 382.423C88.4691 382.423 86.3449 386.551 82.757 388.971C81.7039 389.683 80.5257 390.306 79.3476 390.75C78.4908 391.071 77.634 391.32 76.7593 391.462C76.0453 391.587 75.3135 391.64 74.6352 391.604C73.9569 391.587 73.2964 391.462 72.6717 391.249C71.8862 390.999 71.1901 390.608 70.5653 390.021C70.0655 389.558 69.6193 388.971 69.2623 388.259C69.2266 388.188 69.1909 388.135 69.173 388.064C65.3709 379.95 81.9002 372.032 81.9002 372.032C81.9002 372.032 86.4163 354.933 96.0911 339.062C101.643 329.952 117.154 315.646 117.154 315.646C122.42 323.938 126.401 328.261 133.559 333.67C133.576 333.67 126.633 338.332 114.602 350.307Z" fill="#F9C38F"/>
<path d="M77.8659 378.954C78.0265 379.114 78.0979 379.345 78.0979 379.576C78.0801 379.808 77.9908 380.021 77.8302 380.164C76.8663 381.035 75.706 382.174 74.7064 383.366C73.2605 385.11 71.7432 388.864 71.2077 390.27C70.7079 389.807 70.2617 389.22 69.9047 388.508C69.869 388.437 69.8333 388.384 69.8154 388.313C70.1546 387.156 71.1185 384.345 73.0463 381.925C74.1352 380.555 75.3847 379.505 76.42 378.793C76.8663 378.491 77.4732 378.544 77.8302 378.936L77.8659 378.954Z" fill="#BA763D"/>
<path d="M109.157 382.156C109.157 382.156 128.703 424.788 179.308 424.788C229.914 424.788 244.533 384.203 244.533 384.203C244.533 384.203 234.912 368.1 231.11 359.915C225.273 347.3 223.273 339.258 223.273 339.258C223.273 339.258 217.133 333.955 213.277 328.012C210.243 323.351 208.726 320.023 208.726 320.023C208.726 320.023 196.695 323.013 179.755 321.945C163.922 320.949 152.979 317.105 152.979 317.105C152.979 317.105 147.464 326.927 144.643 330.041C141.823 333.155 138.396 336.375 138.396 336.375L136.04 335.468C136.04 335.468 128.614 351.303 123.205 360.253C117.797 369.203 109.157 382.156 109.157 382.156Z" fill="#FDFBE8"/>
<path d="M161.351 288.886C161.351 288.886 163.351 294.063 163.351 302.497C163.351 310.931 160.405 319.347 160.405 319.347L152.944 317.087C152.944 317.087 156.228 309.739 156.657 302.622C157.085 295.505 154.8 289.491 154.8 289.491C157.353 288.975 159.245 288.85 161.351 288.886Z" fill="#394550"/>
<path d="M199.908 291.466C199.908 291.466 197.909 296.643 197.909 305.077C197.909 313.511 200.961 321.82 200.961 321.82C203.764 321.749 205.959 321.216 209.047 320.628C209.047 320.628 205.031 312.319 204.603 305.202C204.174 298.085 206.459 292.071 206.459 292.071L199.908 291.466Z" fill="#394550"/>
<path d="M167.796 343.509C168.43 340.832 166.767 338.148 164.08 337.516C161.394 336.884 158.702 338.542 158.067 341.22C157.433 343.897 159.097 346.581 161.783 347.213C164.469 347.845 167.161 346.187 167.796 343.509Z" fill="#FECFA8"/>
<path d="M165.125 370.153C167.389 368.577 167.942 365.471 166.361 363.215C164.781 360.959 161.665 360.408 159.402 361.983C157.138 363.559 156.585 366.665 158.166 368.921C159.746 371.177 162.862 371.728 165.125 370.153Z" fill="#FECFA8"/>
<path d="M201.027 344.538C202.255 342.074 201.247 339.084 198.775 337.86C196.302 336.636 193.303 337.641 192.075 340.105C190.847 342.57 191.855 345.56 194.327 346.784C196.799 348.008 199.799 347.003 201.027 344.538Z" fill="#FECFA8"/>
<path d="M198.728 370.533C201.209 369.327 202.24 366.345 201.031 363.872C199.821 361.399 196.829 360.371 194.348 361.576C191.867 362.782 190.836 365.764 192.045 368.237C193.254 370.711 196.246 371.738 198.728 370.533Z" fill="#FECFA8"/>
<path d="M288.516 353.332C284.143 354.773 280.894 353.225 280.894 353.225C280.894 353.225 270.148 357.869 258.188 356.837C240.088 355.271 225.255 338.279 225.255 338.279C231.949 334.4 236.215 329.987 240.945 323.778C240.945 323.778 251.191 335.521 262.205 339.311C267.149 341.019 273.343 340.983 278.091 340.717C278.091 340.717 282.465 336.998 285.017 339.044C284.393 340.628 284.071 342.496 284.16 344.471C284.339 348.439 286.106 351.784 288.516 353.332Z" fill="#F9C38F"/>
<path d="M225.255 338.279C225.255 338.279 230.271 335.539 234.358 331.464C238.446 327.39 240.945 323.778 240.945 323.778L244.087 326.856C244.087 326.856 242.07 331.215 236.447 336.286C232.681 339.685 228.521 341.517 228.521 341.517L225.255 338.279Z" fill="#FFB378"/>
<path d="M113.727 318.92C113.727 318.92 116.904 324.347 120.582 328.475C124.259 332.603 129.667 336.624 129.667 336.624L133.576 333.67C133.576 333.67 128.918 330.681 124.437 325.486C119.814 320.112 117.172 315.646 117.172 315.646L113.727 318.92Z" fill="#FFB378"/>
<path d="M282.34 344.595C282.215 344.578 282.09 344.631 282.001 344.738C281.911 344.845 281.876 345.005 281.894 345.165C281.947 345.663 281.929 346.41 281.519 347.318C281.305 347.78 281.037 348.172 280.751 348.474C280.608 348.634 280.573 348.884 280.644 349.097C280.716 349.293 280.894 349.4 281.09 349.364C281.715 349.204 282.447 348.812 282.982 347.958C283.554 347.051 283.786 346.197 283.875 345.61C283.929 345.218 283.732 344.862 283.429 344.791L282.34 344.595Z" fill="black"/>
<path d="M295.549 318.742C294.924 318.226 294.192 317.835 293.371 317.639C292.979 317.532 292.568 317.497 292.157 317.497C291.765 317.497 291.39 317.55 291.015 317.639C289.087 318.084 287.445 319.668 286.874 321.874L274.325 369.773C273.45 373.1 275.307 376.516 278.395 377.281L281.18 377.957C284.161 378.705 287.124 376.658 287.784 373.385L297.548 324.792C298.03 322.443 297.173 320.13 295.549 318.742Z" fill="#883B13"/>
<path d="M329.357 269.758C329.25 269.207 329.072 268.691 328.84 268.192C326.894 264.047 321.896 261.627 317.844 260.043C312.31 257.873 306.116 256.04 300.226 255.328C296.442 254.866 291.443 254.705 288.534 257.623C283.732 262.41 276.36 289.508 277.556 295.22C278.752 300.914 292.586 309.935 292.586 309.935L290.872 317.515L291.051 317.639C291.426 317.55 291.818 317.497 292.193 317.497C292.586 317.497 292.996 317.55 293.407 317.639C294.21 317.835 294.96 318.244 295.585 318.742H295.728L298.03 310.7C300.815 310.682 313.953 310.824 317.701 307.141C321.825 303.031 330.714 276.413 329.357 269.758ZM284.946 290.967L284.446 290.807C283.107 290.38 282.358 288.921 282.804 287.587L291.265 261.556C291.693 260.221 293.157 259.474 294.496 259.919L294.996 260.079C296.334 260.506 297.084 261.965 296.656 263.299L288.195 289.33C287.748 290.665 286.285 291.412 284.946 290.967ZM297.245 292.266C296.816 293.601 295.353 294.348 294.014 293.903L293.514 293.743C292.175 293.316 291.426 291.857 291.854 290.523L300.315 264.492C300.743 263.157 302.207 262.41 303.546 262.837L304.046 262.997C305.384 263.424 306.134 264.883 305.706 266.217L297.245 292.266ZM303.242 296.892L302.743 296.732C301.404 296.305 300.654 294.846 301.1 293.512L309.561 267.481C309.99 266.146 311.454 265.399 312.792 265.826L313.292 265.986C314.631 266.413 315.381 267.872 314.952 269.207L306.491 295.238C306.045 296.59 304.599 297.32 303.242 296.892ZM324.109 272.16L315.648 298.191C315.22 299.526 313.756 300.273 312.417 299.846L311.918 299.686C310.579 299.259 309.829 297.8 310.275 296.465L318.736 270.434C319.165 269.1 320.629 268.353 321.967 268.797L322.467 268.958C323.806 269.385 324.538 270.826 324.109 272.16Z" fill="#2D2C29"/>
<path d="M271.398 184.815L271.166 182.608C270.666 177.715 268.399 172.449 264.972 168.16C249.603 148.908 234.859 141.151 217.455 135.439C215.134 134.674 212.742 133.962 210.386 133.322C195.481 138.606 180.219 136.952 166.153 128.553C152.141 129.425 139.342 132.628 128.061 138.108C122.081 141.008 117.387 144.62 114.12 148.837C112.388 151.061 110.943 153.499 109.836 156.097L109.122 157.769L107.319 157.538C107.051 157.502 79.919 153.748 76.938 128.322C74.4211 106.793 88.2907 96.5616 97.4122 93.5546C97.2872 86.3307 98.626 61.5451 121.867 48.8409C145.322 36.0122 167.028 47.3463 173.561 51.4387C177.97 46.2431 192.197 32.6315 218.347 36.7417C243.998 40.7807 251.513 58.3957 253.458 65.0681C260.438 63.5379 280.377 60.8156 293.479 75.9396C309.383 94.3197 301.94 113.234 298.905 119.23C300.762 120.813 303.796 123.785 306.402 128.162C310.097 134.372 313.649 144.709 309.508 158.695C302.065 183.783 273.915 184.743 273.629 184.743L271.398 184.815ZM210.154 128.286L210.886 128.482C213.581 129.194 216.294 130.012 218.954 130.884C234.716 136.062 251.656 143.82 268.72 165.171C272.183 169.513 274.611 174.726 275.593 179.797C281.751 179.103 299.476 175.545 304.885 157.342C311.846 133.838 294.639 121.952 294.46 121.845C293.372 121.116 293.068 119.639 293.8 118.554C294.335 117.753 306.581 98.4121 289.837 79.0889C276.164 63.2888 252.62 70.2102 252.387 70.2814C251.709 70.4771 250.995 70.3882 250.388 70.0145C249.799 69.6409 249.389 69.0181 249.299 68.3242C249.157 67.4167 245.64 45.8873 217.58 41.4746C189.287 37.0264 176.613 55.2464 176.096 56.0114C175.721 56.563 175.15 56.9367 174.489 57.0434C173.829 57.1502 173.168 56.9901 172.633 56.5808C171.687 55.8691 149.338 39.2683 124.187 53.04C99.7684 66.4025 102.196 93.9282 102.303 95.1026C102.428 96.2947 101.643 97.3979 100.465 97.6648C99.5899 97.8783 78.848 103.163 81.7218 127.77C83.8639 146.044 100.732 151.239 106.23 152.449C107.373 150.118 108.747 147.912 110.336 145.884C114.066 141.097 119.314 137.023 125.972 133.802C138.021 127.948 151.712 124.55 166.653 123.714L167.403 123.678L168.045 124.07C181.219 132.148 195.535 133.696 209.458 128.553L210.154 128.286Z" fill="#CCCAB6"/>
<path d="M271.951 203.266C271.773 203.675 271.202 203.711 270.987 203.319L269.077 199.956C268.346 198.8 249.496 169.246 214.974 155.261C214.509 155.065 214.045 154.887 213.599 154.709L213.367 154.62C211.814 154.033 210.618 153.606 209.476 153.214C207.191 152.432 204.87 151.738 202.514 151.15C197.088 149.745 191.501 148.837 185.878 148.428C185.253 148.375 184.61 148.339 184.003 148.321L183.432 148.286C136.843 145.706 106.391 168.178 106.087 168.392L102.517 171.079C102.143 171.363 101.589 171.043 101.661 170.58L102.267 166.15C102.535 164.21 103.035 161.844 103.695 159.335C104.16 157.574 104.749 155.848 105.445 154.229C106.712 151.239 108.372 148.446 110.354 145.901C114.084 141.115 119.332 137.041 125.99 133.82C138.789 127.593 153.39 124.158 169.384 123.607L170.098 123.589L170.723 123.963C181.165 130.35 192.661 131.525 205.888 127.575L206.513 127.397L207.137 127.557C211.225 128.536 215.223 129.674 219.008 130.92C234.769 136.098 251.709 143.855 268.774 165.207C272.772 170.207 275.396 176.381 275.986 182.146C276.61 188.124 275.718 194.209 273.451 199.761L271.951 203.266ZM175.775 143.268C178.363 143.268 181.005 143.339 183.718 143.482L184.253 143.517C184.842 143.535 185.539 143.588 186.217 143.642C192.125 144.069 198.016 145.047 203.692 146.506C206.156 147.129 208.619 147.859 210.993 148.677C212.171 149.069 213.456 149.531 215.027 150.136L215.331 150.261C215.83 150.456 216.312 150.652 216.794 150.848C244.498 162.075 262.526 182.982 269.684 192.537C269.952 192.91 270.541 192.768 270.648 192.323C271.309 189.138 271.487 185.847 271.148 182.608C270.648 177.715 268.381 172.449 264.954 168.16C249.585 148.908 234.841 141.151 217.437 135.439C214.01 134.318 210.404 133.286 206.709 132.379C206.62 132.361 206.53 132.361 206.441 132.379C192.661 136.311 180.041 135.012 168.92 128.5C168.831 128.447 168.724 128.429 168.634 128.429C153.658 129.052 140.003 132.308 128.043 138.126C122.063 141.026 117.369 144.638 114.102 148.855C112.371 151.079 110.925 153.517 109.818 156.115C109.211 157.52 108.694 159.033 108.283 160.581C108.212 160.83 108.158 161.079 108.087 161.31C118.011 155.296 142.073 143.268 175.775 143.268Z" fill="#CCCAB6"/>
<path d="M278.199 340.663C278.449 338.831 279.52 337.158 281.037 336.144C281.787 335.646 282.644 335.308 283.518 335.201C284.518 335.076 285.482 335.432 286.481 335.29C288.088 335.058 289.302 335.361 288.927 337.478C288.463 340.112 284.429 340.503 284.429 340.503C284.429 340.503 284.357 345.147 281.108 345.343C279.002 345.467 278.127 343.475 278.145 341.553C278.145 341.25 278.163 340.948 278.199 340.663Z" fill="#F9C38F"/>
<path d="M179.237 305.629C168.42 305.629 163.975 296.056 163.511 291.483L167.831 292.195C167.867 292.604 169.027 302.337 179.755 302.035C189.144 301.75 191.661 293.298 191.679 293.209L195.731 293.138C194.642 296.964 189.465 305.344 179.862 305.629C179.648 305.629 179.434 305.629 179.237 305.629Z" fill="#BD314D"/>
<path d="M183.2 248.211C186.345 248.211 188.894 246.1 188.894 243.496C188.894 240.892 186.345 238.781 183.2 238.781C180.055 238.781 177.506 240.892 177.506 243.496C177.506 246.1 180.055 248.211 183.2 248.211Z" fill="#F2A96D"/>
<path d="M181.701 238.14C184.271 237.713 187.966 238.105 189.537 240.791C191.304 243.834 189.483 248.069 185.895 248.442C183.914 248.745 182.147 248.371 180.469 247.677C179.862 247.339 180.076 246.521 180.79 246.467C182.914 246.45 185.396 246.627 186.877 245.186C187.913 243.87 187.68 241.663 186.02 240.809C184.824 240.097 183.307 239.706 181.611 239.386C180.665 239.386 180.719 238.158 181.701 238.14Z" fill="#A35F2F"/>
<path d="M159.923 211.291C155.086 200.65 144.965 200.935 139.574 207.714C138.842 207.679 137.807 207.572 136.807 207.252C135.754 206.914 135.005 206.237 134.558 205.739C134.416 205.579 134.237 205.49 134.023 205.472C133.826 205.455 133.612 205.526 133.469 205.668C133.148 205.971 133.095 206.451 133.327 206.825C133.737 207.43 134.451 208.319 135.415 208.817C136.325 209.298 137.414 209.618 138.182 209.814C137.986 210.17 137.807 210.543 137.629 210.917C136.915 211.077 135.897 211.237 134.88 211.202C133.773 211.166 132.863 210.703 132.309 210.33C132.131 210.223 131.934 210.17 131.72 210.223C131.524 210.259 131.345 210.383 131.238 210.561C131.006 210.935 131.078 211.415 131.417 211.718C131.97 212.198 132.898 212.856 133.951 213.088C134.897 213.301 135.968 213.337 136.754 213.319C136.468 214.333 136.236 215.419 136.129 216.575C135.951 217.5 137.2 217.66 137.343 216.842C140.949 205.294 150.963 201.273 158.852 211.913C159.352 212.589 160.298 212.18 159.923 211.291Z" fill="#391C10"/>
<path d="M183.736 244.546C184.722 244.546 185.521 243.749 185.521 242.766C185.521 241.784 184.722 240.987 183.736 240.987C182.75 240.987 181.951 241.784 181.951 242.766C181.951 243.749 182.75 244.546 183.736 244.546Z" fill="#F9C38F"/>
<path d="M271.523 234.955C269.952 231.717 267.006 229.226 263.472 228.14C261.437 227.518 257.831 227.34 255.868 227.785L255.832 228.354C255.743 229.404 256.564 230.293 257.617 230.329C259.027 230.365 260.937 230.507 262.58 231.005C265.329 231.841 267.595 233.763 268.809 236.254C270.148 239.012 270.148 242.321 268.791 245.791C265.346 254.616 252.244 252.179 252.119 252.161C251.477 252.036 250.834 252.339 250.513 252.908C250.459 252.997 245.622 261.734 238.571 267.819C234.055 271.715 232.93 272.338 224.077 277.231L222.363 278.174C214.045 282.765 204.138 284.366 196.462 285.238C187.18 286.288 177.631 286.003 168.063 284.366C164.903 283.832 161.762 283.121 158.709 282.267C146.107 278.69 135.183 272.392 127.115 264.011C126.722 263.62 126.329 263.21 125.919 262.748C125.776 262.588 125.633 262.445 125.437 262.214C124.955 261.698 124.491 261.129 124.044 260.595C122.866 259.136 121.777 257.659 120.813 256.2C119.742 254.563 118.939 253.264 118.207 252.001C118.189 251.965 118.172 251.912 118.154 251.894L118.047 251.681C114.673 246.218 112.085 236.734 111.87 235.756C111.853 235.631 111.817 235.418 111.746 234.955C111.674 234.546 111.424 234.172 111.067 233.959C110.71 233.727 110.282 233.674 109.871 233.781C109.836 233.781 106.926 234.582 102.874 233.977C98.9469 233.389 94.7343 230.436 94.1809 225.116C93.4491 218.248 97.626 215.027 99.4467 213.959C102.249 212.323 105.159 212.429 106.801 212.678C107.908 212.856 108.997 212.091 109.032 210.97C109.05 210.597 108.747 210.294 108.372 210.241C106.212 209.92 102.892 208.924 97.9295 211.38C95.5197 212.572 90.2896 216.842 91.1999 225.436C91.9318 232.304 97.5368 236.201 102.446 236.93C105.284 237.357 107.658 237.179 109.122 236.966C109.853 239.884 112.388 248.14 115.458 253.157L115.583 253.406C116.351 254.741 117.208 256.129 118.332 257.855C119.35 259.403 120.51 260.968 121.759 262.516C122.241 263.104 122.759 263.691 123.205 264.189C123.402 264.42 123.562 264.598 123.723 264.776C124.134 265.257 124.58 265.719 124.99 266.128C133.416 274.865 144.804 281.466 157.906 285.185C161.066 286.074 164.314 286.822 167.581 287.355C173.561 288.37 179.558 288.886 185.485 288.886C189.305 288.886 193.089 288.672 196.837 288.245C204.799 287.338 215.08 285.683 223.863 280.825L225.558 279.882C234.448 274.972 235.804 274.224 240.552 270.114C246.693 264.794 251.138 257.801 252.619 255.31C254.065 255.488 256.76 255.72 259.724 255.31C265.65 254.51 269.755 251.609 271.594 246.93C273.7 241.485 272.719 237.411 271.523 234.955Z" fill="#BA763D"/>
<path d="M196.766 292.551C194.142 294.099 189.037 296.092 180.255 295.754C171.347 295.398 165.6 292.8 162.583 290.914C162.404 290.79 162.083 290.629 161.833 290.38C161.53 290.113 161.316 289.704 161.458 289.188C161.458 289.135 161.476 289.099 161.476 289.064C161.494 288.993 161.53 288.939 161.565 288.886C161.726 288.583 162.012 288.388 162.244 288.174V288.156C162.458 287.978 162.636 287.765 162.672 287.445C162.726 287 162.761 286.804 162.726 286.377C162.726 286.377 165.207 286.893 167.563 287.32C170.83 287.889 172.686 288.138 178.541 288.601C186.342 289.242 192.839 288.619 196.82 288.21C196.82 288.21 196.355 288.459 196.427 289.793C196.427 289.953 196.445 290.149 196.463 290.38C196.516 291.092 196.605 292.088 196.766 292.551Z" fill="#BD314D"/>
<path d="M192.554 291.199C182.986 293.53 171.883 294.028 163.208 288.761C162.887 288.565 162.565 288.37 162.244 288.156V288.138C162.458 287.96 162.637 287.747 162.673 287.427C162.726 286.982 162.744 286.786 162.726 286.341L163.083 286.412C165.761 287.427 168.795 288.672 171.58 289.277C178.577 290.772 185.235 290.291 192.322 289.971C193.286 289.9 193.536 290.985 192.554 291.199Z" fill="#7F1C34"/>
<path d="M196.231 288.067C196.231 288.067 199.658 281.324 206.102 278.459C211.564 276.021 218.847 279.651 220.935 280.825C221.292 281.021 221.453 281.413 221.31 281.751C220.668 283.405 218.311 288.121 211.689 290.149C206.263 291.804 195.856 289.633 195.856 289.633L196.231 288.067Z" fill="#BD314D"/>
<path d="M214.295 282.783C214.17 282.267 213.688 281.929 213.171 282C211.475 282.213 209.208 282.64 206.423 283.494C199.908 285.505 196.07 288.726 196.07 288.726L195.695 289.669L197.034 289.935C197.034 289.935 202.264 287.871 205.888 286.501C208.101 285.665 211.261 284.722 213.617 284.064C214.152 283.921 214.474 283.37 214.349 282.836C214.313 282.818 214.295 282.8 214.295 282.783Z" fill="#7F1C34"/>
<path d="M134.683 334.4C133.577 333.671 132.345 332.817 132.345 332.817C129.239 335.236 121.224 341.606 113.549 349.257C103.499 359.275 94.9667 373.011 92.4498 377.246C91.9857 378.029 91.8607 378.989 92.1285 379.861C92.6818 381.658 93.4672 384.701 92.6461 385.519C92.1463 386.018 91.3966 385.964 91.3966 385.964C89.7366 385.822 89.0047 383.028 89.0047 383.028C88.9869 382.993 88.9869 382.939 88.969 382.904C88.8798 382.601 88.6298 382.388 88.3442 382.352C88.0586 382.317 87.7373 382.441 87.5767 382.708C87.5588 382.744 85.1669 385.59 81.936 387.779C80.9721 388.437 79.9011 388.989 78.8301 389.398C78.009 389.718 77.2593 389.914 76.5096 390.039C75.9027 390.146 75.2958 390.199 74.7067 390.163C74.1712 390.146 73.6535 390.057 73.1537 389.879C72.5468 389.683 72.047 389.398 71.6186 388.989C71.2616 388.651 70.9403 388.242 70.6547 387.708L70.5655 387.494C67.4774 380.911 82.4358 373.527 82.5965 373.456C82.9892 373.26 83.2926 372.904 83.3997 372.495C83.4533 372.335 87.9872 355.414 97.4121 339.916C101.714 332.834 113.692 320.7 117.833 316.732C117.279 315.824 117.065 315.486 116.512 314.543C112.906 317.942 99.6791 330.45 94.8596 338.35C86.2558 352.478 81.6326 367.744 80.6865 371.071C77.527 372.691 64.0144 380.235 67.7987 388.651C67.8522 388.811 67.9058 388.936 67.9593 389.007C68.3877 389.843 68.9411 390.59 69.5837 391.178C70.3334 391.889 71.2259 392.405 72.2255 392.725C72.9931 392.992 73.7963 393.135 74.6174 393.17C74.7959 393.188 74.9745 393.188 75.153 393.188C75.7956 393.188 76.4382 393.135 77.0451 393.01C77.9554 392.868 78.9015 392.619 79.919 392.227C81.1863 391.747 82.4894 391.089 83.6496 390.288C85.5953 388.971 87.1304 387.227 88.1836 385.804C88.7905 386.943 89.6473 388.046 90.8076 388.455C91.825 388.811 92.9139 388.598 93.8778 387.868C96.3054 386.035 94.8774 381.338 94.0028 379.096C96.0198 375.947 105.266 361.837 115.709 351.428C124.134 342.923 131.988 336.429 134.683 334.4Z" fill="#BA763D"/>
<path d="M261.705 340.717C266.9 342.496 273.219 342.46 277.699 342.229C277.735 341.055 277.895 339.88 278.199 338.759C277.931 338.937 277.699 339.115 277.521 339.258C273.308 339.471 267.382 339.507 262.687 337.905C254.512 335.094 244.926 325.877 241.784 322.639C241.784 322.639 240.624 324.08 240.071 324.97C243.748 328.653 253.423 337.852 261.705 340.717Z" fill="#BA763D"/>
<path d="M278.413 354.168L278.913 352.371C275.593 353.545 267.168 356.09 258.296 355.325C245.426 354.221 231.092 342.549 226.094 337.763C225.077 338.243 223.756 339.008 223.756 339.008C228.343 343.635 243.105 357.015 258.046 358.314C259.296 358.421 260.545 358.474 261.759 358.474C268.56 358.474 274.415 356.997 277.967 355.858C277.967 355.876 278.235 354.844 278.413 354.168Z" fill="#BA763D"/>
<path opacity="0.53" d="M124.027 96.8996C126.255 96.8996 128.061 95.0992 128.061 92.8784C128.061 90.6575 126.255 88.8572 124.027 88.8572C121.799 88.8572 119.993 90.6575 119.993 92.8784C119.993 95.0992 121.799 96.8996 124.027 96.8996Z" fill="#E5E3D3"/>
<path opacity="0.53" d="M131.483 101.813C131.766 100.617 131.024 99.4192 129.824 99.1369C128.625 98.8546 127.423 99.5949 127.14 100.79C126.857 101.986 127.6 103.184 128.799 103.466C129.998 103.748 131.2 103.008 131.483 101.813Z" fill="#E5E3D3"/>
<path opacity="0.53" d="M141.324 94.5538C141.76 91.8766 139.936 89.3541 137.25 88.9196C134.564 88.4851 132.034 90.3032 131.598 92.9804C131.162 95.6576 132.986 98.1801 135.672 98.6146C138.358 99.0491 140.888 97.231 141.324 94.5538Z" fill="#E5E3D3"/>
<path d="M245.818 383.42C245.729 383.26 236.197 367.299 232.466 359.257C226.772 346.926 224.737 338.937 224.719 338.866L224.612 338.404L224.255 338.101C224.202 338.048 218.24 332.87 214.527 327.176C211.599 322.675 210.1 319.418 210.082 319.383L209.565 318.244L208.351 318.547C208.226 318.582 196.32 321.465 179.826 320.433C164.404 319.454 153.551 315.718 153.444 315.682L152.248 315.255L151.623 316.358C151.605 316.411 148.481 314.276 146.982 316.785C149.088 317.532 153.64 318.902 153.64 318.902C156.924 319.917 166.581 322.603 179.63 323.422C193.767 324.312 207.976 321.5 211.457 320.788C212.153 322.159 214.902 323.422 216.972 326.589C220.417 331.891 219.132 334.863 220.525 336.108C221.042 337.994 224.612 349.471 229.735 360.538C233.127 367.886 240.999 381.231 242.855 384.345C241.873 386.694 238 395.181 229.717 403.561C220.828 412.565 204.852 423.312 179.291 423.312C133.898 423.312 113.745 387.85 110.871 382.281C112.763 379.434 119.814 368.705 124.455 361.036C128.953 353.581 136.129 338.581 138.021 334.631L135.236 333.564L134.647 334.827C134.576 334.987 127.204 350.698 121.884 359.488C116.547 368.313 107.961 381.213 107.89 381.356L107.426 382.05L107.765 382.815C107.961 383.242 128.293 426.319 179.291 426.319C230.36 426.319 245.765 385.163 245.925 384.736L246.157 384.078L245.818 383.42Z" fill="#394550"/>
<path d="M154.265 313.956C151.016 322.675 145.411 329.418 141.806 333.137C139.789 335.219 138.378 336.357 138.378 336.357C138.378 336.357 131.47 333.688 124.42 325.486C113.602 312.924 113.263 306.305 113.263 306.305C113.263 306.305 114.531 305.309 116.69 303.814C120.189 301.376 126.062 297.64 132.702 294.74C144.769 289.491 154.693 289.473 154.801 289.473C154.801 289.491 159.335 300.344 154.265 313.956Z" fill="#4F5D69"/>
<path d="M141.806 333.119C139.789 335.201 138.378 336.339 138.378 336.339C138.378 336.339 131.47 333.671 124.42 325.468C113.602 312.906 113.263 306.287 113.263 306.287C113.263 306.287 114.531 305.291 116.69 303.796C116.833 304.063 120.867 312.764 126.544 319.614C134.023 328.671 141.806 333.119 141.806 333.119Z" fill="#394550"/>
<path d="M244.962 306.714C241.463 304.277 235.59 300.54 228.95 297.64C216.883 292.391 206.959 292.373 206.851 292.373C206.851 292.373 206.851 292.391 206.834 292.409C206.566 293.103 202.496 303.689 207.387 316.838C207.78 317.924 208.244 318.974 208.708 320.006C211.992 327.194 216.687 332.781 219.846 336.019C221.863 338.101 223.274 339.24 223.274 339.24C223.274 339.24 230.182 336.571 237.232 328.368C244.319 320.13 246.907 314.454 247.853 311.518C248.282 310.184 247.8 308.725 246.657 307.906C246.175 307.568 245.604 307.159 244.962 306.714Z" fill="#4F5D69"/>
<path d="M219.847 336.001C221.864 338.083 223.274 339.222 223.274 339.222C223.274 339.222 230.182 336.553 237.233 328.35C244.319 320.112 246.908 314.436 247.854 311.501C248.282 310.166 247.8 308.707 246.658 307.889C246.176 307.55 245.605 307.141 244.962 306.696C244.819 306.963 240.785 315.664 235.109 322.514C227.629 331.553 219.847 336.001 219.847 336.001Z" fill="#394550"/>
<path opacity="0.17" d="M110.978 302.551C108.443 313.476 102.214 324.098 89.6472 325.753C78.116 327.265 75.0993 318.92 75.0993 318.92C75.0993 318.92 64.1393 325.61 57.6062 318.066C50.1269 309.419 59.9802 300.487 59.9802 300.487C59.9802 300.487 67.8343 313.796 87.8444 306.696C101.125 301.999 105.409 287.854 105.409 287.854C102.285 286.946 99.3577 285.363 97.9119 282.8C99.1792 281.11 99.8397 279.793 99.8397 279.793C102.874 282.889 107.265 283.761 112.228 283.619C112.228 283.619 113.102 293.441 110.978 302.551Z" fill="#010202"/>
<path d="M280.502 346.339L278.824 352.762C278.824 352.762 280.555 356.054 283.893 358.189C286.589 359.933 290.551 359.613 290.587 359.595L292.015 351.802L285.625 345.165L280.502 346.339Z" fill="#672A11"/>
<path d="M297.959 344.453C297.959 344.791 297.941 345.129 297.887 345.485C297.852 345.841 297.798 346.197 297.727 346.553C297.548 347.514 297.263 348.421 296.888 349.239C296.888 349.239 296.888 349.239 296.87 349.239C296.584 349.916 296.227 350.538 295.817 351.108C294.3 353.207 292.193 354.435 289.998 354.168C288.909 354.044 287.927 353.599 287.088 352.869C286.267 352.157 285.607 351.232 285.089 350.111C284.785 349.4 284.536 348.634 284.375 347.816C284.196 346.962 284.125 346.054 284.143 345.129C284.161 344.738 284.179 344.346 284.214 343.937C284.25 343.599 284.303 343.279 284.375 342.959C284.643 341.482 285.16 340.129 285.839 338.991C287.356 336.464 289.676 334.952 292.104 335.219C295.62 335.628 298.102 339.649 297.959 344.453Z" fill="#F9C38F"/>
<path d="M285.785 338.706C285.785 338.706 288.517 338.368 291.194 338.581C294.871 338.866 296.781 339.863 296.781 339.863L297.192 340.841L297.549 342.247C297.549 342.247 293.764 341.019 290.462 340.788C287.16 340.556 284.518 341.055 284.518 341.055C284.786 340.859 285.785 338.706 285.785 338.706Z" fill="#BA763D"/>
<path d="M297.959 344.453C297.959 344.791 297.941 345.129 297.888 345.485C297.852 345.841 297.798 346.197 297.727 346.553L297.709 346.571C296.031 346.143 293.104 345.485 290.462 345.254C288.552 345.094 285.892 345.094 284.143 345.147C284.161 344.756 284.179 344.364 284.214 343.955C284.25 343.617 284.304 343.297 284.375 342.976C285.535 342.923 288.659 342.816 291.265 343.048C295.139 343.386 297.424 344.24 297.959 344.453Z" fill="#BA763D"/>
<path d="M296.853 348.937C296.567 349.613 296.21 350.236 295.799 350.805C293.907 350.414 291.319 349.987 289.659 349.844C288.481 349.755 286.607 349.773 285.071 349.809C284.768 349.097 284.518 348.332 284.357 347.514C285.964 347.478 288.606 347.46 290.48 347.638C293.836 347.941 295.996 348.617 296.853 348.937Z" fill="#BA763D"/>
<path d="M289.694 335.041C288.588 333.902 287.177 334.062 286.606 334.151C286.285 334.204 285.571 334.24 285.142 334.204C284.607 334.151 283.929 334.026 283.268 334.098C282.179 334.222 281.18 334.276 280.216 334.916C278.341 336.162 277.038 338.243 276.735 340.485C276.681 340.841 276.664 341.197 276.664 341.553C276.664 341.855 276.681 341.998 276.717 342.3C276.771 342.3 276.985 342.282 277.038 342.282C277.146 342.282 277.288 342.282 277.431 342.282C278.234 342.282 278.948 341.749 279.145 340.966C279.198 340.752 279.27 340.521 279.323 340.29C279.323 340.272 279.323 340.272 279.323 340.254C279.555 339.258 279.984 338.297 280.751 337.603C281.572 336.855 282.643 336.357 283.768 336.304C284.714 336.268 285.678 336.624 286.588 336.482C286.999 336.428 287.82 336.322 287.945 336.339C288.677 336.517 288.623 337.674 288.552 337.905C288.123 339.507 286.16 339.809 284.964 339.702C284.607 339.667 284.268 339.934 284.25 340.307C284.25 340.396 284.232 340.467 284.232 340.485C284.143 341.144 284 341.784 283.732 342.389C283.429 343.119 282.947 343.83 282.197 344.186C282.054 344.257 281.537 344.453 281.108 344.595C280.787 344.702 280.555 344.951 280.466 345.272C280.43 345.378 280.394 345.503 280.376 345.61C280.305 345.877 280.359 346.143 280.519 346.357C280.68 346.57 280.93 346.695 281.215 346.713C281.251 346.713 281.269 346.713 281.305 346.713C284.339 346.713 285.464 343.937 285.821 341.802C287.695 341.339 290.497 340.272 290.408 337.763C290.355 336.357 290.39 335.77 289.694 335.041Z" fill="#BA763D"/>
<path d="M292.265 333.724C290.426 333.51 288.623 334.08 287.053 335.308C287.302 335.396 287.517 335.557 287.659 335.788C287.713 335.806 287.784 335.824 287.838 335.841C287.909 335.877 287.981 335.93 288.052 335.966C288.516 336.215 288.695 336.731 288.606 337.211C288.659 337.443 288.641 337.674 288.606 337.887C289.498 337.087 290.516 336.66 291.515 336.66C291.64 336.66 291.783 336.66 291.908 336.678C294.585 336.98 296.567 340.361 296.442 344.382V344.435C296.442 344.702 296.424 344.987 296.37 345.307C296.335 345.61 296.281 345.93 296.228 346.25C296.12 346.82 295.96 347.371 295.781 347.905L295.478 348.634C295.246 349.168 294.942 349.702 294.603 350.218C293.354 351.962 291.747 352.851 290.158 352.673C289.391 352.584 288.695 352.282 288.07 351.73C287.427 351.179 286.874 350.414 286.463 349.506C286.196 348.901 285.982 348.225 285.839 347.513C285.696 346.82 285.625 346.019 285.625 345.183C285.642 344.809 285.66 344.453 285.696 344.097C285.732 343.83 285.767 343.563 285.839 343.225C285.964 342.496 286.196 341.802 286.463 341.144C286.249 341.25 286.017 341.339 285.767 341.393C285.41 341.482 285.053 341.517 284.678 341.553C284.571 342.087 284.5 342.62 284.357 343.136C284.232 343.528 284.072 343.937 283.84 344.275C283.697 344.471 283.536 344.684 283.358 344.827C283.126 345.022 282.911 345.147 282.644 345.254C282.644 346.286 282.733 347.247 282.911 348.118C283.108 349.044 283.375 349.916 283.732 350.716C284.339 352.033 285.125 353.136 286.106 353.972C287.178 354.915 288.463 355.485 289.819 355.645C290.087 355.68 290.337 355.698 290.605 355.698C293.015 355.698 295.317 354.364 297.049 351.962C297.334 351.552 297.584 351.143 297.816 350.734L298.245 349.844C298.673 348.901 298.994 347.869 299.191 346.837C299.28 346.446 299.333 346.037 299.369 345.681C299.423 345.272 299.458 344.862 299.458 344.471C299.619 338.831 296.531 334.222 292.265 333.724Z" fill="#BA763D"/>
<path d="M123.509 306.145C122.956 305.238 123.081 304.081 123.813 303.316C125.508 301.519 129.078 298.031 136.165 295.184C140.913 293.281 146.072 292.604 148.642 292.391C149.624 292.302 150.552 292.836 150.981 293.725L150.998 293.743C151.659 295.149 150.82 296.804 149.285 297.071C146.072 297.64 140.949 298.743 137.057 300.398C133.148 302.053 129.31 304.899 127.043 306.75C125.901 307.657 124.241 307.355 123.509 306.145Z" fill="#394550"/>
<path d="M218.436 298.814C218.757 297.942 219.614 297.373 220.525 297.426C222.685 297.533 227.004 297.925 232.806 301.003C236.697 303.049 239.964 306.091 241.516 307.657C242.106 308.262 242.248 309.17 241.873 309.953L241.856 309.97C241.267 311.198 239.678 311.572 238.643 310.718C236.501 308.921 232.948 306.145 229.7 304.526C226.433 302.889 222.399 301.946 219.9 301.483C218.704 301.252 218.008 299.988 218.436 298.814Z" fill="#394550"/>
<path opacity="0.25" d="M195.445 293.957C195.445 293.957 196.57 303.28 204.71 306.714C212.332 309.917 217.901 306.287 217.901 306.287L205.691 296.554L196.998 291.092L195.731 293.138L195.445 293.957Z" fill="#010202"/>
<path d="M211.475 292.142C206.352 289.277 200.336 289.669 198.444 289.882C198.409 290.22 198.373 290.558 198.302 290.878C198.141 291.501 197.802 292.088 197.355 292.551C198.908 295.54 202.121 301.163 205.406 303.565C210.975 307.657 216.187 306.732 217.901 306.269C218.258 306.18 218.472 305.807 218.419 305.415C218.115 303.049 216.687 295.06 211.475 292.142Z" fill="#BD314D"/>
<path d="M212.885 301.252C213.224 300.843 213.206 300.255 212.849 299.882C211.671 298.654 209.975 297.088 207.619 295.38C203.71 292.533 200.14 291.128 198.373 290.54C198.355 290.665 198.337 290.772 198.301 290.878C198.176 291.359 197.944 291.804 197.659 292.195C199.176 293.138 202.443 295.167 204.87 296.715C206.869 297.996 209.493 299.953 211.439 301.447C211.867 301.786 212.51 301.714 212.849 301.305C212.867 301.287 212.867 301.27 212.885 301.252Z" fill="#7F1C34"/>
<path d="M196.639 293.321C197.854 293.186 198.666 291.525 198.452 289.611C198.239 287.697 197.08 286.254 195.865 286.389C194.65 286.524 193.839 288.185 194.052 290.099C194.266 292.013 195.424 293.456 196.639 293.321Z" fill="#7F1C34"/>
<path d="M196.346 259.236C193.118 262.084 188.336 264.349 181.013 263.396C174.597 262.559 170.091 259.621 167.442 256.875L167.346 256.932C169.928 260.759 170.871 264.266 171.73 266.604C172.737 269.366 174.338 273.699 179.82 274.484C184.408 275.147 187.544 273.028 190.078 269.58C192.267 266.614 193.556 262.447 196.346 259.236Z" fill="#A40000"/>
<path d="M181.114 274.188C184.196 274.631 187.007 272.805 187.392 270.112C187.777 267.418 185.591 264.876 182.509 264.434C179.428 263.992 176.617 265.817 176.232 268.511C175.846 271.204 178.032 273.746 181.114 274.188Z" fill="#6A0000"/>
<path d="M173.368 264.408C171.192 262.73 169.605 260.562 169.008 258.447L168.852 257.872L169.32 258.236C171.553 259.97 175.381 262.196 180.888 262.918C185.624 263.539 189.786 262.864 193.273 260.918L193.959 260.534L193.533 261.199C192.668 262.547 191.421 264.262 189.427 265.532C187.345 266.863 184.852 267.483 181.795 267.427C181.199 267.411 180.632 267.362 180.082 267.286C177.105 266.868 174.832 265.537 173.368 264.408ZM192.782 261.639C189.375 263.347 185.364 263.917 180.849 263.32C175.643 262.632 171.914 260.637 169.59 258.932C171.039 262.846 175.923 266.922 181.819 267.042C187.89 267.164 190.82 264.472 192.782 261.639Z" fill="#7C7C7C"/>
<path d="M180.805 270.272C183.29 270.631 185.361 271.749 186.457 273.142C184.616 274.315 182.463 274.862 179.832 274.477C177.287 274.113 175.578 272.974 174.376 271.596C175.792 270.457 178.191 269.901 180.805 270.272Z" fill="#FDA4B8"/>
<path d="M182.943 270.798C184.456 271.34 185.691 272.177 186.447 273.139C184.606 274.313 182.454 274.86 179.822 274.475C178.613 274.304 177.601 273.958 176.729 273.496C182.121 275.01 184.329 272.781 182.943 270.798Z" fill="#E97983"/>
<path d="M179.794 274.671C177.476 274.333 175.652 273.368 174.214 271.717L174.079 271.562L174.233 271.438C175.737 270.23 178.26 269.705 180.815 270.071C183.261 270.42 185.428 271.522 186.591 273.013L186.723 273.178L186.541 273.295C184.556 274.595 182.346 275.046 179.794 274.671C179.803 274.673 179.803 274.673 179.794 274.671ZM180.776 270.468C178.418 270.13 176.088 270.572 174.654 271.625C176.002 273.11 177.706 273.985 179.858 274.291C182.226 274.63 184.3 274.236 186.163 273.098C185.031 271.768 183.036 270.791 180.776 270.468Z" fill="#BC4D5B"/>
</g>
</g>
</g>
<defs>
<clipPath id="clip0_342_12179">
<rect width="275" height="359" fill="white" transform="translate(54.5 35.9766)"/>
</clipPath>
<clipPath id="clip1_342_12179">
<rect width="275" height="500" fill="white" transform="translate(54.5 35.9766)"/>
</clipPath>
</defs>
</svg>
